  0
SECTION
  2
HEADER
  9
$ACADVER
  1
AC1014
  9
$HANDSEED
  5
FFFF
  9
$MEASUREMENT
 70
     1
  0
ENDSEC
  0
SECTION
  2
TABLES
  0
TABLE
  2
VPORT
  5
8
330
0
100
AcDbSymbolTable
 70
     4
  0
VPORT
  5
2E
330
8
100
AcDbSymbolTableRecord
100
AcDbViewportTableRecord
  2
*ACTIVE
 70
     0
 10
0.0
 20
0.0
 11
1.0
 21
1.0
 12
210.0
 22
148.5
 13
0.0
 23
0.0
 14
10.0
 24
10.0
 15
10.0
 25
10.0
 16
0.0
 26
0.0
 36
1.0
 17
0.0
 27
0.0
 37
0.0
 40
341.0
 41
1.24
 42
50.0
 43
0.0
 44
0.0
 50
0.0
 51
0.0
 71
     0
 72
   100
 73
     1
 74
     3
 75
     0
 76
     0
 77
     0
 78
     0
  0
ENDTAB
  0
TABLE
  2
LTYPE
  5
5
330
0
100
AcDbSymbolTable
 70
     1
  0
LTYPE
  5
14
330
5
100
AcDbSymbolTableRecord
100
AcDbLinetypeTableRecord
  2
BYBLOCK
 70
     0
  3

 72
    65
 73
     0
 40
0.0
  0
LTYPE
  5
15
330
5
100
AcDbSymbolTableRecord
100
AcDbLinetypeTableRecord
  2
BYLAYER
 70
     0
  3

 72
    65
 73
     0
 40
0.0
  0
LTYPE
  5
16
330
5
100
AcDbSymbolTableRecord
100
AcDbLinetypeTableRecord
  2
CONTINUOUS
 70
     0
  3
Solid line
 72
    65
 73
     0
 40
0.0
  0
ENDTAB
  0
TABLE
  2
LAYER
  5
2
100
AcDbSymbolTable
 70
2
  0
LAYER
  5
50
100
AcDbSymbolTableRecord
100
AcDbLayerTableRecord
  2
0
 70
0
  6
CONTINUOUS
  0
LAYER
  5
51
100
AcDbSymbolTableRecord
100
AcDbLayerTableRecord
  2
Layer_1
 70
0
  6
CONTINUOUS
  0
ENDTAB
  0
TABLE
  2
STYLE
  5
3
330
0
100
AcDbSymbolTable
 70
     1
  0
STYLE
  5
11
330
3
100
AcDbSymbolTableRecord
100
AcDbTextStyleTableRecord
  2
STANDARD
 70
     0
 40
0.0
 41
1.0
 50
0.0
 71
     0
 42
2.5
  3
txt
  4

  0
ENDTAB
  0
TABLE
  2
VIEW
  5
6
330
0
100
AcDbSymbolTable
 70
     0
  0
ENDTAB
  0
TABLE
  2
UCS
  5
7
330
0
100
AcDbSymbolTable
 70
     0
  0
ENDTAB
  0
TABLE
  2
APPID
  5
9
330
0
100
AcDbSymbolTable
 70
     2
  0
APPID
  5
12
330
9
100
AcDbSymbolTableRecord
100
AcDbRegAppTableRecord
  2
ACAD
 70
     0
  0
ENDTAB
  0
TABLE
  2
DIMSTYLE
  5
A
330
0
100
AcDbSymbolTable
 70
     1
  0
DIMSTYLE
105
27
330
A
100
AcDbSymbolTableRecord
100
AcDbDimStyleTableRecord
  2
ISO-25
 70
     0
  3

  4

  5

  6

  7

 40
1.0
 41
2.5
 42
0.625
 43
3.75
 44
1.25
 45
0.0
 46
0.0
 47
0.0
 48
0.0
140
2.5
141
2.5
142
0.0
143
0.03937007874016
144
1.0
145
0.0
146
1.0
147
0.625
 71
     0
 72
     0
 73
     0
 74
     0
 75
     0
 76
     0
 77
     1
 78
     8
170
     0
171
     3
172
     1
173
     0
174
     0
175
     0
176
     0
177
     0
178
     0
270
     2
271
     2
272
     2
273
     2
274
     3
340
11
275
     0
280
     0
281
     0
282
     0
283
     0
284
     8
285
     0
286
     0
287
     3
288
     0
  0
ENDTAB
  0
TABLE
  2
BLOCK_RECORD
  5
1
330
0
100
AcDbSymbolTable
 70
     1
  0
BLOCK_RECORD
  5
1F
330
1
100
AcDbSymbolTableRecord
100
AcDbBlockTableRecord
  2
*MODEL_SPACE
  0
BLOCK_RECORD
  5
1B
330
1
100
AcDbSymbolTableRecord
100
AcDbBlockTableRecord
  2
*PAPER_SPACE
  0
ENDTAB
  0
ENDSEC
  0
SECTION
  2
BLOCKS
  0
BLOCK
  5
20
330
1F
100
AcDbEntity
  8
0
100
AcDbBlockBegin
  2
*MODEL_SPACE
 70
     0
 10
0.0
 20
0.0
 30
0.0
  3
*MODEL_SPACE
  1

  0
ENDBLK
  5
21
330
1F
100
AcDbEntity
  8
0
100
AcDbBlockEnd
  0
BLOCK
  5
1C
330
1B
100
AcDbEntity
 67
     1
  8
0
100
AcDbBlockBegin
  2
*PAPER_SPACE
  1

  0
ENDBLK
  5
1D
330
1B
100
AcDbEntity
 67
     1
  8
0
100
AcDbBlockEnd
  0
ENDSEC
  0
SECTION
  2
ENTITIES
  0
LWPOLYLINE
  5
100
100
AcDbEntity
  8
Layer_1
 62
7
100
AcDbPolyline
 90
33
 70
1
 10
160.188420
 20
145.653430
 30
0.0
 10
159.946017
 20
143.203413
 30
0.0
 10
159.236914
 20
140.869887
 30
0.0
 10
158.088273
 20
138.718424
 30
0.0
 10
156.527255
 20
136.814595
 30
0.0
 10
154.623426
 20
135.253577
 30
0.0
 10
152.471963
 20
134.104936
 30
0.0
 10
150.138437
 20
133.395833
 30
0.0
 10
147.688420
 20
133.153430
 30
0.0
 10
145.238403
 20
133.395833
 30
0.0
 10
142.904877
 20
134.104936
 30
0.0
 10
140.753414
 20
135.253577
 30
0.0
 10
138.849585
 20
136.814595
 30
0.0
 10
137.288567
 20
138.718424
 30
0.0
 10
136.139926
 20
140.869887
 30
0.0
 10
135.430823
 20
143.203413
 30
0.0
 10
135.188420
 20
145.653430
 30
0.0
 10
135.430823
 20
148.103447
 30
0.0
 10
136.139926
 20
150.436973
 30
0.0
 10
137.288567
 20
152.588436
 30
0.0
 10
138.849585
 20
154.492265
 30
0.0
 10
140.753414
 20
156.053283
 30
0.0
 10
142.904877
 20
157.201924
 30
0.0
 10
145.238403
 20
157.911027
 30
0.0
 10
147.688420
 20
158.153430
 30
0.0
 10
150.138437
 20
157.911027
 30
0.0
 10
152.471963
 20
157.201924
 30
0.0
 10
154.623426
 20
156.053283
 30
0.0
 10
156.527255
 20
154.492265
 30
0.0
 10
158.088273
 20
152.588436
 30
0.0
 10
159.236914
 20
150.436973
 30
0.0
 10
159.946017
 20
148.103447
 30
0.0
 10
160.188420
 20
145.653430
 30
0.0
  0
LWPOLYLINE
  5
101
100
AcDbEntity
  8
Layer_1
 62
7
100
AcDbPolyline
 90
9
 70
1
 10
148.538420
 20
145.653430
 30
0.0
 10
148.289461
 20
145.052389
 30
0.0
 10
147.688420
 20
144.803430
 30
0.0
 10
147.087379
 20
145.052389
 30
0.0
 10
146.838420
 20
145.653430
 30
0.0
 10
147.087379
 20
146.254471
 30
0.0
 10
147.688420
 20
146.503430
 30
0.0
 10
148.289461
 20
146.254471
 30
0.0
 10
148.538420
 20
145.653430
 30
0.0
  0
LWPOLYLINE
  5
102
100
AcDbEntity
  8
Layer_1
 62
7
100
AcDbPolyline
 90
196
 70
1
 10
108.654640
 20
144.888660
 30
0.0
 10
108.654640
 20
141.577700
 30
0.0
 10
108.561240
 20
140.092720
 30
0.0
 10
108.146270
 20
136.807880
 30
0.0
 10
107.867460
 20
135.346320
 30
0.0
 10
107.044060
 20
132.139380
 30
0.0
 10
106.584270
 20
130.724280
 30
0.0
 10
105.365420
 20
127.645830
 30
0.0
 10
104.731900
 20
126.299520
 30
0.0
 10
103.136850
 20
123.398110
 30
0.0
 10
102.339580
 20
122.141820
 30
0.0
 10
100.393450
 20
119.463210
 30
0.0
 10
99.445011
 20
118.316750
 30
0.0
 10
97.178521
 20
115.903170
 30
0.0
 10
96.093871
 20
114.884620
 30
0.0
 10
93.542741
 20
112.774140
 30
0.0
 10
92.338991
 20
111.899560
 30
0.0
 10
89.543461
 20
110.125460
 30
0.0
 10
88.239591
 20
109.408650
 30
0.0
 10
85.243741
 20
107.998920
 30
0.0
 10
83.860311
 20
107.451180
 30
0.0
 10
80.711421
 20
106.428060
 30
0.0
 10
79.270251
 20
106.058030
 30
0.0
 10
76.017941
 20
105.437620
 30
0.0
 10
74.541761
 20
105.251140
 30
0.0
 10
71.237341
 20
105.043240
 30
0.0
 10
69.749421
 20
105.043240
 30
0.0
 10
66.445001
 20
105.251140
 30
0.0
 10
64.968821
 20
105.437620
 30
0.0
 10
64.269051
 20
103.934310
 30
0.0
 10
63.346471
 20
102.474750
 30
0.0
 10
62.134231
 20
102.706000
 30
0.0
 10
61.813741
 20
104.402690
 30
0.0
 10
61.716541
 20
106.058030
 30
0.0
 10
60.275371
 20
106.428060
 30
0.0
 10
59.392711
 20
105.024310
 30
0.0
 10
58.294461
 20
103.691890
 30
0.0
 10
57.120781
 20
104.073240
 30
0.0
 10
57.015461
 20
105.796720
 30
0.0
 10
57.126471
 20
107.451200
 30
0.0
 10
55.743041
 20
107.998940
 30
0.0
 10
54.691401
 20
106.716880
 30
0.0
 10
53.434821
 20
105.532620
 30
0.0
 10
52.318176
 20
106.058070
 30
0.0
 10
52.429696
 20
107.781160
 30
0.0
 10
52.747196
 20
109.408670
 30
0.0
 10
51.443326
 20
110.125480
 30
0.0
 10
50.239296
 20
108.985340
 30
0.0
 10
48.844196
 20
107.967910
 30
0.0
 10
47.802216
 20
108.629160
 30
0.0
 10
48.128816
 20
110.324690
 30
0.0
 10
48.647796
 20
111.899580
 30
0.0
 10
47.444046
 20
112.774160
 30
0.0
 10
46.106606
 20
111.793910
 30
0.0
 10
44.594996
 20
110.959350
 30
0.0
 10
43.644116
 20
111.745990
 30
0.0
 10
44.180646
 20
113.387210
 30
0.0
 10
44.892916
 20
114.884640
 30
0.0
 10
43.808266
 20
115.903190
 30
0.0
 10
42.358526
 20
115.098300
 30
0.0
 10
40.754226
 20
114.459770
 30
0.0
 10
39.909436
 20
115.359380
 30
0.0
 10
40.647436
 20
116.920420
 30
0.0
 10
41.541766
 20
118.316770
 30
0.0
 10
40.593336
 20
119.463230
 30
0.0
 10
39.054136
 20
118.846380
 30
0.0
 10
37.382466
 20
118.413960
 30
0.0
 10
36.657086
 20
119.412360
 30
0.0
 10
37.584916
 20
120.868590
 30
0.0
 10
38.647206
 20
122.141840
 30
0.0
 10
37.849936
 20
123.398130
 30
0.0
 10
36.245566
 20
122.979070
 30
0.0
 10
34.532876
 20
122.759570
 30
0.0
 10
33.938356
 20
123.841010
 30
0.0
 10
35.041386
 20
125.169470
 30
0.0
 10
36.254876
 20
126.299540
 30
0.0
 10
35.621356
 20
127.645850
 30
0.0
 10
33.977106
 20
127.431170
 30
0.0
 10
32.250416
 20
127.428170
 30
0.0
 10
31.796116
 20
128.575600
 30
0.0
 10
33.056946
 20
129.755340
 30
0.0
 10
34.402506
 20
130.724400
 30
0.0
 10
33.942716
 20
132.139500
 30
0.0
 10
32.284536
 20
132.132500
 30
0.0
 10
30.571066
 20
132.345830
 30
0.0
 10
30.264166
 20
133.541140
 30
0.0
 10
31.662916
 20
134.553560
 30
0.0
 10
33.119316
 20
135.346340
 30
0.0
 10
32.840506
 20
136.807900
 30
0.0
 10
31.194536
 20
137.008870
 30
0.0
 10
29.521316
 20
137.435270
 30
0.0
 10
29.366646
 20
138.659630
 30
0.0
 10
30.881256
 20
139.488750
 30
0.0
 10
32.425536
 20
140.092740
 30
0.0
 10
32.332106
 20
141.577720
 30
0.0
 10
30.724306
 20
141.983410
 30
0.0
 10
29.117726
 20
142.616160
 30
0.0
 10
29.117726
 20
143.850240
 30
0.0
 10
30.724306
 20
144.482990
 30
0.0
 10
32.332106
 20
144.888680
 30
0.0
 10
32.425536
 20
146.373660
 30
0.0
 10
30.881256
 20
146.977650
 30
0.0
 10
29.366646
 20
147.806770
 30
0.0
 10
29.521316
 20
149.031130
 30
0.0
 10
31.194536
 20
149.457530
 30
0.0
 10
32.840506
 20
149.658500
 30
0.0
 10
33.119316
 20
151.120060
 30
0.0
 10
31.662916
 20
151.912840
 30
0.0
 10
30.264166
 20
152.925260
 30
0.0
 10
30.571066
 20
154.120570
 30
0.0
 10
32.284536
 20
154.333900
 30
0.0
 10
33.942716
 20
154.326900
 30
0.0
 10
34.402506
 20
155.742000
 30
0.0
 10
33.056946
 20
156.711060
 30
0.0
 10
31.796116
 20
157.890800
 30
0.0
 10
32.250416
 20
159.038230
 30
0.0
 10
33.977106
 20
159.035230
 30
0.0
 10
35.621356
 20
158.820550
 30
0.0
 10
36.254876
 20
160.166860
 30
0.0
 10
35.041386
 20
161.296930
 30
0.0
 10
33.938356
 20
162.625390
 30
0.0
 10
34.532876
 20
163.706830
 30
0.0
 10
36.245566
 20
163.487330
 30
0.0
 10
37.849936
 20
163.068270
 30
0.0
 10
38.647206
 20
164.324560
 30
0.0
 10
37.584916
 20
165.597810
 30
0.0
 10
36.657086
 20
167.054040
 30
0.0
 10
37.382466
 20
168.052440
 30
0.0
 10
39.054136
 20
167.620020
 30
0.0
 10
40.593336
 20
167.003170
 30
0.0
 10
41.541766
 20
168.149630
 30
0.0
 10
40.647436
 20
169.545980
 30
0.0
 10
39.909436
 20
171.107020
 30
0.0
 10
40.754226
 20
172.006630
 30
0.0
 10
42.358526
 20
171.368100
 30
0.0
 10
43.808266
 20
170.563210
 30
0.0
 10
44.892916
 20
171.581760
 30
0.0
 10
44.180646
 20
173.079190
 30
0.0
 10
43.644116
 20
174.720410
 30
0.0
 10
44.594996
 20
175.507050
 30
0.0
 10
46.106606
 20
174.672490
 30
0.0
 10
47.444046
 20
173.692240
 30
0.0
 10
48.647796
 20
174.566820
 30
0.0
 10
48.128816
 20
176.141710
 30
0.0
 10
47.802216
 20
177.837240
 30
0.0
 10
48.844196
 20
178.498490
 30
0.0
 10
50.239296
 20
177.481060
 30
0.0
 10
51.443326
 20
176.340920
 30
0.0
 10
52.747196
 20
177.057730
 30
0.0
 10
52.429696
 20
178.685240
 30
0.0
 10
52.318176
 20
180.408330
 30
0.0
 10
53.434821
 20
180.933780
 30
0.0
 10
54.691401
 20
179.749520
 30
0.0
 10
55.743041
 20
178.467460
 30
0.0
 10
57.126471
 20
179.015200
 30
0.0
 10
57.015461
 20
180.669680
 30
0.0
 10
57.120781
 20
182.393160
 30
0.0
 10
58.294461
 20
182.774510
 30
0.0
 10
59.392711
 20
181.442090
 30
0.0
 10
60.275371
 20
180.038340
 30
0.0
 10
61.716541
 20
180.408370
 30
0.0
 10
61.813741
 20
182.063710
 30
0.0
 10
62.134231
 20
183.760400
 30
0.0
 10
63.346471
 20
183.991650
 30
0.0
 10
64.269051
 20
182.532090
 30
0.0
 10
64.968821
 20
181.028780
 30
0.0
 10
66.445001
 20
181.215260
 30
0.0
 10
66.748931
 20
182.845370
 30
0.0
 10
67.279551
 20
184.488510
 30
0.0
 10
68.511211
 20
184.566010
 30
0.0
 10
69.243591
 20
183.002330
 30
0.0
 10
69.749421
 20
181.423170
 30
0.0
 10
71.237341
 20
181.423170
 30
0.0
 10
74.541761
 20
181.215270
 30
0.0
 10
76.017941
 20
181.028790
 30
0.0
 10
79.270251
 20
180.408380
 30
0.0
 10
80.711421
 20
180.038350
 30
0.0
 10
83.860311
 20
179.015210
 30
0.0
 10
85.243741
 20
178.467470
 30
0.0
 10
88.239591
 20
177.057740
 30
0.0
 10
89.543461
 20
176.340930
 30
0.0
 10
92.338991
 20
174.566830
 30
0.0
 10
93.542741
 20
173.692250
 30
0.0
 10
96.093871
 20
171.581770
 30
0.0
 10
97.178511
 20
170.563220
 30
0.0
 10
99.445011
 20
168.149640
 30
0.0
 10
100.393440
 20
167.003180
 30
0.0
 10
102.339580
 20
164.324570
 30
0.0
 10
103.136850
 20
163.068280
 30
0.0
 10
104.731900
 20
160.166870
 30
0.0
 10
105.365420
 20
158.820560
 30
0.0
 10
106.584270
 20
155.742110
 30
0.0
 10
107.044060
 20
154.327010
 30
0.0
 10
107.867460
 20
151.120070
 30
0.0
 10
108.146270
 20
149.658510
 30
0.0
 10
108.561240
 20
146.373670
 30
0.0
  0
LWPOLYLINE
  5
103
100
AcDbEntity
  8
Layer_1
 62
7
100
AcDbPolyline
 90
9
 70
1
 10
71.343347
 20
143.233180
 30
0.0
 10
71.094388
 20
142.632139
 30
0.0
 10
70.493347
 20
142.383180
 30
0.0
 10
69.892306
 20
142.632139
 30
0.0
 10
69.643347
 20
143.233180
 30
0.0
 10
69.892306
 20
143.834221
 30
0.0
 10
70.493347
 20
144.083180
 30
0.0
 10
71.094388
 20
143.834221
 30
0.0
 10
71.343347
 20
143.233180
 30
0.0
  0
LWPOLYLINE
  5
104
100
AcDbEntity
  8
Layer_1
 62
7
100
AcDbPolyline
 90
9
 70
1
 10
71.343347
 20
164.399870
 30
0.0
 10
71.094388
 20
163.798829
 30
0.0
 10
70.493347
 20
163.549870
 30
0.0
 10
69.892306
 20
163.798829
 30
0.0
 10
69.643347
 20
164.399870
 30
0.0
 10
69.892306
 20
165.000911
 30
0.0
 10
70.493347
 20
165.249870
 30
0.0
 10
71.094388
 20
165.000911
 30
0.0
 10
71.343347
 20
164.399870
 30
0.0
  0
LWPOLYLINE
  5
105
100
AcDbEntity
  8
Layer_1
 62
7
100
AcDbPolyline
 90
9
 70
1
 10
71.343347
 20
122.066500
 30
0.0
 10
71.094388
 20
121.465459
 30
0.0
 10
70.493347
 20
121.216500
 30
0.0
 10
69.892306
 20
121.465459
 30
0.0
 10
69.643347
 20
122.066500
 30
0.0
 10
69.892306
 20
122.667541
 30
0.0
 10
70.493347
 20
122.916500
 30
0.0
 10
71.094388
 20
122.667541
 30
0.0
 10
71.343347
 20
122.066500
 30
0.0
  0
LWPOLYLINE
  5
106
100
AcDbEntity
  8
Layer_1
 62
7
100
AcDbPolyline
 90
192
 70
1
 10
52.263122
 20
242.912226
 30
0.0
 10
52.701472
 20
242.947526
 30
0.0
 10
53.870272
 20
242.756086
 30
0.0
 10
55.494882
 20
242.076326
 30
0.0
 10
55.494882
 20
240.937626
 30
0.0
 10
53.870272
 20
240.257866
 30
0.0
 10
52.701472
 20
240.066426
 30
0.0
 10
52.263122
 20
240.101726
 30
0.0
 10
52.032222
 20
238.347806
 30
0.0
 10
52.464762
 20
238.268456
 30
0.0
 10
53.544192
 20
237.781026
 30
0.0
 10
54.937502
 20
236.703946
 30
0.0
 10
54.642792
 20
235.604056
 30
0.0
 10
52.897602
 20
235.367936
 30
0.0
 10
51.719082
 20
235.485526
 30
0.0
 10
51.304812
 20
235.633076
 30
0.0
 10
50.627822
 20
233.998686
 30
0.0
 10
51.025092
 20
233.810076
 30
0.0
 10
51.941582
 20
233.059886
 30
0.0
 10
53.008652
 20
231.658886
 30
0.0
 10
52.439302
 20
230.672756
 30
0.0
 10
50.692472
 20
230.896366
 30
0.0
 10
49.584542
 20
231.314976
 30
0.0
 10
49.222572
 20
231.564716
 30
0.0
 10
48.145642
 20
230.161236
 30
0.0
 10
48.480552
 20
229.876236
 30
0.0
 10
49.171652
 20
228.914396
 30
0.0
 10
49.839762
 20
227.284966
 30
0.0
 10
49.034582
 20
226.479786
 30
0.0
 10
47.405152
 20
227.147896
 30
0.0
 10
46.443312
 20
227.838996
 30
0.0
 10
46.158312
 20
228.173906
 30
0.0
 10
44.754832
 20
227.096976
 30
0.0
 10
45.004572
 20
226.735006
 30
0.0
 10
45.423182
 20
225.627076
 30
0.0
 10
45.646792
 20
223.880246
 30
0.0
 10
44.660662
 20
223.310896
 30
0.0
 10
43.259662
 20
224.377966
 30
0.0
 10
42.509472
 20
225.294456
 30
0.0
 10
42.320862
 20
225.691726
 30
0.0
 10
40.686472
 20
225.014736
 30
0.0
 10
40.834022
 20
224.600466
 30
0.0
 10
40.951612
 20
223.421946
 30
0.0
 10
40.715492
 20
221.676756
 30
0.0
 10
39.615602
 20
221.382046
 30
0.0
 10
38.538522
 20
222.775356
 30
0.0
 10
38.051092
 20
223.854786
 30
0.0
 10
37.971742
 20
224.287326
 30
0.0
 10
36.217822
 20
224.056426
 30
0.0
 10
36.253122
 20
223.618076
 30
0.0
 10
36.061682
 20
222.449276
 30
0.0
 10
35.381922
 20
220.824666
 30
0.0
 10
34.243222
 20
220.824666
 30
0.0
 10
33.563462
 20
222.449276
 30
0.0
 10
33.372022
 20
223.618076
 30
0.0
 10
33.407322
 20
224.056426
 30
0.0
 10
31.653402
 20
224.287326
 30
0.0
 10
31.574052
 20
223.854786
 30
0.0
 10
31.086622
 20
222.775356
 30
0.0
 10
30.009542
 20
221.382046
 30
0.0
 10
28.909652
 20
221.676756
 30
0.0
 10
28.673532
 20
223.421946
 30
0.0
 10
28.791122
 20
224.600466
 30
0.0
 10
28.938672
 20
225.014736
 30
0.0
 10
27.304282
 20
225.691726
 30
0.0
 10
27.115672
 20
225.294456
 30
0.0
 10
26.365482
 20
224.377966
 30
0.0
 10
24.964482
 20
223.310896
 30
0.0
 10
23.978352
 20
223.880246
 30
0.0
 10
24.201962
 20
225.627076
 30
0.0
 10
24.620572
 20
226.735006
 30
0.0
 10
24.870312
 20
227.096976
 30
0.0
 10
23.466832
 20
228.173906
 30
0.0
 10
23.181832
 20
227.838996
 30
0.0
 10
22.219992
 20
227.147896
 30
0.0
 10
20.590562
 20
226.479786
 30
0.0
 10
19.785382
 20
227.284966
 30
0.0
 10
20.453492
 20
228.914396
 30
0.0
 10
21.144592
 20
229.876236
 30
0.0
 10
21.479502
 20
230.161236
 30
0.0
 10
20.402572
 20
231.564716
 30
0.0
 10
20.040602
 20
231.314976
 30
0.0
 10
18.932672
 20
230.896366
 30
0.0
 10
17.185842
 20
230.672756
 30
0.0
 10
16.616492
 20
231.658886
 30
0.0
 10
17.683562
 20
233.059886
 30
0.0
 10
18.600052
 20
233.810076
 30
0.0
 10
18.997322
 20
233.998686
 30
0.0
 10
18.320332
 20
235.633076
 30
0.0
 10
17.906062
 20
235.485526
 30
0.0
 10
16.727542
 20
235.367936
 30
0.0
 10
14.982352
 20
235.604056
 30
0.0
 10
14.687642
 20
236.703946
 30
0.0
 10
16.080952
 20
237.781026
 30
0.0
 10
17.160382
 20
238.268456
 30
0.0
 10
17.592922
 20
238.347806
 30
0.0
 10
17.362022
 20
240.101726
 30
0.0
 10
16.923672
 20
240.066426
 30
0.0
 10
15.754872
 20
240.257866
 30
0.0
 10
14.130262
 20
240.937626
 30
0.0
 10
14.130262
 20
242.076326
 30
0.0
 10
15.754872
 20
242.756086
 30
0.0
 10
16.923672
 20
242.947526
 30
0.0
 10
17.362022
 20
242.912226
 30
0.0
 10
17.592922
 20
244.666146
 30
0.0
 10
17.160382
 20
244.745496
 30
0.0
 10
16.080952
 20
245.232926
 30
0.0
 10
14.687642
 20
246.310006
 30
0.0
 10
14.982352
 20
247.409896
 30
0.0
 10
16.727542
 20
247.646016
 30
0.0
 10
17.906062
 20
247.528426
 30
0.0
 10
18.320332
 20
247.380876
 30
0.0
 10
18.997322
 20
249.015266
 30
0.0
 10
18.600052
 20
249.203876
 30
0.0
 10
17.683562
 20
249.954066
 30
0.0
 10
16.616492
 20
251.355066
 30
0.0
 10
17.185842
 20
252.341196
 30
0.0
 10
18.932672
 20
252.117586
 30
0.0
 10
20.040602
 20
251.698976
 30
0.0
 10
20.402572
 20
251.449236
 30
0.0
 10
21.479502
 20
252.852716
 30
0.0
 10
21.144592
 20
253.137716
 30
0.0
 10
20.453492
 20
254.099556
 30
0.0
 10
19.785382
 20
255.728986
 30
0.0
 10
20.590562
 20
256.534166
 30
0.0
 10
22.219992
 20
255.866056
 30
0.0
 10
23.181832
 20
255.174956
 30
0.0
 10
23.466832
 20
254.840046
 30
0.0
 10
24.870312
 20
255.916976
 30
0.0
 10
24.620572
 20
256.278946
 30
0.0
 10
24.201962
 20
257.386876
 30
0.0
 10
23.978352
 20
259.133706
 30
0.0
 10
24.964482
 20
259.703056
 30
0.0
 10
26.365482
 20
258.635986
 30
0.0
 10
27.115672
 20
257.719496
 30
0.0
 10
27.304282
 20
257.322226
 30
0.0
 10
28.938672
 20
257.999216
 30
0.0
 10
28.791122
 20
258.413486
 30
0.0
 10
28.673532
 20
259.592006
 30
0.0
 10
28.909652
 20
261.337196
 30
0.0
 10
30.009542
 20
261.631906
 30
0.0
 10
31.086622
 20
260.238596
 30
0.0
 10
31.574052
 20
259.159166
 30
0.0
 10
31.653402
 20
258.726626
 30
0.0
 10
33.407322
 20
258.957526
 30
0.0
 10
33.372022
 20
259.395876
 30
0.0
 10
33.563462
 20
260.564676
 30
0.0
 10
34.243222
 20
262.189286
 30
0.0
 10
35.381922
 20
262.189286
 30
0.0
 10
36.061682
 20
260.564676
 30
0.0
 10
36.253122
 20
259.395876
 30
0.0
 10
36.217822
 20
258.957526
 30
0.0
 10
37.971742
 20
258.726626
 30
0.0
 10
38.051092
 20
259.159166
 30
0.0
 10
38.538522
 20
260.238596
 30
0.0
 10
39.615602
 20
261.631906
 30
0.0
 10
40.715492
 20
261.337196
 30
0.0
 10
40.951612
 20
259.592006
 30
0.0
 10
40.834022
 20
258.413486
 30
0.0
 10
40.686472
 20
257.999216
 30
0.0
 10
42.320862
 20
257.322226
 30
0.0
 10
42.509472
 20
257.719496
 30
0.0
 10
43.259662
 20
258.635986
 30
0.0
 10
44.660662
 20
259.703056
 30
0.0
 10
45.646792
 20
259.133706
 30
0.0
 10
45.423182
 20
257.386876
 30
0.0
 10
45.004572
 20
256.278946
 30
0.0
 10
44.754832
 20
255.916976
 30
0.0
 10
46.158312
 20
254.840046
 30
0.0
 10
46.443312
 20
255.174956
 30
0.0
 10
47.405152
 20
255.866056
 30
0.0
 10
49.034582
 20
256.534166
 30
0.0
 10
49.839762
 20
255.728986
 30
0.0
 10
49.171652
 20
254.099556
 30
0.0
 10
48.480552
 20
253.137716
 30
0.0
 10
48.145642
 20
252.852716
 30
0.0
 10
49.222572
 20
251.449236
 30
0.0
 10
49.584542
 20
251.698976
 30
0.0
 10
50.692472
 20
252.117586
 30
0.0
 10
52.439302
 20
252.341196
 30
0.0
 10
53.008652
 20
251.355066
 30
0.0
 10
51.941582
 20
249.954066
 30
0.0
 10
51.025092
 20
249.203876
 30
0.0
 10
50.627822
 20
249.015266
 30
0.0
 10
51.304812
 20
247.380876
 30
0.0
 10
51.719082
 20
247.528426
 30
0.0
 10
52.897602
 20
247.646016
 30
0.0
 10
54.642792
 20
247.409896
 30
0.0
 10
54.937502
 20
246.310006
 30
0.0
 10
53.544192
 20
245.232926
 30
0.0
 10
52.464762
 20
244.745496
 30
0.0
 10
52.032222
 20
244.666146
 30
0.0
  0
LWPOLYLINE
  5
107
100
AcDbEntity
  8
Layer_1
 62
7
100
AcDbPolyline
 90
9
 70
1
 10
35.662573
 20
241.506977
 30
0.0
 10
35.413613
 20
240.905936
 30
0.0
 10
34.812572
 20
240.656977
 30
0.0
 10
34.211531
 20
240.905936
 30
0.0
 10
33.962572
 20
241.506977
 30
0.0
 10
34.211531
 20
242.108018
 30
0.0
 10
34.812572
 20
242.356977
 30
0.0
 10
35.413613
 20
242.108018
 30
0.0
 10
35.662573
 20
241.506977
 30
0.0
  0
LWPOLYLINE
  5
108
100
AcDbEntity
  8
Layer_1
 62
7
100
AcDbPolyline
 90
9
 70
1
 10
35.662573
 20
252.090313
 30
0.0
 10
35.413613
 20
251.489272
 30
0.0
 10
34.812572
 20
251.240313
 30
0.0
 10
34.211531
 20
251.489272
 30
0.0
 10
33.962572
 20
252.090313
 30
0.0
 10
34.211531
 20
252.691354
 30
0.0
 10
34.812572
 20
252.940313
 30
0.0
 10
35.413613
 20
252.691354
 30
0.0
 10
35.662573
 20
252.090313
 30
0.0
  0
LWPOLYLINE
  5
109
100
AcDbEntity
  8
Layer_1
 62
7
100
AcDbPolyline
 90
9
 70
1
 10
35.662573
 20
230.923645
 30
0.0
 10
35.413613
 20
230.322604
 30
0.0
 10
34.812572
 20
230.073645
 30
0.0
 10
34.211531
 20
230.322604
 30
0.0
 10
33.962572
 20
230.923645
 30
0.0
 10
34.211531
 20
231.524686
 30
0.0
 10
34.812572
 20
231.773645
 30
0.0
 10
35.413613
 20
231.524686
 30
0.0
 10
35.662573
 20
230.923645
 30
0.0
  0
ENDSEC
  0
SECTION
  2
OBJECTS
  0
DICTIONARY
  5
C
330
0
100
AcDbDictionary
  3
ACAD_GROUP
350
D
  3
ACAD_MLINESTYLE
350
17
  0
DICTIONARY
  5
D
330
C
100
AcDbDictionary
  0
DICTIONARY
  5
1A
330
C
100
AcDbDictionary
  0
DICTIONARY
  5
17
330
C
100
AcDbDictionary
  3
STANDARD
350
18
  0
DICTIONARY
  5
19
330
C
100
AcDbDictionary
  0
ENDSEC
  0
EOF
