  0
SECTION
  2
BLOCKS
  0
ENDSEC
  0
SECTION
  2
ENTITIES
  0
LINE
  8
0
 10
154
 20
225
 11
0
 21
225
  0
LINE
  8
0
 10
0
 20
225
 11
0
 21
0
  0
LINE
  8
0
 10
0
 20
0
 11
154
 21
0
  0
LINE
  8
0
 10
154
 20
0
 11
154
 21
225
  0
LINE
  8
0
 10
108
 20
159
 11
108
 21
194.757
  0
LINE
  8
0
 10
108
 20
194.757
 11
87
 21
215.757
  0
LINE
  8
0
 10
87
 20
215.757
 11
87
 21
220
  0
LINE
  8
0
 10
87
 20
220
 11
91.2426
 21
220
  0
LINE
  8
0
 10
91.2426
 20
220
 11
114
 21
197.243
  0
LINE
  8
0
 10
114
 20
197.243
 11
114
 21
159
  0
LINE
  8
0
 10
114
 20
159
 11
108
 21
159
  0
LINE
  8
0
 10
5
 20
159
 11
5
 21
197.243
  0
LINE
  8
0
 10
5
 20
197.243
 11
27.7574
 21
220
  0
LINE
  8
0
 10
27.7574
 20
220
 11
32
 21
220
  0
LINE
  8
0
 10
32
 20
220
 11
32
 21
215.757
  0
LINE
  8
0
 10
32
 20
215.757
 11
11
 21
194.757
  0
LINE
  8
0
 10
11
 20
194.757
 11
11
 21
159
  0
LINE
  8
0
 10
11
 20
159
 11
5
 21
159
  0
LINE
  8
0
 10
143
 20
159
 11
143
 21
194.757
  0
LINE
  8
0
 10
143
 20
194.757
 11
122
 21
215.757
  0
LINE
  8
0
 10
122
 20
215.757
 11
122
 21
220
  0
LINE
  8
0
 10
122
 20
220
 11
126.243
 21
220
  0
LINE
  8
0
 10
126.243
 20
220
 11
149
 21
197.243
  0
LINE
  8
0
 10
149
 20
197.243
 11
149
 21
159
  0
LINE
  8
0
 10
149
 20
159
 11
143
 21
159
  0
LINE
  8
0
 10
40
 20
159
 11
40
 21
197.243
  0
LINE
  8
0
 10
40
 20
197.243
 11
62.7574
 21
220
  0
LINE
  8
0
 10
62.7574
 20
220
 11
67
 21
220
  0
LINE
  8
0
 10
67
 20
220
 11
67
 21
215.757
  0
LINE
  8
0
 10
67
 20
215.757
 11
46
 21
194.757
  0
LINE
  8
0
 10
46
 20
194.757
 11
46
 21
159
  0
LINE
  8
0
 10
46
 20
159
 11
40
 21
159
  0
LINE
  8
0
 10
144.757
 20
109
 11
122
 21
131.757
  0
LINE
  8
0
 10
122
 20
131.757
 11
122
 21
156
  0
LINE
  8
0
 10
122
 20
156
 11
128
 21
156
  0
LINE
  8
0
 10
128
 20
156
 11
128
 21
134.243
  0
LINE
  8
0
 10
128
 20
134.243
 11
149
 21
113.243
  0
LINE
  8
0
 10
149
 20
113.243
 11
149
 21
109
  0
LINE
  8
0
 10
149
 20
109
 11
144.757
 21
109
  0
LINE
  8
0
 10
40
 20
109
 11
40
 21
113.243
  0
LINE
  8
0
 10
40
 20
113.243
 11
61
 21
134.243
  0
LINE
  8
0
 10
61
 20
134.243
 11
61
 21
156
  0
LINE
  8
0
 10
61
 20
156
 11
67
 21
156
  0
LINE
  8
0
 10
67
 20
156
 11
67
 21
131.757
  0
LINE
  8
0
 10
67
 20
131.757
 11
44.2426
 21
109
  0
LINE
  8
0
 10
44.2426
 20
109
 11
40
 21
109
  0
LINE
  8
0
 10
109.757
 20
109
 11
87
 21
131.757
  0
LINE
  8
0
 10
87
 20
131.757
 11
87
 21
156
  0
LINE
  8
0
 10
87
 20
156
 11
93
 21
156
  0
LINE
  8
0
 10
93
 20
156
 11
93
 21
134.243
  0
LINE
  8
0
 10
93
 20
134.243
 11
114
 21
113.243
  0
LINE
  8
0
 10
114
 20
113.243
 11
114
 21
109
  0
LINE
  8
0
 10
114
 20
109
 11
109.757
 21
109
  0
LINE
  8
0
 10
5
 20
109
 11
5
 21
113.243
  0
LINE
  8
0
 10
5
 20
113.243
 11
26
 21
134.243
  0
LINE
  8
0
 10
26
 20
134.243
 11
26
 21
156
  0
LINE
  8
0
 10
26
 20
156
 11
32
 21
156
  0
LINE
  8
0
 10
32
 20
156
 11
32
 21
131.757
  0
LINE
  8
0
 10
32
 20
131.757
 11
9.24263
 21
109
  0
LINE
  8
0
 10
9.24263
 20
109
 11
5
 21
109
  0
LINE
  8
0
 10
143
 20
19
 11
143
 21
30.7574
  0
LINE
  8
0
 10
143
 20
30.7574
 11
122
 21
51.7574
  0
LINE
  8
0
 10
122
 20
51.7574
 11
122
 21
66
  0
LINE
  8
0
 10
122
 20
66
 11
128
 21
66
  0
LINE
  8
0
 10
128
 20
66
 11
128
 21
54.2426
  0
LINE
  8
0
 10
128
 20
54.2426
 11
149
 21
33.2426
  0
LINE
  8
0
 10
149
 20
33.2426
 11
149
 21
19
  0
LINE
  8
0
 10
149
 20
19
 11
143
 21
19
  0
LINE
  8
0
 10
108
 20
19
 11
108
 21
30.7574
  0
LINE
  8
0
 10
108
 20
30.7574
 11
87
 21
51.7574
  0
LINE
  8
0
 10
87
 20
51.7574
 11
87
 21
66
  0
LINE
  8
0
 10
87
 20
66
 11
93
 21
66
  0
LINE
  8
0
 10
93
 20
66
 11
93
 21
54.2426
  0
LINE
  8
0
 10
93
 20
54.2426
 11
114
 21
33.2426
  0
LINE
  8
0
 10
114
 20
33.2426
 11
114
 21
19
  0
LINE
  8
0
 10
114
 20
19
 11
108
 21
19
  0
LINE
  8
0
 10
5
 20
19
 11
5
 21
33.2426
  0
LINE
  8
0
 10
5
 20
33.2426
 11
26
 21
54.2426
  0
LINE
  8
0
 10
26
 20
54.2426
 11
26
 21
66
  0
LINE
  8
0
 10
26
 20
66
 11
32
 21
66
  0
LINE
  8
0
 10
32
 20
66
 11
32
 21
51.7574
  0
LINE
  8
0
 10
32
 20
51.7574
 11
11
 21
30.7574
  0
LINE
  8
0
 10
11
 20
30.7574
 11
11
 21
19
  0
LINE
  8
0
 10
11
 20
19
 11
5
 21
19
  0
LINE
  8
0
 10
40
 20
19
 11
40
 21
33.2426
  0
LINE
  8
0
 10
40
 20
33.2426
 11
61
 21
54.2426
  0
LINE
  8
0
 10
61
 20
54.2426
 11
61
 21
66
  0
LINE
  8
0
 10
61
 20
66
 11
67
 21
66
  0
LINE
  8
0
 10
67
 20
66
 11
67
 21
51.7574
  0
LINE
  8
0
 10
67
 20
51.7574
 11
46
 21
30.7574
  0
LINE
  8
0
 10
46
 20
30.7574
 11
46
 21
19
  0
LINE
  8
0
 10
46
 20
19
 11
40
 21
19
  0
ENDSEC
  0
SECTION
  2
OBJECTS
  0
DICTIONARY
  0
ENDSEC
  0
EOF
