  0
SECTION
  2
HEADER
  9
$ACADVER
  1
AC1014
  9
$HANDSEED
  5
FFFF
  9
$MEASUREMENT
 70
     1
  0
ENDSEC
  0
SECTION
  2
TABLES
  0
TABLE
  2
VPORT
  5
8
330
0
100
AcDbSymbolTable
 70
     4
  0
VPORT
  5
2E
330
8
100
AcDbSymbolTableRecord
100
AcDbViewportTableRecord
  2
*ACTIVE
 70
     0
 10
0.0
 20
0.0
 11
1.0
 21
1.0
 12
210.0
 22
148.5
 13
0.0
 23
0.0
 14
10.0
 24
10.0
 15
10.0
 25
10.0
 16
0.0
 26
0.0
 36
1.0
 17
0.0
 27
0.0
 37
0.0
 40
341.0
 41
1.24
 42
50.0
 43
0.0
 44
0.0
 50
0.0
 51
0.0
 71
     0
 72
   100
 73
     1
 74
     3
 75
     0
 76
     0
 77
     0
 78
     0
  0
ENDTAB
  0
TABLE
  2
LTYPE
  5
5
330
0
100
AcDbSymbolTable
 70
     1
  0
LTYPE
  5
14
330
5
100
AcDbSymbolTableRecord
100
AcDbLinetypeTableRecord
  2
BYBLOCK
 70
     0
  3

 72
    65
 73
     0
 40
0.0
  0
LTYPE
  5
15
330
5
100
AcDbSymbolTableRecord
100
AcDbLinetypeTableRecord
  2
BYLAYER
 70
     0
  3

 72
    65
 73
     0
 40
0.0
  0
LTYPE
  5
16
330
5
100
AcDbSymbolTableRecord
100
AcDbLinetypeTableRecord
  2
CONTINUOUS
 70
     0
  3
Solid line
 72
    65
 73
     0
 40
0.0
  0
ENDTAB
  0
TABLE
  2
LAYER
  5
2
100
AcDbSymbolTable
 70
2
  0
LAYER
  5
50
100
AcDbSymbolTableRecord
100
AcDbLayerTableRecord
  2
0
 70
0
  6
CONTINUOUS
  0
LAYER
  5
51
100
AcDbSymbolTableRecord
100
AcDbLayerTableRecord
  2
layer_3_FLATTENED
 70
0
  6
CONTINUOUS
  0
ENDTAB
  0
TABLE
  2
STYLE
  5
3
330
0
100
AcDbSymbolTable
 70
     1
  0
STYLE
  5
11
330
3
100
AcDbSymbolTableRecord
100
AcDbTextStyleTableRecord
  2
STANDARD
 70
     0
 40
0.0
 41
1.0
 50
0.0
 71
     0
 42
2.5
  3
txt
  4

  0
ENDTAB
  0
TABLE
  2
VIEW
  5
6
330
0
100
AcDbSymbolTable
 70
     0
  0
ENDTAB
  0
TABLE
  2
UCS
  5
7
330
0
100
AcDbSymbolTable
 70
     0
  0
ENDTAB
  0
TABLE
  2
APPID
  5
9
330
0
100
AcDbSymbolTable
 70
     2
  0
APPID
  5
12
330
9
100
AcDbSymbolTableRecord
100
AcDbRegAppTableRecord
  2
ACAD
 70
     0
  0
ENDTAB
  0
TABLE
  2
DIMSTYLE
  5
A
330
0
100
AcDbSymbolTable
 70
     1
  0
DIMSTYLE
105
27
330
A
100
AcDbSymbolTableRecord
100
AcDbDimStyleTableRecord
  2
ISO-25
 70
     0
  3

  4

  5

  6

  7

 40
1.0
 41
2.5
 42
0.625
 43
3.75
 44
1.25
 45
0.0
 46
0.0
 47
0.0
 48
0.0
140
2.5
141
2.5
142
0.0
143
0.03937007874016
144
1.0
145
0.0
146
1.0
147
0.625
 71
     0
 72
     0
 73
     0
 74
     0
 75
     0
 76
     0
 77
     1
 78
     8
170
     0
171
     3
172
     1
173
     0
174
     0
175
     0
176
     0
177
     0
178
     0
270
     2
271
     2
272
     2
273
     2
274
     3
340
11
275
     0
280
     0
281
     0
282
     0
283
     0
284
     8
285
     0
286
     0
287
     3
288
     0
  0
ENDTAB
  0
TABLE
  2
BLOCK_RECORD
  5
1
330
0
100
AcDbSymbolTable
 70
     1
  0
BLOCK_RECORD
  5
1F
330
1
100
AcDbSymbolTableRecord
100
AcDbBlockTableRecord
  2
*MODEL_SPACE
  0
BLOCK_RECORD
  5
1B
330
1
100
AcDbSymbolTableRecord
100
AcDbBlockTableRecord
  2
*PAPER_SPACE
  0
ENDTAB
  0
ENDSEC
  0
SECTION
  2
BLOCKS
  0
BLOCK
  5
20
330
1F
100
AcDbEntity
  8
0
100
AcDbBlockBegin
  2
*MODEL_SPACE
 70
     0
 10
0.0
 20
0.0
 30
0.0
  3
*MODEL_SPACE
  1

  0
ENDBLK
  5
21
330
1F
100
AcDbEntity
  8
0
100
AcDbBlockEnd
  0
BLOCK
  5
1C
330
1B
100
AcDbEntity
 67
     1
  8
0
100
AcDbBlockBegin
  2
*PAPER_SPACE
  1

  0
ENDBLK
  5
1D
330
1B
100
AcDbEntity
 67
     1
  8
0
100
AcDbBlockEnd
  0
ENDSEC
  0
SECTION
  2
ENTITIES
  0
LINE
  5
100
100
AcDbEntity
  8
layer_3_FLATTENED
 62
7
100
AcDbLine
 10
20.000364
 20
11.500000
 30
0.0
 11
19.241357
 21
11.306180
 31
0.0
  0
LINE
  5
101
100
AcDbEntity
  8
layer_3_FLATTENED
 62
7
100
AcDbLine
 10
19.241357
 20
11.306180
 30
0.0
 11
18.683532
 21
10.756190
 31
0.0
  0
LINE
  5
102
100
AcDbEntity
  8
layer_3_FLATTENED
 62
7
100
AcDbLine
 10
18.683532
 20
10.756190
 30
0.0
 11
18.479000
 21
10.000000
 31
0.0
  0
LINE
  5
103
100
AcDbEntity
  8
layer_3_FLATTENED
 62
7
100
AcDbLine
 10
18.479000
 20
10.000000
 30
0.0
 11
18.683532
 21
9.243810
 31
0.0
  0
LINE
  5
104
100
AcDbEntity
  8
layer_3_FLATTENED
 62
7
100
AcDbLine
 10
18.683532
 20
9.243810
 30
0.0
 11
19.241357
 21
8.693820
 31
0.0
  0
LINE
  5
105
100
AcDbEntity
  8
layer_3_FLATTENED
 62
7
100
AcDbLine
 10
19.241357
 20
8.693820
 30
0.0
 11
20.000364
 21
8.500000
 31
0.0
  0
LINE
  5
106
100
AcDbEntity
  8
layer_3_FLATTENED
 62
7
100
AcDbLine
 10
20.000364
 20
8.500000
 30
0.0
 11
33.500364
 21
8.500000
 31
0.0
  0
LINE
  5
107
100
AcDbEntity
  8
layer_3_FLATTENED
 62
7
100
AcDbLine
 10
33.500364
 20
8.500000
 30
0.0
 11
33.500364
 21
7.000000
 31
0.0
  0
LINE
  5
108
100
AcDbEntity
  8
layer_3_FLATTENED
 62
7
100
AcDbLine
 10
33.500364
 20
7.000000
 30
0.0
 11
33.618281
 21
6.416160
 31
0.0
  0
LINE
  5
109
100
AcDbEntity
  8
layer_3_FLATTENED
 62
7
100
AcDbLine
 10
33.618281
 20
6.416160
 30
0.0
 11
33.939748
 21
5.939380
 31
0.0
  0
LINE
  5
10a
100
AcDbEntity
  8
layer_3_FLATTENED
 62
7
100
AcDbLine
 10
33.939748
 20
5.939380
 30
0.0
 11
34.416522
 21
5.617920
 31
0.0
  0
LINE
  5
10b
100
AcDbEntity
  8
layer_3_FLATTENED
 62
7
100
AcDbLine
 10
34.416522
 20
5.617920
 30
0.0
 11
35.000364
 21
5.500000
 31
0.0
  0
LINE
  5
10c
100
AcDbEntity
  8
layer_3_FLATTENED
 62
7
100
AcDbLine
 10
35.000364
 20
5.500000
 30
0.0
 11
38.000364
 21
5.500000
 31
0.0
  0
LINE
  5
10d
100
AcDbEntity
  8
layer_3_FLATTENED
 62
7
100
AcDbLine
 10
38.000364
 20
5.500000
 30
0.0
 11
38.759371
 21
5.693820
 31
0.0
  0
LINE
  5
10e
100
AcDbEntity
  8
layer_3_FLATTENED
 62
7
100
AcDbLine
 10
38.759371
 20
5.693820
 30
0.0
 11
39.317196
 21
6.243810
 31
0.0
  0
LINE
  5
10f
100
AcDbEntity
  8
layer_3_FLATTENED
 62
7
100
AcDbLine
 10
39.317196
 20
6.243810
 30
0.0
 11
39.521728
 21
7.000000
 31
0.0
  0
LINE
  5
110
100
AcDbEntity
  8
layer_3_FLATTENED
 62
7
100
AcDbLine
 10
39.521728
 20
7.000000
 30
0.0
 11
39.317196
 21
7.756190
 31
0.0
  0
LINE
  5
111
100
AcDbEntity
  8
layer_3_FLATTENED
 62
7
100
AcDbLine
 10
39.317196
 20
7.756190
 30
0.0
 11
38.759371
 21
8.306180
 31
0.0
  0
LINE
  5
112
100
AcDbEntity
  8
layer_3_FLATTENED
 62
7
100
AcDbLine
 10
38.759371
 20
8.306180
 30
0.0
 11
38.000364
 21
8.500000
 31
0.0
  0
LINE
  5
113
100
AcDbEntity
  8
layer_3_FLATTENED
 62
7
100
AcDbLine
 10
38.000364
 20
8.500000
 30
0.0
 11
36.500364
 21
8.500000
 31
0.0
  0
LINE
  5
114
100
AcDbEntity
  8
layer_3_FLATTENED
 62
7
100
AcDbLine
 10
36.500364
 20
8.500000
 30
0.0
 11
36.500364
 21
10.000000
 31
0.0
  0
LINE
  5
115
100
AcDbEntity
  8
layer_3_FLATTENED
 62
7
100
AcDbLine
 10
36.500364
 20
10.000000
 30
0.0
 11
36.382447
 21
10.583840
 31
0.0
  0
LINE
  5
116
100
AcDbEntity
  8
layer_3_FLATTENED
 62
7
100
AcDbLine
 10
36.382447
 20
10.583840
 30
0.0
 11
36.060980
 21
11.060620
 31
0.0
  0
LINE
  5
117
100
AcDbEntity
  8
layer_3_FLATTENED
 62
7
100
AcDbLine
 10
36.060980
 20
11.060620
 30
0.0
 11
35.584206
 21
11.382080
 31
0.0
  0
LINE
  5
118
100
AcDbEntity
  8
layer_3_FLATTENED
 62
7
100
AcDbLine
 10
35.584206
 20
11.382080
 30
0.0
 11
35.000364
 21
11.500000
 31
0.0
  0
LINE
  5
119
100
AcDbEntity
  8
layer_3_FLATTENED
 62
7
100
AcDbLine
 10
35.000364
 20
11.500000
 30
0.0
 11
20.000364
 21
11.500000
 31
0.0
  0
LINE
  5
11a
100
AcDbEntity
  8
layer_3_FLATTENED
 62
7
100
AcDbLine
 10
0.000000
 20
100.000000
 30
0.0
 11
90.000000
 21
100.000000
 31
0.0
  0
LINE
  5
11b
100
AcDbEntity
  8
layer_3_FLATTENED
 62
7
100
AcDbLine
 10
90.000000
 20
100.000000
 30
0.0
 11
90.000000
 21
0.000000
 31
0.0
  0
LINE
  5
11c
100
AcDbEntity
  8
layer_3_FLATTENED
 62
7
100
AcDbLine
 10
90.000000
 20
0.000000
 30
0.0
 11
0.000000
 21
0.000000
 31
0.0
  0
LINE
  5
11d
100
AcDbEntity
  8
layer_3_FLATTENED
 62
7
100
AcDbLine
 10
0.000000
 20
0.000000
 30
0.0
 11
0.000000
 21
100.000000
 31
0.0
  0
LINE
  5
11e
100
AcDbEntity
  8
layer_3_FLATTENED
 62
7
100
AcDbLine
 10
20.000364
 20
51.500000
 30
0.0
 11
19.241357
 21
51.306180
 31
0.0
  0
LINE
  5
11f
100
AcDbEntity
  8
layer_3_FLATTENED
 62
7
100
AcDbLine
 10
19.241357
 20
51.306180
 30
0.0
 11
18.683532
 21
50.756190
 31
0.0
  0
LINE
  5
120
100
AcDbEntity
  8
layer_3_FLATTENED
 62
7
100
AcDbLine
 10
18.683532
 20
50.756190
 30
0.0
 11
18.479000
 21
50.000000
 31
0.0
  0
LINE
  5
121
100
AcDbEntity
  8
layer_3_FLATTENED
 62
7
100
AcDbLine
 10
18.479000
 20
50.000000
 30
0.0
 11
18.683532
 21
49.243810
 31
0.0
  0
LINE
  5
122
100
AcDbEntity
  8
layer_3_FLATTENED
 62
7
100
AcDbLine
 10
18.683532
 20
49.243810
 30
0.0
 11
19.241357
 21
48.693820
 31
0.0
  0
LINE
  5
123
100
AcDbEntity
  8
layer_3_FLATTENED
 62
7
100
AcDbLine
 10
19.241357
 20
48.693820
 30
0.0
 11
20.000364
 21
48.500000
 31
0.0
  0
LINE
  5
124
100
AcDbEntity
  8
layer_3_FLATTENED
 62
7
100
AcDbLine
 10
20.000364
 20
48.500000
 30
0.0
 11
33.500364
 21
48.500000
 31
0.0
  0
LINE
  5
125
100
AcDbEntity
  8
layer_3_FLATTENED
 62
7
100
AcDbLine
 10
33.500364
 20
48.500000
 30
0.0
 11
33.500364
 21
47.000000
 31
0.0
  0
LINE
  5
126
100
AcDbEntity
  8
layer_3_FLATTENED
 62
7
100
AcDbLine
 10
33.500364
 20
47.000000
 30
0.0
 11
33.618281
 21
46.416160
 31
0.0
  0
LINE
  5
127
100
AcDbEntity
  8
layer_3_FLATTENED
 62
7
100
AcDbLine
 10
33.618281
 20
46.416160
 30
0.0
 11
33.939748
 21
45.939380
 31
0.0
  0
LINE
  5
128
100
AcDbEntity
  8
layer_3_FLATTENED
 62
7
100
AcDbLine
 10
33.939748
 20
45.939380
 30
0.0
 11
34.416522
 21
45.617920
 31
0.0
  0
LINE
  5
129
100
AcDbEntity
  8
layer_3_FLATTENED
 62
7
100
AcDbLine
 10
34.416522
 20
45.617920
 30
0.0
 11
35.000364
 21
45.500000
 31
0.0
  0
LINE
  5
12a
100
AcDbEntity
  8
layer_3_FLATTENED
 62
7
100
AcDbLine
 10
35.000364
 20
45.500000
 30
0.0
 11
38.000364
 21
45.500000
 31
0.0
  0
LINE
  5
12b
100
AcDbEntity
  8
layer_3_FLATTENED
 62
7
100
AcDbLine
 10
38.000364
 20
45.500000
 30
0.0
 11
38.759371
 21
45.693820
 31
0.0
  0
LINE
  5
12c
100
AcDbEntity
  8
layer_3_FLATTENED
 62
7
100
AcDbLine
 10
38.759371
 20
45.693820
 30
0.0
 11
39.317196
 21
46.243810
 31
0.0
  0
LINE
  5
12d
100
AcDbEntity
  8
layer_3_FLATTENED
 62
7
100
AcDbLine
 10
39.317196
 20
46.243810
 30
0.0
 11
39.521728
 21
47.000000
 31
0.0
  0
LINE
  5
12e
100
AcDbEntity
  8
layer_3_FLATTENED
 62
7
100
AcDbLine
 10
39.521728
 20
47.000000
 30
0.0
 11
39.317196
 21
47.756190
 31
0.0
  0
LINE
  5
12f
100
AcDbEntity
  8
layer_3_FLATTENED
 62
7
100
AcDbLine
 10
39.317196
 20
47.756190
 30
0.0
 11
38.759371
 21
48.306180
 31
0.0
  0
LINE
  5
130
100
AcDbEntity
  8
layer_3_FLATTENED
 62
7
100
AcDbLine
 10
38.759371
 20
48.306180
 30
0.0
 11
38.000364
 21
48.500000
 31
0.0
  0
LINE
  5
131
100
AcDbEntity
  8
layer_3_FLATTENED
 62
7
100
AcDbLine
 10
38.000364
 20
48.500000
 30
0.0
 11
36.500364
 21
48.500000
 31
0.0
  0
LINE
  5
132
100
AcDbEntity
  8
layer_3_FLATTENED
 62
7
100
AcDbLine
 10
36.500364
 20
48.500000
 30
0.0
 11
36.500364
 21
50.000000
 31
0.0
  0
LINE
  5
133
100
AcDbEntity
  8
layer_3_FLATTENED
 62
7
100
AcDbLine
 10
36.500364
 20
50.000000
 30
0.0
 11
36.382447
 21
50.583840
 31
0.0
  0
LINE
  5
134
100
AcDbEntity
  8
layer_3_FLATTENED
 62
7
100
AcDbLine
 10
36.382447
 20
50.583840
 30
0.0
 11
36.060980
 21
51.060620
 31
0.0
  0
LINE
  5
135
100
AcDbEntity
  8
layer_3_FLATTENED
 62
7
100
AcDbLine
 10
36.060980
 20
51.060620
 30
0.0
 11
35.584206
 21
51.382080
 31
0.0
  0
LINE
  5
136
100
AcDbEntity
  8
layer_3_FLATTENED
 62
7
100
AcDbLine
 10
35.584206
 20
51.382080
 30
0.0
 11
35.000364
 21
51.500000
 31
0.0
  0
LINE
  5
137
100
AcDbEntity
  8
layer_3_FLATTENED
 62
7
100
AcDbLine
 10
35.000364
 20
51.500000
 30
0.0
 11
20.000364
 21
51.500000
 31
0.0
  0
LINE
  5
138
100
AcDbEntity
  8
layer_3_FLATTENED
 62
7
100
AcDbLine
 10
20.000364
 20
91.500000
 30
0.0
 11
19.241357
 21
91.306180
 31
0.0
  0
LINE
  5
139
100
AcDbEntity
  8
layer_3_FLATTENED
 62
7
100
AcDbLine
 10
19.241357
 20
91.306180
 30
0.0
 11
18.683532
 21
90.756190
 31
0.0
  0
LINE
  5
13a
100
AcDbEntity
  8
layer_3_FLATTENED
 62
7
100
AcDbLine
 10
18.683532
 20
90.756190
 30
0.0
 11
18.479000
 21
90.000000
 31
0.0
  0
LINE
  5
13b
100
AcDbEntity
  8
layer_3_FLATTENED
 62
7
100
AcDbLine
 10
18.479000
 20
90.000000
 30
0.0
 11
18.683532
 21
89.243810
 31
0.0
  0
LINE
  5
13c
100
AcDbEntity
  8
layer_3_FLATTENED
 62
7
100
AcDbLine
 10
18.683532
 20
89.243810
 30
0.0
 11
19.241357
 21
88.693820
 31
0.0
  0
LINE
  5
13d
100
AcDbEntity
  8
layer_3_FLATTENED
 62
7
100
AcDbLine
 10
19.241357
 20
88.693820
 30
0.0
 11
20.000364
 21
88.500000
 31
0.0
  0
LINE
  5
13e
100
AcDbEntity
  8
layer_3_FLATTENED
 62
7
100
AcDbLine
 10
20.000364
 20
88.500000
 30
0.0
 11
38.000364
 21
88.500000
 31
0.0
  0
LINE
  5
13f
100
AcDbEntity
  8
layer_3_FLATTENED
 62
7
100
AcDbLine
 10
38.000364
 20
88.500000
 30
0.0
 11
38.759371
 21
88.693820
 31
0.0
  0
LINE
  5
140
100
AcDbEntity
  8
layer_3_FLATTENED
 62
7
100
AcDbLine
 10
38.759371
 20
88.693820
 30
0.0
 11
39.317196
 21
89.243810
 31
0.0
  0
LINE
  5
141
100
AcDbEntity
  8
layer_3_FLATTENED
 62
7
100
AcDbLine
 10
39.317196
 20
89.243810
 30
0.0
 11
39.521728
 21
90.000000
 31
0.0
  0
LINE
  5
142
100
AcDbEntity
  8
layer_3_FLATTENED
 62
7
100
AcDbLine
 10
39.521728
 20
90.000000
 30
0.0
 11
39.317196
 21
90.756190
 31
0.0
  0
LINE
  5
143
100
AcDbEntity
  8
layer_3_FLATTENED
 62
7
100
AcDbLine
 10
39.317196
 20
90.756190
 30
0.0
 11
38.759371
 21
91.306180
 31
0.0
  0
LINE
  5
144
100
AcDbEntity
  8
layer_3_FLATTENED
 62
7
100
AcDbLine
 10
38.759371
 20
91.306180
 30
0.0
 11
38.000364
 21
91.500000
 31
0.0
  0
LINE
  5
145
100
AcDbEntity
  8
layer_3_FLATTENED
 62
7
100
AcDbLine
 10
38.000364
 20
91.500000
 30
0.0
 11
20.000364
 21
91.500000
 31
0.0
  0
LINE
  5
146
100
AcDbEntity
  8
layer_3_FLATTENED
 62
7
100
AcDbLine
 10
55.000364
 20
11.500000
 30
0.0
 11
54.416522
 21
11.382080
 31
0.0
  0
LINE
  5
147
100
AcDbEntity
  8
layer_3_FLATTENED
 62
7
100
AcDbLine
 10
54.416522
 20
11.382080
 30
0.0
 11
53.939748
 21
11.060620
 31
0.0
  0
LINE
  5
148
100
AcDbEntity
  8
layer_3_FLATTENED
 62
7
100
AcDbLine
 10
53.939748
 20
11.060620
 30
0.0
 11
53.618281
 21
10.583840
 31
0.0
  0
LINE
  5
149
100
AcDbEntity
  8
layer_3_FLATTENED
 62
7
100
AcDbLine
 10
53.618281
 20
10.583840
 30
0.0
 11
53.500364
 21
10.000000
 31
0.0
  0
LINE
  5
14a
100
AcDbEntity
  8
layer_3_FLATTENED
 62
7
100
AcDbLine
 10
53.500364
 20
10.000000
 30
0.0
 11
53.500364
 21
8.500000
 31
0.0
  0
LINE
  5
14b
100
AcDbEntity
  8
layer_3_FLATTENED
 62
7
100
AcDbLine
 10
53.500364
 20
8.500000
 30
0.0
 11
52.000364
 21
8.500000
 31
0.0
  0
LINE
  5
14c
100
AcDbEntity
  8
layer_3_FLATTENED
 62
7
100
AcDbLine
 10
52.000364
 20
8.500000
 30
0.0
 11
51.241357
 21
8.306180
 31
0.0
  0
LINE
  5
14d
100
AcDbEntity
  8
layer_3_FLATTENED
 62
7
100
AcDbLine
 10
51.241357
 20
8.306180
 30
0.0
 11
50.683532
 21
7.756190
 31
0.0
  0
LINE
  5
14e
100
AcDbEntity
  8
layer_3_FLATTENED
 62
7
100
AcDbLine
 10
50.683532
 20
7.756190
 30
0.0
 11
50.479000
 21
7.000000
 31
0.0
  0
LINE
  5
14f
100
AcDbEntity
  8
layer_3_FLATTENED
 62
7
100
AcDbLine
 10
50.479000
 20
7.000000
 30
0.0
 11
50.683532
 21
6.243810
 31
0.0
  0
LINE
  5
150
100
AcDbEntity
  8
layer_3_FLATTENED
 62
7
100
AcDbLine
 10
50.683532
 20
6.243810
 30
0.0
 11
51.241357
 21
5.693820
 31
0.0
  0
LINE
  5
151
100
AcDbEntity
  8
layer_3_FLATTENED
 62
7
100
AcDbLine
 10
51.241357
 20
5.693820
 30
0.0
 11
52.000364
 21
5.500000
 31
0.0
  0
LINE
  5
152
100
AcDbEntity
  8
layer_3_FLATTENED
 62
7
100
AcDbLine
 10
52.000364
 20
5.500000
 30
0.0
 11
55.000364
 21
5.500000
 31
0.0
  0
LINE
  5
153
100
AcDbEntity
  8
layer_3_FLATTENED
 62
7
100
AcDbLine
 10
55.000364
 20
5.500000
 30
0.0
 11
55.584206
 21
5.617920
 31
0.0
  0
LINE
  5
154
100
AcDbEntity
  8
layer_3_FLATTENED
 62
7
100
AcDbLine
 10
55.584206
 20
5.617920
 30
0.0
 11
56.060980
 21
5.939380
 31
0.0
  0
LINE
  5
155
100
AcDbEntity
  8
layer_3_FLATTENED
 62
7
100
AcDbLine
 10
56.060980
 20
5.939380
 30
0.0
 11
56.382447
 21
6.416160
 31
0.0
  0
LINE
  5
156
100
AcDbEntity
  8
layer_3_FLATTENED
 62
7
100
AcDbLine
 10
56.382447
 20
6.416160
 30
0.0
 11
56.500364
 21
7.000000
 31
0.0
  0
LINE
  5
157
100
AcDbEntity
  8
layer_3_FLATTENED
 62
7
100
AcDbLine
 10
56.500364
 20
7.000000
 30
0.0
 11
56.500364
 21
8.500000
 31
0.0
  0
LINE
  5
158
100
AcDbEntity
  8
layer_3_FLATTENED
 62
7
100
AcDbLine
 10
56.500364
 20
8.500000
 30
0.0
 11
70.000364
 21
8.500000
 31
0.0
  0
LINE
  5
159
100
AcDbEntity
  8
layer_3_FLATTENED
 62
7
100
AcDbLine
 10
70.000364
 20
8.500000
 30
0.0
 11
70.759371
 21
8.693820
 31
0.0
  0
LINE
  5
15a
100
AcDbEntity
  8
layer_3_FLATTENED
 62
7
100
AcDbLine
 10
70.759371
 20
8.693820
 30
0.0
 11
71.317196
 21
9.243810
 31
0.0
  0
LINE
  5
15b
100
AcDbEntity
  8
layer_3_FLATTENED
 62
7
100
AcDbLine
 10
71.317196
 20
9.243810
 30
0.0
 11
71.521728
 21
10.000000
 31
0.0
  0
LINE
  5
15c
100
AcDbEntity
  8
layer_3_FLATTENED
 62
7
100
AcDbLine
 10
71.521728
 20
10.000000
 30
0.0
 11
71.317196
 21
10.756190
 31
0.0
  0
LINE
  5
15d
100
AcDbEntity
  8
layer_3_FLATTENED
 62
7
100
AcDbLine
 10
71.317196
 20
10.756190
 30
0.0
 11
70.759371
 21
11.306180
 31
0.0
  0
LINE
  5
15e
100
AcDbEntity
  8
layer_3_FLATTENED
 62
7
100
AcDbLine
 10
70.759371
 20
11.306180
 30
0.0
 11
70.000364
 21
11.500000
 31
0.0
  0
LINE
  5
15f
100
AcDbEntity
  8
layer_3_FLATTENED
 62
7
100
AcDbLine
 10
70.000364
 20
11.500000
 30
0.0
 11
55.000364
 21
11.500000
 31
0.0
  0
LINE
  5
160
100
AcDbEntity
  8
layer_3_FLATTENED
 62
7
100
AcDbLine
 10
55.000364
 20
51.500000
 30
0.0
 11
54.416522
 21
51.382080
 31
0.0
  0
LINE
  5
161
100
AcDbEntity
  8
layer_3_FLATTENED
 62
7
100
AcDbLine
 10
54.416522
 20
51.382080
 30
0.0
 11
53.939748
 21
51.060620
 31
0.0
  0
LINE
  5
162
100
AcDbEntity
  8
layer_3_FLATTENED
 62
7
100
AcDbLine
 10
53.939748
 20
51.060620
 30
0.0
 11
53.618281
 21
50.583840
 31
0.0
  0
LINE
  5
163
100
AcDbEntity
  8
layer_3_FLATTENED
 62
7
100
AcDbLine
 10
53.618281
 20
50.583840
 30
0.0
 11
53.500364
 21
50.000000
 31
0.0
  0
LINE
  5
164
100
AcDbEntity
  8
layer_3_FLATTENED
 62
7
100
AcDbLine
 10
53.500364
 20
50.000000
 30
0.0
 11
53.500364
 21
48.500000
 31
0.0
  0
LINE
  5
165
100
AcDbEntity
  8
layer_3_FLATTENED
 62
7
100
AcDbLine
 10
53.500364
 20
48.500000
 30
0.0
 11
52.000364
 21
48.500000
 31
0.0
  0
LINE
  5
166
100
AcDbEntity
  8
layer_3_FLATTENED
 62
7
100
AcDbLine
 10
52.000364
 20
48.500000
 30
0.0
 11
51.241357
 21
48.306180
 31
0.0
  0
LINE
  5
167
100
AcDbEntity
  8
layer_3_FLATTENED
 62
7
100
AcDbLine
 10
51.241357
 20
48.306180
 30
0.0
 11
50.683532
 21
47.756190
 31
0.0
  0
LINE
  5
168
100
AcDbEntity
  8
layer_3_FLATTENED
 62
7
100
AcDbLine
 10
50.683532
 20
47.756190
 30
0.0
 11
50.479000
 21
47.000000
 31
0.0
  0
LINE
  5
169
100
AcDbEntity
  8
layer_3_FLATTENED
 62
7
100
AcDbLine
 10
50.479000
 20
47.000000
 30
0.0
 11
50.683532
 21
46.243810
 31
0.0
  0
LINE
  5
16a
100
AcDbEntity
  8
layer_3_FLATTENED
 62
7
100
AcDbLine
 10
50.683532
 20
46.243810
 30
0.0
 11
51.241357
 21
45.693820
 31
0.0
  0
LINE
  5
16b
100
AcDbEntity
  8
layer_3_FLATTENED
 62
7
100
AcDbLine
 10
51.241357
 20
45.693820
 30
0.0
 11
52.000364
 21
45.500000
 31
0.0
  0
LINE
  5
16c
100
AcDbEntity
  8
layer_3_FLATTENED
 62
7
100
AcDbLine
 10
52.000364
 20
45.500000
 30
0.0
 11
55.000364
 21
45.500000
 31
0.0
  0
LINE
  5
16d
100
AcDbEntity
  8
layer_3_FLATTENED
 62
7
100
AcDbLine
 10
55.000364
 20
45.500000
 30
0.0
 11
55.584206
 21
45.617920
 31
0.0
  0
LINE
  5
16e
100
AcDbEntity
  8
layer_3_FLATTENED
 62
7
100
AcDbLine
 10
55.584206
 20
45.617920
 30
0.0
 11
56.060980
 21
45.939380
 31
0.0
  0
LINE
  5
16f
100
AcDbEntity
  8
layer_3_FLATTENED
 62
7
100
AcDbLine
 10
56.060980
 20
45.939380
 30
0.0
 11
56.382447
 21
46.416160
 31
0.0
  0
LINE
  5
170
100
AcDbEntity
  8
layer_3_FLATTENED
 62
7
100
AcDbLine
 10
56.382447
 20
46.416160
 30
0.0
 11
56.500364
 21
47.000000
 31
0.0
  0
LINE
  5
171
100
AcDbEntity
  8
layer_3_FLATTENED
 62
7
100
AcDbLine
 10
56.500364
 20
47.000000
 30
0.0
 11
56.500364
 21
48.500000
 31
0.0
  0
LINE
  5
172
100
AcDbEntity
  8
layer_3_FLATTENED
 62
7
100
AcDbLine
 10
56.500364
 20
48.500000
 30
0.0
 11
70.000364
 21
48.500000
 31
0.0
  0
LINE
  5
173
100
AcDbEntity
  8
layer_3_FLATTENED
 62
7
100
AcDbLine
 10
70.000364
 20
48.500000
 30
0.0
 11
70.759371
 21
48.693820
 31
0.0
  0
LINE
  5
174
100
AcDbEntity
  8
layer_3_FLATTENED
 62
7
100
AcDbLine
 10
70.759371
 20
48.693820
 30
0.0
 11
71.317196
 21
49.243810
 31
0.0
  0
LINE
  5
175
100
AcDbEntity
  8
layer_3_FLATTENED
 62
7
100
AcDbLine
 10
71.317196
 20
49.243810
 30
0.0
 11
71.521728
 21
50.000000
 31
0.0
  0
LINE
  5
176
100
AcDbEntity
  8
layer_3_FLATTENED
 62
7
100
AcDbLine
 10
71.521728
 20
50.000000
 30
0.0
 11
71.317196
 21
50.756190
 31
0.0
  0
LINE
  5
177
100
AcDbEntity
  8
layer_3_FLATTENED
 62
7
100
AcDbLine
 10
71.317196
 20
50.756190
 30
0.0
 11
70.759371
 21
51.306180
 31
0.0
  0
LINE
  5
178
100
AcDbEntity
  8
layer_3_FLATTENED
 62
7
100
AcDbLine
 10
70.759371
 20
51.306180
 30
0.0
 11
70.000364
 21
51.500000
 31
0.0
  0
LINE
  5
179
100
AcDbEntity
  8
layer_3_FLATTENED
 62
7
100
AcDbLine
 10
70.000364
 20
51.500000
 30
0.0
 11
55.000364
 21
51.500000
 31
0.0
  0
LINE
  5
17a
100
AcDbEntity
  8
layer_3_FLATTENED
 62
7
100
AcDbLine
 10
52.000364
 20
91.500000
 30
0.0
 11
51.241357
 21
91.306180
 31
0.0
  0
LINE
  5
17b
100
AcDbEntity
  8
layer_3_FLATTENED
 62
7
100
AcDbLine
 10
51.241357
 20
91.306180
 30
0.0
 11
50.683532
 21
90.756190
 31
0.0
  0
LINE
  5
17c
100
AcDbEntity
  8
layer_3_FLATTENED
 62
7
100
AcDbLine
 10
50.683532
 20
90.756190
 30
0.0
 11
50.479000
 21
90.000000
 31
0.0
  0
LINE
  5
17d
100
AcDbEntity
  8
layer_3_FLATTENED
 62
7
100
AcDbLine
 10
50.479000
 20
90.000000
 30
0.0
 11
50.683532
 21
89.243810
 31
0.0
  0
LINE
  5
17e
100
AcDbEntity
  8
layer_3_FLATTENED
 62
7
100
AcDbLine
 10
50.683532
 20
89.243810
 30
0.0
 11
51.241357
 21
88.693820
 31
0.0
  0
LINE
  5
17f
100
AcDbEntity
  8
layer_3_FLATTENED
 62
7
100
AcDbLine
 10
51.241357
 20
88.693820
 30
0.0
 11
52.000364
 21
88.500000
 31
0.0
  0
LINE
  5
180
100
AcDbEntity
  8
layer_3_FLATTENED
 62
7
100
AcDbLine
 10
52.000364
 20
88.500000
 30
0.0
 11
70.000364
 21
88.500000
 31
0.0
  0
LINE
  5
181
100
AcDbEntity
  8
layer_3_FLATTENED
 62
7
100
AcDbLine
 10
70.000364
 20
88.500000
 30
0.0
 11
70.759371
 21
88.693820
 31
0.0
  0
LINE
  5
182
100
AcDbEntity
  8
layer_3_FLATTENED
 62
7
100
AcDbLine
 10
70.759371
 20
88.693820
 30
0.0
 11
71.317196
 21
89.243810
 31
0.0
  0
LINE
  5
183
100
AcDbEntity
  8
layer_3_FLATTENED
 62
7
100
AcDbLine
 10
71.317196
 20
89.243810
 30
0.0
 11
71.521728
 21
90.000000
 31
0.0
  0
LINE
  5
184
100
AcDbEntity
  8
layer_3_FLATTENED
 62
7
100
AcDbLine
 10
71.521728
 20
90.000000
 30
0.0
 11
71.317196
 21
90.756190
 31
0.0
  0
LINE
  5
185
100
AcDbEntity
  8
layer_3_FLATTENED
 62
7
100
AcDbLine
 10
71.317196
 20
90.756190
 30
0.0
 11
70.759371
 21
91.306180
 31
0.0
  0
LINE
  5
186
100
AcDbEntity
  8
layer_3_FLATTENED
 62
7
100
AcDbLine
 10
70.759371
 20
91.306180
 30
0.0
 11
70.000364
 21
91.500000
 31
0.0
  0
LINE
  5
187
100
AcDbEntity
  8
layer_3_FLATTENED
 62
7
100
AcDbLine
 10
70.000364
 20
91.500000
 30
0.0
 11
52.000364
 21
91.500000
 31
0.0
  0
ENDSEC
  0
SECTION
  2
OBJECTS
  0
DICTIONARY
  5
C
330
0
100
AcDbDictionary
  3
ACAD_GROUP
350
D
  3
ACAD_MLINESTYLE
350
17
  0
DICTIONARY
  5
D
330
C
100
AcDbDictionary
  0
DICTIONARY
  5
1A
330
C
100
AcDbDictionary
  0
DICTIONARY
  5
17
330
C
100
AcDbDictionary
  3
STANDARD
350
18
  0
DICTIONARY
  5
19
330
C
100
AcDbDictionary
  0
ENDSEC
  0
EOF
