<?xml version="1.0" encoding="UTF-8" standalone="no"?>
<svg
   xmlns:dc="http://purl.org/dc/elements/1.1/"
   xmlns:cc="http://creativecommons.org/ns#"
   xmlns:rdf="http://www.w3.org/1999/02/22-rdf-syntax-ns#"
   xmlns:svg="http://www.w3.org/2000/svg"
   xmlns="http://www.w3.org/2000/svg"
   id="svg5160"
   version="1.1"
   viewBox="0 0 210 297"
   height="297mm"
   width="210mm">
  <defs
     id="defs5154" />
  <metadata
     id="metadata5157">
    <rdf:RDF>
      <cc:Work
         rdf:about="">
        <dc:format>image/svg+xml</dc:format>
        <dc:type
           rdf:resource="http://purl.org/dc/dcmitype/StillImage" />
        <dc:title></dc:title>
      </cc:Work>
    </rdf:RDF>
  </metadata>
  <g
     style="display:inline"
     id="layer1">
    <rect
       style="opacity:0.3;fill:#000000;fill-opacity:0.40611357;stroke:none;stroke-width:6;stroke-linecap:round;stroke-linejoin:round;stroke-miterlimit:4;stroke-dasharray:none;stroke-opacity:1"
       id="rect9670"
       width="80"
       height="260"
       x="-1.5894572e-07"
       y="36.999996" />
    <path
       style="color:#000000;font-style:normal;font-variant:normal;font-weight:normal;font-stretch:normal;font-size:medium;line-height:normal;font-family:sans-serif;font-variant-ligatures:normal;font-variant-position:normal;font-variant-caps:normal;font-variant-numeric:normal;font-variant-alternates:normal;font-feature-settings:normal;text-indent:0;text-align:start;text-decoration:none;text-decoration-line:none;text-decoration-style:solid;text-decoration-color:#000000;letter-spacing:normal;word-spacing:normal;text-transform:none;writing-mode:lr-tb;direction:ltr;text-orientation:mixed;dominant-baseline:auto;baseline-shift:baseline;text-anchor:start;white-space:normal;shape-padding:0;clip-rule:nonzero;display:inline;overflow:visible;visibility:visible;opacity:1;isolation:auto;mix-blend-mode:normal;color-interpolation:sRGB;color-interpolation-filters:linearRGB;solid-color:#000000;solid-opacity:1;vector-effect:none;fill:#000000;fill-opacity:0.30131004;fill-rule:nonzero;stroke:none;stroke-width:6;stroke-linecap:round;stroke-linejoin:round;stroke-miterlimit:4;stroke-dasharray:none;stroke-dashoffset:0;stroke-opacity:1;color-rendering:auto;image-rendering:auto;shape-rendering:auto;text-rendering:auto;enable-background:accumulate"
       d="M10.042727 264.0L9.25148685546 264.094572314L8.52471216315 264.387636701L7.89852909815 264.858787375L7.40906383554 265.487618549L7.10226560825 266.223063813L6.99999953248 267.0L7.10226560825 267.776936187L7.40906383554 268.512381451L7.89852909815 269.141212625L8.52471216315 269.612363299L9.25148685546 269.905427686L10.042727 270.0L57.042727 270.0L57.042727 287.0L57.2785614061 288.167683142L57.9214945094 289.121232491L58.875043858 289.764165594L60.042727 290.0L65.042727 290.0L65.8339671445 289.905427686L66.5607418369 289.612363299L67.1869249018 289.141212625L67.6763901645 288.512381451L67.9831883918 287.776936187L68.0854544675 287.0L67.9831883918 286.223063813L67.6763901645 285.487618549L67.1869249018 284.858787375L66.5607418369 284.387636701L65.8339671445 284.094572314L65.042727 284.0L63.042727 284.0L63.042727 267.0L62.8068925939 265.832316858L62.1639594906 264.878767509L61.210410142 264.235834406L60.042727 264.0L10.042727 264.0"
       id="path9647" />
    <path
       id="path9651"
       d="M10.042727 203.9997L9.25148685546 204.094272314L8.52471216315 204.387336701L7.89852909815 204.858487375L7.40906383554 205.487318549L7.10226560825 206.222763813L6.99999953248 206.9997L7.10226560825 207.776636187L7.40906383554 208.512081451L7.89852909815 209.140912625L8.52471216315 209.612063299L9.25148685546 209.905127686L10.042727 209.9997L57.042727 209.9997L57.042727 226.9997L57.2785614061 228.167383142L57.9214945094 229.120932491L58.875043858 229.763865594L60.042727 229.9997L65.042727 229.9997L65.8339671445 229.905127686L66.5607418369 229.612063299L67.1869249018 229.140912625L67.6763901645 228.512081451L67.9831883918 227.776636187L68.0854544675 226.9997L67.9831883918 226.222763813L67.6763901645 225.487318549L67.1869249018 224.858487375L66.5607418369 224.387336701L65.8339671445 224.094272314L65.042727 223.9997L63.042727 223.9997L63.042727 206.9997L62.8068925939 205.832016858L62.1639594906 204.878467509L61.210410142 204.235534406L60.042727 203.9997L10.042727 203.9997"
       style="color:#000000;font-style:normal;font-variant:normal;font-weight:normal;font-stretch:normal;font-size:medium;line-height:normal;font-family:sans-serif;font-variant-ligatures:normal;font-variant-position:normal;font-variant-caps:normal;font-variant-numeric:normal;font-variant-alternates:normal;font-feature-settings:normal;text-indent:0;text-align:start;text-decoration:none;text-decoration-line:none;text-decoration-style:solid;text-decoration-color:#000000;letter-spacing:normal;word-spacing:normal;text-transform:none;writing-mode:lr-tb;direction:ltr;text-orientation:mixed;dominant-baseline:auto;baseline-shift:baseline;text-anchor:start;white-space:normal;shape-padding:0;clip-rule:nonzero;display:inline;overflow:visible;visibility:visible;opacity:1;isolation:auto;mix-blend-mode:normal;color-interpolation:sRGB;color-interpolation-filters:linearRGB;solid-color:#000000;solid-opacity:1;vector-effect:none;fill:#000000;fill-opacity:0.30131004;fill-rule:nonzero;stroke:none;stroke-width:6;stroke-linecap:round;stroke-linejoin:round;stroke-miterlimit:4;stroke-dasharray:none;stroke-dashoffset:0;stroke-opacity:1;color-rendering:auto;image-rendering:auto;shape-rendering:auto;text-rendering:auto;enable-background:accumulate" />
    <path
       style="color:#000000;font-style:normal;font-variant:normal;font-weight:normal;font-stretch:normal;font-size:medium;line-height:normal;font-family:sans-serif;font-variant-ligatures:normal;font-variant-position:normal;font-variant-caps:normal;font-variant-numeric:normal;font-variant-alternates:normal;font-feature-settings:normal;text-indent:0;text-align:start;text-decoration:none;text-decoration-line:none;text-decoration-style:solid;text-decoration-color:#000000;letter-spacing:normal;word-spacing:normal;text-transform:none;writing-mode:lr-tb;direction:ltr;text-orientation:mixed;dominant-baseline:auto;baseline-shift:baseline;text-anchor:start;white-space:normal;shape-padding:0;clip-rule:nonzero;display:inline;overflow:visible;visibility:visible;opacity:1;isolation:auto;mix-blend-mode:normal;color-interpolation:sRGB;color-interpolation-filters:linearRGB;solid-color:#000000;solid-opacity:1;vector-effect:none;fill:#000000;fill-opacity:0.30131004;fill-rule:nonzero;stroke:none;stroke-width:6;stroke-linecap:round;stroke-linejoin:round;stroke-miterlimit:4;stroke-dasharray:none;stroke-dashoffset:0;stroke-opacity:1;color-rendering:auto;image-rendering:auto;shape-rendering:auto;text-rendering:auto;enable-background:accumulate"
       d="M10.042727 143.9997L9.25148685546 144.094272314L8.52471216315 144.387336701L7.89852909815 144.858487375L7.40906383554 145.487318549L7.10226560825 146.222763813L6.99999953248 146.9997L7.10226560825 147.776636187L7.40906383554 148.512081451L7.89852909815 149.140912625L8.52471216315 149.612063299L9.25148685546 149.905127686L10.042727 149.9997L57.042727 149.9997L57.042727 166.9997L57.2785614061 168.167383142L57.9214945094 169.120932491L58.875043858 169.763865594L60.042727 169.9997L65.042727 169.9997L65.8339671445 169.905127686L66.5607418369 169.612063299L67.1869249018 169.140912625L67.6763901645 168.512081451L67.9831883918 167.776636187L68.0854544675 166.9997L67.9831883918 166.222763813L67.6763901645 165.487318549L67.1869249018 164.858487375L66.5607418369 164.387336701L65.8339671445 164.094272314L65.042727 163.9997L63.042727 163.9997L63.042727 146.9997L62.8068925939 145.832016858L62.1639594906 144.878467509L61.210410142 144.235534406L60.042727 143.9997L10.042727 143.9997"
       id="path9653" />
  </g>
  <g
     style="display:none"
     id="layer2">
    <g
       id="g9716">
      <rect
         style="opacity:0.3;fill:#000000;fill-opacity:0.40611357;stroke:none;stroke-width:6;stroke-linecap:round;stroke-linejoin:round;stroke-miterlimit:4;stroke-dasharray:none;stroke-opacity:1"
         id="rect9668"
         width="80"
         height="260"
         x="90"
         y="36.999996" />
      <path
         style="color:#000000;font-style:normal;font-variant:normal;font-weight:normal;font-stretch:normal;font-size:medium;line-height:normal;font-family:sans-serif;font-variant-ligatures:normal;font-variant-position:normal;font-variant-caps:normal;font-variant-numeric:normal;font-variant-alternates:normal;font-feature-settings:normal;text-indent:0;text-align:start;text-decoration:none;text-decoration-line:none;text-decoration-style:solid;text-decoration-color:#000000;letter-spacing:normal;word-spacing:normal;text-transform:none;writing-mode:lr-tb;direction:ltr;text-orientation:mixed;dominant-baseline:auto;baseline-shift:baseline;text-anchor:start;white-space:normal;shape-padding:0;clip-rule:nonzero;display:inline;overflow:visible;visibility:visible;opacity:1;isolation:auto;mix-blend-mode:normal;color-interpolation:sRGB;color-interpolation-filters:linearRGB;solid-color:#000000;solid-opacity:1;vector-effect:none;fill:#000000;fill-opacity:0.40611357;fill-rule:nonzero;stroke:none;stroke-width:6;stroke-linecap:round;stroke-linejoin:round;stroke-miterlimit:4;stroke-dasharray:none;stroke-dashoffset:0;stroke-opacity:1;color-rendering:auto;image-rendering:auto;shape-rendering:auto;text-rendering:auto;enable-background:accumulate"
         d="m 154.99864,108.91348 a 3.0003,3.0003 0 0 0 -2.95508,3.04297 v 38.75781 l -54.121099,54.1211 a 3.0003,3.0003 0 1 0 4.242189,4.24218 l 55,-55 a 3.0003,3.0003 0 0 0 0.87891,-2.12109 v -40 a 3.0003,3.0003 0 0 0 -3.04492,-3.04297 z"
         id="path9656" />
      <path
         style="color:#000000;font-style:normal;font-variant:normal;font-weight:normal;font-stretch:normal;font-size:medium;line-height:normal;font-family:sans-serif;font-variant-ligatures:normal;font-variant-position:normal;font-variant-caps:normal;font-variant-numeric:normal;font-variant-alternates:normal;font-feature-settings:normal;text-indent:0;text-align:start;text-decoration:none;text-decoration-line:none;text-decoration-style:solid;text-decoration-color:#000000;letter-spacing:normal;word-spacing:normal;text-transform:none;writing-mode:lr-tb;direction:ltr;text-orientation:mixed;dominant-baseline:auto;baseline-shift:baseline;text-anchor:start;white-space:normal;shape-padding:0;clip-rule:nonzero;display:inline;overflow:visible;visibility:visible;opacity:1;isolation:auto;mix-blend-mode:normal;color-interpolation:sRGB;color-interpolation-filters:linearRGB;solid-color:#000000;solid-opacity:1;vector-effect:none;fill:#000000;fill-opacity:0.40611357;fill-rule:nonzero;stroke:none;stroke-width:6;stroke-linecap:round;stroke-linejoin:round;stroke-miterlimit:4;stroke-dasharray:none;stroke-dashoffset:0;stroke-opacity:1;color-rendering:auto;image-rendering:auto;shape-rendering:auto;text-rendering:auto;enable-background:accumulate"
         d="m 154.95538,168.91437 a 3.0003,3.0003 0 0 0 -2.95508,3.04297 v 28.75781 l -54.121095,54.1211 a 3.0003,3.0003 0 0 0 -0.878906,2.12109 v 10 a 3.0003,3.0003 0 1 0 6.000001,0 v -8.75781 l 54.12109,-54.1211 a 3.0003,3.0003 0 0 0 0.87891,-2.12109 v -30 a 3.0003,3.0003 0 0 0 -3.04492,-3.04297 z"
         id="path9658" />
      <path
         style="color:#000000;font-style:normal;font-variant:normal;font-weight:normal;font-stretch:normal;font-size:medium;line-height:normal;font-family:sans-serif;font-variant-ligatures:normal;font-variant-position:normal;font-variant-caps:normal;font-variant-numeric:normal;font-variant-alternates:normal;font-feature-settings:normal;text-indent:0;text-align:start;text-decoration:none;text-decoration-line:none;text-decoration-style:solid;text-decoration-color:#000000;letter-spacing:normal;word-spacing:normal;text-transform:none;writing-mode:lr-tb;direction:ltr;text-orientation:mixed;dominant-baseline:auto;baseline-shift:baseline;text-anchor:start;white-space:normal;shape-padding:0;clip-rule:nonzero;display:inline;overflow:visible;visibility:visible;opacity:1;isolation:auto;mix-blend-mode:normal;color-interpolation:sRGB;color-interpolation-filters:linearRGB;solid-color:#000000;solid-opacity:1;vector-effect:none;fill:#000000;fill-opacity:0.40611357;fill-rule:nonzero;stroke:none;stroke-width:6;stroke-linecap:round;stroke-linejoin:round;stroke-miterlimit:4;stroke-dasharray:none;stroke-dashoffset:0;stroke-opacity:1;color-rendering:auto;image-rendering:auto;shape-rendering:auto;text-rendering:auto;enable-background:accumulate"
         d="m 154.95538,48.914374 a 3.0003,3.0003 0 0 0 -2.95508,3.042969 V 70.715155 L 97.879205,124.83625 a 3.0003,3.0003 0 0 0 -0.878906,2.12109 v 20 a 3.0003,3.0003 0 1 0 6.000001,0 v -18.75781 l 54.12109,-54.121093 a 3.0003,3.0003 0 0 0 0.87891,-2.121094 v -20 a 3.0003,3.0003 0 0 0 -3.04492,-3.042969 z"
         id="path9660" />
    </g>
  </g>
</svg>
