  0
SECTION
  2
BLOCKS
  0
ENDSEC
  0
SECTION
  2
ENTITIES
  0
LINE
  8
0
 10
174
 20
170
 11
0
 21
170
  0
LINE
  8
0
 10
0
 20
170
 11
0
 21
0
  0
LINE
  8
0
 10
0
 20
0
 11
174
 21
0
  0
LINE
  8
0
 10
174
 20
0
 11
174
 21
170
  0
LINE
  8
0
 10
168.89
 20
163.253
 11
168.781
 21
163.264
  0
LINE
  8
0
 10
168.781
 20
163.264
 11
168.672
 21
163.281
  0
LINE
  8
0
 10
168.672
 20
163.281
 11
168.565
 21
163.305
  0
LINE
  8
0
 10
168.565
 20
163.305
 11
168.459
 21
163.336
  0
LINE
  8
0
 10
168.459
 20
163.336
 11
168.356
 21
163.373
  0
LINE
  8
0
 10
168.356
 20
163.373
 11
168.255
 21
163.417
  0
LINE
  8
0
 10
168.255
 20
163.417
 11
168.157
 21
163.466
  0
LINE
  8
0
 10
168.157
 20
163.466
 11
168.062
 21
163.522
  0
LINE
  8
0
 10
168.062
 20
163.522
 11
167.971
 21
163.584
  0
LINE
  8
0
 10
167.971
 20
163.584
 11
167.885
 21
163.652
  0
LINE
  8
0
 10
167.885
 20
163.652
 11
167.802
 21
163.724
  0
LINE
  8
0
 10
167.802
 20
163.724
 11
167.724
 21
163.802
  0
LINE
  8
0
 10
167.724
 20
163.802
 11
167.652
 21
163.885
  0
LINE
  8
0
 10
167.652
 20
163.885
 11
167.584
 21
163.971
  0
LINE
  8
0
 10
167.584
 20
163.971
 11
167.522
 21
164.062
  0
LINE
  8
0
 10
167.522
 20
164.062
 11
167.466
 21
164.157
  0
LINE
  8
0
 10
167.466
 20
164.157
 11
167.417
 21
164.255
  0
LINE
  8
0
 10
167.417
 20
164.255
 11
167.373
 21
164.356
  0
LINE
  8
0
 10
167.373
 20
164.356
 11
167.336
 21
164.459
  0
LINE
  8
0
 10
167.336
 20
164.459
 11
167.305
 21
164.565
  0
LINE
  8
0
 10
167.305
 20
164.565
 11
167.281
 21
164.672
  0
LINE
  8
0
 10
167.281
 20
164.672
 11
167.264
 21
164.781
  0
LINE
  8
0
 10
167.264
 20
164.781
 11
167.253
 21
164.89
  0
LINE
  8
0
 10
167.253
 20
164.89
 11
167.25
 21
165
  0
LINE
  8
0
 10
167.25
 20
165
 11
167.253
 21
165.11
  0
LINE
  8
0
 10
167.253
 20
165.11
 11
167.264
 21
165.219
  0
LINE
  8
0
 10
167.264
 20
165.219
 11
167.281
 21
165.328
  0
LINE
  8
0
 10
167.281
 20
165.328
 11
167.305
 21
165.435
  0
LINE
  8
0
 10
167.305
 20
165.435
 11
167.336
 21
165.541
  0
LINE
  8
0
 10
167.336
 20
165.541
 11
167.373
 21
165.644
  0
LINE
  8
0
 10
167.373
 20
165.644
 11
167.417
 21
165.745
  0
LINE
  8
0
 10
167.417
 20
165.745
 11
167.466
 21
165.843
  0
LINE
  8
0
 10
167.466
 20
165.843
 11
167.522
 21
165.938
  0
LINE
  8
0
 10
167.522
 20
165.938
 11
167.584
 21
166.029
  0
LINE
  8
0
 10
167.584
 20
166.029
 11
167.652
 21
166.115
  0
LINE
  8
0
 10
167.652
 20
166.115
 11
167.724
 21
166.198
  0
LINE
  8
0
 10
167.724
 20
166.198
 11
167.802
 21
166.276
  0
LINE
  8
0
 10
167.802
 20
166.276
 11
167.885
 21
166.348
  0
LINE
  8
0
 10
167.885
 20
166.348
 11
167.971
 21
166.416
  0
LINE
  8
0
 10
167.971
 20
166.416
 11
168.062
 21
166.478
  0
LINE
  8
0
 10
168.062
 20
166.478
 11
168.157
 21
166.534
  0
LINE
  8
0
 10
168.157
 20
166.534
 11
168.255
 21
166.583
  0
LINE
  8
0
 10
168.255
 20
166.583
 11
168.356
 21
166.627
  0
LINE
  8
0
 10
168.356
 20
166.627
 11
168.459
 21
166.664
  0
LINE
  8
0
 10
168.459
 20
166.664
 11
168.565
 21
166.695
  0
LINE
  8
0
 10
168.565
 20
166.695
 11
168.672
 21
166.719
  0
LINE
  8
0
 10
168.672
 20
166.719
 11
168.781
 21
166.736
  0
LINE
  8
0
 10
168.781
 20
166.736
 11
168.89
 21
166.747
  0
LINE
  8
0
 10
168.89
 20
166.747
 11
169
 21
166.75
  0
LINE
  8
0
 10
169
 20
166.75
 11
169.11
 21
166.747
  0
LINE
  8
0
 10
169.11
 20
166.747
 11
169.219
 21
166.736
  0
LINE
  8
0
 10
169.219
 20
166.736
 11
169.328
 21
166.719
  0
LINE
  8
0
 10
169.328
 20
166.719
 11
169.435
 21
166.695
  0
LINE
  8
0
 10
169.435
 20
166.695
 11
169.541
 21
166.664
  0
LINE
  8
0
 10
169.541
 20
166.664
 11
169.644
 21
166.627
  0
LINE
  8
0
 10
169.644
 20
166.627
 11
169.745
 21
166.583
  0
LINE
  8
0
 10
169.745
 20
166.583
 11
169.843
 21
166.534
  0
LINE
  8
0
 10
169.843
 20
166.534
 11
169.938
 21
166.478
  0
LINE
  8
0
 10
169.938
 20
166.478
 11
170.029
 21
166.416
  0
LINE
  8
0
 10
170.029
 20
166.416
 11
170.115
 21
166.348
  0
LINE
  8
0
 10
170.115
 20
166.348
 11
170.198
 21
166.276
  0
LINE
  8
0
 10
170.198
 20
166.276
 11
170.276
 21
166.198
  0
LINE
  8
0
 10
170.276
 20
166.198
 11
170.348
 21
166.115
  0
LINE
  8
0
 10
170.348
 20
166.115
 11
170.416
 21
166.029
  0
LINE
  8
0
 10
170.416
 20
166.029
 11
170.478
 21
165.938
  0
LINE
  8
0
 10
170.478
 20
165.938
 11
170.534
 21
165.843
  0
LINE
  8
0
 10
170.534
 20
165.843
 11
170.583
 21
165.745
  0
LINE
  8
0
 10
170.583
 20
165.745
 11
170.627
 21
165.644
  0
LINE
  8
0
 10
170.627
 20
165.644
 11
170.664
 21
165.541
  0
LINE
  8
0
 10
170.664
 20
165.541
 11
170.695
 21
165.435
  0
LINE
  8
0
 10
170.695
 20
165.435
 11
170.719
 21
165.328
  0
LINE
  8
0
 10
170.719
 20
165.328
 11
170.736
 21
165.219
  0
LINE
  8
0
 10
170.736
 20
165.219
 11
170.747
 21
165.11
  0
LINE
  8
0
 10
170.747
 20
165.11
 11
170.75
 21
165
  0
LINE
  8
0
 10
170.75
 20
165
 11
170.747
 21
164.89
  0
LINE
  8
0
 10
170.747
 20
164.89
 11
170.736
 21
164.781
  0
LINE
  8
0
 10
170.736
 20
164.781
 11
170.719
 21
164.672
  0
LINE
  8
0
 10
170.719
 20
164.672
 11
170.695
 21
164.565
  0
LINE
  8
0
 10
170.695
 20
164.565
 11
170.664
 21
164.459
  0
LINE
  8
0
 10
170.664
 20
164.459
 11
170.627
 21
164.356
  0
LINE
  8
0
 10
170.627
 20
164.356
 11
170.583
 21
164.255
  0
LINE
  8
0
 10
170.583
 20
164.255
 11
170.534
 21
164.157
  0
LINE
  8
0
 10
170.534
 20
164.157
 11
170.478
 21
164.062
  0
LINE
  8
0
 10
170.478
 20
164.062
 11
170.416
 21
163.971
  0
LINE
  8
0
 10
170.416
 20
163.971
 11
170.348
 21
163.885
  0
LINE
  8
0
 10
170.348
 20
163.885
 11
170.276
 21
163.802
  0
LINE
  8
0
 10
170.276
 20
163.802
 11
170.198
 21
163.724
  0
LINE
  8
0
 10
170.198
 20
163.724
 11
170.115
 21
163.652
  0
LINE
  8
0
 10
170.115
 20
163.652
 11
170.029
 21
163.584
  0
LINE
  8
0
 10
170.029
 20
163.584
 11
169.938
 21
163.522
  0
LINE
  8
0
 10
169.938
 20
163.522
 11
169.843
 21
163.466
  0
LINE
  8
0
 10
169.843
 20
163.466
 11
169.745
 21
163.417
  0
LINE
  8
0
 10
169.745
 20
163.417
 11
169.644
 21
163.373
  0
LINE
  8
0
 10
169.644
 20
163.373
 11
169.541
 21
163.336
  0
LINE
  8
0
 10
169.541
 20
163.336
 11
169.435
 21
163.305
  0
LINE
  8
0
 10
169.435
 20
163.305
 11
169.328
 21
163.281
  0
LINE
  8
0
 10
169.328
 20
163.281
 11
169.219
 21
163.264
  0
LINE
  8
0
 10
169.219
 20
163.264
 11
169.11
 21
163.253
  0
LINE
  8
0
 10
169.11
 20
163.253
 11
169
 21
163.25
  0
LINE
  8
0
 10
169
 20
163.25
 11
168.89
 21
163.253
  0
LINE
  8
0
 10
42
 20
159
 11
15
 21
159
  0
LINE
  8
0
 10
15
 20
159
 11
15
 21
165
  0
LINE
  8
0
 10
15
 20
165
 11
42
 21
165
  0
LINE
  8
0
 10
42
 20
165
 11
42
 21
159
  0
LINE
  8
0
 10
97
 20
159
 11
97
 21
165
  0
LINE
  8
0
 10
97
 20
165
 11
124
 21
165
  0
LINE
  8
0
 10
124
 20
165
 11
124
 21
159
  0
LINE
  8
0
 10
124
 20
159
 11
97
 21
159
  0
LINE
  8
0
 10
50
 20
159
 11
50
 21
165
  0
LINE
  8
0
 10
50
 20
165
 11
77
 21
165
  0
LINE
  8
0
 10
77
 20
165
 11
77
 21
159
  0
LINE
  8
0
 10
77
 20
159
 11
50
 21
159
  0
LINE
  8
0
 10
132
 20
159
 11
132
 21
165
  0
LINE
  8
0
 10
132
 20
165
 11
159
 21
165
  0
LINE
  8
0
 10
159
 20
165
 11
159
 21
159
  0
LINE
  8
0
 10
159
 20
159
 11
132
 21
159
  0
LINE
  8
0
 10
69
 20
95
 11
69
 21
109
  0
LINE
  8
0
 10
69
 20
109
 11
50
 21
109
  0
LINE
  8
0
 10
50
 20
109
 11
50
 21
115
  0
LINE
  8
0
 10
50
 20
115
 11
75
 21
115
  0
LINE
  8
0
 10
75
 20
115
 11
75
 21
101
  0
LINE
  8
0
 10
75
 20
101
 11
77
 21
101
  0
LINE
  8
0
 10
77
 20
101
 11
77
 21
95
  0
LINE
  8
0
 10
77
 20
95
 11
69
 21
95
  0
LINE
  8
0
 10
97
 20
95
 11
97
 21
101
  0
LINE
  8
0
 10
97
 20
101
 11
99
 21
101
  0
LINE
  8
0
 10
99
 20
101
 11
99
 21
115
  0
LINE
  8
0
 10
99
 20
115
 11
124
 21
115
  0
LINE
  8
0
 10
124
 20
115
 11
124
 21
109
  0
LINE
  8
0
 10
124
 20
109
 11
105
 21
109
  0
LINE
  8
0
 10
105
 20
109
 11
105
 21
95
  0
LINE
  8
0
 10
105
 20
95
 11
97
 21
95
  0
LINE
  8
0
 10
34
 20
95
 11
34
 21
109
  0
LINE
  8
0
 10
34
 20
109
 11
15
 21
109
  0
LINE
  8
0
 10
15
 20
109
 11
15
 21
115
  0
LINE
  8
0
 10
15
 20
115
 11
40
 21
115
  0
LINE
  8
0
 10
40
 20
115
 11
40
 21
101
  0
LINE
  8
0
 10
40
 20
101
 11
42
 21
101
  0
LINE
  8
0
 10
42
 20
101
 11
42
 21
95
  0
LINE
  8
0
 10
42
 20
95
 11
34
 21
95
  0
LINE
  8
0
 10
132
 20
95
 11
132
 21
101
  0
LINE
  8
0
 10
132
 20
101
 11
134
 21
101
  0
LINE
  8
0
 10
134
 20
101
 11
134
 21
115
  0
LINE
  8
0
 10
134
 20
115
 11
159
 21
115
  0
LINE
  8
0
 10
159
 20
115
 11
159
 21
109
  0
LINE
  8
0
 10
159
 20
109
 11
140
 21
109
  0
LINE
  8
0
 10
140
 20
109
 11
140
 21
95
  0
LINE
  8
0
 10
140
 20
95
 11
132
 21
95
  0
LINE
  8
0
 10
34
 20
5
 11
34
 21
19
  0
LINE
  8
0
 10
34
 20
19
 11
15
 21
19
  0
LINE
  8
0
 10
15
 20
19
 11
15
 21
25
  0
LINE
  8
0
 10
15
 20
25
 11
40
 21
25
  0
LINE
  8
0
 10
40
 20
25
 11
40
 21
11
  0
LINE
  8
0
 10
40
 20
11
 11
42
 21
11
  0
LINE
  8
0
 10
42
 20
11
 11
42
 21
5
  0
LINE
  8
0
 10
42
 20
5
 11
34
 21
5
  0
LINE
  8
0
 10
69
 20
5
 11
69
 21
19
  0
LINE
  8
0
 10
69
 20
19
 11
50
 21
19
  0
LINE
  8
0
 10
50
 20
19
 11
50
 21
25
  0
LINE
  8
0
 10
50
 20
25
 11
75
 21
25
  0
LINE
  8
0
 10
75
 20
25
 11
75
 21
11
  0
LINE
  8
0
 10
75
 20
11
 11
77
 21
11
  0
LINE
  8
0
 10
77
 20
11
 11
77
 21
5
  0
LINE
  8
0
 10
77
 20
5
 11
69
 21
5
  0
LINE
  8
0
 10
97
 20
5
 11
97
 21
11
  0
LINE
  8
0
 10
97
 20
11
 11
99
 21
11
  0
LINE
  8
0
 10
99
 20
11
 11
99
 21
25
  0
LINE
  8
0
 10
99
 20
25
 11
124
 21
25
  0
LINE
  8
0
 10
124
 20
25
 11
124
 21
19
  0
LINE
  8
0
 10
124
 20
19
 11
105
 21
19
  0
LINE
  8
0
 10
105
 20
19
 11
105
 21
5
  0
LINE
  8
0
 10
105
 20
5
 11
97
 21
5
  0
LINE
  8
0
 10
132
 20
5
 11
132
 21
11
  0
LINE
  8
0
 10
132
 20
11
 11
134
 21
11
  0
LINE
  8
0
 10
134
 20
11
 11
134
 21
25
  0
LINE
  8
0
 10
134
 20
25
 11
159
 21
25
  0
LINE
  8
0
 10
159
 20
25
 11
159
 21
19
  0
LINE
  8
0
 10
159
 20
19
 11
140
 21
19
  0
LINE
  8
0
 10
140
 20
19
 11
140
 21
5
  0
LINE
  8
0
 10
140
 20
5
 11
132
 21
5
  0
LINE
  8
0
 10
4.89011
 20
3.25345
 11
4.78065
 21
3.26379
  0
LINE
  8
0
 10
4.78065
 20
3.26379
 11
4.67207
 21
3.28099
  0
LINE
  8
0
 10
4.67207
 20
3.28099
 11
4.56479
 21
3.30498
  0
LINE
  8
0
 10
4.56479
 20
3.30498
 11
4.45921
 21
3.33565
  0
LINE
  8
0
 10
4.45921
 20
3.33565
 11
4.35577
 21
3.37288
  0
LINE
  8
0
 10
4.35577
 20
3.37288
 11
4.25488
 21
3.41655
  0
LINE
  8
0
 10
4.25488
 20
3.41655
 11
4.15692
 21
3.46646
  0
LINE
  8
0
 10
4.15692
 20
3.46646
 11
4.0623
 21
3.52242
  0
LINE
  8
0
 10
4.0623
 20
3.52242
 11
3.97137
 21
3.58421
  0
LINE
  8
0
 10
3.97137
 20
3.58421
 11
3.88451
 21
3.6516
  0
LINE
  8
0
 10
3.88451
 20
3.6516
 11
3.80203
 21
3.7243
  0
LINE
  8
0
 10
3.80203
 20
3.7243
 11
3.7243
 21
3.80203
  0
LINE
  8
0
 10
3.7243
 20
3.80203
 11
3.6516
 21
3.88451
  0
LINE
  8
0
 10
3.6516
 20
3.88451
 11
3.58421
 21
3.97137
  0
LINE
  8
0
 10
3.58421
 20
3.97137
 11
3.52242
 21
4.0623
  0
LINE
  8
0
 10
3.52242
 20
4.0623
 11
3.46646
 21
4.15692
  0
LINE
  8
0
 10
3.46646
 20
4.15692
 11
3.41655
 21
4.25488
  0
LINE
  8
0
 10
3.41655
 20
4.25488
 11
3.37288
 21
4.35577
  0
LINE
  8
0
 10
3.37288
 20
4.35577
 11
3.33565
 21
4.45921
  0
LINE
  8
0
 10
3.33565
 20
4.45921
 11
3.30498
 21
4.56479
  0
LINE
  8
0
 10
3.30498
 20
4.56479
 11
3.28099
 21
4.67207
  0
LINE
  8
0
 10
3.28099
 20
4.67207
 11
3.26379
 21
4.78065
  0
LINE
  8
0
 10
3.26379
 20
4.78065
 11
3.25345
 21
4.89011
  0
LINE
  8
0
 10
3.25345
 20
4.89011
 11
3.25
 21
5
  0
LINE
  8
0
 10
3.25
 20
5
 11
3.25345
 21
5.10988
  0
LINE
  8
0
 10
3.25345
 20
5.10988
 11
3.26379
 21
5.21933
  0
LINE
  8
0
 10
3.26379
 20
5.21933
 11
3.28099
 21
5.32791
  0
LINE
  8
0
 10
3.28099
 20
5.32791
 11
3.30498
 21
5.4352
  0
LINE
  8
0
 10
3.30498
 20
5.4352
 11
3.33565
 21
5.54077
  0
LINE
  8
0
 10
3.33565
 20
5.54077
 11
3.37288
 21
5.64421
  0
LINE
  8
0
 10
3.37288
 20
5.64421
 11
3.41655
 21
5.7451
  0
LINE
  8
0
 10
3.41655
 20
5.7451
 11
3.46646
 21
5.84306
  0
LINE
  8
0
 10
3.46646
 20
5.84306
 11
3.52242
 21
5.93768
  0
LINE
  8
0
 10
3.52242
 20
5.93768
 11
3.58421
 21
6.02861
  0
LINE
  8
0
 10
3.58421
 20
6.02861
 11
3.6516
 21
6.11548
  0
LINE
  8
0
 10
3.6516
 20
6.11548
 11
3.7243
 21
6.19795
  0
LINE
  8
0
 10
3.7243
 20
6.19795
 11
3.80203
 21
6.27568
  0
LINE
  8
0
 10
3.80203
 20
6.27568
 11
3.88451
 21
6.34839
  0
LINE
  8
0
 10
3.88451
 20
6.34839
 11
3.97137
 21
6.41577
  0
LINE
  8
0
 10
3.97137
 20
6.41577
 11
4.0623
 21
6.47757
  0
LINE
  8
0
 10
4.0623
 20
6.47757
 11
4.15692
 21
6.53352
  0
LINE
  8
0
 10
4.15692
 20
6.53352
 11
4.25488
 21
6.58344
  0
LINE
  8
0
 10
4.25488
 20
6.58344
 11
4.35577
 21
6.62711
  0
LINE
  8
0
 10
4.35577
 20
6.62711
 11
4.45921
 21
6.66434
  0
LINE
  8
0
 10
4.45921
 20
6.66434
 11
4.56479
 21
6.69501
  0
LINE
  8
0
 10
4.56479
 20
6.69501
 11
4.67207
 21
6.71899
  0
LINE
  8
0
 10
4.67207
 20
6.71899
 11
4.78065
 21
6.73619
  0
LINE
  8
0
 10
4.78065
 20
6.73619
 11
4.89011
 21
6.74654
  0
LINE
  8
0
 10
4.89011
 20
6.74654
 11
5
 21
6.75
  0
LINE
  8
0
 10
5
 20
6.75
 11
5.10988
 21
6.74654
  0
LINE
  8
0
 10
5.10988
 20
6.74654
 11
5.21933
 21
6.73619
  0
LINE
  8
0
 10
5.21933
 20
6.73619
 11
5.32791
 21
6.71899
  0
LINE
  8
0
 10
5.32791
 20
6.71899
 11
5.4352
 21
6.69501
  0
LINE
  8
0
 10
5.4352
 20
6.69501
 11
5.54077
 21
6.66434
  0
LINE
  8
0
 10
5.54077
 20
6.66434
 11
5.64421
 21
6.62711
  0
LINE
  8
0
 10
5.64421
 20
6.62711
 11
5.7451
 21
6.58344
  0
LINE
  8
0
 10
5.7451
 20
6.58344
 11
5.84306
 21
6.53352
  0
LINE
  8
0
 10
5.84306
 20
6.53352
 11
5.93768
 21
6.47757
  0
LINE
  8
0
 10
5.93768
 20
6.47757
 11
6.02861
 21
6.41577
  0
LINE
  8
0
 10
6.02861
 20
6.41577
 11
6.11548
 21
6.34839
  0
LINE
  8
0
 10
6.11548
 20
6.34839
 11
6.19795
 21
6.27568
  0
LINE
  8
0
 10
6.19795
 20
6.27568
 11
6.27568
 21
6.19795
  0
LINE
  8
0
 10
6.27568
 20
6.19795
 11
6.34839
 21
6.11548
  0
LINE
  8
0
 10
6.34839
 20
6.11548
 11
6.41577
 21
6.02861
  0
LINE
  8
0
 10
6.41577
 20
6.02861
 11
6.47757
 21
5.93768
  0
LINE
  8
0
 10
6.47757
 20
5.93768
 11
6.53352
 21
5.84306
  0
LINE
  8
0
 10
6.53352
 20
5.84306
 11
6.58344
 21
5.7451
  0
LINE
  8
0
 10
6.58344
 20
5.7451
 11
6.62711
 21
5.64421
  0
LINE
  8
0
 10
6.62711
 20
5.64421
 11
6.66434
 21
5.54077
  0
LINE
  8
0
 10
6.66434
 20
5.54077
 11
6.69501
 21
5.4352
  0
LINE
  8
0
 10
6.69501
 20
5.4352
 11
6.71899
 21
5.32791
  0
LINE
  8
0
 10
6.71899
 20
5.32791
 11
6.73619
 21
5.21933
  0
LINE
  8
0
 10
6.73619
 20
5.21933
 11
6.74654
 21
5.10988
  0
LINE
  8
0
 10
6.74654
 20
5.10988
 11
6.75
 21
5
  0
LINE
  8
0
 10
6.75
 20
5
 11
6.74654
 21
4.89011
  0
LINE
  8
0
 10
6.74654
 20
4.89011
 11
6.73619
 21
4.78065
  0
LINE
  8
0
 10
6.73619
 20
4.78065
 11
6.71899
 21
4.67207
  0
LINE
  8
0
 10
6.71899
 20
4.67207
 11
6.69501
 21
4.56479
  0
LINE
  8
0
 10
6.69501
 20
4.56479
 11
6.66434
 21
4.45921
  0
LINE
  8
0
 10
6.66434
 20
4.45921
 11
6.62711
 21
4.35577
  0
LINE
  8
0
 10
6.62711
 20
4.35577
 11
6.58344
 21
4.25488
  0
LINE
  8
0
 10
6.58344
 20
4.25488
 11
6.53352
 21
4.15692
  0
LINE
  8
0
 10
6.53352
 20
4.15692
 11
6.47757
 21
4.0623
  0
LINE
  8
0
 10
6.47757
 20
4.0623
 11
6.41577
 21
3.97137
  0
LINE
  8
0
 10
6.41577
 20
3.97137
 11
6.34839
 21
3.88451
  0
LINE
  8
0
 10
6.34839
 20
3.88451
 11
6.27568
 21
3.80203
  0
LINE
  8
0
 10
6.27568
 20
3.80203
 11
6.19795
 21
3.7243
  0
LINE
  8
0
 10
6.19795
 20
3.7243
 11
6.11548
 21
3.6516
  0
LINE
  8
0
 10
6.11548
 20
3.6516
 11
6.02861
 21
3.58421
  0
LINE
  8
0
 10
6.02861
 20
3.58421
 11
5.93768
 21
3.52242
  0
LINE
  8
0
 10
5.93768
 20
3.52242
 11
5.84306
 21
3.46646
  0
LINE
  8
0
 10
5.84306
 20
3.46646
 11
5.7451
 21
3.41655
  0
LINE
  8
0
 10
5.7451
 20
3.41655
 11
5.64421
 21
3.37288
  0
LINE
  8
0
 10
5.64421
 20
3.37288
 11
5.54077
 21
3.33565
  0
LINE
  8
0
 10
5.54077
 20
3.33565
 11
5.4352
 21
3.30498
  0
LINE
  8
0
 10
5.4352
 20
3.30498
 11
5.32791
 21
3.28099
  0
LINE
  8
0
 10
5.32791
 20
3.28099
 11
5.21933
 21
3.26379
  0
LINE
  8
0
 10
5.21933
 20
3.26379
 11
5.10988
 21
3.25345
  0
LINE
  8
0
 10
5.10988
 20
3.25345
 11
5
 21
3.25
  0
LINE
  8
0
 10
5
 20
3.25
 11
4.89011
 21
3.25345
  0
LINE
  8
0
 10
168.89
 20
3.25345
 11
168.781
 21
3.26379
  0
LINE
  8
0
 10
168.781
 20
3.26379
 11
168.672
 21
3.28099
  0
LINE
  8
0
 10
168.672
 20
3.28099
 11
168.565
 21
3.30498
  0
LINE
  8
0
 10
168.565
 20
3.30498
 11
168.459
 21
3.33565
  0
LINE
  8
0
 10
168.459
 20
3.33565
 11
168.356
 21
3.37288
  0
LINE
  8
0
 10
168.356
 20
3.37288
 11
168.255
 21
3.41655
  0
LINE
  8
0
 10
168.255
 20
3.41655
 11
168.157
 21
3.46646
  0
LINE
  8
0
 10
168.157
 20
3.46646
 11
168.062
 21
3.52242
  0
LINE
  8
0
 10
168.062
 20
3.52242
 11
167.971
 21
3.58421
  0
LINE
  8
0
 10
167.971
 20
3.58421
 11
167.885
 21
3.6516
  0
LINE
  8
0
 10
167.885
 20
3.6516
 11
167.802
 21
3.7243
  0
LINE
  8
0
 10
167.802
 20
3.7243
 11
167.724
 21
3.80203
  0
LINE
  8
0
 10
167.724
 20
3.80203
 11
167.652
 21
3.88451
  0
LINE
  8
0
 10
167.652
 20
3.88451
 11
167.584
 21
3.97137
  0
LINE
  8
0
 10
167.584
 20
3.97137
 11
167.522
 21
4.0623
  0
LINE
  8
0
 10
167.522
 20
4.0623
 11
167.466
 21
4.15692
  0
LINE
  8
0
 10
167.466
 20
4.15692
 11
167.417
 21
4.25488
  0
LINE
  8
0
 10
167.417
 20
4.25488
 11
167.373
 21
4.35577
  0
LINE
  8
0
 10
167.373
 20
4.35577
 11
167.336
 21
4.45921
  0
LINE
  8
0
 10
167.336
 20
4.45921
 11
167.305
 21
4.56479
  0
LINE
  8
0
 10
167.305
 20
4.56479
 11
167.281
 21
4.67207
  0
LINE
  8
0
 10
167.281
 20
4.67207
 11
167.264
 21
4.78065
  0
LINE
  8
0
 10
167.264
 20
4.78065
 11
167.253
 21
4.89011
  0
LINE
  8
0
 10
167.253
 20
4.89011
 11
167.25
 21
5
  0
LINE
  8
0
 10
167.25
 20
5
 11
167.253
 21
5.10988
  0
LINE
  8
0
 10
167.253
 20
5.10988
 11
167.264
 21
5.21933
  0
LINE
  8
0
 10
167.264
 20
5.21933
 11
167.281
 21
5.32791
  0
LINE
  8
0
 10
167.281
 20
5.32791
 11
167.305
 21
5.4352
  0
LINE
  8
0
 10
167.305
 20
5.4352
 11
167.336
 21
5.54077
  0
LINE
  8
0
 10
167.336
 20
5.54077
 11
167.373
 21
5.64421
  0
LINE
  8
0
 10
167.373
 20
5.64421
 11
167.417
 21
5.7451
  0
LINE
  8
0
 10
167.417
 20
5.7451
 11
167.466
 21
5.84306
  0
LINE
  8
0
 10
167.466
 20
5.84306
 11
167.522
 21
5.93768
  0
LINE
  8
0
 10
167.522
 20
5.93768
 11
167.584
 21
6.02861
  0
LINE
  8
0
 10
167.584
 20
6.02861
 11
167.652
 21
6.11548
  0
LINE
  8
0
 10
167.652
 20
6.11548
 11
167.724
 21
6.19795
  0
LINE
  8
0
 10
167.724
 20
6.19795
 11
167.802
 21
6.27568
  0
LINE
  8
0
 10
167.802
 20
6.27568
 11
167.885
 21
6.34839
  0
LINE
  8
0
 10
167.885
 20
6.34839
 11
167.971
 21
6.41577
  0
LINE
  8
0
 10
167.971
 20
6.41577
 11
168.062
 21
6.47757
  0
LINE
  8
0
 10
168.062
 20
6.47757
 11
168.157
 21
6.53352
  0
LINE
  8
0
 10
168.157
 20
6.53352
 11
168.255
 21
6.58344
  0
LINE
  8
0
 10
168.255
 20
6.58344
 11
168.356
 21
6.62711
  0
LINE
  8
0
 10
168.356
 20
6.62711
 11
168.459
 21
6.66434
  0
LINE
  8
0
 10
168.459
 20
6.66434
 11
168.565
 21
6.69501
  0
LINE
  8
0
 10
168.565
 20
6.69501
 11
168.672
 21
6.71899
  0
LINE
  8
0
 10
168.672
 20
6.71899
 11
168.781
 21
6.73619
  0
LINE
  8
0
 10
168.781
 20
6.73619
 11
168.89
 21
6.74654
  0
LINE
  8
0
 10
168.89
 20
6.74654
 11
169
 21
6.75
  0
LINE
  8
0
 10
169
 20
6.75
 11
169.11
 21
6.74654
  0
LINE
  8
0
 10
169.11
 20
6.74654
 11
169.219
 21
6.73619
  0
LINE
  8
0
 10
169.219
 20
6.73619
 11
169.328
 21
6.71899
  0
LINE
  8
0
 10
169.328
 20
6.71899
 11
169.435
 21
6.69501
  0
LINE
  8
0
 10
169.435
 20
6.69501
 11
169.541
 21
6.66434
  0
LINE
  8
0
 10
169.541
 20
6.66434
 11
169.644
 21
6.62711
  0
LINE
  8
0
 10
169.644
 20
6.62711
 11
169.745
 21
6.58344
  0
LINE
  8
0
 10
169.745
 20
6.58344
 11
169.843
 21
6.53352
  0
LINE
  8
0
 10
169.843
 20
6.53352
 11
169.938
 21
6.47757
  0
LINE
  8
0
 10
169.938
 20
6.47757
 11
170.029
 21
6.41577
  0
LINE
  8
0
 10
170.029
 20
6.41577
 11
170.115
 21
6.34839
  0
LINE
  8
0
 10
170.115
 20
6.34839
 11
170.198
 21
6.27568
  0
LINE
  8
0
 10
170.198
 20
6.27568
 11
170.276
 21
6.19795
  0
LINE
  8
0
 10
170.276
 20
6.19795
 11
170.348
 21
6.11548
  0
LINE
  8
0
 10
170.348
 20
6.11548
 11
170.416
 21
6.02861
  0
LINE
  8
0
 10
170.416
 20
6.02861
 11
170.478
 21
5.93768
  0
LINE
  8
0
 10
170.478
 20
5.93768
 11
170.534
 21
5.84306
  0
LINE
  8
0
 10
170.534
 20
5.84306
 11
170.583
 21
5.7451
  0
LINE
  8
0
 10
170.583
 20
5.7451
 11
170.627
 21
5.64421
  0
LINE
  8
0
 10
170.627
 20
5.64421
 11
170.664
 21
5.54077
  0
LINE
  8
0
 10
170.664
 20
5.54077
 11
170.695
 21
5.4352
  0
LINE
  8
0
 10
170.695
 20
5.4352
 11
170.719
 21
5.32791
  0
LINE
  8
0
 10
170.719
 20
5.32791
 11
170.736
 21
5.21933
  0
LINE
  8
0
 10
170.736
 20
5.21933
 11
170.747
 21
5.10988
  0
LINE
  8
0
 10
170.747
 20
5.10988
 11
170.75
 21
5
  0
LINE
  8
0
 10
170.75
 20
5
 11
170.747
 21
4.89011
  0
LINE
  8
0
 10
170.747
 20
4.89011
 11
170.736
 21
4.78065
  0
LINE
  8
0
 10
170.736
 20
4.78065
 11
170.719
 21
4.67207
  0
LINE
  8
0
 10
170.719
 20
4.67207
 11
170.695
 21
4.56479
  0
LINE
  8
0
 10
170.695
 20
4.56479
 11
170.664
 21
4.45921
  0
LINE
  8
0
 10
170.664
 20
4.45921
 11
170.627
 21
4.35577
  0
LINE
  8
0
 10
170.627
 20
4.35577
 11
170.583
 21
4.25488
  0
LINE
  8
0
 10
170.583
 20
4.25488
 11
170.534
 21
4.15692
  0
LINE
  8
0
 10
170.534
 20
4.15692
 11
170.478
 21
4.0623
  0
LINE
  8
0
 10
170.478
 20
4.0623
 11
170.416
 21
3.97137
  0
LINE
  8
0
 10
170.416
 20
3.97137
 11
170.348
 21
3.88451
  0
LINE
  8
0
 10
170.348
 20
3.88451
 11
170.276
 21
3.80203
  0
LINE
  8
0
 10
170.276
 20
3.80203
 11
170.198
 21
3.7243
  0
LINE
  8
0
 10
170.198
 20
3.7243
 11
170.115
 21
3.6516
  0
LINE
  8
0
 10
170.115
 20
3.6516
 11
170.029
 21
3.58421
  0
LINE
  8
0
 10
170.029
 20
3.58421
 11
169.938
 21
3.52242
  0
LINE
  8
0
 10
169.938
 20
3.52242
 11
169.843
 21
3.46646
  0
LINE
  8
0
 10
169.843
 20
3.46646
 11
169.745
 21
3.41655
  0
LINE
  8
0
 10
169.745
 20
3.41655
 11
169.644
 21
3.37288
  0
LINE
  8
0
 10
169.644
 20
3.37288
 11
169.541
 21
3.33565
  0
LINE
  8
0
 10
169.541
 20
3.33565
 11
169.435
 21
3.30498
  0
LINE
  8
0
 10
169.435
 20
3.30498
 11
169.328
 21
3.28099
  0
LINE
  8
0
 10
169.328
 20
3.28099
 11
169.219
 21
3.26379
  0
LINE
  8
0
 10
169.219
 20
3.26379
 11
169.11
 21
3.25345
  0
LINE
  8
0
 10
169.11
 20
3.25345
 11
169
 21
3.25
  0
LINE
  8
0
 10
169
 20
3.25
 11
168.89
 21
3.25345
  0
LINE
  8
0
 10
6.73619
 20
164.781
 11
6.71899
 21
164.672
  0
LINE
  8
0
 10
6.71899
 20
164.672
 11
6.69501
 21
164.565
  0
LINE
  8
0
 10
6.69501
 20
164.565
 11
6.66434
 21
164.459
  0
LINE
  8
0
 10
6.66434
 20
164.459
 11
6.62711
 21
164.356
  0
LINE
  8
0
 10
6.62711
 20
164.356
 11
6.58344
 21
164.255
  0
LINE
  8
0
 10
6.58344
 20
164.255
 11
6.53352
 21
164.157
  0
LINE
  8
0
 10
6.53352
 20
164.157
 11
6.47757
 21
164.062
  0
LINE
  8
0
 10
6.47757
 20
164.062
 11
6.41577
 21
163.971
  0
LINE
  8
0
 10
6.41577
 20
163.971
 11
6.34839
 21
163.885
  0
LINE
  8
0
 10
6.34839
 20
163.885
 11
6.27568
 21
163.802
  0
LINE
  8
0
 10
6.27568
 20
163.802
 11
6.19795
 21
163.724
  0
LINE
  8
0
 10
6.19795
 20
163.724
 11
6.11548
 21
163.652
  0
LINE
  8
0
 10
6.11548
 20
163.652
 11
6.02861
 21
163.584
  0
LINE
  8
0
 10
6.02861
 20
163.584
 11
5.93768
 21
163.522
  0
LINE
  8
0
 10
5.93768
 20
163.522
 11
5.84306
 21
163.466
  0
LINE
  8
0
 10
5.84306
 20
163.466
 11
5.7451
 21
163.417
  0
LINE
  8
0
 10
5.7451
 20
163.417
 11
5.64421
 21
163.373
  0
LINE
  8
0
 10
5.64421
 20
163.373
 11
5.54077
 21
163.336
  0
LINE
  8
0
 10
5.54077
 20
163.336
 11
5.4352
 21
163.305
  0
LINE
  8
0
 10
5.4352
 20
163.305
 11
5.32791
 21
163.281
  0
LINE
  8
0
 10
5.32791
 20
163.281
 11
5.21933
 21
163.264
  0
LINE
  8
0
 10
5.21933
 20
163.264
 11
5.10988
 21
163.253
  0
LINE
  8
0
 10
5.10988
 20
163.253
 11
5
 21
163.25
  0
LINE
  8
0
 10
5
 20
163.25
 11
4.89011
 21
163.253
  0
LINE
  8
0
 10
4.89011
 20
163.253
 11
4.78065
 21
163.264
  0
LINE
  8
0
 10
4.78065
 20
163.264
 11
4.67207
 21
163.281
  0
LINE
  8
0
 10
4.67207
 20
163.281
 11
4.56479
 21
163.305
  0
LINE
  8
0
 10
4.56479
 20
163.305
 11
4.45921
 21
163.336
  0
LINE
  8
0
 10
4.45921
 20
163.336
 11
4.35577
 21
163.373
  0
LINE
  8
0
 10
4.35577
 20
163.373
 11
4.25488
 21
163.417
  0
LINE
  8
0
 10
4.25488
 20
163.417
 11
4.15692
 21
163.466
  0
LINE
  8
0
 10
4.15692
 20
163.466
 11
4.0623
 21
163.522
  0
LINE
  8
0
 10
4.0623
 20
163.522
 11
3.97137
 21
163.584
  0
LINE
  8
0
 10
3.97137
 20
163.584
 11
3.88451
 21
163.652
  0
LINE
  8
0
 10
3.88451
 20
163.652
 11
3.80203
 21
163.724
  0
LINE
  8
0
 10
3.80203
 20
163.724
 11
3.7243
 21
163.802
  0
LINE
  8
0
 10
3.7243
 20
163.802
 11
3.6516
 21
163.885
  0
LINE
  8
0
 10
3.6516
 20
163.885
 11
3.58421
 21
163.971
  0
LINE
  8
0
 10
3.58421
 20
163.971
 11
3.52242
 21
164.062
  0
LINE
  8
0
 10
3.52242
 20
164.062
 11
3.46646
 21
164.157
  0
LINE
  8
0
 10
3.46646
 20
164.157
 11
3.41655
 21
164.255
  0
LINE
  8
0
 10
3.41655
 20
164.255
 11
3.37288
 21
164.356
  0
LINE
  8
0
 10
3.37288
 20
164.356
 11
3.33565
 21
164.459
  0
LINE
  8
0
 10
3.33565
 20
164.459
 11
3.30498
 21
164.565
  0
LINE
  8
0
 10
3.30498
 20
164.565
 11
3.28099
 21
164.672
  0
LINE
  8
0
 10
3.28099
 20
164.672
 11
3.26379
 21
164.781
  0
LINE
  8
0
 10
3.26379
 20
164.781
 11
3.25345
 21
164.89
  0
LINE
  8
0
 10
3.25345
 20
164.89
 11
3.25
 21
165
  0
LINE
  8
0
 10
3.25
 20
165
 11
3.25345
 21
165.11
  0
LINE
  8
0
 10
3.25345
 20
165.11
 11
3.26379
 21
165.219
  0
LINE
  8
0
 10
3.26379
 20
165.219
 11
3.28099
 21
165.328
  0
LINE
  8
0
 10
3.28099
 20
165.328
 11
3.30498
 21
165.435
  0
LINE
  8
0
 10
3.30498
 20
165.435
 11
3.33565
 21
165.541
  0
LINE
  8
0
 10
3.33565
 20
165.541
 11
3.37288
 21
165.644
  0
LINE
  8
0
 10
3.37288
 20
165.644
 11
3.41655
 21
165.745
  0
LINE
  8
0
 10
3.41655
 20
165.745
 11
3.46646
 21
165.843
  0
LINE
  8
0
 10
3.46646
 20
165.843
 11
3.52242
 21
165.938
  0
LINE
  8
0
 10
3.52242
 20
165.938
 11
3.58421
 21
166.029
  0
LINE
  8
0
 10
3.58421
 20
166.029
 11
3.6516
 21
166.115
  0
LINE
  8
0
 10
3.6516
 20
166.115
 11
3.7243
 21
166.198
  0
LINE
  8
0
 10
3.7243
 20
166.198
 11
3.80203
 21
166.276
  0
LINE
  8
0
 10
3.80203
 20
166.276
 11
3.88451
 21
166.348
  0
LINE
  8
0
 10
3.88451
 20
166.348
 11
3.97137
 21
166.416
  0
LINE
  8
0
 10
3.97137
 20
166.416
 11
4.0623
 21
166.478
  0
LINE
  8
0
 10
4.0623
 20
166.478
 11
4.15692
 21
166.534
  0
LINE
  8
0
 10
4.15692
 20
166.534
 11
4.25488
 21
166.583
  0
LINE
  8
0
 10
4.25488
 20
166.583
 11
4.35577
 21
166.627
  0
LINE
  8
0
 10
4.35577
 20
166.627
 11
4.45921
 21
166.664
  0
LINE
  8
0
 10
4.45921
 20
166.664
 11
4.56479
 21
166.695
  0
LINE
  8
0
 10
4.56479
 20
166.695
 11
4.67207
 21
166.719
  0
LINE
  8
0
 10
4.67207
 20
166.719
 11
4.78065
 21
166.736
  0
LINE
  8
0
 10
4.78065
 20
166.736
 11
4.89011
 21
166.747
  0
LINE
  8
0
 10
4.89011
 20
166.747
 11
5
 21
166.75
  0
LINE
  8
0
 10
5
 20
166.75
 11
5.10988
 21
166.747
  0
LINE
  8
0
 10
5.10988
 20
166.747
 11
5.21933
 21
166.736
  0
LINE
  8
0
 10
5.21933
 20
166.736
 11
5.32791
 21
166.719
  0
LINE
  8
0
 10
5.32791
 20
166.719
 11
5.4352
 21
166.695
  0
LINE
  8
0
 10
5.4352
 20
166.695
 11
5.54077
 21
166.664
  0
LINE
  8
0
 10
5.54077
 20
166.664
 11
5.64421
 21
166.627
  0
LINE
  8
0
 10
5.64421
 20
166.627
 11
5.7451
 21
166.583
  0
LINE
  8
0
 10
5.7451
 20
166.583
 11
5.84306
 21
166.534
  0
LINE
  8
0
 10
5.84306
 20
166.534
 11
5.93768
 21
166.478
  0
LINE
  8
0
 10
5.93768
 20
166.478
 11
6.02861
 21
166.416
  0
LINE
  8
0
 10
6.02861
 20
166.416
 11
6.11548
 21
166.348
  0
LINE
  8
0
 10
6.11548
 20
166.348
 11
6.19795
 21
166.276
  0
LINE
  8
0
 10
6.19795
 20
166.276
 11
6.27568
 21
166.198
  0
LINE
  8
0
 10
6.27568
 20
166.198
 11
6.34839
 21
166.115
  0
LINE
  8
0
 10
6.34839
 20
166.115
 11
6.41577
 21
166.029
  0
LINE
  8
0
 10
6.41577
 20
166.029
 11
6.47757
 21
165.938
  0
LINE
  8
0
 10
6.47757
 20
165.938
 11
6.53352
 21
165.843
  0
LINE
  8
0
 10
6.53352
 20
165.843
 11
6.58344
 21
165.745
  0
LINE
  8
0
 10
6.58344
 20
165.745
 11
6.62711
 21
165.644
  0
LINE
  8
0
 10
6.62711
 20
165.644
 11
6.66434
 21
165.541
  0
LINE
  8
0
 10
6.66434
 20
165.541
 11
6.69501
 21
165.435
  0
LINE
  8
0
 10
6.69501
 20
165.435
 11
6.71899
 21
165.328
  0
LINE
  8
0
 10
6.71899
 20
165.328
 11
6.73619
 21
165.219
  0
LINE
  8
0
 10
6.73619
 20
165.219
 11
6.74654
 21
165.11
  0
LINE
  8
0
 10
6.74654
 20
165.11
 11
6.75
 21
165
  0
LINE
  8
0
 10
6.75
 20
165
 11
6.74654
 21
164.89
  0
LINE
  8
0
 10
6.74654
 20
164.89
 11
6.73619
 21
164.781
  0
ENDSEC
  0
SECTION
  2
OBJECTS
  0
DICTIONARY
  0
ENDSEC
  0
EOF
