<?xml version="1.0" encoding="UTF-8" standalone="no"?>
<svg
   xmlns:dc="http://purl.org/dc/elements/1.1/"
   xmlns:cc="http://creativecommons.org/ns#"
   xmlns:rdf="http://www.w3.org/1999/02/22-rdf-syntax-ns#"
   xmlns:svg="http://www.w3.org/2000/svg"
   xmlns="http://www.w3.org/2000/svg"
   xmlns:sodipodi="http://sodipodi.sourceforge.net/DTD/sodipodi-0.dtd"
   xmlns:inkscape="http://www.inkscape.org/namespaces/inkscape"
   width="30.6mm"
   height="57.6mm"
   viewBox="0 0 30.6 57.6"
   version="1.1"
   id="svg83"
   sodipodi:docname="export.svg"
   inkscape:version="0.92.4 (5da689c313, 2019-01-14)">
  <metadata
     id="metadata89">
    <rdf:RDF>
      <cc:Work
         rdf:about="">
        <dc:format>image/svg+xml</dc:format>
        <dc:type
           rdf:resource="http://purl.org/dc/dcmitype/StillImage" />
      </cc:Work>
    </rdf:RDF>
  </metadata>
  <defs
     id="defs87" />
  <sodipodi:namedview
     pagecolor="#ffffff"
     bordercolor="#666666"
     borderopacity="1"
     objecttolerance="10"
     gridtolerance="10"
     guidetolerance="10"
     inkscape:pageopacity="0"
     inkscape:pageshadow="2"
     inkscape:window-width="1920"
     inkscape:window-height="1043"
     id="namedview85"
     showgrid="false"
     inkscape:zoom="2.512623"
     inkscape:cx="-17.791415"
     inkscape:cy="108.85039"
     inkscape:window-x="1366"
     inkscape:window-y="18"
     inkscape:window-maximized="0"
     inkscape:current-layer="svg83" />
  <g
     id="Sketch"
     transform="translate(0.300000,57.300000) scale(1,-1)"
     style="fill:#000000;fill-opacity:0.2532751;stroke:none">
    <path
       id="Sketch_w0000"
       d="M 2e-15 52.8931639748 L 2e-15 57.0 L 30.0 57.0 L 30.0 27.0 L 15.0 27.0 L 15.0 10.0 L 30.0 10.0 L 30.0 0.0 L 0.0 0.0 L 0.0 31.1068411842 A 9.2265 9.2265 0 0 0 9.2265 40.3333A 1.66666 1.66666 0 0 0 10.6699 39.5A 5 5 0 1 1 10.6699 44.5A 1.66667 1.66667 0 0 0 9.2265 43.6667A 9.2265 9.2265 0 0 0 1.77636e-15 52.8932"
       stroke="#000000"
       stroke-width="0.35 px"
       style="stroke-width:0.35;stroke-miterlimit:4;stroke-dasharray:none;fill:#000000;fill-rule:evenodd;fill-opacity:0.2532751;stroke:none" />
    <title
       id="title80">Sketch</title>
  </g>
</svg>
