solid OpenSCAD_Model
  facet normal -0.743143 -0.669133 0
    outer loop
      vertex -26.7652 -29.7258 -2.5
      vertex -32.3607 -23.5114 2.5
      vertex -32.3607 -23.5114 -2.5
    endloop
  endfacet
  facet normal -0.743143 -0.669133 0
    outer loop
      vertex -32.3607 -23.5114 2.5
      vertex -26.7652 -29.7258 -2.5
      vertex -26.7652 -29.7258 2.5
    endloop
  endfacet
  facet normal 0.951056 0.309017 0
    outer loop
      vertex 39.1259 8.31647 2.5
      vertex 36.5418 16.2695 -2.5
      vertex 36.5418 16.2695 2.5
    endloop
  endfacet
  facet normal 0.951056 0.309017 0
    outer loop
      vertex 36.5418 16.2695 -2.5
      vertex 39.1259 8.31647 2.5
      vertex 39.1259 8.31647 -2.5
    endloop
  endfacet
  facet normal 0.994522 0.104529 0
    outer loop
      vertex 40 0 2.5
      vertex 39.1259 8.31647 -2.5
      vertex 39.1259 8.31647 2.5
    endloop
  endfacet
  facet normal 0.994522 0.104529 0
    outer loop
      vertex 39.1259 8.31647 -2.5
      vertex 40 0 2.5
      vertex 40 0 -2.5
    endloop
  endfacet
  facet normal 0.866026 0.499999 0
    outer loop
      vertex 36.5418 16.2695 2.5
      vertex 32.3607 23.5114 -2.5
      vertex 32.3607 23.5114 2.5
    endloop
  endfacet
  facet normal 0.866026 0.499999 0
    outer loop
      vertex 32.3607 23.5114 -2.5
      vertex 36.5418 16.2695 2.5
      vertex 36.5418 16.2695 -2.5
    endloop
  endfacet
  facet normal 0.951056 -0.309017 0
    outer loop
      vertex 36.5418 -16.2695 2.5
      vertex 39.1259 -8.31647 -2.5
      vertex 39.1259 -8.31647 2.5
    endloop
  endfacet
  facet normal 0.951056 -0.309017 0
    outer loop
      vertex 39.1259 -8.31647 -2.5
      vertex 36.5418 -16.2695 2.5
      vertex 36.5418 -16.2695 -2.5
    endloop
  endfacet
  facet normal -0.587785 0.809017 0
    outer loop
      vertex -20 34.641 -2.5
      vertex -26.7652 29.7258 2.5
      vertex -20 34.641 2.5
    endloop
  endfacet
  facet normal -0.587785 0.809017 0
    outer loop
      vertex -26.7652 29.7258 2.5
      vertex -20 34.641 -2.5
      vertex -26.7652 29.7258 -2.5
    endloop
  endfacet
  facet normal 0.587785 -0.809017 0
    outer loop
      vertex 20 -34.641 -2.5
      vertex 26.7652 -29.7258 2.5
      vertex 20 -34.641 2.5
    endloop
  endfacet
  facet normal 0.587785 -0.809017 0
    outer loop
      vertex 26.7652 -29.7258 2.5
      vertex 20 -34.641 -2.5
      vertex 26.7652 -29.7258 -2.5
    endloop
  endfacet
  facet normal 0.743143 -0.669133 0
    outer loop
      vertex 26.7652 -29.7258 2.5
      vertex 32.3607 -23.5114 -2.5
      vertex 32.3607 -23.5114 2.5
    endloop
  endfacet
  facet normal 0.743143 -0.669133 0
    outer loop
      vertex 32.3607 -23.5114 -2.5
      vertex 26.7652 -29.7258 2.5
      vertex 26.7652 -29.7258 -2.5
    endloop
  endfacet
  facet normal 0.994522 -0.104529 0
    outer loop
      vertex 39.1259 -8.31647 2.5
      vertex 40 0 -2.5
      vertex 40 0 2.5
    endloop
  endfacet
  facet normal 0.994522 -0.104529 0
    outer loop
      vertex 40 0 -2.5
      vertex 39.1259 -8.31647 2.5
      vertex 39.1259 -8.31647 -2.5
    endloop
  endfacet
  facet normal -0.406743 -0.913543 0
    outer loop
      vertex -20 -34.641 -2.5
      vertex -12.3607 -38.0423 2.5
      vertex -20 -34.641 2.5
    endloop
  endfacet
  facet normal -0.406743 -0.913543 -0
    outer loop
      vertex -12.3607 -38.0423 2.5
      vertex -20 -34.641 -2.5
      vertex -12.3607 -38.0423 -2.5
    endloop
  endfacet
  facet normal 0.406743 0.913543 -0
    outer loop
      vertex 20 34.641 -2.5
      vertex 12.3607 38.0423 2.5
      vertex 20 34.641 2.5
    endloop
  endfacet
  facet normal 0.406743 0.913543 0
    outer loop
      vertex 12.3607 38.0423 2.5
      vertex 20 34.641 -2.5
      vertex 12.3607 38.0423 -2.5
    endloop
  endfacet
  facet normal 0.743143 0.669133 0
    outer loop
      vertex 32.3607 23.5114 2.5
      vertex 26.7652 29.7258 -2.5
      vertex 26.7652 29.7258 2.5
    endloop
  endfacet
  facet normal 0.743143 0.669133 0
    outer loop
      vertex 26.7652 29.7258 -2.5
      vertex 32.3607 23.5114 2.5
      vertex 32.3607 23.5114 -2.5
    endloop
  endfacet
  facet normal -0.587785 -0.809017 0
    outer loop
      vertex -26.7652 -29.7258 -2.5
      vertex -20 -34.641 2.5
      vertex -26.7652 -29.7258 2.5
    endloop
  endfacet
  facet normal -0.587785 -0.809017 -0
    outer loop
      vertex -20 -34.641 2.5
      vertex -26.7652 -29.7258 -2.5
      vertex -20 -34.641 -2.5
    endloop
  endfacet
  facet normal -0.743143 0.669133 0
    outer loop
      vertex -32.3607 23.5114 -2.5
      vertex -26.7652 29.7258 2.5
      vertex -26.7652 29.7258 -2.5
    endloop
  endfacet
  facet normal -0.743143 0.669133 0
    outer loop
      vertex -26.7652 29.7258 2.5
      vertex -32.3607 23.5114 -2.5
      vertex -32.3607 23.5114 2.5
    endloop
  endfacet
  facet normal 0 1 -0
    outer loop
      vertex 4.18114 39.7809 -2.5
      vertex -4.18114 39.7809 2.5
      vertex 4.18114 39.7809 2.5
    endloop
  endfacet
  facet normal 0 1 0
    outer loop
      vertex -4.18114 39.7809 2.5
      vertex 4.18114 39.7809 -2.5
      vertex -4.18114 39.7809 -2.5
    endloop
  endfacet
  facet normal 0.406743 -0.913543 0
    outer loop
      vertex 12.3607 -38.0423 -2.5
      vertex 20 -34.641 2.5
      vertex 12.3607 -38.0423 2.5
    endloop
  endfacet
  facet normal 0.406743 -0.913543 0
    outer loop
      vertex 20 -34.641 2.5
      vertex 12.3607 -38.0423 -2.5
      vertex 20 -34.641 -2.5
    endloop
  endfacet
  facet normal 0.207909 -0.978148 0
    outer loop
      vertex 4.18114 -39.7809 -2.5
      vertex 12.3607 -38.0423 2.5
      vertex 4.18114 -39.7809 2.5
    endloop
  endfacet
  facet normal 0.207909 -0.978148 0
    outer loop
      vertex 12.3607 -38.0423 2.5
      vertex 4.18114 -39.7809 -2.5
      vertex 12.3607 -38.0423 -2.5
    endloop
  endfacet
  facet normal -0.951056 0.309017 0
    outer loop
      vertex -39.1259 8.31647 -2.5
      vertex -36.5418 16.2695 2.5
      vertex -36.5418 16.2695 -2.5
    endloop
  endfacet
  facet normal -0.951056 0.309017 0
    outer loop
      vertex -36.5418 16.2695 2.5
      vertex -39.1259 8.31647 -2.5
      vertex -39.1259 8.31647 2.5
    endloop
  endfacet
  facet normal 0 0 -1
    outer loop
      vertex 5 -5 -2.5
      vertex 40 0 -2.5
      vertex 39.1259 -8.31647 -2.5
    endloop
  endfacet
  facet normal 0 0 -1
    outer loop
      vertex 5 -5 -2.5
      vertex 39.1259 -8.31647 -2.5
      vertex 36.5418 -16.2695 -2.5
    endloop
  endfacet
  facet normal 0 0 -1
    outer loop
      vertex 5 5 -2.5
      vertex 40 0 -2.5
      vertex 5 -5 -2.5
    endloop
  endfacet
  facet normal 0 0 -1
    outer loop
      vertex 5 -5 -2.5
      vertex 36.5418 -16.2695 -2.5
      vertex 32.3607 -23.5114 -2.5
    endloop
  endfacet
  facet normal 0 0 -1
    outer loop
      vertex 40 0 -2.5
      vertex 5 5 -2.5
      vertex 39.1259 8.31647 -2.5
    endloop
  endfacet
  facet normal 0 0 -1
    outer loop
      vertex 5 -5 -2.5
      vertex 32.3607 -23.5114 -2.5
      vertex 26.7652 -29.7258 -2.5
    endloop
  endfacet
  facet normal -0 0 -1
    outer loop
      vertex 39.1259 8.31647 -2.5
      vertex 5 5 -2.5
      vertex 36.5418 16.2695 -2.5
    endloop
  endfacet
  facet normal 0 0 -1
    outer loop
      vertex 5 -5 -2.5
      vertex 26.7652 -29.7258 -2.5
      vertex 20 -34.641 -2.5
    endloop
  endfacet
  facet normal -0 0 -1
    outer loop
      vertex 36.5418 16.2695 -2.5
      vertex 5 5 -2.5
      vertex 32.3607 23.5114 -2.5
    endloop
  endfacet
  facet normal 0 0 -1
    outer loop
      vertex 5 -5 -2.5
      vertex 20 -34.641 -2.5
      vertex 12.3607 -38.0423 -2.5
    endloop
  endfacet
  facet normal -0 0 -1
    outer loop
      vertex 32.3607 23.5114 -2.5
      vertex 5 5 -2.5
      vertex 26.7652 29.7258 -2.5
    endloop
  endfacet
  facet normal -0 0 -1
    outer loop
      vertex 26.7652 29.7258 -2.5
      vertex 5 5 -2.5
      vertex 20 34.641 -2.5
    endloop
  endfacet
  facet normal 0 0 -1
    outer loop
      vertex 4.18114 -39.7809 -2.5
      vertex 5 -5 -2.5
      vertex 12.3607 -38.0423 -2.5
    endloop
  endfacet
  facet normal 0 0 -1
    outer loop
      vertex -4.18114 -39.7809 -2.5
      vertex 5 -5 -2.5
      vertex 4.18114 -39.7809 -2.5
    endloop
  endfacet
  facet normal 0 0 -1
    outer loop
      vertex -4.18114 -39.7809 -2.5
      vertex -5 -5 -2.5
      vertex 5 -5 -2.5
    endloop
  endfacet
  facet normal 0 0 -1
    outer loop
      vertex -20 -34.641 -2.5
      vertex -5 -5 -2.5
      vertex -12.3607 -38.0423 -2.5
    endloop
  endfacet
  facet normal 0 0 -1
    outer loop
      vertex -12.3607 -38.0423 -2.5
      vertex -5 -5 -2.5
      vertex -4.18114 -39.7809 -2.5
    endloop
  endfacet
  facet normal -0 0 -1
    outer loop
      vertex 20 34.641 -2.5
      vertex 5 5 -2.5
      vertex 12.3607 38.0423 -2.5
    endloop
  endfacet
  facet normal 0 0 -1
    outer loop
      vertex 5 5 -2.5
      vertex 4.18114 39.7809 -2.5
      vertex 12.3607 38.0423 -2.5
    endloop
  endfacet
  facet normal 0 0 -1
    outer loop
      vertex 5 5 -2.5
      vertex -4.18114 39.7809 -2.5
      vertex 4.18114 39.7809 -2.5
    endloop
  endfacet
  facet normal 0 0 -1
    outer loop
      vertex -5 5 -2.5
      vertex -4.18114 39.7809 -2.5
      vertex 5 5 -2.5
    endloop
  endfacet
  facet normal 0 0 -1
    outer loop
      vertex -26.7652 -29.7258 -2.5
      vertex -5 -5 -2.5
      vertex -20 -34.641 -2.5
    endloop
  endfacet
  facet normal 0 0 -1
    outer loop
      vertex -5 5 -2.5
      vertex -12.3607 38.0423 -2.5
      vertex -4.18114 39.7809 -2.5
    endloop
  endfacet
  facet normal 0 0 -1
    outer loop
      vertex -32.3607 -23.5114 -2.5
      vertex -5 -5 -2.5
      vertex -26.7652 -29.7258 -2.5
    endloop
  endfacet
  facet normal 0 0 -1
    outer loop
      vertex -5 5 -2.5
      vertex -20 34.641 -2.5
      vertex -12.3607 38.0423 -2.5
    endloop
  endfacet
  facet normal 0 0 -1
    outer loop
      vertex -36.5418 -16.2695 -2.5
      vertex -5 -5 -2.5
      vertex -32.3607 -23.5114 -2.5
    endloop
  endfacet
  facet normal 0 0 -1
    outer loop
      vertex -5 5 -2.5
      vertex -26.7652 29.7258 -2.5
      vertex -20 34.641 -2.5
    endloop
  endfacet
  facet normal 0 0 -1
    outer loop
      vertex -39.1259 -8.31647 -2.5
      vertex -5 -5 -2.5
      vertex -36.5418 -16.2695 -2.5
    endloop
  endfacet
  facet normal 0 0 -1
    outer loop
      vertex -5 5 -2.5
      vertex -32.3607 23.5114 -2.5
      vertex -26.7652 29.7258 -2.5
    endloop
  endfacet
  facet normal 0 0 -1
    outer loop
      vertex -40 0 -2.5
      vertex -5 -5 -2.5
      vertex -39.1259 -8.31647 -2.5
    endloop
  endfacet
  facet normal 0 0 -1
    outer loop
      vertex -5 5 -2.5
      vertex -36.5418 16.2695 -2.5
      vertex -32.3607 23.5114 -2.5
    endloop
  endfacet
  facet normal 0 0 -1
    outer loop
      vertex -5 -5 -2.5
      vertex -40 0 -2.5
      vertex -5 5 -2.5
    endloop
  endfacet
  facet normal 0 0 -1
    outer loop
      vertex -5 5 -2.5
      vertex -39.1259 8.31647 -2.5
      vertex -36.5418 16.2695 -2.5
    endloop
  endfacet
  facet normal -0 0 -1
    outer loop
      vertex -5 5 -2.5
      vertex -40 0 -2.5
      vertex -39.1259 8.31647 -2.5
    endloop
  endfacet
  facet normal -0.951056 -0.309017 0
    outer loop
      vertex -36.5418 -16.2695 -2.5
      vertex -39.1259 -8.31647 2.5
      vertex -39.1259 -8.31647 -2.5
    endloop
  endfacet
  facet normal -0.951056 -0.309017 0
    outer loop
      vertex -39.1259 -8.31647 2.5
      vertex -36.5418 -16.2695 -2.5
      vertex -36.5418 -16.2695 2.5
    endloop
  endfacet
  facet normal -0.406743 0.913543 0
    outer loop
      vertex -12.3607 38.0423 -2.5
      vertex -20 34.641 2.5
      vertex -12.3607 38.0423 2.5
    endloop
  endfacet
  facet normal -0.406743 0.913543 0
    outer loop
      vertex -20 34.641 2.5
      vertex -12.3607 38.0423 -2.5
      vertex -20 34.641 -2.5
    endloop
  endfacet
  facet normal -0 0 1
    outer loop
      vertex 5 5 2.5
      vertex 40 0 2.5
      vertex 39.1259 8.31647 2.5
    endloop
  endfacet
  facet normal 0 0 1
    outer loop
      vertex 5 5 2.5
      vertex 39.1259 8.31647 2.5
      vertex 36.5418 16.2695 2.5
    endloop
  endfacet
  facet normal 0 0 1
    outer loop
      vertex 5 -5 2.5
      vertex 40 0 2.5
      vertex 5 5 2.5
    endloop
  endfacet
  facet normal 0 0 1
    outer loop
      vertex 5 5 2.5
      vertex 36.5418 16.2695 2.5
      vertex 32.3607 23.5114 2.5
    endloop
  endfacet
  facet normal 0 0 1
    outer loop
      vertex 40 0 2.5
      vertex 5 -5 2.5
      vertex 39.1259 -8.31647 2.5
    endloop
  endfacet
  facet normal 0 0 1
    outer loop
      vertex 5 5 2.5
      vertex 32.3607 23.5114 2.5
      vertex 26.7652 29.7258 2.5
    endloop
  endfacet
  facet normal 0 0 1
    outer loop
      vertex 39.1259 -8.31647 2.5
      vertex 5 -5 2.5
      vertex 36.5418 -16.2695 2.5
    endloop
  endfacet
  facet normal 0 0 1
    outer loop
      vertex 5 5 2.5
      vertex 26.7652 29.7258 2.5
      vertex 20 34.641 2.5
    endloop
  endfacet
  facet normal 0 0 1
    outer loop
      vertex 36.5418 -16.2695 2.5
      vertex 5 -5 2.5
      vertex 32.3607 -23.5114 2.5
    endloop
  endfacet
  facet normal 0 0 1
    outer loop
      vertex 5 5 2.5
      vertex 20 34.641 2.5
      vertex 12.3607 38.0423 2.5
    endloop
  endfacet
  facet normal 0 0 1
    outer loop
      vertex 32.3607 -23.5114 2.5
      vertex 5 -5 2.5
      vertex 26.7652 -29.7258 2.5
    endloop
  endfacet
  facet normal 0 0 1
    outer loop
      vertex 26.7652 -29.7258 2.5
      vertex 5 -5 2.5
      vertex 20 -34.641 2.5
    endloop
  endfacet
  facet normal 0 0 1
    outer loop
      vertex 4.18114 39.7809 2.5
      vertex 5 5 2.5
      vertex 12.3607 38.0423 2.5
    endloop
  endfacet
  facet normal -0 0 1
    outer loop
      vertex -4.18114 39.7809 2.5
      vertex 5 5 2.5
      vertex 4.18114 39.7809 2.5
    endloop
  endfacet
  facet normal 0 0 1
    outer loop
      vertex -4.18114 39.7809 2.5
      vertex -5 5 2.5
      vertex 5 5 2.5
    endloop
  endfacet
  facet normal -0 0 1
    outer loop
      vertex -20 34.641 2.5
      vertex -5 5 2.5
      vertex -12.3607 38.0423 2.5
    endloop
  endfacet
  facet normal -0 0 1
    outer loop
      vertex -12.3607 38.0423 2.5
      vertex -5 5 2.5
      vertex -4.18114 39.7809 2.5
    endloop
  endfacet
  facet normal 0 0 1
    outer loop
      vertex 20 -34.641 2.5
      vertex 5 -5 2.5
      vertex 12.3607 -38.0423 2.5
    endloop
  endfacet
  facet normal 0 0 1
    outer loop
      vertex 5 -5 2.5
      vertex 4.18114 -39.7809 2.5
      vertex 12.3607 -38.0423 2.5
    endloop
  endfacet
  facet normal 0 0 1
    outer loop
      vertex 5 -5 2.5
      vertex -4.18114 -39.7809 2.5
      vertex 4.18114 -39.7809 2.5
    endloop
  endfacet
  facet normal -0 0 1
    outer loop
      vertex -5 -5 2.5
      vertex -4.18114 -39.7809 2.5
      vertex 5 -5 2.5
    endloop
  endfacet
  facet normal -0 0 1
    outer loop
      vertex -26.7652 29.7258 2.5
      vertex -5 5 2.5
      vertex -20 34.641 2.5
    endloop
  endfacet
  facet normal 0 0 1
    outer loop
      vertex -5 -5 2.5
      vertex -12.3607 -38.0423 2.5
      vertex -4.18114 -39.7809 2.5
    endloop
  endfacet
  facet normal -0 0 1
    outer loop
      vertex -32.3607 23.5114 2.5
      vertex -5 5 2.5
      vertex -26.7652 29.7258 2.5
    endloop
  endfacet
  facet normal 0 0 1
    outer loop
      vertex -5 -5 2.5
      vertex -20 -34.641 2.5
      vertex -12.3607 -38.0423 2.5
    endloop
  endfacet
  facet normal -0 0 1
    outer loop
      vertex -36.5418 16.2695 2.5
      vertex -5 5 2.5
      vertex -32.3607 23.5114 2.5
    endloop
  endfacet
  facet normal 0 0 1
    outer loop
      vertex -5 -5 2.5
      vertex -26.7652 -29.7258 2.5
      vertex -20 -34.641 2.5
    endloop
  endfacet
  facet normal -0 0 1
    outer loop
      vertex -39.1259 8.31647 2.5
      vertex -5 5 2.5
      vertex -36.5418 16.2695 2.5
    endloop
  endfacet
  facet normal 0 0 1
    outer loop
      vertex -5 -5 2.5
      vertex -32.3607 -23.5114 2.5
      vertex -26.7652 -29.7258 2.5
    endloop
  endfacet
  facet normal 0 0 1
    outer loop
      vertex -40 0 2.5
      vertex -5 5 2.5
      vertex -39.1259 8.31647 2.5
    endloop
  endfacet
  facet normal 0 0 1
    outer loop
      vertex -5 -5 2.5
      vertex -36.5418 -16.2695 2.5
      vertex -32.3607 -23.5114 2.5
    endloop
  endfacet
  facet normal 0 0 1
    outer loop
      vertex -5 5 2.5
      vertex -40 0 2.5
      vertex -5 -5 2.5
    endloop
  endfacet
  facet normal 0 0 1
    outer loop
      vertex -5 -5 2.5
      vertex -39.1259 -8.31647 2.5
      vertex -36.5418 -16.2695 2.5
    endloop
  endfacet
  facet normal 0 0 1
    outer loop
      vertex -5 -5 2.5
      vertex -40 0 2.5
      vertex -39.1259 -8.31647 2.5
    endloop
  endfacet
  facet normal -0.207909 -0.978148 0
    outer loop
      vertex -12.3607 -38.0423 -2.5
      vertex -4.18114 -39.7809 2.5
      vertex -12.3607 -38.0423 2.5
    endloop
  endfacet
  facet normal -0.207909 -0.978148 -0
    outer loop
      vertex -4.18114 -39.7809 2.5
      vertex -12.3607 -38.0423 -2.5
      vertex -4.18114 -39.7809 -2.5
    endloop
  endfacet
  facet normal 0.207909 0.978148 -0
    outer loop
      vertex 12.3607 38.0423 -2.5
      vertex 4.18114 39.7809 2.5
      vertex 12.3607 38.0423 2.5
    endloop
  endfacet
  facet normal 0.207909 0.978148 0
    outer loop
      vertex 4.18114 39.7809 2.5
      vertex 12.3607 38.0423 -2.5
      vertex 4.18114 39.7809 -2.5
    endloop
  endfacet
  facet normal -0.994522 -0.104529 0
    outer loop
      vertex -39.1259 -8.31647 -2.5
      vertex -40 0 2.5
      vertex -40 0 -2.5
    endloop
  endfacet
  facet normal -0.994522 -0.104529 0
    outer loop
      vertex -40 0 2.5
      vertex -39.1259 -8.31647 -2.5
      vertex -39.1259 -8.31647 2.5
    endloop
  endfacet
  facet normal -0.994522 0.104529 0
    outer loop
      vertex -40 0 -2.5
      vertex -39.1259 8.31647 2.5
      vertex -39.1259 8.31647 -2.5
    endloop
  endfacet
  facet normal -0.994522 0.104529 0
    outer loop
      vertex -39.1259 8.31647 2.5
      vertex -40 0 -2.5
      vertex -40 0 2.5
    endloop
  endfacet
  facet normal -0.866026 -0.499999 0
    outer loop
      vertex -32.3607 -23.5114 -2.5
      vertex -36.5418 -16.2695 2.5
      vertex -36.5418 -16.2695 -2.5
    endloop
  endfacet
  facet normal -0.866026 -0.499999 0
    outer loop
      vertex -36.5418 -16.2695 2.5
      vertex -32.3607 -23.5114 -2.5
      vertex -32.3607 -23.5114 2.5
    endloop
  endfacet
  facet normal -0.866026 0.499999 0
    outer loop
      vertex -36.5418 16.2695 -2.5
      vertex -32.3607 23.5114 2.5
      vertex -32.3607 23.5114 -2.5
    endloop
  endfacet
  facet normal -0.866026 0.499999 0
    outer loop
      vertex -32.3607 23.5114 2.5
      vertex -36.5418 16.2695 -2.5
      vertex -36.5418 16.2695 2.5
    endloop
  endfacet
  facet normal 0.866026 -0.499999 0
    outer loop
      vertex 32.3607 -23.5114 2.5
      vertex 36.5418 -16.2695 -2.5
      vertex 36.5418 -16.2695 2.5
    endloop
  endfacet
  facet normal 0.866026 -0.499999 0
    outer loop
      vertex 36.5418 -16.2695 -2.5
      vertex 32.3607 -23.5114 2.5
      vertex 32.3607 -23.5114 -2.5
    endloop
  endfacet
  facet normal 0.587785 0.809017 -0
    outer loop
      vertex 26.7652 29.7258 -2.5
      vertex 20 34.641 2.5
      vertex 26.7652 29.7258 2.5
    endloop
  endfacet
  facet normal 0.587785 0.809017 0
    outer loop
      vertex 20 34.641 2.5
      vertex 26.7652 29.7258 -2.5
      vertex 20 34.641 -2.5
    endloop
  endfacet
  facet normal -0.207909 0.978148 0
    outer loop
      vertex -4.18114 39.7809 -2.5
      vertex -12.3607 38.0423 2.5
      vertex -4.18114 39.7809 2.5
    endloop
  endfacet
  facet normal -0.207909 0.978148 0
    outer loop
      vertex -12.3607 38.0423 2.5
      vertex -4.18114 39.7809 -2.5
      vertex -12.3607 38.0423 -2.5
    endloop
  endfacet
  facet normal 0 -1 0
    outer loop
      vertex -4.18114 -39.7809 -2.5
      vertex 4.18114 -39.7809 2.5
      vertex -4.18114 -39.7809 2.5
    endloop
  endfacet
  facet normal 0 -1 -0
    outer loop
      vertex 4.18114 -39.7809 2.5
      vertex -4.18114 -39.7809 -2.5
      vertex 4.18114 -39.7809 -2.5
    endloop
  endfacet
  facet normal -1 0 0
    outer loop
      vertex 5 -5 -2.5
      vertex 5 5 2.5
      vertex 5 5 -2.5
    endloop
  endfacet
  facet normal -1 -0 0
    outer loop
      vertex 5 5 2.5
      vertex 5 -5 -2.5
      vertex 5 -5 2.5
    endloop
  endfacet
  facet normal 1 -0 0
    outer loop
      vertex -5 -5 2.5
      vertex -5 5 -2.5
      vertex -5 5 2.5
    endloop
  endfacet
  facet normal 1 0 0
    outer loop
      vertex -5 5 -2.5
      vertex -5 -5 2.5
      vertex -5 -5 -2.5
    endloop
  endfacet
  facet normal 0 -1 0
    outer loop
      vertex -5 5 -2.5
      vertex 5 5 2.5
      vertex -5 5 2.5
    endloop
  endfacet
  facet normal 0 -1 -0
    outer loop
      vertex 5 5 2.5
      vertex -5 5 -2.5
      vertex 5 5 -2.5
    endloop
  endfacet
  facet normal 0 1 -0
    outer loop
      vertex 5 -5 -2.5
      vertex -5 -5 2.5
      vertex 5 -5 2.5
    endloop
  endfacet
  facet normal 0 1 0
    outer loop
      vertex -5 -5 2.5
      vertex 5 -5 -2.5
      vertex -5 -5 -2.5
    endloop
  endfacet
endsolid OpenSCAD_Model
