solid OpenSCAD_Model
  facet normal 0.987688 0.156437 0
    outer loop
      vertex 50 0 0.5
      vertex 47.5528 15.4508 -0.5
      vertex 47.5528 15.4508 0.5
    endloop
  endfacet
  facet normal 0.987688 0.156437 0
    outer loop
      vertex 47.5528 15.4508 -0.5
      vertex 50 0 0.5
      vertex 50 0 -0.5
    endloop
  endfacet
  facet normal -0.453984 -0.89101 0
    outer loop
      vertex -29.3893 -40.4509 -0.5
      vertex -15.4508 -47.5528 0.5
      vertex -29.3893 -40.4509 0.5
    endloop
  endfacet
  facet normal -0.453984 -0.89101 -0
    outer loop
      vertex -15.4508 -47.5528 0.5
      vertex -29.3893 -40.4509 -0.5
      vertex -15.4508 -47.5528 -0.5
    endloop
  endfacet
  facet normal -0.707107 0.707107 0
    outer loop
      vertex -40.4509 29.3893 -0.5
      vertex -29.3893 40.4509 0.5
      vertex -29.3893 40.4509 -0.5
    endloop
  endfacet
  facet normal -0.707107 0.707107 0
    outer loop
      vertex -29.3893 40.4509 0.5
      vertex -40.4509 29.3893 -0.5
      vertex -40.4509 29.3893 0.5
    endloop
  endfacet
  facet normal 0 0 -1
    outer loop
      vertex 5 -5 -0.5
      vertex 50 0 -0.5
      vertex 47.5528 -15.4508 -0.5
    endloop
  endfacet
  facet normal 0 0 -1
    outer loop
      vertex 5 -5 -0.5
      vertex 47.5528 -15.4508 -0.5
      vertex 40.4509 -29.3893 -0.5
    endloop
  endfacet
  facet normal 0 0 -1
    outer loop
      vertex 5 5 -0.5
      vertex 50 0 -0.5
      vertex 5 -5 -0.5
    endloop
  endfacet
  facet normal 0 0 -1
    outer loop
      vertex 5 -5 -0.5
      vertex 40.4509 -29.3893 -0.5
      vertex 29.3893 -40.4509 -0.5
    endloop
  endfacet
  facet normal 0 0 -1
    outer loop
      vertex 50 0 -0.5
      vertex 5 5 -0.5
      vertex 47.5528 15.4508 -0.5
    endloop
  endfacet
  facet normal 0 0 -1
    outer loop
      vertex 5 -5 -0.5
      vertex 29.3893 -40.4509 -0.5
      vertex 15.4508 -47.5528 -0.5
    endloop
  endfacet
  facet normal -0 0 -1
    outer loop
      vertex 47.5528 15.4508 -0.5
      vertex 5 5 -0.5
      vertex 40.4509 29.3893 -0.5
    endloop
  endfacet
  facet normal -0 0 -1
    outer loop
      vertex 40.4509 29.3893 -0.5
      vertex 5 5 -0.5
      vertex 29.3893 40.4509 -0.5
    endloop
  endfacet
  facet normal 0 0 -1
    outer loop
      vertex 0 -50 -0.5
      vertex 5 -5 -0.5
      vertex 15.4508 -47.5528 -0.5
    endloop
  endfacet
  facet normal 0 0 -1
    outer loop
      vertex 0 -50 -0.5
      vertex -5 -5 -0.5
      vertex 5 -5 -0.5
    endloop
  endfacet
  facet normal 0 0 -1
    outer loop
      vertex -29.3893 -40.4509 -0.5
      vertex -5 -5 -0.5
      vertex -15.4508 -47.5528 -0.5
    endloop
  endfacet
  facet normal 0 0 -1
    outer loop
      vertex -15.4508 -47.5528 -0.5
      vertex -5 -5 -0.5
      vertex 0 -50 -0.5
    endloop
  endfacet
  facet normal -0 0 -1
    outer loop
      vertex 29.3893 40.4509 -0.5
      vertex 5 5 -0.5
      vertex 15.4508 47.5528 -0.5
    endloop
  endfacet
  facet normal 0 0 -1
    outer loop
      vertex 5 5 -0.5
      vertex 0 50 -0.5
      vertex 15.4508 47.5528 -0.5
    endloop
  endfacet
  facet normal 0 0 -1
    outer loop
      vertex -5 5 -0.5
      vertex 0 50 -0.5
      vertex 5 5 -0.5
    endloop
  endfacet
  facet normal 0 0 -1
    outer loop
      vertex -40.4509 -29.3893 -0.5
      vertex -5 -5 -0.5
      vertex -29.3893 -40.4509 -0.5
    endloop
  endfacet
  facet normal 0 0 -1
    outer loop
      vertex -5 5 -0.5
      vertex -15.4508 47.5528 -0.5
      vertex 0 50 -0.5
    endloop
  endfacet
  facet normal 0 0 -1
    outer loop
      vertex -47.5528 -15.4508 -0.5
      vertex -5 -5 -0.5
      vertex -40.4509 -29.3893 -0.5
    endloop
  endfacet
  facet normal 0 0 -1
    outer loop
      vertex -5 5 -0.5
      vertex -29.3893 40.4509 -0.5
      vertex -15.4508 47.5528 -0.5
    endloop
  endfacet
  facet normal 0 0 -1
    outer loop
      vertex -50 0 -0.5
      vertex -5 -5 -0.5
      vertex -47.5528 -15.4508 -0.5
    endloop
  endfacet
  facet normal 0 0 -1
    outer loop
      vertex -5 5 -0.5
      vertex -40.4509 29.3893 -0.5
      vertex -29.3893 40.4509 -0.5
    endloop
  endfacet
  facet normal 0 0 -1
    outer loop
      vertex -5 -5 -0.5
      vertex -50 0 -0.5
      vertex -5 5 -0.5
    endloop
  endfacet
  facet normal 0 0 -1
    outer loop
      vertex -5 5 -0.5
      vertex -47.5528 15.4508 -0.5
      vertex -40.4509 29.3893 -0.5
    endloop
  endfacet
  facet normal -0 0 -1
    outer loop
      vertex -5 5 -0.5
      vertex -50 0 -0.5
      vertex -47.5528 15.4508 -0.5
    endloop
  endfacet
  facet normal 0.89101 0.453984 0
    outer loop
      vertex 47.5528 15.4508 0.5
      vertex 40.4509 29.3893 -0.5
      vertex 40.4509 29.3893 0.5
    endloop
  endfacet
  facet normal 0.89101 0.453984 0
    outer loop
      vertex 40.4509 29.3893 -0.5
      vertex 47.5528 15.4508 0.5
      vertex 47.5528 15.4508 -0.5
    endloop
  endfacet
  facet normal 0.707107 -0.707107 0
    outer loop
      vertex 29.3893 -40.4509 0.5
      vertex 40.4509 -29.3893 -0.5
      vertex 40.4509 -29.3893 0.5
    endloop
  endfacet
  facet normal 0.707107 -0.707107 0
    outer loop
      vertex 40.4509 -29.3893 -0.5
      vertex 29.3893 -40.4509 0.5
      vertex 29.3893 -40.4509 -0.5
    endloop
  endfacet
  facet normal 0.156437 -0.987688 0
    outer loop
      vertex 0 -50 -0.5
      vertex 15.4508 -47.5528 0.5
      vertex 0 -50 0.5
    endloop
  endfacet
  facet normal 0.156437 -0.987688 0
    outer loop
      vertex 15.4508 -47.5528 0.5
      vertex 0 -50 -0.5
      vertex 15.4508 -47.5528 -0.5
    endloop
  endfacet
  facet normal 0.707107 0.707107 0
    outer loop
      vertex 40.4509 29.3893 0.5
      vertex 29.3893 40.4509 -0.5
      vertex 29.3893 40.4509 0.5
    endloop
  endfacet
  facet normal 0.707107 0.707107 0
    outer loop
      vertex 29.3893 40.4509 -0.5
      vertex 40.4509 29.3893 0.5
      vertex 40.4509 29.3893 -0.5
    endloop
  endfacet
  facet normal -0.987688 -0.156437 0
    outer loop
      vertex -47.5528 -15.4508 -0.5
      vertex -50 0 0.5
      vertex -50 0 -0.5
    endloop
  endfacet
  facet normal -0.987688 -0.156437 0
    outer loop
      vertex -50 0 0.5
      vertex -47.5528 -15.4508 -0.5
      vertex -47.5528 -15.4508 0.5
    endloop
  endfacet
  facet normal -0.707107 -0.707107 0
    outer loop
      vertex -29.3893 -40.4509 -0.5
      vertex -40.4509 -29.3893 0.5
      vertex -40.4509 -29.3893 -0.5
    endloop
  endfacet
  facet normal -0.707107 -0.707107 0
    outer loop
      vertex -40.4509 -29.3893 0.5
      vertex -29.3893 -40.4509 -0.5
      vertex -29.3893 -40.4509 0.5
    endloop
  endfacet
  facet normal -0 0 1
    outer loop
      vertex 5 5 0.5
      vertex 50 0 0.5
      vertex 47.5528 15.4508 0.5
    endloop
  endfacet
  facet normal 0 0 1
    outer loop
      vertex 5 5 0.5
      vertex 47.5528 15.4508 0.5
      vertex 40.4509 29.3893 0.5
    endloop
  endfacet
  facet normal 0 0 1
    outer loop
      vertex 5 -5 0.5
      vertex 50 0 0.5
      vertex 5 5 0.5
    endloop
  endfacet
  facet normal 0 0 1
    outer loop
      vertex 5 5 0.5
      vertex 40.4509 29.3893 0.5
      vertex 29.3893 40.4509 0.5
    endloop
  endfacet
  facet normal 0 0 1
    outer loop
      vertex 50 0 0.5
      vertex 5 -5 0.5
      vertex 47.5528 -15.4508 0.5
    endloop
  endfacet
  facet normal 0 0 1
    outer loop
      vertex 5 5 0.5
      vertex 29.3893 40.4509 0.5
      vertex 15.4508 47.5528 0.5
    endloop
  endfacet
  facet normal 0 0 1
    outer loop
      vertex 47.5528 -15.4508 0.5
      vertex 5 -5 0.5
      vertex 40.4509 -29.3893 0.5
    endloop
  endfacet
  facet normal 0 0 1
    outer loop
      vertex 40.4509 -29.3893 0.5
      vertex 5 -5 0.5
      vertex 29.3893 -40.4509 0.5
    endloop
  endfacet
  facet normal 0 0 1
    outer loop
      vertex 0 50 0.5
      vertex 5 5 0.5
      vertex 15.4508 47.5528 0.5
    endloop
  endfacet
  facet normal 0 0 1
    outer loop
      vertex 0 50 0.5
      vertex -5 5 0.5
      vertex 5 5 0.5
    endloop
  endfacet
  facet normal -0 0 1
    outer loop
      vertex -29.3893 40.4509 0.5
      vertex -5 5 0.5
      vertex -15.4508 47.5528 0.5
    endloop
  endfacet
  facet normal -0 0 1
    outer loop
      vertex -15.4508 47.5528 0.5
      vertex -5 5 0.5
      vertex 0 50 0.5
    endloop
  endfacet
  facet normal 0 0 1
    outer loop
      vertex 29.3893 -40.4509 0.5
      vertex 5 -5 0.5
      vertex 15.4508 -47.5528 0.5
    endloop
  endfacet
  facet normal 0 0 1
    outer loop
      vertex 5 -5 0.5
      vertex 0 -50 0.5
      vertex 15.4508 -47.5528 0.5
    endloop
  endfacet
  facet normal -0 0 1
    outer loop
      vertex -5 -5 0.5
      vertex 0 -50 0.5
      vertex 5 -5 0.5
    endloop
  endfacet
  facet normal -0 0 1
    outer loop
      vertex -40.4509 29.3893 0.5
      vertex -5 5 0.5
      vertex -29.3893 40.4509 0.5
    endloop
  endfacet
  facet normal 0 0 1
    outer loop
      vertex -5 -5 0.5
      vertex -15.4508 -47.5528 0.5
      vertex 0 -50 0.5
    endloop
  endfacet
  facet normal -0 0 1
    outer loop
      vertex -47.5528 15.4508 0.5
      vertex -5 5 0.5
      vertex -40.4509 29.3893 0.5
    endloop
  endfacet
  facet normal 0 0 1
    outer loop
      vertex -5 -5 0.5
      vertex -29.3893 -40.4509 0.5
      vertex -15.4508 -47.5528 0.5
    endloop
  endfacet
  facet normal 0 0 1
    outer loop
      vertex -50 0 0.5
      vertex -5 5 0.5
      vertex -47.5528 15.4508 0.5
    endloop
  endfacet
  facet normal 0 0 1
    outer loop
      vertex -5 -5 0.5
      vertex -40.4509 -29.3893 0.5
      vertex -29.3893 -40.4509 0.5
    endloop
  endfacet
  facet normal 0 0 1
    outer loop
      vertex -5 5 0.5
      vertex -50 0 0.5
      vertex -5 -5 0.5
    endloop
  endfacet
  facet normal 0 0 1
    outer loop
      vertex -5 -5 0.5
      vertex -47.5528 -15.4508 0.5
      vertex -40.4509 -29.3893 0.5
    endloop
  endfacet
  facet normal 0 0 1
    outer loop
      vertex -5 -5 0.5
      vertex -50 0 0.5
      vertex -47.5528 -15.4508 0.5
    endloop
  endfacet
  facet normal 0.453984 -0.89101 0
    outer loop
      vertex 15.4508 -47.5528 -0.5
      vertex 29.3893 -40.4509 0.5
      vertex 15.4508 -47.5528 0.5
    endloop
  endfacet
  facet normal 0.453984 -0.89101 0
    outer loop
      vertex 29.3893 -40.4509 0.5
      vertex 15.4508 -47.5528 -0.5
      vertex 29.3893 -40.4509 -0.5
    endloop
  endfacet
  facet normal 0.453984 0.89101 -0
    outer loop
      vertex 29.3893 40.4509 -0.5
      vertex 15.4508 47.5528 0.5
      vertex 29.3893 40.4509 0.5
    endloop
  endfacet
  facet normal 0.453984 0.89101 0
    outer loop
      vertex 15.4508 47.5528 0.5
      vertex 29.3893 40.4509 -0.5
      vertex 15.4508 47.5528 -0.5
    endloop
  endfacet
  facet normal -0.156437 0.987688 0
    outer loop
      vertex 0 50 -0.5
      vertex -15.4508 47.5528 0.5
      vertex 0 50 0.5
    endloop
  endfacet
  facet normal -0.156437 0.987688 0
    outer loop
      vertex -15.4508 47.5528 0.5
      vertex 0 50 -0.5
      vertex -15.4508 47.5528 -0.5
    endloop
  endfacet
  facet normal 0.156437 0.987688 -0
    outer loop
      vertex 15.4508 47.5528 -0.5
      vertex 0 50 0.5
      vertex 15.4508 47.5528 0.5
    endloop
  endfacet
  facet normal 0.156437 0.987688 0
    outer loop
      vertex 0 50 0.5
      vertex 15.4508 47.5528 -0.5
      vertex 0 50 -0.5
    endloop
  endfacet
  facet normal -0.156437 -0.987688 0
    outer loop
      vertex -15.4508 -47.5528 -0.5
      vertex 0 -50 0.5
      vertex -15.4508 -47.5528 0.5
    endloop
  endfacet
  facet normal -0.156437 -0.987688 -0
    outer loop
      vertex 0 -50 0.5
      vertex -15.4508 -47.5528 -0.5
      vertex 0 -50 -0.5
    endloop
  endfacet
  facet normal -0.453984 0.89101 0
    outer loop
      vertex -15.4508 47.5528 -0.5
      vertex -29.3893 40.4509 0.5
      vertex -15.4508 47.5528 0.5
    endloop
  endfacet
  facet normal -0.453984 0.89101 0
    outer loop
      vertex -29.3893 40.4509 0.5
      vertex -15.4508 47.5528 -0.5
      vertex -29.3893 40.4509 -0.5
    endloop
  endfacet
  facet normal -0.89101 -0.453984 0
    outer loop
      vertex -40.4509 -29.3893 -0.5
      vertex -47.5528 -15.4508 0.5
      vertex -47.5528 -15.4508 -0.5
    endloop
  endfacet
  facet normal -0.89101 -0.453984 0
    outer loop
      vertex -47.5528 -15.4508 0.5
      vertex -40.4509 -29.3893 -0.5
      vertex -40.4509 -29.3893 0.5
    endloop
  endfacet
  facet normal -0.987688 0.156437 0
    outer loop
      vertex -50 0 -0.5
      vertex -47.5528 15.4508 0.5
      vertex -47.5528 15.4508 -0.5
    endloop
  endfacet
  facet normal -0.987688 0.156437 0
    outer loop
      vertex -47.5528 15.4508 0.5
      vertex -50 0 -0.5
      vertex -50 0 0.5
    endloop
  endfacet
  facet normal -0.89101 0.453984 0
    outer loop
      vertex -47.5528 15.4508 -0.5
      vertex -40.4509 29.3893 0.5
      vertex -40.4509 29.3893 -0.5
    endloop
  endfacet
  facet normal -0.89101 0.453984 0
    outer loop
      vertex -40.4509 29.3893 0.5
      vertex -47.5528 15.4508 -0.5
      vertex -47.5528 15.4508 0.5
    endloop
  endfacet
  facet normal 0.89101 -0.453984 0
    outer loop
      vertex 40.4509 -29.3893 0.5
      vertex 47.5528 -15.4508 -0.5
      vertex 47.5528 -15.4508 0.5
    endloop
  endfacet
  facet normal 0.89101 -0.453984 0
    outer loop
      vertex 47.5528 -15.4508 -0.5
      vertex 40.4509 -29.3893 0.5
      vertex 40.4509 -29.3893 -0.5
    endloop
  endfacet
  facet normal 0.987688 -0.156437 0
    outer loop
      vertex 47.5528 -15.4508 0.5
      vertex 50 0 -0.5
      vertex 50 0 0.5
    endloop
  endfacet
  facet normal 0.987688 -0.156437 0
    outer loop
      vertex 50 0 -0.5
      vertex 47.5528 -15.4508 0.5
      vertex 47.5528 -15.4508 -0.5
    endloop
  endfacet
  facet normal -1 0 0
    outer loop
      vertex 5 -5 -0.5
      vertex 5 5 0.5
      vertex 5 5 -0.5
    endloop
  endfacet
  facet normal -1 -0 0
    outer loop
      vertex 5 5 0.5
      vertex 5 -5 -0.5
      vertex 5 -5 0.5
    endloop
  endfacet
  facet normal 1 -0 0
    outer loop
      vertex -5 -5 0.5
      vertex -5 5 -0.5
      vertex -5 5 0.5
    endloop
  endfacet
  facet normal 1 0 0
    outer loop
      vertex -5 5 -0.5
      vertex -5 -5 0.5
      vertex -5 -5 -0.5
    endloop
  endfacet
  facet normal 0 -1 0
    outer loop
      vertex -5 5 -0.5
      vertex 5 5 0.5
      vertex -5 5 0.5
    endloop
  endfacet
  facet normal 0 -1 -0
    outer loop
      vertex 5 5 0.5
      vertex -5 5 -0.5
      vertex 5 5 -0.5
    endloop
  endfacet
  facet normal 0 1 -0
    outer loop
      vertex 5 -5 -0.5
      vertex -5 -5 0.5
      vertex 5 -5 0.5
    endloop
  endfacet
  facet normal 0 1 0
    outer loop
      vertex -5 -5 0.5
      vertex 5 -5 -0.5
      vertex -5 -5 -0.5
    endloop
  endfacet
endsolid OpenSCAD_Model
