<?xml version="1.0" standalone="no"?>
<!DOCTYPE svg PUBLIC "-//W3C//DTD SVG 1.1//EN" "http://www.w3.org/Graphics/SVG/1.1/DTD/svg11.dtd">
<svg width="120mm" height="50mm" viewBox="0 -50 120 50" xmlns="http://www.w3.org/2000/svg" version="1.1">
<title>OpenSCAD Model</title>
<path d="
M 120,-50 L 0,-50 L 0,-0 L 120,-0 z
M 9.75494,-37.512 L 9.51227,-37.548 L 9.27428,-37.6077 L 9.04329,-37.6903 L 8.8215,-37.7952 L 8.61107,-37.9213
 L 8.41402,-38.0675 L 8.23222,-38.2322 L 8.06746,-38.414 L 7.92133,-38.6111 L 7.7952,-38.8215 L 7.69029,-39.0433
 L 7.60764,-39.2743 L 7.54803,-39.5123 L 7.51202,-39.7549 L 7.5,-40 L 7.51202,-40.245 L 7.54803,-40.4877
 L 7.60764,-40.7257 L 7.69029,-40.9567 L 7.7952,-41.1785 L 7.92133,-41.3889 L 8.06746,-41.586 L 8.23222,-41.7678
 L 8.41402,-41.9325 L 8.61107,-42.0787 L 8.8215,-42.2048 L 9.04329,-42.3097 L 9.27428,-42.3923 L 9.51227,-42.452
 L 9.75494,-42.488 L 10,-42.5 L 10.245,-42.488 L 10.4877,-42.452 L 10.7257,-42.3923 L 10.9567,-42.3097
 L 11.1785,-42.2048 L 11.3889,-42.0787 L 11.586,-41.9325 L 11.7678,-41.7678 L 11.9325,-41.586 L 12.0787,-41.3889
 L 12.2048,-41.1785 L 12.3097,-40.9567 L 12.3923,-40.7257 L 12.452,-40.4877 L 12.488,-40.245 L 12.5,-40
 L 12.488,-39.7549 L 12.452,-39.5123 L 12.3923,-39.2743 L 12.3097,-39.0433 L 12.2048,-38.8215 L 12.0787,-38.6111
 L 11.9325,-38.414 L 11.7678,-38.2322 L 11.586,-38.0675 L 11.3889,-37.9213 L 11.1785,-37.7952 L 10.9567,-37.6903
 L 10.7257,-37.6077 L 10.4877,-37.548 L 10.245,-37.512 L 10,-37.5 z
M 109.755,-7.51202 L 109.512,-7.54803 L 109.274,-7.60764 L 109.043,-7.69029 L 108.822,-7.7952 L 108.611,-7.92133
 L 108.414,-8.06746 L 108.232,-8.23222 L 108.067,-8.41402 L 107.921,-8.61107 L 107.795,-8.8215 L 107.69,-9.04329
 L 107.608,-9.27428 L 107.548,-9.51227 L 107.512,-9.75494 L 107.5,-10 L 107.512,-10.245 L 107.548,-10.4877
 L 107.608,-10.7257 L 107.69,-10.9567 L 107.795,-11.1785 L 107.921,-11.3889 L 108.067,-11.586 L 108.232,-11.7678
 L 108.414,-11.9325 L 108.611,-12.0787 L 108.822,-12.2048 L 109.043,-12.3097 L 109.274,-12.3923 L 109.512,-12.452
 L 109.755,-12.488 L 110,-12.5 L 110.245,-12.488 L 110.488,-12.452 L 110.726,-12.3923 L 110.957,-12.3097
 L 111.178,-12.2048 L 111.389,-12.0787 L 111.586,-11.9325 L 111.768,-11.7678 L 111.933,-11.586 L 112.079,-11.3889
 L 112.205,-11.1785 L 112.31,-10.9567 L 112.392,-10.7257 L 112.452,-10.4877 L 112.488,-10.245 L 112.5,-10
 L 112.488,-9.75494 L 112.452,-9.51227 L 112.392,-9.27428 L 112.31,-9.04329 L 112.205,-8.8215 L 112.079,-8.61107
 L 111.933,-8.41402 L 111.768,-8.23222 L 111.586,-8.06746 L 111.389,-7.92133 L 111.178,-7.7952 L 110.957,-7.69029
 L 110.726,-7.60764 L 110.488,-7.54803 L 110.245,-7.51202 L 110,-7.5 z
" stroke="black" fill="lightgray" stroke-width="0.5"/>
</svg>
