<?xml version="1.0" standalone="no"?>
<!DOCTYPE svg PUBLIC "-//W3C//DTD SVG 1.1//EN" "http://www.w3.org/Graphics/SVG/1.1/DTD/svg11.dtd">
<svg width="270mm" height="50mm" viewBox="-125 -10 270 50" xmlns="http://www.w3.org/2000/svg" version="1.1">
<title>OpenSCAD Model</title>
<path d="
M 145,-10 L -125,-10 L -125,40 L 145,40 z
M -0.142288,2.8965 L -0.284241,2.88603 L -0.425507,2.86861 L -0.56575,2.84427 L -0.704636,2.81308 L -0.841812,2.77512
 L -0.976974,2.73047 L -1.10977,2.67924 L -1.2399,2.62157 L -1.36705,2.55757 L -1.49089,2.48741 L -1.61115,2.41125
 L -1.72752,2.3293 L -1.83974,2.24173 L -1.94751,2.14876 L -2.0506,2.0506 L -2.14876,1.94751 L -2.24173,1.83974
 L -2.3293,1.72752 L -2.41125,1.61115 L -2.48741,1.49089 L -2.55757,1.36705 L -2.62157,1.2399 L -2.67924,1.10977
 L -2.73047,0.976974 L -2.77512,0.841812 L -2.81308,0.704636 L -2.84427,0.56575 L -2.86861,0.425507 L -2.88603,0.284241
 L -2.8965,0.142288 L -2.89999,-0 L -2.8965,-0.142288 L -2.88603,-0.284241 L -2.86861,-0.425507 L -2.84427,-0.56575
 L -2.81308,-0.704636 L -2.77512,-0.841812 L -2.73047,-0.976974 L -2.67924,-1.10977 L -2.62157,-1.2399 L -2.55757,-1.36705
 L -2.48741,-1.49089 L -2.41125,-1.61115 L -2.3293,-1.72752 L -2.24173,-1.83974 L -2.14876,-1.94751 L -2.0506,-2.0506
 L -1.94751,-2.14876 L -1.83974,-2.24173 L -1.72752,-2.3293 L -1.61115,-2.41125 L -1.49089,-2.48741 L -1.36705,-2.55757
 L -1.2399,-2.62157 L -1.10977,-2.67924 L -0.976974,-2.73047 L -0.841812,-2.77512 L -0.704636,-2.81308 L -0.56575,-2.84427
 L -0.425507,-2.86861 L -0.284241,-2.88603 L -0.142288,-2.8965 L 0,-2.89999 L 0.142288,-2.8965 L 0.284241,-2.88603
 L 0.425507,-2.86861 L 0.56575,-2.84427 L 0.704636,-2.81308 L 0.841812,-2.77512 L 0.976974,-2.73047 L 1.10977,-2.67924
 L 1.2399,-2.62157 L 1.36705,-2.55757 L 1.49089,-2.48741 L 1.61115,-2.41125 L 1.72752,-2.3293 L 1.83974,-2.24173
 L 1.94751,-2.14876 L 2.0506,-2.0506 L 2.14876,-1.94751 L 2.24173,-1.83974 L 2.3293,-1.72752 L 2.41125,-1.61115
 L 2.48741,-1.49089 L 2.55757,-1.36705 L 2.62157,-1.2399 L 2.67924,-1.10977 L 2.73047,-0.976974 L 2.77512,-0.841812
 L 2.81308,-0.704636 L 2.84427,-0.56575 L 2.86861,-0.425507 L 2.88603,-0.284241 L 2.8965,-0.142288 L 2.89999,-0
 L 2.8965,0.142288 L 2.88603,0.284241 L 2.86861,0.425507 L 2.84427,0.56575 L 2.81308,0.704636 L 2.77512,0.841812
 L 2.73047,0.976974 L 2.67924,1.10977 L 2.62157,1.2399 L 2.55757,1.36705 L 2.48741,1.49089 L 2.41125,1.61115
 L 2.3293,1.72752 L 2.24173,1.83974 L 2.14876,1.94751 L 2.0506,2.0506 L 1.94751,2.14876 L 1.83974,2.24173
 L 1.72752,2.3293 L 1.61115,2.41125 L 1.49089,2.48741 L 1.36705,2.55757 L 1.2399,2.62157 L 1.10977,2.67924
 L 0.976974,2.73047 L 0.841812,2.77512 L 0.704636,2.81308 L 0.56575,2.84427 L 0.425507,2.86861 L 0.284241,2.88603
 L 0.142288,2.8965 L 0,2.89999 z
M 66.6998,3.87894 L 66.5578,3.86876 L 66.4165,3.85164 L 66.2762,3.82761 L 66.1373,3.79671 L 66,3.75903
 L 65.8648,3.71468 L 65.7319,3.66373 L 65.6016,3.60632 L 65.4743,3.5426 L 65.3503,3.4727 L 65.2299,3.3968
 L 65.1134,3.31509 L 65.001,3.22775 L 64.893,3.13501 L 64.7897,3.03708 L 64.6913,2.9342 L 64.5981,2.82663
 L 64.5103,2.7146 L 64.4281,2.59839 L 64.3517,2.4783 L 64.2813,2.3546 L 64.217,2.2276 L 64.1591,2.0976
 L 64.1076,1.9649 L 64.0626,1.82983 L 64.0244,1.69273 L 63.9929,1.55392 L 63.9682,1.41373 L 63.9505,1.27251
 L 63.9398,1.13057 L 63.936,0.988281 L 63.9391,0.845978 L 63.9493,0.70401 L 63.9664,0.562698 L 63.9905,0.422409
 L 64.0214,0.283463 L 64.0591,0.146194 L 64.1034,0.0109406 L 64.1544,-0.121948 L 64.2118,-0.252197 L 64.2755,-0.379471
 L 64.3454,-0.503479 L 64.4213,-0.623886 L 64.503,-0.740433 L 64.5903,-0.852829 L 64.6831,-0.960815 L 64.781,-1.0641
 L 64.8839,-1.16248 L 64.9915,-1.25568 L 65.1035,-1.34349 L 65.2197,-1.42569 L 65.3398,-1.50209 L 65.4635,-1.57253
 L 65.5905,-1.63678 L 65.7205,-1.69475 L 65.8532,-1.74625 L 65.9883,-1.79118 L 66.1254,-1.82944 L 66.2642,-1.86092
 L 66.4044,-1.88556 L 66.5456,-1.90327 L 66.6875,-1.91405 L 66.8298,-1.91785 L 66.9721,-1.91466 L 67.1141,-1.90448
 L 67.2554,-1.88736 L 67.3957,-1.86333 L 67.5346,-1.83243 L 67.6719,-1.79475 L 67.8071,-1.7504 L 67.94,-1.69945
 L 68.0703,-1.64204 L 68.1976,-1.57831 L 68.3216,-1.50842 L 68.442,-1.43253 L 68.5585,-1.35081 L 68.6709,-1.26347
 L 68.7789,-1.17073 L 68.8822,-1.0728 L 68.9806,-0.969925 L 69.0738,-0.862335 L 69.1616,-0.75032 L 69.2438,-0.634109
 L 69.3202,-0.514023 L 69.3906,-0.39032 L 69.4549,-0.263321 L 69.5128,-0.133316 L 69.5644,-0.000610352 L 69.6093,0.13443
 L 69.6476,0.27153 L 69.679,0.410339 L 69.7037,0.550537 L 69.7214,0.691772 L 69.7321,0.833694 L 69.7359,0.975983
 L 69.7328,1.11829 L 69.7226,1.26027 L 69.7055,1.40157 L 69.6814,1.54187 L 69.6505,1.68082 L 69.6129,1.81807
 L 69.5685,1.95332 L 69.5175,2.08623 L 69.4601,2.21648 L 69.3964,2.34377 L 69.3265,2.46776 L 69.2506,2.58817
 L 69.1689,2.70473 L 69.0816,2.81712 L 68.9888,2.92509 L 68.8909,3.0284 L 68.788,3.12675 L 68.6805,3.21996
 L 68.5684,3.30777 L 68.4522,3.38997 L 68.3321,3.46638 L 68.2084,3.5368 L 68.0814,3.60107 L 67.9514,3.65903
 L 67.8187,3.71054 L 67.6837,3.75546 L 67.5466,3.79373 L 67.4077,3.82521 L 67.2675,3.84984 L 67.1263,3.86755
 L 66.9844,3.87833 L 66.8421,3.88213 z
M -110.191,18.8953 L -110.382,18.8812 L -110.572,18.8578 L -110.761,18.8251 L -110.948,18.7831 L -111.132,18.7321
 L -111.314,18.672 L -111.492,18.6031 L -111.667,18.5256 L -111.838,18.4395 L -112.005,18.3451 L -112.167,18.2427
 L -112.323,18.1325 L -112.474,18.0147 L -112.619,17.8897 L -112.758,17.7577 L -112.89,17.6191 L -113.015,17.4741
 L -113.133,17.3232 L -113.243,17.1667 L -113.345,17.005 L -113.439,16.8384 L -113.526,16.6675 L -113.603,16.4925
 L -113.672,16.3139 L -113.732,16.1321 L -113.783,15.9476 L -113.825,15.7608 L -113.858,15.5722 L -113.881,15.3823
 L -113.895,15.1914 L -113.9,15 L -113.895,14.8086 L -113.881,14.6177 L -113.858,14.4277 L -113.825,14.2391
 L -113.783,14.0524 L -113.732,13.8679 L -113.672,13.6861 L -113.603,13.5075 L -113.526,13.3325 L -113.439,13.1615
 L -113.345,12.995 L -113.243,12.8333 L -113.133,12.6768 L -113.015,12.5259 L -112.89,12.3809 L -112.758,12.2423
 L -112.619,12.1103 L -112.474,11.9852 L -112.323,11.8675 L -112.167,11.7573 L -112.005,11.6548 L -111.838,11.5605
 L -111.667,11.4744 L -111.492,11.3969 L -111.314,11.328 L -111.132,11.2679 L -110.948,11.2169 L -110.761,11.1749
 L -110.572,11.1422 L -110.382,11.1188 L -110.191,11.1047 L -110,11.1 L -109.809,11.1047 L -109.618,11.1188
 L -109.428,11.1422 L -109.239,11.1749 L -109.052,11.2169 L -108.868,11.2679 L -108.686,11.328 L -108.508,11.3969
 L -108.333,11.4744 L -108.162,11.5605 L -107.995,11.6548 L -107.833,11.7573 L -107.677,11.8675 L -107.526,11.9852
 L -107.381,12.1103 L -107.242,12.2423 L -107.11,12.3809 L -106.985,12.5259 L -106.867,12.6768 L -106.757,12.8333
 L -106.655,12.995 L -106.561,13.1615 L -106.474,13.3325 L -106.397,13.5075 L -106.328,13.6861 L -106.268,13.8679
 L -106.217,14.0524 L -106.175,14.2391 L -106.142,14.4277 L -106.119,14.6177 L -106.105,14.8086 L -106.1,15
 L -106.105,15.1914 L -106.119,15.3823 L -106.142,15.5722 L -106.175,15.7608 L -106.217,15.9476 L -106.268,16.1321
 L -106.328,16.3139 L -106.397,16.4925 L -106.474,16.6675 L -106.561,16.8384 L -106.655,17.005 L -106.757,17.1667
 L -106.867,17.3232 L -106.985,17.4741 L -107.11,17.6191 L -107.242,17.7577 L -107.381,17.8897 L -107.526,18.0147
 L -107.677,18.1325 L -107.833,18.2427 L -107.995,18.3451 L -108.162,18.4395 L -108.333,18.5256 L -108.508,18.6031
 L -108.686,18.672 L -108.868,18.7321 L -109.052,18.7831 L -109.239,18.8251 L -109.428,18.8578 L -109.618,18.8812
 L -109.809,18.8953 L -110,18.9 z
M 129.809,18.8953 L 129.618,18.8812 L 129.428,18.8578 L 129.239,18.8251 L 129.052,18.7831 L 128.868,18.7321
 L 128.686,18.672 L 128.508,18.6031 L 128.333,18.5256 L 128.162,18.4395 L 127.995,18.3451 L 127.833,18.2427
 L 127.677,18.1325 L 127.526,18.0147 L 127.381,17.8897 L 127.242,17.7577 L 127.11,17.6191 L 126.985,17.4741
 L 126.867,17.3232 L 126.757,17.1667 L 126.655,17.005 L 126.561,16.8384 L 126.474,16.6675 L 126.397,16.4925
 L 126.328,16.3139 L 126.268,16.1321 L 126.217,15.9476 L 126.175,15.7608 L 126.142,15.5722 L 126.119,15.3823
 L 126.105,15.1914 L 126.1,15 L 126.105,14.8086 L 126.119,14.6177 L 126.142,14.4277 L 126.175,14.2391
 L 126.217,14.0524 L 126.268,13.8679 L 126.328,13.6861 L 126.397,13.5075 L 126.474,13.3325 L 126.561,13.1615
 L 126.655,12.995 L 126.757,12.8333 L 126.867,12.6768 L 126.985,12.5259 L 127.11,12.3809 L 127.242,12.2423
 L 127.381,12.1103 L 127.526,11.9852 L 127.677,11.8675 L 127.833,11.7573 L 127.995,11.6548 L 128.162,11.5605
 L 128.333,11.4744 L 128.508,11.3969 L 128.686,11.328 L 128.868,11.2679 L 129.052,11.2169 L 129.239,11.1749
 L 129.428,11.1422 L 129.618,11.1188 L 129.809,11.1047 L 130,11.1 L 130.191,11.1047 L 130.382,11.1188
 L 130.572,11.1422 L 130.761,11.1749 L 130.948,11.2169 L 131.132,11.2679 L 131.314,11.328 L 131.492,11.3969
 L 131.667,11.4744 L 131.838,11.5605 L 132.005,11.6548 L 132.167,11.7573 L 132.323,11.8675 L 132.474,11.9852
 L 132.619,12.1103 L 132.758,12.2423 L 132.89,12.3809 L 133.015,12.5259 L 133.133,12.6768 L 133.243,12.8333
 L 133.345,12.995 L 133.439,13.1615 L 133.526,13.3325 L 133.603,13.5075 L 133.672,13.6861 L 133.732,13.8679
 L 133.783,14.0524 L 133.825,14.2391 L 133.858,14.4277 L 133.881,14.6177 L 133.895,14.8086 L 133.9,15
 L 133.895,15.1914 L 133.881,15.3823 L 133.858,15.5722 L 133.825,15.7608 L 133.783,15.9476 L 133.732,16.1321
 L 133.672,16.3139 L 133.603,16.4925 L 133.526,16.6675 L 133.439,16.8384 L 133.345,17.005 L 133.243,17.1667
 L 133.133,17.3232 L 133.015,17.4741 L 132.89,17.6191 L 132.758,17.7577 L 132.619,17.8897 L 132.474,18.0147
 L 132.323,18.1325 L 132.167,18.2427 L 132.005,18.3451 L 131.838,18.4395 L 131.667,18.5256 L 131.492,18.6031
 L 131.314,18.672 L 131.132,18.7321 L 130.948,18.7831 L 130.761,18.8251 L 130.572,18.8578 L 130.382,18.8812
 L 130.191,18.8953 L 130,18.9 z
M 90.7515,22.5128 L 90.5368,22.4974 L 90.3232,22.4715 L 90.1111,22.4352 L 89.9011,22.3885 L 89.6936,22.3315
 L 89.4891,22.2645 L 89.2882,22.1874 L 89.0913,22.1007 L 88.8989,22.0043 L 88.7114,21.8987 L 88.5294,21.7839
 L 88.3532,21.6604 L 88.1833,21.5284 L 88.02,21.3882 L 87.8639,21.2401 L 87.7152,21.0846 L 87.5743,20.922
 L 87.4415,20.7526 L 87.3173,20.5769 L 87.2018,20.3954 L 87.0953,20.2084 L 86.9981,20.0164 L 86.9105,19.8198
 L 86.8326,19.6192 L 86.7647,19.4151 L 86.7069,19.2078 L 86.6593,18.998 L 86.6221,18.786 L 86.5953,18.5725
 L 86.579,18.3579 L 86.5732,18.1428 L 86.5781,17.9277 L 86.5934,17.7131 L 86.6193,17.4995 L 86.6557,17.2874
 L 86.7024,17.0773 L 86.7593,16.8698 L 86.8264,16.6654 L 86.9034,16.4644 L 86.9902,16.2675 L 87.0865,16.0751
 L 87.1922,15.8877 L 87.3069,15.7056 L 87.4305,15.5294 L 87.5625,15.3595 L 87.7027,15.1963 L 87.8507,15.0401
 L 88.0063,14.8914 L 88.1689,14.7505 L 88.3383,14.6178 L 88.5139,14.4935 L 88.6955,14.378 L 88.8825,14.2715
 L 89.0745,14.1744 L 89.271,14.0868 L 89.4716,14.0089 L 89.6758,13.941 L 89.883,13.8831 L 90.0929,13.8355
 L 90.3048,13.7983 L 90.5183,13.7715 L 90.7329,13.7552 L 90.948,13.7495 L 91.1631,13.7543 L 91.3778,13.7697
 L 91.5914,13.7956 L 91.8035,13.8319 L 92.0135,13.8786 L 92.221,13.9356 L 92.4255,14.0026 L 92.6264,14.0797
 L 92.8233,14.1664 L 93.0157,14.2628 L 93.2032,14.3684 L 93.3852,14.4832 L 93.5614,14.6067 L 93.7313,14.7387
 L 93.8946,14.8789 L 94.0507,15.027 L 94.1994,15.1825 L 94.3403,15.3452 L 94.4731,15.5145 L 94.5973,15.6902
 L 94.7128,15.8717 L 94.8193,16.0587 L 94.9165,16.2507 L 95.0041,16.4473 L 95.0819,16.6479 L 95.1499,16.852
 L 95.2077,17.0593 L 95.2553,17.2691 L 95.2925,17.4811 L 95.3193,17.6946 L 95.3356,17.9091 L 95.3414,18.1243
 L 95.3365,18.3394 L 95.3212,18.554 L 95.2953,18.7676 L 95.2589,18.9797 L 95.2122,19.1898 L 95.1553,19.3973
 L 95.0882,19.6017 L 95.0112,19.8027 L 94.9244,19.9996 L 94.8281,20.192 L 94.7224,20.3794 L 94.6077,20.5615
 L 94.4841,20.7377 L 94.3521,20.9076 L 94.2119,21.0708 L 94.0639,21.227 L 93.9083,21.3757 L 93.7457,21.5166
 L 93.5763,21.6493 L 93.4007,21.7736 L 93.2191,21.8891 L 93.0321,21.9956 L 92.8401,22.0927 L 92.6436,22.1803
 L 92.443,22.2582 L 92.2388,22.3261 L 92.0316,22.384 L 91.8217,22.4315 L 91.6098,22.4688 L 91.3963,22.4956
 L 91.1817,22.5119 L 90.9666,22.5176 z
M 24.8086,28.8953 L 24.6177,28.8812 L 24.4277,28.8578 L 24.2391,28.8251 L 24.0524,28.7831 L 23.8679,28.7321
 L 23.6861,28.672 L 23.5075,28.6031 L 23.3325,28.5256 L 23.1615,28.4395 L 22.995,28.3451 L 22.8333,28.2427
 L 22.6768,28.1325 L 22.5259,28.0147 L 22.3809,27.8897 L 22.2423,27.7577 L 22.1103,27.6191 L 21.9853,27.4741
 L 21.8675,27.3232 L 21.7573,27.1667 L 21.6548,27.005 L 21.5605,26.8384 L 21.4744,26.6675 L 21.3969,26.4925
 L 21.328,26.3139 L 21.2679,26.1321 L 21.2169,25.9476 L 21.1749,25.7608 L 21.1422,25.5722 L 21.1188,25.3823
 L 21.1047,25.1914 L 21.1,25 L 21.1047,24.8086 L 21.1188,24.6177 L 21.1422,24.4277 L 21.1749,24.2391
 L 21.2169,24.0524 L 21.2679,23.8679 L 21.328,23.6861 L 21.3969,23.5075 L 21.4744,23.3325 L 21.5605,23.1615
 L 21.6548,22.995 L 21.7573,22.8333 L 21.8675,22.6768 L 21.9853,22.5259 L 22.1103,22.3809 L 22.2423,22.2423
 L 22.3809,22.1103 L 22.5259,21.9853 L 22.6768,21.8675 L 22.8333,21.7573 L 22.995,21.6548 L 23.1615,21.5605
 L 23.3325,21.4744 L 23.5075,21.3969 L 23.6861,21.328 L 23.8679,21.2679 L 24.0524,21.2169 L 24.2391,21.1749
 L 24.4277,21.1422 L 24.6177,21.1188 L 24.8086,21.1047 L 25,21.1 L 25.1914,21.1047 L 25.3823,21.1188
 L 25.5722,21.1422 L 25.7608,21.1749 L 25.9476,21.2169 L 26.1321,21.2679 L 26.3139,21.328 L 26.4925,21.3969
 L 26.6675,21.4744 L 26.8384,21.5605 L 27.005,21.6548 L 27.1667,21.7573 L 27.3232,21.8675 L 27.4741,21.9853
 L 27.6191,22.1103 L 27.7577,22.2423 L 27.8897,22.3809 L 28.0147,22.5259 L 28.1325,22.6768 L 28.2427,22.8333
 L 28.3451,22.995 L 28.4395,23.1615 L 28.5256,23.3325 L 28.6031,23.5075 L 28.672,23.6861 L 28.7321,23.8679
 L 28.7831,24.0524 L 28.8251,24.2391 L 28.8578,24.4277 L 28.8812,24.6177 L 28.8953,24.8086 L 28.9,25
 L 28.8953,25.1914 L 28.8812,25.3823 L 28.8578,25.5722 L 28.8251,25.7608 L 28.7831,25.9476 L 28.7321,26.1321
 L 28.672,26.3139 L 28.6031,26.4925 L 28.5256,26.6675 L 28.4395,26.8384 L 28.3451,27.005 L 28.2427,27.1667
 L 28.1325,27.3232 L 28.0147,27.4741 L 27.8897,27.6191 L 27.7577,27.7577 L 27.6191,27.8897 L 27.4741,28.0147
 L 27.3232,28.1325 L 27.1667,28.2427 L 27.005,28.3451 L 26.8384,28.4395 L 26.6675,28.5256 L 26.4925,28.6031
 L 26.3139,28.672 L 26.1321,28.7321 L 25.9476,28.7831 L 25.7608,28.8251 L 25.5722,28.8578 L 25.3823,28.8812
 L 25.1914,28.8953 L 25,28.9 z
M -67.1151,32.2788 L -67.3297,32.2629 L -67.5433,32.2366 L -67.7553,32.1998 L -67.9652,32.1527 L -68.1726,32.0953
 L -68.3769,32.0278 L -68.5777,31.9503 L -68.7744,31.8631 L -68.9666,31.7664 L -69.1539,31.6603 L -69.3356,31.5452
 L -69.5116,31.4213 L -69.6812,31.2889 L -69.8441,31.1484 L -70,31 L -70.1484,30.8441 L -70.2889,30.6812
 L -70.4213,30.5116 L -70.5452,30.3356 L -70.6603,30.1539 L -70.7664,29.9666 L -70.8631,29.7744 L -70.9503,29.5777
 L -71.0278,29.3769 L -71.0953,29.1726 L -71.1527,28.9652 L -71.1998,28.7553 L -71.2366,28.5433 L -71.263,28.3297
 L -71.2788,28.1151 L -71.2841,27.9 L -71.2788,27.6849 L -71.263,27.4703 L -71.2366,27.2567 L -71.1998,27.0447
 L -71.1527,26.8347 L -71.0953,26.6274 L -71.0278,26.423 L -70.9503,26.2223 L -70.8631,26.0256 L -70.7664,25.8334
 L -70.6603,25.6461 L -70.5452,25.4643 L -70.4213,25.2884 L -70.2889,25.1188 L -70.1484,24.9558 L -70,24.8
 L -69.8441,24.6516 L -69.6812,24.5111 L -69.5116,24.3787 L -69.3356,24.2548 L -69.1539,24.1397 L -68.9666,24.0336
 L -68.7744,23.9368 L -68.5777,23.8497 L -68.3769,23.7722 L -68.1726,23.7047 L -67.9652,23.6473 L -67.7553,23.6002
 L -67.5433,23.5634 L -67.3297,23.537 L -67.1151,23.5212 L -66.9,23.5159 L -66.6849,23.5212 L -66.4703,23.537
 L -66.2567,23.5634 L -66.0447,23.6002 L -65.8348,23.6473 L -65.6274,23.7047 L -65.423,23.7722 L -65.2223,23.8497
 L -65.0256,23.9368 L -64.8334,24.0336 L -64.6461,24.1397 L -64.4643,24.2548 L -64.2884,24.3787 L -64.1188,24.5111
 L -63.9558,24.6516 L -63.8,24.8 L -63.6516,24.9558 L -63.5111,25.1188 L -63.3787,25.2884 L -63.2548,25.4643
 L -63.1397,25.6461 L -63.0336,25.8334 L -62.9368,26.0256 L -62.8497,26.2223 L -62.7722,26.423 L -62.7047,26.6274
 L -62.6473,26.8347 L -62.6002,27.0447 L -62.5634,27.2567 L -62.537,27.4703 L -62.5212,27.6849 L -62.5159,27.9
 L -62.5212,28.1151 L -62.537,28.3297 L -62.5634,28.5433 L -62.6002,28.7553 L -62.6473,28.9652 L -62.7047,29.1726
 L -62.7722,29.3769 L -62.8497,29.5777 L -62.9368,29.7744 L -63.0336,29.9666 L -63.1397,30.1539 L -63.2548,30.3356
 L -63.3787,30.5116 L -63.5111,30.6812 L -63.6516,30.8441 L -63.8,31 L -63.9558,31.1484 L -64.1188,31.2889
 L -64.2884,31.4213 L -64.4643,31.5452 L -64.6461,31.6603 L -64.8334,31.7664 L -65.0256,31.8631 L -65.2223,31.9503
 L -65.423,32.0278 L -65.6274,32.0953 L -65.8348,32.1527 L -66.0447,32.1998 L -66.2567,32.2366 L -66.4703,32.2629
 L -66.6849,32.2788 L -66.9,32.2841 z
" stroke="black" fill="lightgray" stroke-width="0.5"/>
</svg>
