  0
SECTION
  2
BLOCKS
  0
ENDSEC
  0
SECTION
  2
ENTITIES
  0
LINE
  8
0
 10
60
 20
490
 11
95
 21
490
  0
LINE
  8
0
 10
95
 20
490
 11
95
 21
480
  0
LINE
  8
0
 10
95
 20
480
 11
137
 21
480
  0
LINE
  8
0
 10
137
 20
480
 11
148
 21
490
  0
LINE
  8
0
 10
148
 20
490
 11
160
 21
490
  0
LINE
  8
0
 10
160
 20
490
 11
160
 21
540
  0
LINE
  8
0
 10
160
 20
540
 11
157
 21
540
  0
LINE
  8
0
 10
157
 20
540
 11
157
 21
520
  0
LINE
  8
0
 10
157
 20
520
 11
151
 21
520
  0
LINE
  8
0
 10
151
 20
520
 11
151
 21
540
  0
LINE
  8
0
 10
151
 20
540
 11
148
 21
540
  0
LINE
  8
0
 10
148
 20
540
 11
148
 21
520
  0
LINE
  8
0
 10
148
 20
520
 11
130
 21
520
  0
LINE
  8
0
 10
130
 20
520
 11
120
 21
510
  0
LINE
  8
0
 10
120
 20
510
 11
0
 21
510
  0
LINE
  8
0
 10
0
 20
510
 11
0
 21
490
  0
LINE
  8
0
 10
0
 20
490
 11
50
 21
490
  0
LINE
  8
0
 10
50
 20
490
 11
50
 21
480
  0
LINE
  8
0
 10
50
 20
480
 11
60
 21
480
  0
LINE
  8
0
 10
60
 20
480
 11
60
 21
490
  0
LINE
  8
0
 10
5.65005
 20
501.939
 11
5.26549
 21
502.056
  0
LINE
  8
0
 10
5.26549
 20
502.056
 11
4.91107
 21
502.245
  0
LINE
  8
0
 10
4.91107
 20
502.245
 11
4.60042
 21
502.5
  0
LINE
  8
0
 10
4.60042
 20
502.5
 11
4.34547
 21
502.811
  0
LINE
  8
0
 10
4.34547
 20
502.811
 11
4.15604
 21
503.165
  0
LINE
  8
0
 10
4.15604
 20
503.165
 11
4.03938
 21
503.55
  0
LINE
  8
0
 10
4.03938
 20
503.55
 11
4
 21
503.95
  0
LINE
  8
0
 10
4
 20
503.95
 11
4.03938
 21
504.35
  0
LINE
  8
0
 10
4.03938
 20
504.35
 11
4.15604
 21
504.734
  0
LINE
  8
0
 10
4.15604
 20
504.734
 11
4.34547
 21
505.089
  0
LINE
  8
0
 10
4.34547
 20
505.089
 11
4.60042
 21
505.4
  0
LINE
  8
0
 10
4.60042
 20
505.4
 11
4.91107
 21
505.655
  0
LINE
  8
0
 10
4.91107
 20
505.655
 11
5.26549
 21
505.844
  0
LINE
  8
0
 10
5.26549
 20
505.844
 11
5.65005
 21
505.961
  0
LINE
  8
0
 10
5.65005
 20
505.961
 11
6.04999
 21
506
  0
LINE
  8
0
 10
6.04999
 20
506
 11
6.44992
 21
505.961
  0
LINE
  8
0
 10
6.44992
 20
505.961
 11
6.83449
 21
505.844
  0
LINE
  8
0
 10
6.83449
 20
505.844
 11
7.1889
 21
505.655
  0
LINE
  8
0
 10
7.1889
 20
505.655
 11
7.49956
 21
505.4
  0
LINE
  8
0
 10
7.49956
 20
505.4
 11
7.7545
 21
505.089
  0
LINE
  8
0
 10
7.7545
 20
505.089
 11
7.94394
 21
504.734
  0
LINE
  8
0
 10
7.94394
 20
504.734
 11
8.06061
 21
504.35
  0
LINE
  8
0
 10
8.06061
 20
504.35
 11
8.09999
 21
503.95
  0
LINE
  8
0
 10
8.09999
 20
503.95
 11
8.06061
 21
503.55
  0
LINE
  8
0
 10
8.06061
 20
503.55
 11
7.94394
 21
503.165
  0
LINE
  8
0
 10
7.94394
 20
503.165
 11
7.7545
 21
502.811
  0
LINE
  8
0
 10
7.7545
 20
502.811
 11
7.49956
 21
502.5
  0
LINE
  8
0
 10
7.49956
 20
502.5
 11
7.1889
 21
502.245
  0
LINE
  8
0
 10
7.1889
 20
502.245
 11
6.83449
 21
502.056
  0
LINE
  8
0
 10
6.83449
 20
502.056
 11
6.44992
 21
501.939
  0
LINE
  8
0
 10
6.44992
 20
501.939
 11
6.04999
 21
501.9
  0
LINE
  8
0
 10
6.04999
 20
501.9
 11
5.65005
 21
501.939
  0
LINE
  8
0
 10
70
 20
420
 11
95
 21
420
  0
LINE
  8
0
 10
95
 20
420
 11
95
 21
410
  0
LINE
  8
0
 10
95
 20
410
 11
138
 21
410
  0
LINE
  8
0
 10
138
 20
410
 11
149
 21
420
  0
LINE
  8
0
 10
149
 20
420
 11
160
 21
420
  0
LINE
  8
0
 10
160
 20
420
 11
160
 21
470
  0
LINE
  8
0
 10
160
 20
470
 11
157
 21
470
  0
LINE
  8
0
 10
157
 20
470
 11
157
 21
450
  0
LINE
  8
0
 10
157
 20
450
 11
151
 21
450
  0
LINE
  8
0
 10
151
 20
450
 11
151
 21
470
  0
LINE
  8
0
 10
151
 20
470
 11
148
 21
470
  0
LINE
  8
0
 10
148
 20
470
 11
148
 21
450
  0
LINE
  8
0
 10
148
 20
450
 11
130
 21
450
  0
LINE
  8
0
 10
130
 20
450
 11
120
 21
440
  0
LINE
  8
0
 10
120
 20
440
 11
0
 21
440
  0
LINE
  8
0
 10
0
 20
440
 11
0
 21
420
  0
LINE
  8
0
 10
0
 20
420
 11
60
 21
420
  0
LINE
  8
0
 10
60
 20
420
 11
60
 21
410
  0
LINE
  8
0
 10
60
 20
410
 11
70
 21
410
  0
LINE
  8
0
 10
70
 20
410
 11
70
 21
420
  0
LINE
  8
0
 10
5.65005
 20
431.939
 11
5.26549
 21
432.056
  0
LINE
  8
0
 10
5.26549
 20
432.056
 11
4.91107
 21
432.245
  0
LINE
  8
0
 10
4.91107
 20
432.245
 11
4.60042
 21
432.5
  0
LINE
  8
0
 10
4.60042
 20
432.5
 11
4.34547
 21
432.811
  0
LINE
  8
0
 10
4.34547
 20
432.811
 11
4.15604
 21
433.165
  0
LINE
  8
0
 10
4.15604
 20
433.165
 11
4.03938
 21
433.55
  0
LINE
  8
0
 10
4.03938
 20
433.55
 11
4
 21
433.95
  0
LINE
  8
0
 10
4
 20
433.95
 11
4.03938
 21
434.35
  0
LINE
  8
0
 10
4.03938
 20
434.35
 11
4.15604
 21
434.734
  0
LINE
  8
0
 10
4.15604
 20
434.734
 11
4.34547
 21
435.089
  0
LINE
  8
0
 10
4.34547
 20
435.089
 11
4.60042
 21
435.4
  0
LINE
  8
0
 10
4.60042
 20
435.4
 11
4.91107
 21
435.655
  0
LINE
  8
0
 10
4.91107
 20
435.655
 11
5.26549
 21
435.844
  0
LINE
  8
0
 10
5.26549
 20
435.844
 11
5.65005
 21
435.961
  0
LINE
  8
0
 10
5.65005
 20
435.961
 11
6.04999
 21
436
  0
LINE
  8
0
 10
6.04999
 20
436
 11
6.44992
 21
435.961
  0
LINE
  8
0
 10
6.44992
 20
435.961
 11
6.83449
 21
435.844
  0
LINE
  8
0
 10
6.83449
 20
435.844
 11
7.1889
 21
435.655
  0
LINE
  8
0
 10
7.1889
 20
435.655
 11
7.49956
 21
435.4
  0
LINE
  8
0
 10
7.49956
 20
435.4
 11
7.7545
 21
435.089
  0
LINE
  8
0
 10
7.7545
 20
435.089
 11
7.94394
 21
434.734
  0
LINE
  8
0
 10
7.94394
 20
434.734
 11
8.06061
 21
434.35
  0
LINE
  8
0
 10
8.06061
 20
434.35
 11
8.09999
 21
433.95
  0
LINE
  8
0
 10
8.09999
 20
433.95
 11
8.06061
 21
433.55
  0
LINE
  8
0
 10
8.06061
 20
433.55
 11
7.94394
 21
433.165
  0
LINE
  8
0
 10
7.94394
 20
433.165
 11
7.7545
 21
432.811
  0
LINE
  8
0
 10
7.7545
 20
432.811
 11
7.49956
 21
432.5
  0
LINE
  8
0
 10
7.49956
 20
432.5
 11
7.1889
 21
432.245
  0
LINE
  8
0
 10
7.1889
 20
432.245
 11
6.83449
 21
432.056
  0
LINE
  8
0
 10
6.83449
 20
432.056
 11
6.44992
 21
431.939
  0
LINE
  8
0
 10
6.44992
 20
431.939
 11
6.04999
 21
431.9
  0
LINE
  8
0
 10
6.04999
 20
431.9
 11
5.65005
 21
431.939
  0
LINE
  8
0
 10
80
 20
350
 11
95
 21
350
  0
LINE
  8
0
 10
95
 20
350
 11
95
 21
340
  0
LINE
  8
0
 10
95
 20
340
 11
139
 21
340
  0
LINE
  8
0
 10
139
 20
340
 11
150
 21
350
  0
LINE
  8
0
 10
150
 20
350
 11
160
 21
350
  0
LINE
  8
0
 10
160
 20
350
 11
160
 21
400
  0
LINE
  8
0
 10
160
 20
400
 11
157
 21
400
  0
LINE
  8
0
 10
157
 20
400
 11
157
 21
380
  0
LINE
  8
0
 10
157
 20
380
 11
151
 21
380
  0
LINE
  8
0
 10
151
 20
380
 11
151
 21
400
  0
LINE
  8
0
 10
151
 20
400
 11
148
 21
400
  0
LINE
  8
0
 10
148
 20
400
 11
148
 21
380
  0
LINE
  8
0
 10
148
 20
380
 11
130
 21
380
  0
LINE
  8
0
 10
130
 20
380
 11
120
 21
370
  0
LINE
  8
0
 10
120
 20
370
 11
0
 21
370
  0
LINE
  8
0
 10
0
 20
370
 11
0
 21
350
  0
LINE
  8
0
 10
0
 20
350
 11
70
 21
350
  0
LINE
  8
0
 10
70
 20
350
 11
70
 21
340
  0
LINE
  8
0
 10
70
 20
340
 11
80
 21
340
  0
LINE
  8
0
 10
80
 20
340
 11
80
 21
350
  0
LINE
  8
0
 10
5.65005
 20
361.939
 11
5.26549
 21
362.056
  0
LINE
  8
0
 10
5.26549
 20
362.056
 11
4.91107
 21
362.245
  0
LINE
  8
0
 10
4.91107
 20
362.245
 11
4.60042
 21
362.5
  0
LINE
  8
0
 10
4.60042
 20
362.5
 11
4.34547
 21
362.811
  0
LINE
  8
0
 10
4.34547
 20
362.811
 11
4.15604
 21
363.165
  0
LINE
  8
0
 10
4.15604
 20
363.165
 11
4.03938
 21
363.55
  0
LINE
  8
0
 10
4.03938
 20
363.55
 11
4
 21
363.95
  0
LINE
  8
0
 10
4
 20
363.95
 11
4.03938
 21
364.35
  0
LINE
  8
0
 10
4.03938
 20
364.35
 11
4.15604
 21
364.734
  0
LINE
  8
0
 10
4.15604
 20
364.734
 11
4.34547
 21
365.089
  0
LINE
  8
0
 10
4.34547
 20
365.089
 11
4.60042
 21
365.4
  0
LINE
  8
0
 10
4.60042
 20
365.4
 11
4.91107
 21
365.655
  0
LINE
  8
0
 10
4.91107
 20
365.655
 11
5.26549
 21
365.844
  0
LINE
  8
0
 10
5.26549
 20
365.844
 11
5.65005
 21
365.961
  0
LINE
  8
0
 10
5.65005
 20
365.961
 11
6.04999
 21
366
  0
LINE
  8
0
 10
6.04999
 20
366
 11
6.44992
 21
365.961
  0
LINE
  8
0
 10
6.44992
 20
365.961
 11
6.83449
 21
365.844
  0
LINE
  8
0
 10
6.83449
 20
365.844
 11
7.1889
 21
365.655
  0
LINE
  8
0
 10
7.1889
 20
365.655
 11
7.49956
 21
365.4
  0
LINE
  8
0
 10
7.49956
 20
365.4
 11
7.7545
 21
365.089
  0
LINE
  8
0
 10
7.7545
 20
365.089
 11
7.94394
 21
364.734
  0
LINE
  8
0
 10
7.94394
 20
364.734
 11
8.06061
 21
364.35
  0
LINE
  8
0
 10
8.06061
 20
364.35
 11
8.09999
 21
363.95
  0
LINE
  8
0
 10
8.09999
 20
363.95
 11
8.06061
 21
363.55
  0
LINE
  8
0
 10
8.06061
 20
363.55
 11
7.94394
 21
363.165
  0
LINE
  8
0
 10
7.94394
 20
363.165
 11
7.7545
 21
362.811
  0
LINE
  8
0
 10
7.7545
 20
362.811
 11
7.49956
 21
362.5
  0
LINE
  8
0
 10
7.49956
 20
362.5
 11
7.1889
 21
362.245
  0
LINE
  8
0
 10
7.1889
 20
362.245
 11
6.83449
 21
362.056
  0
LINE
  8
0
 10
6.83449
 20
362.056
 11
6.44992
 21
361.939
  0
LINE
  8
0
 10
6.44992
 20
361.939
 11
6.04999
 21
361.9
  0
LINE
  8
0
 10
6.04999
 20
361.9
 11
5.65005
 21
361.939
  0
LINE
  8
0
 10
90
 20
280
 11
95
 21
280
  0
LINE
  8
0
 10
95
 20
280
 11
95
 21
270
  0
LINE
  8
0
 10
95
 20
270
 11
140
 21
270
  0
LINE
  8
0
 10
140
 20
270
 11
151
 21
280
  0
LINE
  8
0
 10
151
 20
280
 11
160
 21
280
  0
LINE
  8
0
 10
160
 20
280
 11
160
 21
330
  0
LINE
  8
0
 10
160
 20
330
 11
157
 21
330
  0
LINE
  8
0
 10
157
 20
330
 11
157
 21
310
  0
LINE
  8
0
 10
157
 20
310
 11
151
 21
310
  0
LINE
  8
0
 10
151
 20
310
 11
151
 21
330
  0
LINE
  8
0
 10
151
 20
330
 11
148
 21
330
  0
LINE
  8
0
 10
148
 20
330
 11
148
 21
310
  0
LINE
  8
0
 10
148
 20
310
 11
130
 21
310
  0
LINE
  8
0
 10
130
 20
310
 11
120
 21
300
  0
LINE
  8
0
 10
120
 20
300
 11
0
 21
300
  0
LINE
  8
0
 10
0
 20
300
 11
0
 21
280
  0
LINE
  8
0
 10
0
 20
280
 11
80
 21
280
  0
LINE
  8
0
 10
80
 20
280
 11
80
 21
270
  0
LINE
  8
0
 10
80
 20
270
 11
90
 21
270
  0
LINE
  8
0
 10
90
 20
270
 11
90
 21
280
  0
LINE
  8
0
 10
5.65005
 20
291.939
 11
5.26549
 21
292.056
  0
LINE
  8
0
 10
5.26549
 20
292.056
 11
4.91107
 21
292.245
  0
LINE
  8
0
 10
4.91107
 20
292.245
 11
4.60042
 21
292.5
  0
LINE
  8
0
 10
4.60042
 20
292.5
 11
4.34547
 21
292.811
  0
LINE
  8
0
 10
4.34547
 20
292.811
 11
4.15604
 21
293.165
  0
LINE
  8
0
 10
4.15604
 20
293.165
 11
4.03938
 21
293.55
  0
LINE
  8
0
 10
4.03938
 20
293.55
 11
4
 21
293.95
  0
LINE
  8
0
 10
4
 20
293.95
 11
4.03938
 21
294.35
  0
LINE
  8
0
 10
4.03938
 20
294.35
 11
4.15604
 21
294.734
  0
LINE
  8
0
 10
4.15604
 20
294.734
 11
4.34547
 21
295.089
  0
LINE
  8
0
 10
4.34547
 20
295.089
 11
4.60042
 21
295.4
  0
LINE
  8
0
 10
4.60042
 20
295.4
 11
4.91107
 21
295.655
  0
LINE
  8
0
 10
4.91107
 20
295.655
 11
5.26549
 21
295.844
  0
LINE
  8
0
 10
5.26549
 20
295.844
 11
5.65005
 21
295.961
  0
LINE
  8
0
 10
5.65005
 20
295.961
 11
6.04999
 21
296
  0
LINE
  8
0
 10
6.04999
 20
296
 11
6.44992
 21
295.961
  0
LINE
  8
0
 10
6.44992
 20
295.961
 11
6.83449
 21
295.844
  0
LINE
  8
0
 10
6.83449
 20
295.844
 11
7.1889
 21
295.655
  0
LINE
  8
0
 10
7.1889
 20
295.655
 11
7.49956
 21
295.4
  0
LINE
  8
0
 10
7.49956
 20
295.4
 11
7.7545
 21
295.089
  0
LINE
  8
0
 10
7.7545
 20
295.089
 11
7.94394
 21
294.734
  0
LINE
  8
0
 10
7.94394
 20
294.734
 11
8.06061
 21
294.35
  0
LINE
  8
0
 10
8.06061
 20
294.35
 11
8.09999
 21
293.95
  0
LINE
  8
0
 10
8.09999
 20
293.95
 11
8.06061
 21
293.55
  0
LINE
  8
0
 10
8.06061
 20
293.55
 11
7.94394
 21
293.165
  0
LINE
  8
0
 10
7.94394
 20
293.165
 11
7.7545
 21
292.811
  0
LINE
  8
0
 10
7.7545
 20
292.811
 11
7.49956
 21
292.5
  0
LINE
  8
0
 10
7.49956
 20
292.5
 11
7.1889
 21
292.245
  0
LINE
  8
0
 10
7.1889
 20
292.245
 11
6.83449
 21
292.056
  0
LINE
  8
0
 10
6.83449
 20
292.056
 11
6.44992
 21
291.939
  0
LINE
  8
0
 10
6.44992
 20
291.939
 11
6.04999
 21
291.9
  0
LINE
  8
0
 10
6.04999
 20
291.9
 11
5.65005
 21
291.939
  0
LINE
  8
0
 10
60
 20
210
 11
95
 21
210
  0
LINE
  8
0
 10
95
 20
210
 11
95
 21
200
  0
LINE
  8
0
 10
95
 20
200
 11
141
 21
200
  0
LINE
  8
0
 10
141
 20
200
 11
152
 21
210
  0
LINE
  8
0
 10
152
 20
210
 11
160
 21
210
  0
LINE
  8
0
 10
160
 20
210
 11
160
 21
260
  0
LINE
  8
0
 10
160
 20
260
 11
157
 21
260
  0
LINE
  8
0
 10
157
 20
260
 11
157
 21
240
  0
LINE
  8
0
 10
157
 20
240
 11
151
 21
240
  0
LINE
  8
0
 10
151
 20
240
 11
151
 21
260
  0
LINE
  8
0
 10
151
 20
260
 11
148
 21
260
  0
LINE
  8
0
 10
148
 20
260
 11
148
 21
240
  0
LINE
  8
0
 10
148
 20
240
 11
130
 21
240
  0
LINE
  8
0
 10
130
 20
240
 11
120
 21
230
  0
LINE
  8
0
 10
120
 20
230
 11
0
 21
230
  0
LINE
  8
0
 10
0
 20
230
 11
0
 21
210
  0
LINE
  8
0
 10
0
 20
210
 11
50
 21
210
  0
LINE
  8
0
 10
50
 20
210
 11
50
 21
200
  0
LINE
  8
0
 10
50
 20
200
 11
60
 21
200
  0
LINE
  8
0
 10
60
 20
200
 11
60
 21
210
  0
LINE
  8
0
 10
5.65005
 20
221.939
 11
5.26549
 21
222.056
  0
LINE
  8
0
 10
5.26549
 20
222.056
 11
4.91107
 21
222.245
  0
LINE
  8
0
 10
4.91107
 20
222.245
 11
4.60042
 21
222.5
  0
LINE
  8
0
 10
4.60042
 20
222.5
 11
4.34547
 21
222.811
  0
LINE
  8
0
 10
4.34547
 20
222.811
 11
4.15604
 21
223.165
  0
LINE
  8
0
 10
4.15604
 20
223.165
 11
4.03938
 21
223.55
  0
LINE
  8
0
 10
4.03938
 20
223.55
 11
4
 21
223.95
  0
LINE
  8
0
 10
4
 20
223.95
 11
4.03938
 21
224.35
  0
LINE
  8
0
 10
4.03938
 20
224.35
 11
4.15604
 21
224.734
  0
LINE
  8
0
 10
4.15604
 20
224.734
 11
4.34547
 21
225.089
  0
LINE
  8
0
 10
4.34547
 20
225.089
 11
4.60042
 21
225.4
  0
LINE
  8
0
 10
4.60042
 20
225.4
 11
4.91107
 21
225.655
  0
LINE
  8
0
 10
4.91107
 20
225.655
 11
5.26549
 21
225.844
  0
LINE
  8
0
 10
5.26549
 20
225.844
 11
5.65005
 21
225.961
  0
LINE
  8
0
 10
5.65005
 20
225.961
 11
6.04999
 21
226
  0
LINE
  8
0
 10
6.04999
 20
226
 11
6.44992
 21
225.961
  0
LINE
  8
0
 10
6.44992
 20
225.961
 11
6.83449
 21
225.844
  0
LINE
  8
0
 10
6.83449
 20
225.844
 11
7.1889
 21
225.655
  0
LINE
  8
0
 10
7.1889
 20
225.655
 11
7.49956
 21
225.4
  0
LINE
  8
0
 10
7.49956
 20
225.4
 11
7.7545
 21
225.089
  0
LINE
  8
0
 10
7.7545
 20
225.089
 11
7.94394
 21
224.734
  0
LINE
  8
0
 10
7.94394
 20
224.734
 11
8.06061
 21
224.35
  0
LINE
  8
0
 10
8.06061
 20
224.35
 11
8.09999
 21
223.95
  0
LINE
  8
0
 10
8.09999
 20
223.95
 11
8.06061
 21
223.55
  0
LINE
  8
0
 10
8.06061
 20
223.55
 11
7.94394
 21
223.165
  0
LINE
  8
0
 10
7.94394
 20
223.165
 11
7.7545
 21
222.811
  0
LINE
  8
0
 10
7.7545
 20
222.811
 11
7.49956
 21
222.5
  0
LINE
  8
0
 10
7.49956
 20
222.5
 11
7.1889
 21
222.245
  0
LINE
  8
0
 10
7.1889
 20
222.245
 11
6.83449
 21
222.056
  0
LINE
  8
0
 10
6.83449
 20
222.056
 11
6.44992
 21
221.939
  0
LINE
  8
0
 10
6.44992
 20
221.939
 11
6.04999
 21
221.9
  0
LINE
  8
0
 10
6.04999
 20
221.9
 11
5.65005
 21
221.939
  0
LINE
  8
0
 10
70
 20
140
 11
95
 21
140
  0
LINE
  8
0
 10
95
 20
140
 11
95
 21
130
  0
LINE
  8
0
 10
95
 20
130
 11
142
 21
130
  0
LINE
  8
0
 10
142
 20
130
 11
153
 21
140
  0
LINE
  8
0
 10
153
 20
140
 11
160
 21
140
  0
LINE
  8
0
 10
160
 20
140
 11
160
 21
190
  0
LINE
  8
0
 10
160
 20
190
 11
157
 21
190
  0
LINE
  8
0
 10
157
 20
190
 11
157
 21
170
  0
LINE
  8
0
 10
157
 20
170
 11
151
 21
170
  0
LINE
  8
0
 10
151
 20
170
 11
151
 21
190
  0
LINE
  8
0
 10
151
 20
190
 11
148
 21
190
  0
LINE
  8
0
 10
148
 20
190
 11
148
 21
170
  0
LINE
  8
0
 10
148
 20
170
 11
130
 21
170
  0
LINE
  8
0
 10
130
 20
170
 11
120
 21
160
  0
LINE
  8
0
 10
120
 20
160
 11
0
 21
160
  0
LINE
  8
0
 10
0
 20
160
 11
0
 21
140
  0
LINE
  8
0
 10
0
 20
140
 11
60
 21
140
  0
LINE
  8
0
 10
60
 20
140
 11
60
 21
130
  0
LINE
  8
0
 10
60
 20
130
 11
70
 21
130
  0
LINE
  8
0
 10
70
 20
130
 11
70
 21
140
  0
LINE
  8
0
 10
5.65005
 20
151.939
 11
5.26549
 21
152.056
  0
LINE
  8
0
 10
5.26549
 20
152.056
 11
4.91107
 21
152.245
  0
LINE
  8
0
 10
4.91107
 20
152.245
 11
4.60042
 21
152.5
  0
LINE
  8
0
 10
4.60042
 20
152.5
 11
4.34547
 21
152.811
  0
LINE
  8
0
 10
4.34547
 20
152.811
 11
4.15604
 21
153.165
  0
LINE
  8
0
 10
4.15604
 20
153.165
 11
4.03938
 21
153.55
  0
LINE
  8
0
 10
4.03938
 20
153.55
 11
4
 21
153.95
  0
LINE
  8
0
 10
4
 20
153.95
 11
4.03938
 21
154.35
  0
LINE
  8
0
 10
4.03938
 20
154.35
 11
4.15604
 21
154.734
  0
LINE
  8
0
 10
4.15604
 20
154.734
 11
4.34547
 21
155.089
  0
LINE
  8
0
 10
4.34547
 20
155.089
 11
4.60042
 21
155.4
  0
LINE
  8
0
 10
4.60042
 20
155.4
 11
4.91107
 21
155.655
  0
LINE
  8
0
 10
4.91107
 20
155.655
 11
5.26549
 21
155.844
  0
LINE
  8
0
 10
5.26549
 20
155.844
 11
5.65005
 21
155.961
  0
LINE
  8
0
 10
5.65005
 20
155.961
 11
6.04999
 21
156
  0
LINE
  8
0
 10
6.04999
 20
156
 11
6.44992
 21
155.961
  0
LINE
  8
0
 10
6.44992
 20
155.961
 11
6.83449
 21
155.844
  0
LINE
  8
0
 10
6.83449
 20
155.844
 11
7.1889
 21
155.655
  0
LINE
  8
0
 10
7.1889
 20
155.655
 11
7.49956
 21
155.4
  0
LINE
  8
0
 10
7.49956
 20
155.4
 11
7.7545
 21
155.089
  0
LINE
  8
0
 10
7.7545
 20
155.089
 11
7.94394
 21
154.734
  0
LINE
  8
0
 10
7.94394
 20
154.734
 11
8.06061
 21
154.35
  0
LINE
  8
0
 10
8.06061
 20
154.35
 11
8.09999
 21
153.95
  0
LINE
  8
0
 10
8.09999
 20
153.95
 11
8.06061
 21
153.55
  0
LINE
  8
0
 10
8.06061
 20
153.55
 11
7.94394
 21
153.165
  0
LINE
  8
0
 10
7.94394
 20
153.165
 11
7.7545
 21
152.811
  0
LINE
  8
0
 10
7.7545
 20
152.811
 11
7.49956
 21
152.5
  0
LINE
  8
0
 10
7.49956
 20
152.5
 11
7.1889
 21
152.245
  0
LINE
  8
0
 10
7.1889
 20
152.245
 11
6.83449
 21
152.056
  0
LINE
  8
0
 10
6.83449
 20
152.056
 11
6.44992
 21
151.939
  0
LINE
  8
0
 10
6.44992
 20
151.939
 11
6.04999
 21
151.9
  0
LINE
  8
0
 10
6.04999
 20
151.9
 11
5.65005
 21
151.939
  0
LINE
  8
0
 10
80
 20
70
 11
95
 21
70
  0
LINE
  8
0
 10
95
 20
70
 11
95
 21
60
  0
LINE
  8
0
 10
95
 20
60
 11
143
 21
60
  0
LINE
  8
0
 10
143
 20
60
 11
154
 21
70
  0
LINE
  8
0
 10
154
 20
70
 11
160
 21
70
  0
LINE
  8
0
 10
160
 20
70
 11
160
 21
120
  0
LINE
  8
0
 10
160
 20
120
 11
157
 21
120
  0
LINE
  8
0
 10
157
 20
120
 11
157
 21
100
  0
LINE
  8
0
 10
157
 20
100
 11
151
 21
100
  0
LINE
  8
0
 10
151
 20
100
 11
151
 21
120
  0
LINE
  8
0
 10
151
 20
120
 11
148
 21
120
  0
LINE
  8
0
 10
148
 20
120
 11
148
 21
100
  0
LINE
  8
0
 10
148
 20
100
 11
130
 21
100
  0
LINE
  8
0
 10
130
 20
100
 11
120
 21
90
  0
LINE
  8
0
 10
120
 20
90
 11
0
 21
90
  0
LINE
  8
0
 10
0
 20
90
 11
0
 21
70
  0
LINE
  8
0
 10
0
 20
70
 11
70
 21
70
  0
LINE
  8
0
 10
70
 20
70
 11
70
 21
60
  0
LINE
  8
0
 10
70
 20
60
 11
80
 21
60
  0
LINE
  8
0
 10
80
 20
60
 11
80
 21
70
  0
LINE
  8
0
 10
5.65005
 20
81.9394
 11
5.26549
 21
82.056
  0
LINE
  8
0
 10
5.26549
 20
82.056
 11
4.91107
 21
82.2455
  0
LINE
  8
0
 10
4.91107
 20
82.2455
 11
4.60042
 21
82.5004
  0
LINE
  8
0
 10
4.60042
 20
82.5004
 11
4.34547
 21
82.8111
  0
LINE
  8
0
 10
4.34547
 20
82.8111
 11
4.15604
 21
83.1655
  0
LINE
  8
0
 10
4.15604
 20
83.1655
 11
4.03938
 21
83.5501
  0
LINE
  8
0
 10
4.03938
 20
83.5501
 11
4
 21
83.95
  0
LINE
  8
0
 10
4
 20
83.95
 11
4.03938
 21
84.3499
  0
LINE
  8
0
 10
4.03938
 20
84.3499
 11
4.15604
 21
84.7345
  0
LINE
  8
0
 10
4.15604
 20
84.7345
 11
4.34547
 21
85.0889
  0
LINE
  8
0
 10
4.34547
 20
85.0889
 11
4.60042
 21
85.3996
  0
LINE
  8
0
 10
4.60042
 20
85.3996
 11
4.91107
 21
85.6545
  0
LINE
  8
0
 10
4.91107
 20
85.6545
 11
5.26549
 21
85.8439
  0
LINE
  8
0
 10
5.26549
 20
85.8439
 11
5.65005
 21
85.9606
  0
LINE
  8
0
 10
5.65005
 20
85.9606
 11
6.04999
 21
86
  0
LINE
  8
0
 10
6.04999
 20
86
 11
6.44992
 21
85.9606
  0
LINE
  8
0
 10
6.44992
 20
85.9606
 11
6.83449
 21
85.8439
  0
LINE
  8
0
 10
6.83449
 20
85.8439
 11
7.1889
 21
85.6545
  0
LINE
  8
0
 10
7.1889
 20
85.6545
 11
7.49956
 21
85.3996
  0
LINE
  8
0
 10
7.49956
 20
85.3996
 11
7.7545
 21
85.0889
  0
LINE
  8
0
 10
7.7545
 20
85.0889
 11
7.94394
 21
84.7345
  0
LINE
  8
0
 10
7.94394
 20
84.7345
 11
8.06061
 21
84.3499
  0
LINE
  8
0
 10
8.06061
 20
84.3499
 11
8.09999
 21
83.95
  0
LINE
  8
0
 10
8.09999
 20
83.95
 11
8.06061
 21
83.5501
  0
LINE
  8
0
 10
8.06061
 20
83.5501
 11
7.94394
 21
83.1655
  0
LINE
  8
0
 10
7.94394
 20
83.1655
 11
7.7545
 21
82.8111
  0
LINE
  8
0
 10
7.7545
 20
82.8111
 11
7.49956
 21
82.5004
  0
LINE
  8
0
 10
7.49956
 20
82.5004
 11
7.1889
 21
82.2455
  0
LINE
  8
0
 10
7.1889
 20
82.2455
 11
6.83449
 21
82.056
  0
LINE
  8
0
 10
6.83449
 20
82.056
 11
6.44992
 21
81.9394
  0
LINE
  8
0
 10
6.44992
 20
81.9394
 11
6.04999
 21
81.9
  0
LINE
  8
0
 10
6.04999
 20
81.9
 11
5.65005
 21
81.9394
  0
LINE
  8
0
 10
90
 20
0
 11
95
 21
0
  0
LINE
  8
0
 10
95
 20
0
 11
95
 21
-10
  0
LINE
  8
0
 10
95
 20
-10
 11
144
 21
-10
  0
LINE
  8
0
 10
144
 20
-10
 11
155
 21
0
  0
LINE
  8
0
 10
155
 20
0
 11
160
 21
0
  0
LINE
  8
0
 10
160
 20
0
 11
160
 21
50
  0
LINE
  8
0
 10
160
 20
50
 11
157
 21
50
  0
LINE
  8
0
 10
157
 20
50
 11
157
 21
30
  0
LINE
  8
0
 10
157
 20
30
 11
151
 21
30
  0
LINE
  8
0
 10
151
 20
30
 11
151
 21
50
  0
LINE
  8
0
 10
151
 20
50
 11
148
 21
50
  0
LINE
  8
0
 10
148
 20
50
 11
148
 21
30
  0
LINE
  8
0
 10
148
 20
30
 11
130
 21
30
  0
LINE
  8
0
 10
130
 20
30
 11
120
 21
20
  0
LINE
  8
0
 10
120
 20
20
 11
0
 21
20
  0
LINE
  8
0
 10
0
 20
20
 11
0
 21
0
  0
LINE
  8
0
 10
0
 20
0
 11
80
 21
0
  0
LINE
  8
0
 10
80
 20
0
 11
80
 21
-10
  0
LINE
  8
0
 10
80
 20
-10
 11
90
 21
-10
  0
LINE
  8
0
 10
90
 20
-10
 11
90
 21
0
  0
LINE
  8
0
 10
5.65005
 20
11.9394
 11
5.26549
 21
12.056
  0
LINE
  8
0
 10
5.26549
 20
12.056
 11
4.91107
 21
12.2455
  0
LINE
  8
0
 10
4.91107
 20
12.2455
 11
4.60042
 21
12.5004
  0
LINE
  8
0
 10
4.60042
 20
12.5004
 11
4.34547
 21
12.8111
  0
LINE
  8
0
 10
4.34547
 20
12.8111
 11
4.15604
 21
13.1655
  0
LINE
  8
0
 10
4.15604
 20
13.1655
 11
4.03938
 21
13.5501
  0
LINE
  8
0
 10
4.03938
 20
13.5501
 11
4
 21
13.95
  0
LINE
  8
0
 10
4
 20
13.95
 11
4.03938
 21
14.3499
  0
LINE
  8
0
 10
4.03938
 20
14.3499
 11
4.15604
 21
14.7345
  0
LINE
  8
0
 10
4.15604
 20
14.7345
 11
4.34547
 21
15.0889
  0
LINE
  8
0
 10
4.34547
 20
15.0889
 11
4.60042
 21
15.3996
  0
LINE
  8
0
 10
4.60042
 20
15.3996
 11
4.91107
 21
15.6545
  0
LINE
  8
0
 10
4.91107
 20
15.6545
 11
5.26549
 21
15.8439
  0
LINE
  8
0
 10
5.26549
 20
15.8439
 11
5.65005
 21
15.9606
  0
LINE
  8
0
 10
5.65005
 20
15.9606
 11
6.04999
 21
16
  0
LINE
  8
0
 10
6.04999
 20
16
 11
6.44992
 21
15.9606
  0
LINE
  8
0
 10
6.44992
 20
15.9606
 11
6.83449
 21
15.8439
  0
LINE
  8
0
 10
6.83449
 20
15.8439
 11
7.1889
 21
15.6545
  0
LINE
  8
0
 10
7.1889
 20
15.6545
 11
7.49956
 21
15.3996
  0
LINE
  8
0
 10
7.49956
 20
15.3996
 11
7.7545
 21
15.0889
  0
LINE
  8
0
 10
7.7545
 20
15.0889
 11
7.94394
 21
14.7345
  0
LINE
  8
0
 10
7.94394
 20
14.7345
 11
8.06061
 21
14.3499
  0
LINE
  8
0
 10
8.06061
 20
14.3499
 11
8.09999
 21
13.95
  0
LINE
  8
0
 10
8.09999
 20
13.95
 11
8.06061
 21
13.5501
  0
LINE
  8
0
 10
8.06061
 20
13.5501
 11
7.94394
 21
13.1655
  0
LINE
  8
0
 10
7.94394
 20
13.1655
 11
7.7545
 21
12.8111
  0
LINE
  8
0
 10
7.7545
 20
12.8111
 11
7.49956
 21
12.5004
  0
LINE
  8
0
 10
7.49956
 20
12.5004
 11
7.1889
 21
12.2455
  0
LINE
  8
0
 10
7.1889
 20
12.2455
 11
6.83449
 21
12.056
  0
LINE
  8
0
 10
6.83449
 20
12.056
 11
6.44992
 21
11.9394
  0
LINE
  8
0
 10
6.44992
 20
11.9394
 11
6.04999
 21
11.9
  0
LINE
  8
0
 10
6.04999
 20
11.9
 11
5.65005
 21
11.9394
  0
ENDSEC
  0
SECTION
  2
OBJECTS
  0
DICTIONARY
  0
ENDSEC
  0
EOF
