  0
SECTION
  2
BLOCKS
  0
ENDSEC
  0
SECTION
  2
ENTITIES
  0
LINE
  8
0
 10
32.8452
 20
-34.994
 11
33.0899
 21
-34.9759
  0
LINE
  8
0
 10
33.0899
 20
-34.9759
 11
33.3335
 21
-34.9459
  0
LINE
  8
0
 10
33.3335
 20
-34.9459
 11
33.5753
 21
-34.9039
  0
LINE
  8
0
 10
33.5753
 20
-34.9039
 11
33.8147
 21
-34.8501
  0
LINE
  8
0
 10
33.8147
 20
-34.8501
 11
34.0513
 21
-34.7847
  0
LINE
  8
0
 10
34.0513
 20
-34.7847
 11
34.2843
 21
-34.7077
  0
LINE
  8
0
 10
34.2843
 20
-34.7077
 11
34.5133
 21
-34.6194
  0
LINE
  8
0
 10
34.5133
 20
-34.6194
 11
34.7376
 21
-34.5199
  0
LINE
  8
0
 10
34.7376
 20
-34.5199
 11
34.9568
 21
-34.4096
  0
LINE
  8
0
 10
34.9568
 20
-34.4096
 11
35.1703
 21
-34.2886
  0
LINE
  8
0
 10
35.1703
 20
-34.2886
 11
35.3777
 21
-34.1573
  0
LINE
  8
0
 10
35.3777
 20
-34.1573
 11
35.5783
 21
-34.016
  0
LINE
  8
0
 10
35.5783
 20
-34.016
 11
35.7718
 21
-33.8651
  0
LINE
  8
0
 10
35.7718
 20
-33.8651
 11
35.9576
 21
-33.7047
  0
LINE
  8
0
 10
35.9576
 20
-33.7047
 11
36.1354
 21
-33.5355
  0
LINE
  8
0
 10
36.1354
 20
-33.5355
 11
36.3046
 21
-33.3578
  0
LINE
  8
0
 10
36.3046
 20
-33.3578
 11
36.4649
 21
-33.172
  0
LINE
  8
0
 10
36.4649
 20
-33.172
 11
36.6159
 21
-32.9785
  0
LINE
  8
0
 10
36.6159
 20
-32.9785
 11
36.7572
 21
-32.7778
  0
LINE
  8
0
 10
36.7572
 20
-32.7778
 11
36.8885
 21
-32.5705
  0
LINE
  8
0
 10
36.8885
 20
-32.5705
 11
37.0094
 21
-32.357
  0
LINE
  8
0
 10
37.0094
 20
-32.357
 11
37.1198
 21
-32.1378
  0
LINE
  8
0
 10
37.1198
 20
-32.1378
 11
37.2192
 21
-31.9134
  0
LINE
  8
0
 10
37.2192
 20
-31.9134
 11
37.3076
 21
-31.6844
  0
LINE
  8
0
 10
37.3076
 20
-31.6844
 11
37.3845
 21
-31.4514
  0
LINE
  8
0
 10
37.3845
 20
-31.4514
 11
37.45
 21
-31.2149
  0
LINE
  8
0
 10
37.45
 20
-31.2149
 11
37.5038
 21
-30.9754
  0
LINE
  8
0
 10
37.5038
 20
-30.9754
 11
37.5457
 21
-30.7336
  0
LINE
  8
0
 10
37.5457
 20
-30.7336
 11
37.5758
 21
-30.4901
  0
LINE
  8
0
 10
37.5758
 20
-30.4901
 11
37.5938
 21
-30.2453
  0
LINE
  8
0
 10
37.5938
 20
-30.2453
 11
37.5998
 21
-30
  0
LINE
  8
0
 10
37.5998
 20
-30
 11
37.5998
 21
-22.5
  0
LINE
  8
0
 10
37.5998
 20
-22.5
 11
69.1997
 21
-22.5
  0
LINE
  8
0
 10
69.1997
 20
-22.5
 11
69.1997
 21
-12.5
  0
LINE
  8
0
 10
69.1997
 20
-12.5
 11
67.1997
 21
-12.5
  0
LINE
  8
0
 10
67.1997
 20
-12.5
 11
65.533
 21
-14.1667
  0
LINE
  8
0
 10
65.533
 20
-14.1667
 11
65.1997
 21
-17.5
  0
LINE
  8
0
 10
65.1997
 20
-17.5
 11
64.8663
 21
-14.1667
  0
LINE
  8
0
 10
64.8663
 20
-14.1667
 11
63.1997
 21
-12.5
  0
LINE
  8
0
 10
63.1997
 20
-12.5
 11
32.5998
 21
-12.5
  0
LINE
  8
0
 10
32.5998
 20
-12.5
 11
32.3545
 21
-12.506
  0
LINE
  8
0
 10
32.3545
 20
-12.506
 11
32.1098
 21
-12.5241
  0
LINE
  8
0
 10
32.1098
 20
-12.5241
 11
31.8662
 21
-12.5541
  0
LINE
  8
0
 10
31.8662
 20
-12.5541
 11
31.6244
 21
-12.5961
  0
LINE
  8
0
 10
31.6244
 20
-12.5961
 11
31.3849
 21
-12.6498
  0
LINE
  8
0
 10
31.3849
 20
-12.6498
 11
31.1484
 21
-12.7153
  0
LINE
  8
0
 10
31.1484
 20
-12.7153
 11
30.9154
 21
-12.7923
  0
LINE
  8
0
 10
30.9154
 20
-12.7923
 11
30.6864
 21
-12.8806
  0
LINE
  8
0
 10
30.6864
 20
-12.8806
 11
30.4621
 21
-12.98
  0
LINE
  8
0
 10
30.4621
 20
-12.98
 11
30.2429
 21
-13.0904
  0
LINE
  8
0
 10
30.2429
 20
-13.0904
 11
30.0293
 21
-13.2113
  0
LINE
  8
0
 10
30.0293
 20
-13.2113
 11
29.822
 21
-13.3427
  0
LINE
  8
0
 10
29.822
 20
-13.3427
 11
29.6213
 21
-13.4839
  0
LINE
  8
0
 10
29.6213
 20
-13.4839
 11
29.4279
 21
-13.6349
  0
LINE
  8
0
 10
29.4279
 20
-13.6349
 11
29.2421
 21
-13.7952
  0
LINE
  8
0
 10
29.2421
 20
-13.7952
 11
29.0643
 21
-13.9645
  0
LINE
  8
0
 10
29.0643
 20
-13.9645
 11
28.8951
 21
-14.1422
  0
LINE
  8
0
 10
28.8951
 20
-14.1422
 11
28.7348
 21
-14.328
  0
LINE
  8
0
 10
28.7348
 20
-14.328
 11
28.5838
 21
-14.5215
  0
LINE
  8
0
 10
28.5838
 20
-14.5215
 11
28.4425
 21
-14.7221
  0
LINE
  8
0
 10
28.4425
 20
-14.7221
 11
28.3112
 21
-14.9295
  0
LINE
  8
0
 10
28.3112
 20
-14.9295
 11
28.1902
 21
-15.143
  0
LINE
  8
0
 10
28.1902
 20
-15.143
 11
28.0799
 21
-15.3622
  0
LINE
  8
0
 10
28.0799
 20
-15.3622
 11
27.9804
 21
-15.5866
  0
LINE
  8
0
 10
27.9804
 20
-15.5866
 11
27.8921
 21
-15.8155
  0
LINE
  8
0
 10
27.8921
 20
-15.8155
 11
27.8151
 21
-16.0486
  0
LINE
  8
0
 10
27.8151
 20
-16.0486
 11
27.7497
 21
-16.2851
  0
LINE
  8
0
 10
27.7497
 20
-16.2851
 11
27.6959
 21
-16.5245
  0
LINE
  8
0
 10
27.6959
 20
-16.5245
 11
27.654
 21
-16.7663
  0
LINE
  8
0
 10
27.654
 20
-16.7663
 11
27.6239
 21
-17.0099
  0
LINE
  8
0
 10
27.6239
 20
-17.0099
 11
27.6059
 21
-17.2547
  0
LINE
  8
0
 10
27.6059
 20
-17.2547
 11
27.5998
 21
-17.5
  0
LINE
  8
0
 10
27.5998
 20
-17.5
 11
27.5998
 21
-25
  0
LINE
  8
0
 10
27.5998
 20
-25
 11
0
 21
-25
  0
LINE
  8
0
 10
0
 20
-25
 11
10
 21
-35
  0
LINE
  8
0
 10
10
 20
-35
 11
32.5998
 21
-35
  0
LINE
  8
0
 10
32.5998
 20
-35
 11
32.8452
 21
-34.994
  0
LINE
  8
0
 10
32.5017
 20
-19.4976
 11
32.4038
 21
-19.4904
  0
LINE
  8
0
 10
32.4038
 20
-19.4904
 11
32.3064
 21
-19.4783
  0
LINE
  8
0
 10
32.3064
 20
-19.4783
 11
32.2097
 21
-19.4616
  0
LINE
  8
0
 10
32.2097
 20
-19.4616
 11
32.1139
 21
-19.44
  0
LINE
  8
0
 10
32.1139
 20
-19.44
 11
32.0193
 21
-19.4139
  0
LINE
  8
0
 10
32.0193
 20
-19.4139
 11
31.9261
 21
-19.3831
  0
LINE
  8
0
 10
31.9261
 20
-19.3831
 11
31.8345
 21
-19.3477
  0
LINE
  8
0
 10
31.8345
 20
-19.3477
 11
31.7447
 21
-19.308
  0
LINE
  8
0
 10
31.7447
 20
-19.308
 11
31.657
 21
-19.2638
  0
LINE
  8
0
 10
31.657
 20
-19.2638
 11
31.5716
 21
-19.2155
  0
LINE
  8
0
 10
31.5716
 20
-19.2155
 11
31.4887
 21
-19.1629
  0
LINE
  8
0
 10
31.4887
 20
-19.1629
 11
31.4084
 21
-19.1064
  0
LINE
  8
0
 10
31.4084
 20
-19.1064
 11
31.3311
 21
-19.046
  0
LINE
  8
0
 10
31.3311
 20
-19.046
 11
31.2567
 21
-18.9819
  0
LINE
  8
0
 10
31.2567
 20
-18.9819
 11
31.1856
 21
-18.9142
  0
LINE
  8
0
 10
31.1856
 20
-18.9142
 11
31.1179
 21
-18.8431
  0
LINE
  8
0
 10
31.1179
 20
-18.8431
 11
31.0538
 21
-18.7688
  0
LINE
  8
0
 10
31.0538
 20
-18.7688
 11
30.9934
 21
-18.6914
  0
LINE
  8
0
 10
30.9934
 20
-18.6914
 11
30.9369
 21
-18.6111
  0
LINE
  8
0
 10
30.9369
 20
-18.6111
 11
30.8844
 21
-18.5282
  0
LINE
  8
0
 10
30.8844
 20
-18.5282
 11
30.836
 21
-18.4428
  0
LINE
  8
0
 10
30.836
 20
-18.4428
 11
30.7919
 21
-18.3551
  0
LINE
  8
0
 10
30.7919
 20
-18.3551
 11
30.7521
 21
-18.2654
  0
LINE
  8
0
 10
30.7521
 20
-18.2654
 11
30.7168
 21
-18.1738
  0
LINE
  8
0
 10
30.7168
 20
-18.1738
 11
30.686
 21
-18.0806
  0
LINE
  8
0
 10
30.686
 20
-18.0806
 11
30.6598
 21
-17.9859
  0
LINE
  8
0
 10
30.6598
 20
-17.9859
 11
30.6383
 21
-17.8902
  0
LINE
  8
0
 10
30.6383
 20
-17.8902
 11
30.6215
 21
-17.7935
  0
LINE
  8
0
 10
30.6215
 20
-17.7935
 11
30.6095
 21
-17.696
  0
LINE
  8
0
 10
30.6095
 20
-17.696
 11
30.6022
 21
-17.5981
  0
LINE
  8
0
 10
30.6022
 20
-17.5981
 11
30.5998
 21
-17.5
  0
LINE
  8
0
 10
30.5998
 20
-17.5
 11
30.6022
 21
-17.4019
  0
LINE
  8
0
 10
30.6022
 20
-17.4019
 11
30.6095
 21
-17.304
  0
LINE
  8
0
 10
30.6095
 20
-17.304
 11
30.6215
 21
-17.2065
  0
LINE
  8
0
 10
30.6215
 20
-17.2065
 11
30.6383
 21
-17.1098
  0
LINE
  8
0
 10
30.6383
 20
-17.1098
 11
30.6598
 21
-17.014
  0
LINE
  8
0
 10
30.6598
 20
-17.014
 11
30.686
 21
-16.9194
  0
LINE
  8
0
 10
30.686
 20
-16.9194
 11
30.7168
 21
-16.8262
  0
LINE
  8
0
 10
30.7168
 20
-16.8262
 11
30.7521
 21
-16.7346
  0
LINE
  8
0
 10
30.7521
 20
-16.7346
 11
30.7919
 21
-16.6449
  0
LINE
  8
0
 10
30.7919
 20
-16.6449
 11
30.836
 21
-16.5572
  0
LINE
  8
0
 10
30.836
 20
-16.5572
 11
30.8844
 21
-16.4718
  0
LINE
  8
0
 10
30.8844
 20
-16.4718
 11
30.9369
 21
-16.3889
  0
LINE
  8
0
 10
30.9369
 20
-16.3889
 11
30.9934
 21
-16.3086
  0
LINE
  8
0
 10
30.9934
 20
-16.3086
 11
31.0538
 21
-16.2312
  0
LINE
  8
0
 10
31.0538
 20
-16.2312
 11
31.1179
 21
-16.1569
  0
LINE
  8
0
 10
31.1179
 20
-16.1569
 11
31.1856
 21
-16.0858
  0
LINE
  8
0
 10
31.1856
 20
-16.0858
 11
31.2567
 21
-16.0181
  0
LINE
  8
0
 10
31.2567
 20
-16.0181
 11
31.3311
 21
-15.954
  0
LINE
  8
0
 10
31.3311
 20
-15.954
 11
31.4084
 21
-15.8936
  0
LINE
  8
0
 10
31.4084
 20
-15.8936
 11
31.4887
 21
-15.8371
  0
LINE
  8
0
 10
31.4887
 20
-15.8371
 11
31.5716
 21
-15.7845
  0
LINE
  8
0
 10
31.5716
 20
-15.7845
 11
31.657
 21
-15.7361
  0
LINE
  8
0
 10
31.657
 20
-15.7361
 11
31.7447
 21
-15.692
  0
LINE
  8
0
 10
31.7447
 20
-15.692
 11
31.8345
 21
-15.6522
  0
LINE
  8
0
 10
31.8345
 20
-15.6522
 11
31.9261
 21
-15.6169
  0
LINE
  8
0
 10
31.9261
 20
-15.6169
 11
32.0193
 21
-15.5861
  0
LINE
  8
0
 10
32.0193
 20
-15.5861
 11
32.1139
 21
-15.5599
  0
LINE
  8
0
 10
32.1139
 20
-15.5599
 11
32.2097
 21
-15.5384
  0
LINE
  8
0
 10
32.2097
 20
-15.5384
 11
32.3064
 21
-15.5216
  0
LINE
  8
0
 10
32.3064
 20
-15.5216
 11
32.4038
 21
-15.5096
  0
LINE
  8
0
 10
32.4038
 20
-15.5096
 11
32.5017
 21
-15.5024
  0
LINE
  8
0
 10
32.5017
 20
-15.5024
 11
32.5998
 21
-15.5
  0
LINE
  8
0
 10
32.5998
 20
-15.5
 11
32.698
 21
-15.5024
  0
LINE
  8
0
 10
32.698
 20
-15.5024
 11
32.7959
 21
-15.5096
  0
LINE
  8
0
 10
32.7959
 20
-15.5096
 11
32.8933
 21
-15.5216
  0
LINE
  8
0
 10
32.8933
 20
-15.5216
 11
32.99
 21
-15.5384
  0
LINE
  8
0
 10
32.99
 20
-15.5384
 11
33.0858
 21
-15.5599
  0
LINE
  8
0
 10
33.0858
 20
-15.5599
 11
33.1804
 21
-15.5861
  0
LINE
  8
0
 10
33.1804
 20
-15.5861
 11
33.2736
 21
-15.6169
  0
LINE
  8
0
 10
33.2736
 20
-15.6169
 11
33.3652
 21
-15.6522
  0
LINE
  8
0
 10
33.3652
 20
-15.6522
 11
33.455
 21
-15.692
  0
LINE
  8
0
 10
33.455
 20
-15.692
 11
33.5426
 21
-15.7361
  0
LINE
  8
0
 10
33.5426
 20
-15.7361
 11
33.6281
 21
-15.7845
  0
LINE
  8
0
 10
33.6281
 20
-15.7845
 11
33.711
 21
-15.8371
  0
LINE
  8
0
 10
33.711
 20
-15.8371
 11
33.7912
 21
-15.8936
  0
LINE
  8
0
 10
33.7912
 20
-15.8936
 11
33.8686
 21
-15.954
  0
LINE
  8
0
 10
33.8686
 20
-15.954
 11
33.943
 21
-16.0181
  0
LINE
  8
0
 10
33.943
 20
-16.0181
 11
34.0141
 21
-16.0858
  0
LINE
  8
0
 10
34.0141
 20
-16.0858
 11
34.0817
 21
-16.1569
  0
LINE
  8
0
 10
34.0817
 20
-16.1569
 11
34.1459
 21
-16.2312
  0
LINE
  8
0
 10
34.1459
 20
-16.2312
 11
34.2063
 21
-16.3086
  0
LINE
  8
0
 10
34.2063
 20
-16.3086
 11
34.2628
 21
-16.3889
  0
LINE
  8
0
 10
34.2628
 20
-16.3889
 11
34.3153
 21
-16.4718
  0
LINE
  8
0
 10
34.3153
 20
-16.4718
 11
34.3637
 21
-16.5572
  0
LINE
  8
0
 10
34.3637
 20
-16.5572
 11
34.4078
 21
-16.6449
  0
LINE
  8
0
 10
34.4078
 20
-16.6449
 11
34.4476
 21
-16.7346
  0
LINE
  8
0
 10
34.4476
 20
-16.7346
 11
34.4829
 21
-16.8262
  0
LINE
  8
0
 10
34.4829
 20
-16.8262
 11
34.5137
 21
-16.9194
  0
LINE
  8
0
 10
34.5137
 20
-16.9194
 11
34.5399
 21
-17.014
  0
LINE
  8
0
 10
34.5399
 20
-17.014
 11
34.5614
 21
-17.1098
  0
LINE
  8
0
 10
34.5614
 20
-17.1098
 11
34.5782
 21
-17.2065
  0
LINE
  8
0
 10
34.5782
 20
-17.2065
 11
34.5902
 21
-17.304
  0
LINE
  8
0
 10
34.5902
 20
-17.304
 11
34.5974
 21
-17.4019
  0
LINE
  8
0
 10
34.5974
 20
-17.4019
 11
34.5998
 21
-17.5
  0
LINE
  8
0
 10
34.5998
 20
-17.5
 11
34.5974
 21
-17.5981
  0
LINE
  8
0
 10
34.5974
 20
-17.5981
 11
34.5902
 21
-17.696
  0
LINE
  8
0
 10
34.5902
 20
-17.696
 11
34.5782
 21
-17.7935
  0
LINE
  8
0
 10
34.5782
 20
-17.7935
 11
34.5614
 21
-17.8902
  0
LINE
  8
0
 10
34.5614
 20
-17.8902
 11
34.5399
 21
-17.9859
  0
LINE
  8
0
 10
34.5399
 20
-17.9859
 11
34.5137
 21
-18.0806
  0
LINE
  8
0
 10
34.5137
 20
-18.0806
 11
34.4829
 21
-18.1738
  0
LINE
  8
0
 10
34.4829
 20
-18.1738
 11
34.4476
 21
-18.2654
  0
LINE
  8
0
 10
34.4476
 20
-18.2654
 11
34.4078
 21
-18.3551
  0
LINE
  8
0
 10
34.4078
 20
-18.3551
 11
34.3637
 21
-18.4428
  0
LINE
  8
0
 10
34.3637
 20
-18.4428
 11
34.3153
 21
-18.5282
  0
LINE
  8
0
 10
34.3153
 20
-18.5282
 11
34.2628
 21
-18.6111
  0
LINE
  8
0
 10
34.2628
 20
-18.6111
 11
34.2063
 21
-18.6914
  0
LINE
  8
0
 10
34.2063
 20
-18.6914
 11
34.1459
 21
-18.7688
  0
LINE
  8
0
 10
34.1459
 20
-18.7688
 11
34.0817
 21
-18.8431
  0
LINE
  8
0
 10
34.0817
 20
-18.8431
 11
34.0141
 21
-18.9142
  0
LINE
  8
0
 10
34.0141
 20
-18.9142
 11
33.943
 21
-18.9819
  0
LINE
  8
0
 10
33.943
 20
-18.9819
 11
33.8686
 21
-19.046
  0
LINE
  8
0
 10
33.8686
 20
-19.046
 11
33.7912
 21
-19.1064
  0
LINE
  8
0
 10
33.7912
 20
-19.1064
 11
33.711
 21
-19.1629
  0
LINE
  8
0
 10
33.711
 20
-19.1629
 11
33.6281
 21
-19.2155
  0
LINE
  8
0
 10
33.6281
 20
-19.2155
 11
33.5426
 21
-19.2638
  0
LINE
  8
0
 10
33.5426
 20
-19.2638
 11
33.455
 21
-19.308
  0
LINE
  8
0
 10
33.455
 20
-19.308
 11
33.3652
 21
-19.3477
  0
LINE
  8
0
 10
33.3652
 20
-19.3477
 11
33.2736
 21
-19.3831
  0
LINE
  8
0
 10
33.2736
 20
-19.3831
 11
33.1804
 21
-19.4139
  0
LINE
  8
0
 10
33.1804
 20
-19.4139
 11
33.0858
 21
-19.44
  0
LINE
  8
0
 10
33.0858
 20
-19.44
 11
32.99
 21
-19.4616
  0
LINE
  8
0
 10
32.99
 20
-19.4616
 11
32.8933
 21
-19.4783
  0
LINE
  8
0
 10
32.8933
 20
-19.4783
 11
32.7959
 21
-19.4904
  0
LINE
  8
0
 10
32.7959
 20
-19.4904
 11
32.698
 21
-19.4976
  0
LINE
  8
0
 10
32.698
 20
-19.4976
 11
32.5998
 21
-19.5
  0
LINE
  8
0
 10
32.5998
 20
-19.5
 11
32.5017
 21
-19.4976
  0
ENDSEC
  0
SECTION
  2
OBJECTS
  0
DICTIONARY
  0
ENDSEC
  0
EOF
