<?xml version="1.0" standalone="no"?>
<!DOCTYPE svg PUBLIC "-//W3C//DTD SVG 1.1//EN" "http://www.w3.org/Graphics/SVG/1.1/DTD/svg11.dtd">
<svg width="17mm" height="38mm" viewBox="-74 -3 17 38" xmlns="http://www.w3.org/2000/svg" version="1.1">
<title>OpenSCAD Model</title>
<path d="
M -66.5614,34.7917 L -66.2237,34.7668 L -65.8876,34.7253 L -65.5539,34.6674 L -65.2234,34.5932 L -64.897,34.5029
 L -64.5755,34.3967 L -64.2595,34.2748 L -63.9499,34.1375 L -63.6474,33.9852 L -63.3527,33.8183 L -63.0666,33.6371
 L -62.7897,33.4421 L -62.5227,33.2338 L -62.2662,33.0126 L -62.021,32.779 L -61.7874,32.5338 L -61.5662,32.2773
 L -61.3579,32.0103 L -61.1629,31.7334 L -60.9817,31.4473 L -60.8147,31.1526 L -60.6625,30.8501 L -60.5252,30.5405
 L -60.4033,30.2245 L -60.2971,29.903 L -60.2068,29.5766 L -60.1326,29.2461 L -60.0747,28.9124 L -60.0332,28.5763
 L -60.0083,28.2386 L -60,27.9 L -60,3 L -57,-0 L -60,-3 L -73.8,-3
 L -73.8,27.9 L -73.7917,28.2386 L -73.7668,28.5763 L -73.7253,28.9124 L -73.6674,29.2461 L -73.5932,29.5766
 L -73.5029,29.903 L -73.3967,30.2245 L -73.2748,30.5405 L -73.1375,30.8501 L -72.9853,31.1526 L -72.8183,31.4473
 L -72.6371,31.7334 L -72.4421,32.0103 L -72.2338,32.2773 L -72.0126,32.5338 L -71.779,32.779 L -71.5338,33.0126
 L -71.2773,33.2338 L -71.0103,33.4421 L -70.7334,33.6371 L -70.4473,33.8183 L -70.1526,33.9852 L -69.8501,34.1375
 L -69.5405,34.2748 L -69.2245,34.3967 L -68.903,34.5029 L -68.5766,34.5932 L -68.2461,34.6674 L -67.9124,34.7253
 L -67.5763,34.7668 L -67.2386,34.7917 L -66.9,34.8 z
M -70,31 L -70,24.8 L -63.8,24.8 L -63.8,31 z
" stroke="black" fill="lightgray" stroke-width="0.5"/>
</svg>
