  0
SECTION
  2
HEADER
  9
$ACADVER
  1
AC1014
  9
$HANDSEED
  5
FFFF
  9
$MEASUREMENT
 70
     1
  0
ENDSEC
  0
SECTION
  2
TABLES
  0
TABLE
  2
VPORT
  5
8
330
0
100
AcDbSymbolTable
 70
     4
  0
VPORT
  5
2E
330
8
100
AcDbSymbolTableRecord
100
AcDbViewportTableRecord
  2
*ACTIVE
 70
     0
 10
0.0
 20
0.0
 11
1.0
 21
1.0
 12
210.0
 22
148.5
 13
0.0
 23
0.0
 14
10.0
 24
10.0
 15
10.0
 25
10.0
 16
0.0
 26
0.0
 36
1.0
 17
0.0
 27
0.0
 37
0.0
 40
341.0
 41
1.24
 42
50.0
 43
0.0
 44
0.0
 50
0.0
 51
0.0
 71
     0
 72
   100
 73
     1
 74
     3
 75
     0
 76
     0
 77
     0
 78
     0
  0
ENDTAB
  0
TABLE
  2
LTYPE
  5
5
330
0
100
AcDbSymbolTable
 70
     1
  0
LTYPE
  5
14
330
5
100
AcDbSymbolTableRecord
100
AcDbLinetypeTableRecord
  2
BYBLOCK
 70
     0
  3

 72
    65
 73
     0
 40
0.0
  0
LTYPE
  5
15
330
5
100
AcDbSymbolTableRecord
100
AcDbLinetypeTableRecord
  2
BYLAYER
 70
     0
  3

 72
    65
 73
     0
 40
0.0
  0
LTYPE
  5
16
330
5
100
AcDbSymbolTableRecord
100
AcDbLinetypeTableRecord
  2
CONTINUOUS
 70
     0
  3
Solid line
 72
    65
 73
     0
 40
0.0
  0
ENDTAB
  0
TABLE
  2
LAYER
  5
2
100
AcDbSymbolTable
 70
1
  0
LAYER
  5
50
100
AcDbSymbolTableRecord
100
AcDbLayerTableRecord
  2
0
 70
0
  6
CONTINUOUS
  0
ENDTAB
  0
TABLE
  2
STYLE
  5
3
330
0
100
AcDbSymbolTable
 70
     1
  0
STYLE
  5
11
330
3
100
AcDbSymbolTableRecord
100
AcDbTextStyleTableRecord
  2
STANDARD
 70
     0
 40
0.0
 41
1.0
 50
0.0
 71
     0
 42
2.5
  3
txt
  4

  0
ENDTAB
  0
TABLE
  2
VIEW
  5
6
330
0
100
AcDbSymbolTable
 70
     0
  0
ENDTAB
  0
TABLE
  2
UCS
  5
7
330
0
100
AcDbSymbolTable
 70
     0
  0
ENDTAB
  0
TABLE
  2
APPID
  5
9
330
0
100
AcDbSymbolTable
 70
     2
  0
APPID
  5
12
330
9
100
AcDbSymbolTableRecord
100
AcDbRegAppTableRecord
  2
ACAD
 70
     0
  0
ENDTAB
  0
TABLE
  2
DIMSTYLE
  5
A
330
0
100
AcDbSymbolTable
 70
     1
  0
DIMSTYLE
105
27
330
A
100
AcDbSymbolTableRecord
100
AcDbDimStyleTableRecord
  2
ISO-25
 70
     0
  3

  4

  5

  6

  7

 40
1.0
 41
2.5
 42
0.625
 43
3.75
 44
1.25
 45
0.0
 46
0.0
 47
0.0
 48
0.0
140
2.5
141
2.5
142
0.0
143
0.03937007874016
144
1.0
145
0.0
146
1.0
147
0.625
 71
     0
 72
     0
 73
     0
 74
     0
 75
     0
 76
     0
 77
     1
 78
     8
170
     0
171
     3
172
     1
173
     0
174
     0
175
     0
176
     0
177
     0
178
     0
270
     2
271
     2
272
     2
273
     2
274
     3
340
11
275
     0
280
     0
281
     0
282
     0
283
     0
284
     8
285
     0
286
     0
287
     3
288
     0
  0
ENDTAB
  0
TABLE
  2
BLOCK_RECORD
  5
1
330
0
100
AcDbSymbolTable
 70
     1
  0
BLOCK_RECORD
  5
1F
330
1
100
AcDbSymbolTableRecord
100
AcDbBlockTableRecord
  2
*MODEL_SPACE
  0
BLOCK_RECORD
  5
1B
330
1
100
AcDbSymbolTableRecord
100
AcDbBlockTableRecord
  2
*PAPER_SPACE
  0
ENDTAB
  0
ENDSEC
  0
SECTION
  2
BLOCKS
  0
BLOCK
  5
20
330
1F
100
AcDbEntity
  8
0
100
AcDbBlockBegin
  2
*MODEL_SPACE
 70
     0
 10
0.0
 20
0.0
 30
0.0
  3
*MODEL_SPACE
  1

  0
ENDBLK
  5
21
330
1F
100
AcDbEntity
  8
0
100
AcDbBlockEnd
  0
BLOCK
  5
1C
330
1B
100
AcDbEntity
 67
     1
  8
0
100
AcDbBlockBegin
  2
*PAPER_SPACE
  1

  0
ENDBLK
  5
1D
330
1B
100
AcDbEntity
 67
     1
  8
0
100
AcDbBlockEnd
  0
ENDSEC
  0
SECTION
  2
ENTITIES
  0
LWPOLYLINE
  5
100
100
AcDbEntity
  8
0
 62
7
100
AcDbPolyline
 90
4
 70
1
 10
145.000000
 20
60.000000
 30
0.0
 10
-125.000000
 20
60.000000
 30
0.0
 10
-125.000000
 20
10.000000
 30
0.0
 10
145.000000
 20
10.000000
 30
0.0
  0
LWPOLYLINE
  5
101
100
AcDbEntity
  8
0
 62
7
100
AcDbPolyline
 90
128
 70
1
 10
-0.142288
 20
47.103500
 30
0.0
 10
-0.284241
 20
47.113970
 30
0.0
 10
-0.425507
 20
47.131390
 30
0.0
 10
-0.565750
 20
47.155730
 30
0.0
 10
-0.704636
 20
47.186920
 30
0.0
 10
-0.841812
 20
47.224880
 30
0.0
 10
-0.976974
 20
47.269530
 30
0.0
 10
-1.109770
 20
47.320760
 30
0.0
 10
-1.239900
 20
47.378430
 30
0.0
 10
-1.367050
 20
47.442430
 30
0.0
 10
-1.490890
 20
47.512590
 30
0.0
 10
-1.611150
 20
47.588750
 30
0.0
 10
-1.727520
 20
47.670700
 30
0.0
 10
-1.839740
 20
47.758270
 30
0.0
 10
-1.947510
 20
47.851240
 30
0.0
 10
-2.050600
 20
47.949400
 30
0.0
 10
-2.148760
 20
48.052490
 30
0.0
 10
-2.241730
 20
48.160260
 30
0.0
 10
-2.329300
 20
48.272480
 30
0.0
 10
-2.411250
 20
48.388850
 30
0.0
 10
-2.487410
 20
48.509110
 30
0.0
 10
-2.557570
 20
48.632950
 30
0.0
 10
-2.621570
 20
48.760100
 30
0.0
 10
-2.679240
 20
48.890230
 30
0.0
 10
-2.730470
 20
49.023026
 30
0.0
 10
-2.775120
 20
49.158188
 30
0.0
 10
-2.813080
 20
49.295364
 30
0.0
 10
-2.844270
 20
49.434250
 30
0.0
 10
-2.868610
 20
49.574493
 30
0.0
 10
-2.886030
 20
49.715759
 30
0.0
 10
-2.896500
 20
49.857712
 30
0.0
 10
-2.899990
 20
50.000000
 30
0.0
 10
-2.896500
 20
50.142288
 30
0.0
 10
-2.886030
 20
50.284241
 30
0.0
 10
-2.868610
 20
50.425507
 30
0.0
 10
-2.844270
 20
50.565750
 30
0.0
 10
-2.813080
 20
50.704636
 30
0.0
 10
-2.775120
 20
50.841812
 30
0.0
 10
-2.730470
 20
50.976974
 30
0.0
 10
-2.679240
 20
51.109770
 30
0.0
 10
-2.621570
 20
51.239900
 30
0.0
 10
-2.557570
 20
51.367050
 30
0.0
 10
-2.487410
 20
51.490890
 30
0.0
 10
-2.411250
 20
51.611150
 30
0.0
 10
-2.329300
 20
51.727520
 30
0.0
 10
-2.241730
 20
51.839740
 30
0.0
 10
-2.148760
 20
51.947510
 30
0.0
 10
-2.050600
 20
52.050600
 30
0.0
 10
-1.947510
 20
52.148760
 30
0.0
 10
-1.839740
 20
52.241730
 30
0.0
 10
-1.727520
 20
52.329300
 30
0.0
 10
-1.611150
 20
52.411250
 30
0.0
 10
-1.490890
 20
52.487410
 30
0.0
 10
-1.367050
 20
52.557570
 30
0.0
 10
-1.239900
 20
52.621570
 30
0.0
 10
-1.109770
 20
52.679240
 30
0.0
 10
-0.976974
 20
52.730470
 30
0.0
 10
-0.841812
 20
52.775120
 30
0.0
 10
-0.704636
 20
52.813080
 30
0.0
 10
-0.565750
 20
52.844270
 30
0.0
 10
-0.425507
 20
52.868610
 30
0.0
 10
-0.284241
 20
52.886030
 30
0.0
 10
-0.142288
 20
52.896500
 30
0.0
 10
0.000000
 20
52.899990
 30
0.0
 10
0.142288
 20
52.896500
 30
0.0
 10
0.284241
 20
52.886030
 30
0.0
 10
0.425507
 20
52.868610
 30
0.0
 10
0.565750
 20
52.844270
 30
0.0
 10
0.704636
 20
52.813080
 30
0.0
 10
0.841812
 20
52.775120
 30
0.0
 10
0.976974
 20
52.730470
 30
0.0
 10
1.109770
 20
52.679240
 30
0.0
 10
1.239900
 20
52.621570
 30
0.0
 10
1.367050
 20
52.557570
 30
0.0
 10
1.490890
 20
52.487410
 30
0.0
 10
1.611150
 20
52.411250
 30
0.0
 10
1.727520
 20
52.329300
 30
0.0
 10
1.839740
 20
52.241730
 30
0.0
 10
1.947510
 20
52.148760
 30
0.0
 10
2.050600
 20
52.050600
 30
0.0
 10
2.148760
 20
51.947510
 30
0.0
 10
2.241730
 20
51.839740
 30
0.0
 10
2.329300
 20
51.727520
 30
0.0
 10
2.411250
 20
51.611150
 30
0.0
 10
2.487410
 20
51.490890
 30
0.0
 10
2.557570
 20
51.367050
 30
0.0
 10
2.621570
 20
51.239900
 30
0.0
 10
2.679240
 20
51.109770
 30
0.0
 10
2.730470
 20
50.976974
 30
0.0
 10
2.775120
 20
50.841812
 30
0.0
 10
2.813080
 20
50.704636
 30
0.0
 10
2.844270
 20
50.565750
 30
0.0
 10
2.868610
 20
50.425507
 30
0.0
 10
2.886030
 20
50.284241
 30
0.0
 10
2.896500
 20
50.142288
 30
0.0
 10
2.899990
 20
50.000000
 30
0.0
 10
2.896500
 20
49.857712
 30
0.0
 10
2.886030
 20
49.715759
 30
0.0
 10
2.868610
 20
49.574493
 30
0.0
 10
2.844270
 20
49.434250
 30
0.0
 10
2.813080
 20
49.295364
 30
0.0
 10
2.775120
 20
49.158188
 30
0.0
 10
2.730470
 20
49.023026
 30
0.0
 10
2.679240
 20
48.890230
 30
0.0
 10
2.621570
 20
48.760100
 30
0.0
 10
2.557570
 20
48.632950
 30
0.0
 10
2.487410
 20
48.509110
 30
0.0
 10
2.411250
 20
48.388850
 30
0.0
 10
2.329300
 20
48.272480
 30
0.0
 10
2.241730
 20
48.160260
 30
0.0
 10
2.148760
 20
48.052490
 30
0.0
 10
2.050600
 20
47.949400
 30
0.0
 10
1.947510
 20
47.851240
 30
0.0
 10
1.839740
 20
47.758270
 30
0.0
 10
1.727520
 20
47.670700
 30
0.0
 10
1.611150
 20
47.588750
 30
0.0
 10
1.490890
 20
47.512590
 30
0.0
 10
1.367050
 20
47.442430
 30
0.0
 10
1.239900
 20
47.378430
 30
0.0
 10
1.109770
 20
47.320760
 30
0.0
 10
0.976974
 20
47.269530
 30
0.0
 10
0.841812
 20
47.224880
 30
0.0
 10
0.704636
 20
47.186920
 30
0.0
 10
0.565750
 20
47.155730
 30
0.0
 10
0.425507
 20
47.131390
 30
0.0
 10
0.284241
 20
47.113970
 30
0.0
 10
0.142288
 20
47.103500
 30
0.0
 10
0.000000
 20
47.100010
 30
0.0
  0
LWPOLYLINE
  5
102
100
AcDbEntity
  8
0
 62
7
100
AcDbPolyline
 90
128
 70
1
 10
66.699800
 20
46.121060
 30
0.0
 10
66.557800
 20
46.131240
 30
0.0
 10
66.416500
 20
46.148360
 30
0.0
 10
66.276200
 20
46.172390
 30
0.0
 10
66.137300
 20
46.203290
 30
0.0
 10
66.000000
 20
46.240970
 30
0.0
 10
65.864800
 20
46.285320
 30
0.0
 10
65.731900
 20
46.336270
 30
0.0
 10
65.601600
 20
46.393680
 30
0.0
 10
65.474300
 20
46.457400
 30
0.0
 10
65.350300
 20
46.527300
 30
0.0
 10
65.229900
 20
46.603200
 30
0.0
 10
65.113400
 20
46.684910
 30
0.0
 10
65.001000
 20
46.772250
 30
0.0
 10
64.893000
 20
46.864990
 30
0.0
 10
64.789700
 20
46.962920
 30
0.0
 10
64.691300
 20
47.065800
 30
0.0
 10
64.598100
 20
47.173370
 30
0.0
 10
64.510300
 20
47.285400
 30
0.0
 10
64.428100
 20
47.401610
 30
0.0
 10
64.351700
 20
47.521700
 30
0.0
 10
64.281300
 20
47.645400
 30
0.0
 10
64.217000
 20
47.772400
 30
0.0
 10
64.159100
 20
47.902400
 30
0.0
 10
64.107600
 20
48.035100
 30
0.0
 10
64.062600
 20
48.170170
 30
0.0
 10
64.024400
 20
48.307270
 30
0.0
 10
63.992900
 20
48.446080
 30
0.0
 10
63.968200
 20
48.586270
 30
0.0
 10
63.950500
 20
48.727490
 30
0.0
 10
63.939800
 20
48.869430
 30
0.0
 10
63.936000
 20
49.011719
 30
0.0
 10
63.939100
 20
49.154022
 30
0.0
 10
63.949300
 20
49.295990
 30
0.0
 10
63.966400
 20
49.437302
 30
0.0
 10
63.990500
 20
49.577591
 30
0.0
 10
64.021400
 20
49.716537
 30
0.0
 10
64.059100
 20
49.853806
 30
0.0
 10
64.103400
 20
49.989059
 30
0.0
 10
64.154400
 20
50.121948
 30
0.0
 10
64.211800
 20
50.252197
 30
0.0
 10
64.275500
 20
50.379471
 30
0.0
 10
64.345400
 20
50.503479
 30
0.0
 10
64.421300
 20
50.623886
 30
0.0
 10
64.503000
 20
50.740433
 30
0.0
 10
64.590300
 20
50.852829
 30
0.0
 10
64.683100
 20
50.960815
 30
0.0
 10
64.781000
 20
51.064100
 30
0.0
 10
64.883900
 20
51.162480
 30
0.0
 10
64.991500
 20
51.255680
 30
0.0
 10
65.103500
 20
51.343490
 30
0.0
 10
65.219700
 20
51.425690
 30
0.0
 10
65.339800
 20
51.502090
 30
0.0
 10
65.463500
 20
51.572530
 30
0.0
 10
65.590500
 20
51.636780
 30
0.0
 10
65.720500
 20
51.694750
 30
0.0
 10
65.853200
 20
51.746250
 30
0.0
 10
65.988300
 20
51.791180
 30
0.0
 10
66.125400
 20
51.829440
 30
0.0
 10
66.264200
 20
51.860920
 30
0.0
 10
66.404400
 20
51.885560
 30
0.0
 10
66.545600
 20
51.903270
 30
0.0
 10
66.687500
 20
51.914050
 30
0.0
 10
66.829800
 20
51.917850
 30
0.0
 10
66.972100
 20
51.914660
 30
0.0
 10
67.114100
 20
51.904480
 30
0.0
 10
67.255400
 20
51.887360
 30
0.0
 10
67.395700
 20
51.863330
 30
0.0
 10
67.534600
 20
51.832430
 30
0.0
 10
67.671900
 20
51.794750
 30
0.0
 10
67.807100
 20
51.750400
 30
0.0
 10
67.940000
 20
51.699450
 30
0.0
 10
68.070300
 20
51.642040
 30
0.0
 10
68.197600
 20
51.578310
 30
0.0
 10
68.321600
 20
51.508420
 30
0.0
 10
68.442000
 20
51.432530
 30
0.0
 10
68.558500
 20
51.350810
 30
0.0
 10
68.670900
 20
51.263470
 30
0.0
 10
68.778900
 20
51.170730
 30
0.0
 10
68.882200
 20
51.072800
 30
0.0
 10
68.980600
 20
50.969925
 30
0.0
 10
69.073800
 20
50.862335
 30
0.0
 10
69.161600
 20
50.750320
 30
0.0
 10
69.243800
 20
50.634109
 30
0.0
 10
69.320200
 20
50.514023
 30
0.0
 10
69.390600
 20
50.390320
 30
0.0
 10
69.454900
 20
50.263321
 30
0.0
 10
69.512800
 20
50.133316
 30
0.0
 10
69.564400
 20
50.000610
 30
0.0
 10
69.609300
 20
49.865570
 30
0.0
 10
69.647600
 20
49.728470
 30
0.0
 10
69.679000
 20
49.589661
 30
0.0
 10
69.703700
 20
49.449463
 30
0.0
 10
69.721400
 20
49.308228
 30
0.0
 10
69.732100
 20
49.166306
 30
0.0
 10
69.735900
 20
49.024017
 30
0.0
 10
69.732800
 20
48.881710
 30
0.0
 10
69.722600
 20
48.739730
 30
0.0
 10
69.705500
 20
48.598430
 30
0.0
 10
69.681400
 20
48.458130
 30
0.0
 10
69.650500
 20
48.319180
 30
0.0
 10
69.612900
 20
48.181930
 30
0.0
 10
69.568500
 20
48.046680
 30
0.0
 10
69.517500
 20
47.913770
 30
0.0
 10
69.460100
 20
47.783520
 30
0.0
 10
69.396400
 20
47.656230
 30
0.0
 10
69.326500
 20
47.532240
 30
0.0
 10
69.250600
 20
47.411830
 30
0.0
 10
69.168900
 20
47.295270
 30
0.0
 10
69.081600
 20
47.182880
 30
0.0
 10
68.988800
 20
47.074910
 30
0.0
 10
68.890900
 20
46.971600
 30
0.0
 10
68.788000
 20
46.873250
 30
0.0
 10
68.680500
 20
46.780040
 30
0.0
 10
68.568400
 20
46.692230
 30
0.0
 10
68.452200
 20
46.610030
 30
0.0
 10
68.332100
 20
46.533620
 30
0.0
 10
68.208400
 20
46.463200
 30
0.0
 10
68.081400
 20
46.398930
 30
0.0
 10
67.951400
 20
46.340970
 30
0.0
 10
67.818700
 20
46.289460
 30
0.0
 10
67.683700
 20
46.244540
 30
0.0
 10
67.546600
 20
46.206270
 30
0.0
 10
67.407700
 20
46.174790
 30
0.0
 10
67.267500
 20
46.150160
 30
0.0
 10
67.126300
 20
46.132450
 30
0.0
 10
66.984400
 20
46.121670
 30
0.0
 10
66.842100
 20
46.117870
 30
0.0
  0
LWPOLYLINE
  5
103
100
AcDbEntity
  8
0
 62
7
100
AcDbPolyline
 90
128
 70
1
 10
-110.191000
 20
31.104700
 30
0.0
 10
-110.382000
 20
31.118800
 30
0.0
 10
-110.572000
 20
31.142200
 30
0.0
 10
-110.761000
 20
31.174900
 30
0.0
 10
-110.948000
 20
31.216900
 30
0.0
 10
-111.132000
 20
31.267900
 30
0.0
 10
-111.314000
 20
31.328000
 30
0.0
 10
-111.492000
 20
31.396900
 30
0.0
 10
-111.667000
 20
31.474400
 30
0.0
 10
-111.838000
 20
31.560500
 30
0.0
 10
-112.005000
 20
31.654900
 30
0.0
 10
-112.167000
 20
31.757300
 30
0.0
 10
-112.323000
 20
31.867500
 30
0.0
 10
-112.474000
 20
31.985300
 30
0.0
 10
-112.619000
 20
32.110300
 30
0.0
 10
-112.758000
 20
32.242300
 30
0.0
 10
-112.890000
 20
32.380900
 30
0.0
 10
-113.015000
 20
32.525900
 30
0.0
 10
-113.133000
 20
32.676800
 30
0.0
 10
-113.243000
 20
32.833300
 30
0.0
 10
-113.345000
 20
32.995000
 30
0.0
 10
-113.439000
 20
33.161600
 30
0.0
 10
-113.526000
 20
33.332500
 30
0.0
 10
-113.603000
 20
33.507500
 30
0.0
 10
-113.672000
 20
33.686100
 30
0.0
 10
-113.732000
 20
33.867900
 30
0.0
 10
-113.783000
 20
34.052400
 30
0.0
 10
-113.825000
 20
34.239200
 30
0.0
 10
-113.858000
 20
34.427800
 30
0.0
 10
-113.881000
 20
34.617700
 30
0.0
 10
-113.895000
 20
34.808600
 30
0.0
 10
-113.900000
 20
35.000000
 30
0.0
 10
-113.895000
 20
35.191400
 30
0.0
 10
-113.881000
 20
35.382300
 30
0.0
 10
-113.858000
 20
35.572300
 30
0.0
 10
-113.825000
 20
35.760900
 30
0.0
 10
-113.783000
 20
35.947600
 30
0.0
 10
-113.732000
 20
36.132100
 30
0.0
 10
-113.672000
 20
36.313900
 30
0.0
 10
-113.603000
 20
36.492500
 30
0.0
 10
-113.526000
 20
36.667500
 30
0.0
 10
-113.439000
 20
36.838500
 30
0.0
 10
-113.345000
 20
37.005000
 30
0.0
 10
-113.243000
 20
37.166700
 30
0.0
 10
-113.133000
 20
37.323200
 30
0.0
 10
-113.015000
 20
37.474100
 30
0.0
 10
-112.890000
 20
37.619100
 30
0.0
 10
-112.758000
 20
37.757700
 30
0.0
 10
-112.619000
 20
37.889700
 30
0.0
 10
-112.474000
 20
38.014800
 30
0.0
 10
-112.323000
 20
38.132500
 30
0.0
 10
-112.167000
 20
38.242700
 30
0.0
 10
-112.005000
 20
38.345200
 30
0.0
 10
-111.838000
 20
38.439500
 30
0.0
 10
-111.667000
 20
38.525600
 30
0.0
 10
-111.492000
 20
38.603100
 30
0.0
 10
-111.314000
 20
38.672000
 30
0.0
 10
-111.132000
 20
38.732100
 30
0.0
 10
-110.948000
 20
38.783100
 30
0.0
 10
-110.761000
 20
38.825100
 30
0.0
 10
-110.572000
 20
38.857800
 30
0.0
 10
-110.382000
 20
38.881200
 30
0.0
 10
-110.191000
 20
38.895300
 30
0.0
 10
-110.000000
 20
38.900000
 30
0.0
 10
-109.809000
 20
38.895300
 30
0.0
 10
-109.618000
 20
38.881200
 30
0.0
 10
-109.428000
 20
38.857800
 30
0.0
 10
-109.239000
 20
38.825100
 30
0.0
 10
-109.052000
 20
38.783100
 30
0.0
 10
-108.868000
 20
38.732100
 30
0.0
 10
-108.686000
 20
38.672000
 30
0.0
 10
-108.508000
 20
38.603100
 30
0.0
 10
-108.333000
 20
38.525600
 30
0.0
 10
-108.162000
 20
38.439500
 30
0.0
 10
-107.995000
 20
38.345200
 30
0.0
 10
-107.833000
 20
38.242700
 30
0.0
 10
-107.677000
 20
38.132500
 30
0.0
 10
-107.526000
 20
38.014800
 30
0.0
 10
-107.381000
 20
37.889700
 30
0.0
 10
-107.242000
 20
37.757700
 30
0.0
 10
-107.110000
 20
37.619100
 30
0.0
 10
-106.985000
 20
37.474100
 30
0.0
 10
-106.867000
 20
37.323200
 30
0.0
 10
-106.757000
 20
37.166700
 30
0.0
 10
-106.655000
 20
37.005000
 30
0.0
 10
-106.561000
 20
36.838500
 30
0.0
 10
-106.474000
 20
36.667500
 30
0.0
 10
-106.397000
 20
36.492500
 30
0.0
 10
-106.328000
 20
36.313900
 30
0.0
 10
-106.268000
 20
36.132100
 30
0.0
 10
-106.217000
 20
35.947600
 30
0.0
 10
-106.175000
 20
35.760900
 30
0.0
 10
-106.142000
 20
35.572300
 30
0.0
 10
-106.119000
 20
35.382300
 30
0.0
 10
-106.105000
 20
35.191400
 30
0.0
 10
-106.100000
 20
35.000000
 30
0.0
 10
-106.105000
 20
34.808600
 30
0.0
 10
-106.119000
 20
34.617700
 30
0.0
 10
-106.142000
 20
34.427800
 30
0.0
 10
-106.175000
 20
34.239200
 30
0.0
 10
-106.217000
 20
34.052400
 30
0.0
 10
-106.268000
 20
33.867900
 30
0.0
 10
-106.328000
 20
33.686100
 30
0.0
 10
-106.397000
 20
33.507500
 30
0.0
 10
-106.474000
 20
33.332500
 30
0.0
 10
-106.561000
 20
33.161600
 30
0.0
 10
-106.655000
 20
32.995000
 30
0.0
 10
-106.757000
 20
32.833300
 30
0.0
 10
-106.867000
 20
32.676800
 30
0.0
 10
-106.985000
 20
32.525900
 30
0.0
 10
-107.110000
 20
32.380900
 30
0.0
 10
-107.242000
 20
32.242300
 30
0.0
 10
-107.381000
 20
32.110300
 30
0.0
 10
-107.526000
 20
31.985300
 30
0.0
 10
-107.677000
 20
31.867500
 30
0.0
 10
-107.833000
 20
31.757300
 30
0.0
 10
-107.995000
 20
31.654900
 30
0.0
 10
-108.162000
 20
31.560500
 30
0.0
 10
-108.333000
 20
31.474400
 30
0.0
 10
-108.508000
 20
31.396900
 30
0.0
 10
-108.686000
 20
31.328000
 30
0.0
 10
-108.868000
 20
31.267900
 30
0.0
 10
-109.052000
 20
31.216900
 30
0.0
 10
-109.239000
 20
31.174900
 30
0.0
 10
-109.428000
 20
31.142200
 30
0.0
 10
-109.618000
 20
31.118800
 30
0.0
 10
-109.809000
 20
31.104700
 30
0.0
 10
-110.000000
 20
31.100000
 30
0.0
  0
LWPOLYLINE
  5
104
100
AcDbEntity
  8
0
 62
7
100
AcDbPolyline
 90
128
 70
1
 10
129.809000
 20
31.104700
 30
0.0
 10
129.618000
 20
31.118800
 30
0.0
 10
129.428000
 20
31.142200
 30
0.0
 10
129.239000
 20
31.174900
 30
0.0
 10
129.052000
 20
31.216900
 30
0.0
 10
128.868000
 20
31.267900
 30
0.0
 10
128.686000
 20
31.328000
 30
0.0
 10
128.508000
 20
31.396900
 30
0.0
 10
128.333000
 20
31.474400
 30
0.0
 10
128.162000
 20
31.560500
 30
0.0
 10
127.995000
 20
31.654900
 30
0.0
 10
127.833000
 20
31.757300
 30
0.0
 10
127.677000
 20
31.867500
 30
0.0
 10
127.526000
 20
31.985300
 30
0.0
 10
127.381000
 20
32.110300
 30
0.0
 10
127.242000
 20
32.242300
 30
0.0
 10
127.110000
 20
32.380900
 30
0.0
 10
126.985000
 20
32.525900
 30
0.0
 10
126.867000
 20
32.676800
 30
0.0
 10
126.757000
 20
32.833300
 30
0.0
 10
126.655000
 20
32.995000
 30
0.0
 10
126.561000
 20
33.161600
 30
0.0
 10
126.474000
 20
33.332500
 30
0.0
 10
126.397000
 20
33.507500
 30
0.0
 10
126.328000
 20
33.686100
 30
0.0
 10
126.268000
 20
33.867900
 30
0.0
 10
126.217000
 20
34.052400
 30
0.0
 10
126.175000
 20
34.239200
 30
0.0
 10
126.142000
 20
34.427800
 30
0.0
 10
126.119000
 20
34.617700
 30
0.0
 10
126.105000
 20
34.808600
 30
0.0
 10
126.100000
 20
35.000000
 30
0.0
 10
126.105000
 20
35.191400
 30
0.0
 10
126.119000
 20
35.382300
 30
0.0
 10
126.142000
 20
35.572300
 30
0.0
 10
126.175000
 20
35.760900
 30
0.0
 10
126.217000
 20
35.947600
 30
0.0
 10
126.268000
 20
36.132100
 30
0.0
 10
126.328000
 20
36.313900
 30
0.0
 10
126.397000
 20
36.492500
 30
0.0
 10
126.474000
 20
36.667500
 30
0.0
 10
126.561000
 20
36.838500
 30
0.0
 10
126.655000
 20
37.005000
 30
0.0
 10
126.757000
 20
37.166700
 30
0.0
 10
126.867000
 20
37.323200
 30
0.0
 10
126.985000
 20
37.474100
 30
0.0
 10
127.110000
 20
37.619100
 30
0.0
 10
127.242000
 20
37.757700
 30
0.0
 10
127.381000
 20
37.889700
 30
0.0
 10
127.526000
 20
38.014800
 30
0.0
 10
127.677000
 20
38.132500
 30
0.0
 10
127.833000
 20
38.242700
 30
0.0
 10
127.995000
 20
38.345200
 30
0.0
 10
128.162000
 20
38.439500
 30
0.0
 10
128.333000
 20
38.525600
 30
0.0
 10
128.508000
 20
38.603100
 30
0.0
 10
128.686000
 20
38.672000
 30
0.0
 10
128.868000
 20
38.732100
 30
0.0
 10
129.052000
 20
38.783100
 30
0.0
 10
129.239000
 20
38.825100
 30
0.0
 10
129.428000
 20
38.857800
 30
0.0
 10
129.618000
 20
38.881200
 30
0.0
 10
129.809000
 20
38.895300
 30
0.0
 10
130.000000
 20
38.900000
 30
0.0
 10
130.191000
 20
38.895300
 30
0.0
 10
130.382000
 20
38.881200
 30
0.0
 10
130.572000
 20
38.857800
 30
0.0
 10
130.761000
 20
38.825100
 30
0.0
 10
130.948000
 20
38.783100
 30
0.0
 10
131.132000
 20
38.732100
 30
0.0
 10
131.314000
 20
38.672000
 30
0.0
 10
131.492000
 20
38.603100
 30
0.0
 10
131.667000
 20
38.525600
 30
0.0
 10
131.838000
 20
38.439500
 30
0.0
 10
132.005000
 20
38.345200
 30
0.0
 10
132.167000
 20
38.242700
 30
0.0
 10
132.323000
 20
38.132500
 30
0.0
 10
132.474000
 20
38.014800
 30
0.0
 10
132.619000
 20
37.889700
 30
0.0
 10
132.758000
 20
37.757700
 30
0.0
 10
132.890000
 20
37.619100
 30
0.0
 10
133.015000
 20
37.474100
 30
0.0
 10
133.133000
 20
37.323200
 30
0.0
 10
133.243000
 20
37.166700
 30
0.0
 10
133.345000
 20
37.005000
 30
0.0
 10
133.439000
 20
36.838500
 30
0.0
 10
133.526000
 20
36.667500
 30
0.0
 10
133.603000
 20
36.492500
 30
0.0
 10
133.672000
 20
36.313900
 30
0.0
 10
133.732000
 20
36.132100
 30
0.0
 10
133.783000
 20
35.947600
 30
0.0
 10
133.825000
 20
35.760900
 30
0.0
 10
133.858000
 20
35.572300
 30
0.0
 10
133.881000
 20
35.382300
 30
0.0
 10
133.895000
 20
35.191400
 30
0.0
 10
133.900000
 20
35.000000
 30
0.0
 10
133.895000
 20
34.808600
 30
0.0
 10
133.881000
 20
34.617700
 30
0.0
 10
133.858000
 20
34.427800
 30
0.0
 10
133.825000
 20
34.239200
 30
0.0
 10
133.783000
 20
34.052400
 30
0.0
 10
133.732000
 20
33.867900
 30
0.0
 10
133.672000
 20
33.686100
 30
0.0
 10
133.603000
 20
33.507500
 30
0.0
 10
133.526000
 20
33.332500
 30
0.0
 10
133.439000
 20
33.161600
 30
0.0
 10
133.345000
 20
32.995000
 30
0.0
 10
133.243000
 20
32.833300
 30
0.0
 10
133.133000
 20
32.676800
 30
0.0
 10
133.015000
 20
32.525900
 30
0.0
 10
132.890000
 20
32.380900
 30
0.0
 10
132.758000
 20
32.242300
 30
0.0
 10
132.619000
 20
32.110300
 30
0.0
 10
132.474000
 20
31.985300
 30
0.0
 10
132.323000
 20
31.867500
 30
0.0
 10
132.167000
 20
31.757300
 30
0.0
 10
132.005000
 20
31.654900
 30
0.0
 10
131.838000
 20
31.560500
 30
0.0
 10
131.667000
 20
31.474400
 30
0.0
 10
131.492000
 20
31.396900
 30
0.0
 10
131.314000
 20
31.328000
 30
0.0
 10
131.132000
 20
31.267900
 30
0.0
 10
130.948000
 20
31.216900
 30
0.0
 10
130.761000
 20
31.174900
 30
0.0
 10
130.572000
 20
31.142200
 30
0.0
 10
130.382000
 20
31.118800
 30
0.0
 10
130.191000
 20
31.104700
 30
0.0
 10
130.000000
 20
31.100000
 30
0.0
  0
LWPOLYLINE
  5
105
100
AcDbEntity
  8
0
 62
7
100
AcDbPolyline
 90
128
 70
1
 10
90.751500
 20
27.487200
 30
0.0
 10
90.536800
 20
27.502600
 30
0.0
 10
90.323200
 20
27.528500
 30
0.0
 10
90.111100
 20
27.564800
 30
0.0
 10
89.901100
 20
27.611500
 30
0.0
 10
89.693600
 20
27.668500
 30
0.0
 10
89.489100
 20
27.735500
 30
0.0
 10
89.288200
 20
27.812600
 30
0.0
 10
89.091300
 20
27.899300
 30
0.0
 10
88.898900
 20
27.995700
 30
0.0
 10
88.711400
 20
28.101300
 30
0.0
 10
88.529400
 20
28.216100
 30
0.0
 10
88.353200
 20
28.339600
 30
0.0
 10
88.183300
 20
28.471600
 30
0.0
 10
88.020000
 20
28.611800
 30
0.0
 10
87.863900
 20
28.759900
 30
0.0
 10
87.715200
 20
28.915400
 30
0.0
 10
87.574300
 20
29.078000
 30
0.0
 10
87.441500
 20
29.247400
 30
0.0
 10
87.317300
 20
29.423100
 30
0.0
 10
87.201800
 20
29.604600
 30
0.0
 10
87.095300
 20
29.791600
 30
0.0
 10
86.998100
 20
29.983600
 30
0.0
 10
86.910500
 20
30.180200
 30
0.0
 10
86.832600
 20
30.380800
 30
0.0
 10
86.764700
 20
30.584900
 30
0.0
 10
86.706900
 20
30.792200
 30
0.0
 10
86.659300
 20
31.002000
 30
0.0
 10
86.622100
 20
31.214000
 30
0.0
 10
86.595300
 20
31.427500
 30
0.0
 10
86.579000
 20
31.642100
 30
0.0
 10
86.573200
 20
31.857200
 30
0.0
 10
86.578100
 20
32.072300
 30
0.0
 10
86.593400
 20
32.286900
 30
0.0
 10
86.619300
 20
32.500500
 30
0.0
 10
86.655700
 20
32.712600
 30
0.0
 10
86.702400
 20
32.922700
 30
0.0
 10
86.759300
 20
33.130200
 30
0.0
 10
86.826400
 20
33.334600
 30
0.0
 10
86.903400
 20
33.535600
 30
0.0
 10
86.990200
 20
33.732500
 30
0.0
 10
87.086500
 20
33.924900
 30
0.0
 10
87.192200
 20
34.112300
 30
0.0
 10
87.306900
 20
34.294400
 30
0.0
 10
87.430500
 20
34.470600
 30
0.0
 10
87.562500
 20
34.640500
 30
0.0
 10
87.702700
 20
34.803700
 30
0.0
 10
87.850700
 20
34.959900
 30
0.0
 10
88.006300
 20
35.108600
 30
0.0
 10
88.168900
 20
35.249500
 30
0.0
 10
88.338300
 20
35.382200
 30
0.0
 10
88.513900
 20
35.506500
 30
0.0
 10
88.695500
 20
35.622000
 30
0.0
 10
88.882500
 20
35.728500
 30
0.0
 10
89.074500
 20
35.825600
 30
0.0
 10
89.271000
 20
35.913200
 30
0.0
 10
89.471600
 20
35.991100
 30
0.0
 10
89.675800
 20
36.059000
 30
0.0
 10
89.883000
 20
36.116900
 30
0.0
 10
90.092900
 20
36.164500
 30
0.0
 10
90.304800
 20
36.201700
 30
0.0
 10
90.518300
 20
36.228500
 30
0.0
 10
90.732900
 20
36.244800
 30
0.0
 10
90.948000
 20
36.250500
 30
0.0
 10
91.163100
 20
36.245700
 30
0.0
 10
91.377800
 20
36.230300
 30
0.0
 10
91.591400
 20
36.204400
 30
0.0
 10
91.803500
 20
36.168100
 30
0.0
 10
92.013500
 20
36.121400
 30
0.0
 10
92.221000
 20
36.064400
 30
0.0
 10
92.425500
 20
35.997400
 30
0.0
 10
92.626400
 20
35.920300
 30
0.0
 10
92.823300
 20
35.833600
 30
0.0
 10
93.015700
 20
35.737200
 30
0.0
 10
93.203200
 20
35.631600
 30
0.0
 10
93.385200
 20
35.516800
 30
0.0
 10
93.561400
 20
35.393300
 30
0.0
 10
93.731300
 20
35.261300
 30
0.0
 10
93.894600
 20
35.121100
 30
0.0
 10
94.050700
 20
34.973000
 30
0.0
 10
94.199400
 20
34.817500
 30
0.0
 10
94.340300
 20
34.654800
 30
0.0
 10
94.473100
 20
34.485500
 30
0.0
 10
94.597300
 20
34.309800
 30
0.0
 10
94.712800
 20
34.128300
 30
0.0
 10
94.819300
 20
33.941300
 30
0.0
 10
94.916500
 20
33.749300
 30
0.0
 10
95.004100
 20
33.552700
 30
0.0
 10
95.081900
 20
33.352100
 30
0.0
 10
95.149900
 20
33.148000
 30
0.0
 10
95.207700
 20
32.940700
 30
0.0
 10
95.255300
 20
32.730900
 30
0.0
 10
95.292500
 20
32.518900
 30
0.0
 10
95.319300
 20
32.305400
 30
0.0
 10
95.335600
 20
32.090900
 30
0.0
 10
95.341400
 20
31.875700
 30
0.0
 10
95.336500
 20
31.660600
 30
0.0
 10
95.321200
 20
31.446000
 30
0.0
 10
95.295300
 20
31.232400
 30
0.0
 10
95.258900
 20
31.020300
 30
0.0
 10
95.212200
 20
30.810200
 30
0.0
 10
95.155300
 20
30.602700
 30
0.0
 10
95.088200
 20
30.398300
 30
0.0
 10
95.011200
 20
30.197300
 30
0.0
 10
94.924400
 20
30.000400
 30
0.0
 10
94.828100
 20
29.808000
 30
0.0
 10
94.722400
 20
29.620600
 30
0.0
 10
94.607700
 20
29.438500
 30
0.0
 10
94.484100
 20
29.262300
 30
0.0
 10
94.352100
 20
29.092400
 30
0.0
 10
94.211900
 20
28.929200
 30
0.0
 10
94.063900
 20
28.773000
 30
0.0
 10
93.908300
 20
28.624300
 30
0.0
 10
93.745700
 20
28.483400
 30
0.0
 10
93.576300
 20
28.350700
 30
0.0
 10
93.400700
 20
28.226400
 30
0.0
 10
93.219100
 20
28.110900
 30
0.0
 10
93.032100
 20
28.004400
 30
0.0
 10
92.840100
 20
27.907300
 30
0.0
 10
92.643600
 20
27.819700
 30
0.0
 10
92.443000
 20
27.741800
 30
0.0
 10
92.238800
 20
27.673900
 30
0.0
 10
92.031600
 20
27.616000
 30
0.0
 10
91.821700
 20
27.568500
 30
0.0
 10
91.609800
 20
27.531200
 30
0.0
 10
91.396300
 20
27.504400
 30
0.0
 10
91.181700
 20
27.488100
 30
0.0
 10
90.966600
 20
27.482400
 30
0.0
  0
LWPOLYLINE
  5
106
100
AcDbEntity
  8
0
 62
7
100
AcDbPolyline
 90
128
 70
1
 10
24.808600
 20
21.104700
 30
0.0
 10
24.617700
 20
21.118800
 30
0.0
 10
24.427700
 20
21.142200
 30
0.0
 10
24.239100
 20
21.174900
 30
0.0
 10
24.052400
 20
21.216900
 30
0.0
 10
23.867900
 20
21.267900
 30
0.0
 10
23.686100
 20
21.328000
 30
0.0
 10
23.507500
 20
21.396900
 30
0.0
 10
23.332500
 20
21.474400
 30
0.0
 10
23.161500
 20
21.560500
 30
0.0
 10
22.995000
 20
21.654900
 30
0.0
 10
22.833300
 20
21.757300
 30
0.0
 10
22.676800
 20
21.867500
 30
0.0
 10
22.525900
 20
21.985300
 30
0.0
 10
22.380900
 20
22.110300
 30
0.0
 10
22.242300
 20
22.242300
 30
0.0
 10
22.110300
 20
22.380900
 30
0.0
 10
21.985300
 20
22.525900
 30
0.0
 10
21.867500
 20
22.676800
 30
0.0
 10
21.757300
 20
22.833300
 30
0.0
 10
21.654800
 20
22.995000
 30
0.0
 10
21.560500
 20
23.161600
 30
0.0
 10
21.474400
 20
23.332500
 30
0.0
 10
21.396900
 20
23.507500
 30
0.0
 10
21.328000
 20
23.686100
 30
0.0
 10
21.267900
 20
23.867900
 30
0.0
 10
21.216900
 20
24.052400
 30
0.0
 10
21.174900
 20
24.239200
 30
0.0
 10
21.142200
 20
24.427800
 30
0.0
 10
21.118800
 20
24.617700
 30
0.0
 10
21.104700
 20
24.808600
 30
0.0
 10
21.100000
 20
25.000000
 30
0.0
 10
21.104700
 20
25.191400
 30
0.0
 10
21.118800
 20
25.382300
 30
0.0
 10
21.142200
 20
25.572300
 30
0.0
 10
21.174900
 20
25.760900
 30
0.0
 10
21.216900
 20
25.947600
 30
0.0
 10
21.267900
 20
26.132100
 30
0.0
 10
21.328000
 20
26.313900
 30
0.0
 10
21.396900
 20
26.492500
 30
0.0
 10
21.474400
 20
26.667500
 30
0.0
 10
21.560500
 20
26.838500
 30
0.0
 10
21.654800
 20
27.005000
 30
0.0
 10
21.757300
 20
27.166700
 30
0.0
 10
21.867500
 20
27.323200
 30
0.0
 10
21.985300
 20
27.474100
 30
0.0
 10
22.110300
 20
27.619100
 30
0.0
 10
22.242300
 20
27.757700
 30
0.0
 10
22.380900
 20
27.889700
 30
0.0
 10
22.525900
 20
28.014700
 30
0.0
 10
22.676800
 20
28.132500
 30
0.0
 10
22.833300
 20
28.242700
 30
0.0
 10
22.995000
 20
28.345200
 30
0.0
 10
23.161500
 20
28.439500
 30
0.0
 10
23.332500
 20
28.525600
 30
0.0
 10
23.507500
 20
28.603100
 30
0.0
 10
23.686100
 20
28.672000
 30
0.0
 10
23.867900
 20
28.732100
 30
0.0
 10
24.052400
 20
28.783100
 30
0.0
 10
24.239100
 20
28.825100
 30
0.0
 10
24.427700
 20
28.857800
 30
0.0
 10
24.617700
 20
28.881200
 30
0.0
 10
24.808600
 20
28.895300
 30
0.0
 10
25.000000
 20
28.900000
 30
0.0
 10
25.191400
 20
28.895300
 30
0.0
 10
25.382300
 20
28.881200
 30
0.0
 10
25.572200
 20
28.857800
 30
0.0
 10
25.760800
 20
28.825100
 30
0.0
 10
25.947600
 20
28.783100
 30
0.0
 10
26.132100
 20
28.732100
 30
0.0
 10
26.313900
 20
28.672000
 30
0.0
 10
26.492500
 20
28.603100
 30
0.0
 10
26.667500
 20
28.525600
 30
0.0
 10
26.838400
 20
28.439500
 30
0.0
 10
27.005000
 20
28.345200
 30
0.0
 10
27.166700
 20
28.242700
 30
0.0
 10
27.323200
 20
28.132500
 30
0.0
 10
27.474100
 20
28.014700
 30
0.0
 10
27.619100
 20
27.889700
 30
0.0
 10
27.757700
 20
27.757700
 30
0.0
 10
27.889700
 20
27.619100
 30
0.0
 10
28.014700
 20
27.474100
 30
0.0
 10
28.132500
 20
27.323200
 30
0.0
 10
28.242700
 20
27.166700
 30
0.0
 10
28.345100
 20
27.005000
 30
0.0
 10
28.439500
 20
26.838500
 30
0.0
 10
28.525600
 20
26.667500
 30
0.0
 10
28.603100
 20
26.492500
 30
0.0
 10
28.672000
 20
26.313900
 30
0.0
 10
28.732100
 20
26.132100
 30
0.0
 10
28.783100
 20
25.947600
 30
0.0
 10
28.825100
 20
25.760900
 30
0.0
 10
28.857800
 20
25.572300
 30
0.0
 10
28.881200
 20
25.382300
 30
0.0
 10
28.895300
 20
25.191400
 30
0.0
 10
28.900000
 20
25.000000
 30
0.0
 10
28.895300
 20
24.808600
 30
0.0
 10
28.881200
 20
24.617700
 30
0.0
 10
28.857800
 20
24.427800
 30
0.0
 10
28.825100
 20
24.239200
 30
0.0
 10
28.783100
 20
24.052400
 30
0.0
 10
28.732100
 20
23.867900
 30
0.0
 10
28.672000
 20
23.686100
 30
0.0
 10
28.603100
 20
23.507500
 30
0.0
 10
28.525600
 20
23.332500
 30
0.0
 10
28.439500
 20
23.161600
 30
0.0
 10
28.345100
 20
22.995000
 30
0.0
 10
28.242700
 20
22.833300
 30
0.0
 10
28.132500
 20
22.676800
 30
0.0
 10
28.014700
 20
22.525900
 30
0.0
 10
27.889700
 20
22.380900
 30
0.0
 10
27.757700
 20
22.242300
 30
0.0
 10
27.619100
 20
22.110300
 30
0.0
 10
27.474100
 20
21.985300
 30
0.0
 10
27.323200
 20
21.867500
 30
0.0
 10
27.166700
 20
21.757300
 30
0.0
 10
27.005000
 20
21.654900
 30
0.0
 10
26.838400
 20
21.560500
 30
0.0
 10
26.667500
 20
21.474400
 30
0.0
 10
26.492500
 20
21.396900
 30
0.0
 10
26.313900
 20
21.328000
 30
0.0
 10
26.132100
 20
21.267900
 30
0.0
 10
25.947600
 20
21.216900
 30
0.0
 10
25.760800
 20
21.174900
 30
0.0
 10
25.572200
 20
21.142200
 30
0.0
 10
25.382300
 20
21.118800
 30
0.0
 10
25.191400
 20
21.104700
 30
0.0
 10
25.000000
 20
21.100000
 30
0.0
  0
LWPOLYLINE
  5
107
100
AcDbEntity
  8
0
 62
7
100
AcDbPolyline
 90
128
 70
1
 10
-67.115100
 20
17.721200
 30
0.0
 10
-67.329700
 20
17.737100
 30
0.0
 10
-67.543300
 20
17.763400
 30
0.0
 10
-67.755300
 20
17.800200
 30
0.0
 10
-67.965200
 20
17.847300
 30
0.0
 10
-68.172600
 20
17.904700
 30
0.0
 10
-68.376900
 20
17.972200
 30
0.0
 10
-68.577700
 20
18.049700
 30
0.0
 10
-68.774400
 20
18.136900
 30
0.0
 10
-68.966600
 20
18.233600
 30
0.0
 10
-69.153900
 20
18.339700
 30
0.0
 10
-69.335600
 20
18.454800
 30
0.0
 10
-69.511600
 20
18.578700
 30
0.0
 10
-69.681200
 20
18.711100
 30
0.0
 10
-69.844100
 20
18.851600
 30
0.0
 10
-70.000000
 20
19.000000
 30
0.0
 10
-70.148400
 20
19.155900
 30
0.0
 10
-70.288900
 20
19.318800
 30
0.0
 10
-70.421300
 20
19.488400
 30
0.0
 10
-70.545200
 20
19.664400
 30
0.0
 10
-70.660300
 20
19.846100
 30
0.0
 10
-70.766400
 20
20.033400
 30
0.0
 10
-70.863100
 20
20.225600
 30
0.0
 10
-70.950300
 20
20.422300
 30
0.0
 10
-71.027800
 20
20.623100
 30
0.0
 10
-71.095300
 20
20.827400
 30
0.0
 10
-71.152700
 20
21.034800
 30
0.0
 10
-71.199800
 20
21.244700
 30
0.0
 10
-71.236600
 20
21.456700
 30
0.0
 10
-71.263000
 20
21.670300
 30
0.0
 10
-71.278800
 20
21.884900
 30
0.0
 10
-71.284100
 20
22.100000
 30
0.0
 10
-71.278800
 20
22.315100
 30
0.0
 10
-71.263000
 20
22.529700
 30
0.0
 10
-71.236600
 20
22.743300
 30
0.0
 10
-71.199800
 20
22.955300
 30
0.0
 10
-71.152700
 20
23.165300
 30
0.0
 10
-71.095300
 20
23.372600
 30
0.0
 10
-71.027800
 20
23.577000
 30
0.0
 10
-70.950300
 20
23.777700
 30
0.0
 10
-70.863100
 20
23.974400
 30
0.0
 10
-70.766400
 20
24.166600
 30
0.0
 10
-70.660300
 20
24.353900
 30
0.0
 10
-70.545200
 20
24.535700
 30
0.0
 10
-70.421300
 20
24.711600
 30
0.0
 10
-70.288900
 20
24.881200
 30
0.0
 10
-70.148400
 20
25.044200
 30
0.0
 10
-70.000000
 20
25.200000
 30
0.0
 10
-69.844100
 20
25.348400
 30
0.0
 10
-69.681200
 20
25.488900
 30
0.0
 10
-69.511600
 20
25.621300
 30
0.0
 10
-69.335600
 20
25.745200
 30
0.0
 10
-69.153900
 20
25.860300
 30
0.0
 10
-68.966600
 20
25.966400
 30
0.0
 10
-68.774400
 20
26.063200
 30
0.0
 10
-68.577700
 20
26.150300
 30
0.0
 10
-68.376900
 20
26.227800
 30
0.0
 10
-68.172600
 20
26.295300
 30
0.0
 10
-67.965200
 20
26.352700
 30
0.0
 10
-67.755300
 20
26.399800
 30
0.0
 10
-67.543300
 20
26.436600
 30
0.0
 10
-67.329700
 20
26.463000
 30
0.0
 10
-67.115100
 20
26.478800
 30
0.0
 10
-66.900000
 20
26.484100
 30
0.0
 10
-66.684900
 20
26.478800
 30
0.0
 10
-66.470300
 20
26.463000
 30
0.0
 10
-66.256700
 20
26.436600
 30
0.0
 10
-66.044700
 20
26.399800
 30
0.0
 10
-65.834800
 20
26.352700
 30
0.0
 10
-65.627400
 20
26.295300
 30
0.0
 10
-65.423000
 20
26.227800
 30
0.0
 10
-65.222300
 20
26.150300
 30
0.0
 10
-65.025600
 20
26.063200
 30
0.0
 10
-64.833400
 20
25.966400
 30
0.0
 10
-64.646100
 20
25.860300
 30
0.0
 10
-64.464300
 20
25.745200
 30
0.0
 10
-64.288400
 20
25.621300
 30
0.0
 10
-64.118800
 20
25.488900
 30
0.0
 10
-63.955800
 20
25.348400
 30
0.0
 10
-63.800000
 20
25.200000
 30
0.0
 10
-63.651600
 20
25.044200
 30
0.0
 10
-63.511100
 20
24.881200
 30
0.0
 10
-63.378700
 20
24.711600
 30
0.0
 10
-63.254800
 20
24.535700
 30
0.0
 10
-63.139700
 20
24.353900
 30
0.0
 10
-63.033600
 20
24.166600
 30
0.0
 10
-62.936800
 20
23.974400
 30
0.0
 10
-62.849700
 20
23.777700
 30
0.0
 10
-62.772200
 20
23.577000
 30
0.0
 10
-62.704700
 20
23.372600
 30
0.0
 10
-62.647300
 20
23.165300
 30
0.0
 10
-62.600200
 20
22.955300
 30
0.0
 10
-62.563400
 20
22.743300
 30
0.0
 10
-62.537000
 20
22.529700
 30
0.0
 10
-62.521200
 20
22.315100
 30
0.0
 10
-62.515900
 20
22.100000
 30
0.0
 10
-62.521200
 20
21.884900
 30
0.0
 10
-62.537000
 20
21.670300
 30
0.0
 10
-62.563400
 20
21.456700
 30
0.0
 10
-62.600200
 20
21.244700
 30
0.0
 10
-62.647300
 20
21.034800
 30
0.0
 10
-62.704700
 20
20.827400
 30
0.0
 10
-62.772200
 20
20.623100
 30
0.0
 10
-62.849700
 20
20.422300
 30
0.0
 10
-62.936800
 20
20.225600
 30
0.0
 10
-63.033600
 20
20.033400
 30
0.0
 10
-63.139700
 20
19.846100
 30
0.0
 10
-63.254800
 20
19.664400
 30
0.0
 10
-63.378700
 20
19.488400
 30
0.0
 10
-63.511100
 20
19.318800
 30
0.0
 10
-63.651600
 20
19.155900
 30
0.0
 10
-63.800000
 20
19.000000
 30
0.0
 10
-63.955800
 20
18.851600
 30
0.0
 10
-64.118800
 20
18.711100
 30
0.0
 10
-64.288400
 20
18.578700
 30
0.0
 10
-64.464300
 20
18.454800
 30
0.0
 10
-64.646100
 20
18.339700
 30
0.0
 10
-64.833400
 20
18.233600
 30
0.0
 10
-65.025600
 20
18.136900
 30
0.0
 10
-65.222300
 20
18.049700
 30
0.0
 10
-65.423000
 20
17.972200
 30
0.0
 10
-65.627400
 20
17.904700
 30
0.0
 10
-65.834800
 20
17.847300
 30
0.0
 10
-66.044700
 20
17.800200
 30
0.0
 10
-66.256700
 20
17.763400
 30
0.0
 10
-66.470300
 20
17.737100
 30
0.0
 10
-66.684900
 20
17.721200
 30
0.0
 10
-66.900000
 20
17.715900
 30
0.0
  0
LWPOLYLINE
  5
108
100
AcDbEntity
  8
0
 62
7
100
AcDbPolyline
 90
69
 70
1
 10
58.724700
 20
61.323700
 30
0.0
 10
59.062400
 20
61.348600
 30
0.0
 10
59.398500
 20
61.390100
 30
0.0
 10
59.732200
 20
61.448000
 30
0.0
 10
60.062700
 20
61.522200
 30
0.0
 10
60.389100
 20
61.612500
 30
0.0
 10
60.710600
 20
61.718700
 30
0.0
 10
61.026600
 20
61.840600
 30
0.0
 10
61.336200
 20
61.977900
 30
0.0
 10
61.638700
 20
62.130200
 30
0.0
 10
61.933400
 20
62.297100
 30
0.0
 10
62.219500
 20
62.478300
 30
0.0
 10
62.496400
 20
62.673300
 30
0.0
 10
62.763400
 20
62.881600
 30
0.0
 10
63.019900
 20
63.102800
 30
0.0
 10
63.265100
 20
63.336400
 30
0.0
 10
63.498700
 20
63.581600
 30
0.0
 10
63.719900
 20
63.838100
 30
0.0
 10
63.928200
 20
64.105100
 30
0.0
 10
64.123200
 20
64.382000
 30
0.0
 10
64.304400
 20
64.668100
 30
0.0
 10
64.471400
 20
64.962800
 30
0.0
 10
64.623600
 20
65.265300
 30
0.0
 10
64.760900
 20
65.574900
 30
0.0
 10
64.882800
 20
65.890900
 30
0.0
 10
64.989000
 20
66.212400
 30
0.0
 10
65.079300
 20
66.538800
 30
0.0
 10
65.153500
 20
66.869300
 30
0.0
 10
65.211400
 20
67.203000
 30
0.0
 10
65.252900
 20
67.539100
 30
0.0
 10
65.277800
 20
67.876800
 30
0.0
 10
65.285800
 20
68.215400
 30
0.0
 10
65.285800
 20
93.115400
 30
0.0
 10
68.285800
 20
96.115400
 30
0.0
 10
65.285800
 20
99.115400
 30
0.0
 10
51.485800
 20
99.115400
 30
0.0
 10
51.485800
 20
68.215400
 30
0.0
 10
51.493800
 20
67.876800
 30
0.0
 10
51.518700
 20
67.539100
 30
0.0
 10
51.560200
 20
67.203000
 30
0.0
 10
51.618100
 20
66.869300
 30
0.0
 10
51.692300
 20
66.538800
 30
0.0
 10
51.782600
 20
66.212400
 30
0.0
 10
51.888800
 20
65.890900
 30
0.0
 10
52.010700
 20
65.574900
 30
0.0
 10
52.148000
 20
65.265300
 30
0.0
 10
52.300200
 20
64.962800
 30
0.0
 10
52.467200
 20
64.668100
 30
0.0
 10
52.648400
 20
64.382000
 30
0.0
 10
52.843400
 20
64.105100
 30
0.0
 10
53.051700
 20
63.838100
 30
0.0
 10
53.272900
 20
63.581600
 30
0.0
 10
53.506500
 20
63.336400
 30
0.0
 10
53.751700
 20
63.102800
 30
0.0
 10
54.008200
 20
62.881600
 30
0.0
 10
54.275200
 20
62.673300
 30
0.0
 10
54.552100
 20
62.478300
 30
0.0
 10
54.838200
 20
62.297100
 30
0.0
 10
55.132900
 20
62.130200
 30
0.0
 10
55.435400
 20
61.977900
 30
0.0
 10
55.745000
 20
61.840600
 30
0.0
 10
56.061000
 20
61.718700
 30
0.0
 10
56.382500
 20
61.612500
 30
0.0
 10
56.708900
 20
61.522200
 30
0.0
 10
57.039400
 20
61.448000
 30
0.0
 10
57.373100
 20
61.390100
 30
0.0
 10
57.709200
 20
61.348600
 30
0.0
 10
58.046900
 20
61.323700
 30
0.0
 10
58.385500
 20
61.315400
 30
0.0
  0
LWPOLYLINE
  5
109
100
AcDbEntity
  8
0
 62
7
100
AcDbPolyline
 90
4
 70
1
 10
55.286100
 20
65.115400
 30
0.0
 10
55.286100
 20
71.315400
 30
0.0
 10
61.486100
 20
71.315400
 30
0.0
 10
61.486100
 20
65.115400
 30
0.0
  0
LWPOLYLINE
  5
10a
100
AcDbEntity
  8
0
 62
7
100
AcDbPolyline
 90
17
 70
1
 10
-54.460600
 20
79.047000
 30
0.0
 10
-4.537040
 20
79.047000
 30
0.0
 10
-4.533040
 20
79.102900
 30
0.0
 10
-4.532640
 20
79.118900
 30
0.0
 10
-7.460740
 20
82.047000
 30
0.0
 10
-4.532640
 20
84.975100
 30
0.0
 10
-4.533040
 20
84.991000
 30
0.0
 10
-4.684640
 20
87.047000
 30
0.0
 10
-124.237000
 20
87.047000
 30
0.0
 10
-124.383000
 20
85.062000
 30
0.0
 10
-116.162000
 20
78.027400
 30
0.0
 10
-123.190000
 20
69.815600
 30
0.0
 10
-123.158000
 20
69.672700
 30
0.0
 10
-119.597000
 20
67.591400
 30
0.0
 10
-121.679000
 20
64.030200
 30
0.0
 10
-121.024000
 20
62.047000
 30
0.0
 10
-54.460600
 20
62.047000
 30
0.0
  0
LWPOLYLINE
  5
10b
100
AcDbEntity
  8
0
 62
7
100
AcDbPolyline
 90
128
 70
1
 10
-64.602900
 20
79.150500
 30
0.0
 10
-64.744900
 20
79.161000
 30
0.0
 10
-64.886100
 20
79.178400
 30
0.0
 10
-65.026400
 20
79.202700
 30
0.0
 10
-65.165300
 20
79.233900
 30
0.0
 10
-65.302400
 20
79.271900
 30
0.0
 10
-65.437600
 20
79.316500
 30
0.0
 10
-65.570400
 20
79.367700
 30
0.0
 10
-65.700500
 20
79.425400
 30
0.0
 10
-65.827700
 20
79.489400
 30
0.0
 10
-65.951500
 20
79.559600
 30
0.0
 10
-66.071800
 20
79.635700
 30
0.0
 10
-66.188200
 20
79.717700
 30
0.0
 10
-66.300400
 20
79.805300
 30
0.0
 10
-66.408100
 20
79.898200
 30
0.0
 10
-66.511200
 20
79.996400
 30
0.0
 10
-66.609400
 20
80.099500
 30
0.0
 10
-66.702400
 20
80.207200
 30
0.0
 10
-66.789900
 20
80.319500
 30
0.0
 10
-66.871900
 20
80.435800
 30
0.0
 10
-66.948000
 20
80.556100
 30
0.0
 10
-67.018200
 20
80.679900
 30
0.0
 10
-67.082200
 20
80.807100
 30
0.0
 10
-67.139900
 20
80.937200
 30
0.0
 10
-67.191100
 20
81.070000
 30
0.0
 10
-67.235800
 20
81.205200
 30
0.0
 10
-67.273700
 20
81.342400
 30
0.0
 10
-67.304900
 20
81.481200
 30
0.0
 10
-67.329200
 20
81.621500
 30
0.0
 10
-67.346700
 20
81.762700
 30
0.0
 10
-67.357100
 20
81.904700
 30
0.0
 10
-67.360600
 20
82.047000
 30
0.0
 10
-67.357100
 20
82.189300
 30
0.0
 10
-67.346700
 20
82.331200
 30
0.0
 10
-67.329200
 20
82.472500
 30
0.0
 10
-67.304900
 20
82.612700
 30
0.0
 10
-67.273700
 20
82.751600
 30
0.0
 10
-67.235800
 20
82.888800
 30
0.0
 10
-67.191100
 20
83.024000
 30
0.0
 10
-67.139900
 20
83.156800
 30
0.0
 10
-67.082200
 20
83.286900
 30
0.0
 10
-67.018200
 20
83.414000
 30
0.0
 10
-66.948000
 20
83.537900
 30
0.0
 10
-66.871900
 20
83.658100
 30
0.0
 10
-66.789900
 20
83.774500
 30
0.0
 10
-66.702400
 20
83.886700
 30
0.0
 10
-66.609400
 20
83.994500
 30
0.0
 10
-66.511200
 20
84.097600
 30
0.0
 10
-66.408100
 20
84.195700
 30
0.0
 10
-66.300400
 20
84.288700
 30
0.0
 10
-66.188200
 20
84.376300
 30
0.0
 10
-66.071800
 20
84.458200
 30
0.0
 10
-65.951500
 20
84.534400
 30
0.0
 10
-65.827700
 20
84.604600
 30
0.0
 10
-65.700500
 20
84.668600
 30
0.0
 10
-65.570400
 20
84.726200
 30
0.0
 10
-65.437600
 20
84.777500
 30
0.0
 10
-65.302400
 20
84.822100
 30
0.0
 10
-65.165300
 20
84.860100
 30
0.0
 10
-65.026400
 20
84.891300
 30
0.0
 10
-64.886100
 20
84.915600
 30
0.0
 10
-64.744900
 20
84.933000
 30
0.0
 10
-64.602900
 20
84.943500
 30
0.0
 10
-64.460600
 20
84.947000
 30
0.0
 10
-64.318300
 20
84.943500
 30
0.0
 10
-64.176400
 20
84.933000
 30
0.0
 10
-64.035100
 20
84.915600
 30
0.0
 10
-63.894900
 20
84.891300
 30
0.0
 10
-63.756000
 20
84.860100
 30
0.0
 10
-63.618800
 20
84.822100
 30
0.0
 10
-63.483700
 20
84.777500
 30
0.0
 10
-63.350900
 20
84.726200
 30
0.0
 10
-63.220700
 20
84.668600
 30
0.0
 10
-63.093600
 20
84.604600
 30
0.0
 10
-62.969700
 20
84.534400
 30
0.0
 10
-62.849500
 20
84.458200
 30
0.0
 10
-62.733100
 20
84.376300
 30
0.0
 10
-62.620900
 20
84.288700
 30
0.0
 10
-62.513100
 20
84.195700
 30
0.0
 10
-62.410000
 20
84.097600
 30
0.0
 10
-62.311900
 20
83.994500
 30
0.0
 10
-62.218900
 20
83.886700
 30
0.0
 10
-62.131300
 20
83.774500
 30
0.0
 10
-62.049400
 20
83.658100
 30
0.0
 10
-61.973200
 20
83.537900
 30
0.0
 10
-61.903100
 20
83.414000
 30
0.0
 10
-61.839100
 20
83.286900
 30
0.0
 10
-61.781400
 20
83.156800
 30
0.0
 10
-61.730200
 20
83.024000
 30
0.0
 10
-61.685500
 20
82.888800
 30
0.0
 10
-61.647600
 20
82.751600
 30
0.0
 10
-61.616400
 20
82.612700
 30
0.0
 10
-61.592000
 20
82.472500
 30
0.0
 10
-61.574600
 20
82.331200
 30
0.0
 10
-61.564100
 20
82.189300
 30
0.0
 10
-61.560600
 20
82.047000
 30
0.0
 10
-61.564100
 20
81.904700
 30
0.0
 10
-61.574600
 20
81.762700
 30
0.0
 10
-61.592000
 20
81.621500
 30
0.0
 10
-61.616400
 20
81.481200
 30
0.0
 10
-61.647600
 20
81.342400
 30
0.0
 10
-61.685500
 20
81.205200
 30
0.0
 10
-61.730200
 20
81.070000
 30
0.0
 10
-61.781400
 20
80.937200
 30
0.0
 10
-61.839100
 20
80.807100
 30
0.0
 10
-61.903100
 20
80.679900
 30
0.0
 10
-61.973200
 20
80.556100
 30
0.0
 10
-62.049400
 20
80.435800
 30
0.0
 10
-62.131300
 20
80.319500
 30
0.0
 10
-62.218900
 20
80.207200
 30
0.0
 10
-62.311900
 20
80.099500
 30
0.0
 10
-62.410000
 20
79.996400
 30
0.0
 10
-62.513100
 20
79.898200
 30
0.0
 10
-62.620900
 20
79.805300
 30
0.0
 10
-62.733100
 20
79.717700
 30
0.0
 10
-62.849500
 20
79.635700
 30
0.0
 10
-62.969700
 20
79.559600
 30
0.0
 10
-63.093600
 20
79.489400
 30
0.0
 10
-63.220700
 20
79.425400
 30
0.0
 10
-63.350900
 20
79.367700
 30
0.0
 10
-63.483700
 20
79.316500
 30
0.0
 10
-63.618800
 20
79.271900
 30
0.0
 10
-63.756000
 20
79.233900
 30
0.0
 10
-63.894900
 20
79.202700
 30
0.0
 10
-64.035100
 20
79.178400
 30
0.0
 10
-64.176400
 20
79.161000
 30
0.0
 10
-64.318300
 20
79.150500
 30
0.0
 10
-64.460600
 20
79.147000
 30
0.0
  0
LWPOLYLINE
  5
10c
100
AcDbEntity
  8
0
 62
7
100
AcDbPolyline
 90
71
 70
1
 10
50.651300
 20
64.536500
 30
0.0
 10
47.651300
 20
67.536500
 30
0.0
 10
47.651300
 20
80.536500
 30
0.0
 10
47.645300
 20
80.776900
 30
0.0
 10
47.627600
 20
81.016800
 30
0.0
 10
47.598200
 20
81.255500
 30
0.0
 10
47.557000
 20
81.492400
 30
0.0
 10
47.504400
 20
81.727100
 30
0.0
 10
47.440200
 20
81.958900
 30
0.0
 10
47.364800
 20
82.187300
 30
0.0
 10
47.278200
 20
82.411600
 30
0.0
 10
47.180700
 20
82.631500
 30
0.0
 10
47.072600
 20
82.846300
 30
0.0
 10
46.954100
 20
83.055600
 30
0.0
 10
46.825400
 20
83.258800
 30
0.0
 10
46.686900
 20
83.455400
 30
0.0
 10
46.538900
 20
83.645000
 30
0.0
 10
46.381900
 20
83.827100
 30
0.0
 10
46.216000
 20
84.001300
 30
0.0
 10
46.041800
 20
84.167200
 30
0.0
 10
45.859700
 20
84.324300
 30
0.0
 10
45.670100
 20
84.472200
 30
0.0
 10
45.473500
 20
84.610700
 30
0.0
 10
45.270300
 20
84.739400
 30
0.0
 10
45.061000
 20
84.857900
 30
0.0
 10
44.846200
 20
84.966000
 30
0.0
 10
44.626300
 20
85.063500
 30
0.0
 10
44.402000
 20
85.150100
 30
0.0
 10
44.173600
 20
85.225500
 30
0.0
 10
43.941800
 20
85.289600
 30
0.0
 10
43.707100
 20
85.342300
 30
0.0
 10
43.470200
 20
85.383500
 30
0.0
 10
43.231500
 20
85.412900
 30
0.0
 10
42.991600
 20
85.430600
 30
0.0
 10
42.751200
 20
85.436500
 30
0.0
 10
42.510800
 20
85.430600
 30
0.0
 10
42.270900
 20
85.412900
 30
0.0
 10
42.032200
 20
85.383500
 30
0.0
 10
41.795200
 20
85.342300
 30
0.0
 10
41.560600
 20
85.289600
 30
0.0
 10
41.328800
 20
85.225500
 30
0.0
 10
41.100400
 20
85.150100
 30
0.0
 10
40.876000
 20
85.063500
 30
0.0
 10
40.656200
 20
84.966000
 30
0.0
 10
40.441300
 20
84.857900
 30
0.0
 10
40.232100
 20
84.739400
 30
0.0
 10
40.028900
 20
84.610700
 30
0.0
 10
39.832300
 20
84.472200
 30
0.0
 10
39.642700
 20
84.324300
 30
0.0
 10
39.460600
 20
84.167200
 30
0.0
 10
39.286400
 20
84.001300
 30
0.0
 10
39.120500
 20
83.827100
 30
0.0
 10
38.963400
 20
83.645000
 30
0.0
 10
38.815500
 20
83.455400
 30
0.0
 10
38.677000
 20
83.258800
 30
0.0
 10
38.548300
 20
83.055600
 30
0.0
 10
38.429800
 20
82.846300
 30
0.0
 10
38.321600
 20
82.631500
 30
0.0
 10
38.224200
 20
82.411600
 30
0.0
 10
38.137600
 20
82.187300
 30
0.0
 10
38.062200
 20
81.958900
 30
0.0
 10
37.998000
 20
81.727100
 30
0.0
 10
37.945300
 20
81.492400
 30
0.0
 10
37.904200
 20
81.255500
 30
0.0
 10
37.874800
 20
81.016800
 30
0.0
 10
37.857100
 20
80.776900
 30
0.0
 10
37.851100
 20
80.536500
 30
0.0
 10
37.851100
 20
67.536500
 30
0.0
 10
34.851100
 20
64.536500
 30
0.0
 10
37.851100
 20
61.536500
 30
0.0
 10
47.651100
 20
61.536500
 30
0.0
  0
LWPOLYLINE
  5
10d
100
AcDbEntity
  8
0
 62
7
100
AcDbPolyline
 90
128
 70
1
 10
42.609000
 20
77.640000
 30
0.0
 10
42.467100
 20
77.650500
 30
0.0
 10
42.325800
 20
77.667900
 30
0.0
 10
42.185500
 20
77.692200
 30
0.0
 10
42.046700
 20
77.723400
 30
0.0
 10
41.909500
 20
77.761400
 30
0.0
 10
41.774300
 20
77.806000
 30
0.0
 10
41.641500
 20
77.857200
 30
0.0
 10
41.511400
 20
77.914900
 30
0.0
 10
41.384200
 20
77.978900
 30
0.0
 10
41.260400
 20
78.049100
 30
0.0
 10
41.140100
 20
78.125200
 30
0.0
 10
41.023800
 20
78.207200
 30
0.0
 10
40.911600
 20
78.294800
 30
0.0
 10
40.803800
 20
78.387700
 30
0.0
 10
40.700700
 20
78.485900
 30
0.0
 10
40.602500
 20
78.589000
 30
0.0
 10
40.509600
 20
78.696700
 30
0.0
 10
40.422000
 20
78.809000
 30
0.0
 10
40.340000
 20
78.925300
 30
0.0
 10
40.263900
 20
79.045600
 30
0.0
 10
40.193700
 20
79.169400
 30
0.0
 10
40.129700
 20
79.296600
 30
0.0
 10
40.072000
 20
79.426700
 30
0.0
 10
40.020800
 20
79.559500
 30
0.0
 10
39.976200
 20
79.694700
 30
0.0
 10
39.938200
 20
79.831800
 30
0.0
 10
39.907000
 20
79.970700
 30
0.0
 10
39.882700
 20
80.111000
 30
0.0
 10
39.865300
 20
80.252200
 30
0.0
 10
39.854800
 20
80.394200
 30
0.0
 10
39.850800
 20
80.536500
 30
0.0
 10
39.854800
 20
80.678800
 30
0.0
 10
39.865300
 20
80.820700
 30
0.0
 10
39.882700
 20
80.962000
 30
0.0
 10
39.907000
 20
81.102300
 30
0.0
 10
39.938200
 20
81.241100
 30
0.0
 10
39.976200
 20
81.378300
 30
0.0
 10
40.020800
 20
81.513500
 30
0.0
 10
40.072000
 20
81.646300
 30
0.0
 10
40.129700
 20
81.776400
 30
0.0
 10
40.193700
 20
81.903600
 30
0.0
 10
40.263900
 20
82.027400
 30
0.0
 10
40.340000
 20
82.147600
 30
0.0
 10
40.422000
 20
82.264000
 30
0.0
 10
40.509600
 20
82.376200
 30
0.0
 10
40.602500
 20
82.484000
 30
0.0
 10
40.700700
 20
82.587100
 30
0.0
 10
40.803800
 20
82.685300
 30
0.0
 10
40.911600
 20
82.778200
 30
0.0
 10
41.023800
 20
82.865800
 30
0.0
 10
41.140100
 20
82.947800
 30
0.0
 10
41.260400
 20
83.023900
 30
0.0
 10
41.384200
 20
83.094100
 30
0.0
 10
41.511400
 20
83.158100
 30
0.0
 10
41.641500
 20
83.215700
 30
0.0
 10
41.774300
 20
83.267000
 30
0.0
 10
41.909500
 20
83.311600
 30
0.0
 10
42.046700
 20
83.349600
 30
0.0
 10
42.185500
 20
83.380800
 30
0.0
 10
42.325800
 20
83.405100
 30
0.0
 10
42.467100
 20
83.422500
 30
0.0
 10
42.609000
 20
83.433000
 30
0.0
 10
42.751300
 20
83.436500
 30
0.0
 10
42.893600
 20
83.433000
 30
0.0
 10
43.035500
 20
83.422500
 30
0.0
 10
43.176800
 20
83.405100
 30
0.0
 10
43.317100
 20
83.380800
 30
0.0
 10
43.455900
 20
83.349600
 30
0.0
 10
43.593100
 20
83.311600
 30
0.0
 10
43.728300
 20
83.267000
 30
0.0
 10
43.861100
 20
83.215700
 30
0.0
 10
43.991200
 20
83.158100
 30
0.0
 10
44.118300
 20
83.094100
 30
0.0
 10
44.242200
 20
83.023900
 30
0.0
 10
44.362500
 20
82.947800
 30
0.0
 10
44.478800
 20
82.865800
 30
0.0
 10
44.591000
 20
82.778200
 30
0.0
 10
44.698800
 20
82.685300
 30
0.0
 10
44.801900
 20
82.587100
 30
0.0
 10
44.900100
 20
82.484000
 30
0.0
 10
44.993000
 20
82.376200
 30
0.0
 10
45.080600
 20
82.264000
 30
0.0
 10
45.162600
 20
82.147600
 30
0.0
 10
45.238700
 20
82.027400
 30
0.0
 10
45.308900
 20
81.903600
 30
0.0
 10
45.372900
 20
81.776400
 30
0.0
 10
45.430600
 20
81.646300
 30
0.0
 10
45.481800
 20
81.513500
 30
0.0
 10
45.526400
 20
81.378300
 30
0.0
 10
45.564400
 20
81.241100
 30
0.0
 10
45.595600
 20
81.102300
 30
0.0
 10
45.619900
 20
80.962000
 30
0.0
 10
45.637300
 20
80.820700
 30
0.0
 10
45.647800
 20
80.678800
 30
0.0
 10
45.651800
 20
80.536500
 30
0.0
 10
45.647800
 20
80.394200
 30
0.0
 10
45.637300
 20
80.252200
 30
0.0
 10
45.619900
 20
80.111000
 30
0.0
 10
45.595600
 20
79.970700
 30
0.0
 10
45.564400
 20
79.831800
 30
0.0
 10
45.526400
 20
79.694700
 30
0.0
 10
45.481800
 20
79.559500
 30
0.0
 10
45.430600
 20
79.426700
 30
0.0
 10
45.372900
 20
79.296600
 30
0.0
 10
45.308900
 20
79.169400
 30
0.0
 10
45.238700
 20
79.045600
 30
0.0
 10
45.162600
 20
78.925300
 30
0.0
 10
45.080600
 20
78.809000
 30
0.0
 10
44.993000
 20
78.696700
 30
0.0
 10
44.900100
 20
78.589000
 30
0.0
 10
44.801900
 20
78.485900
 30
0.0
 10
44.698800
 20
78.387700
 30
0.0
 10
44.591000
 20
78.294800
 30
0.0
 10
44.478800
 20
78.207200
 30
0.0
 10
44.362500
 20
78.125200
 30
0.0
 10
44.242200
 20
78.049100
 30
0.0
 10
44.118300
 20
77.978900
 30
0.0
 10
43.991200
 20
77.914900
 30
0.0
 10
43.861100
 20
77.857200
 30
0.0
 10
43.728300
 20
77.806000
 30
0.0
 10
43.593100
 20
77.761400
 30
0.0
 10
43.455900
 20
77.723400
 30
0.0
 10
43.317100
 20
77.692200
 30
0.0
 10
43.176800
 20
77.667900
 30
0.0
 10
43.035500
 20
77.650500
 30
0.0
 10
42.893600
 20
77.640000
 30
0.0
 10
42.751300
 20
77.636500
 30
0.0
  0
LWPOLYLINE
  5
10e
100
AcDbEntity
  8
0
 62
7
100
AcDbPolyline
 90
126
 70
1
 10
17.464400
 20
61.452900
 30
0.0
 10
18.443300
 20
61.525100
 30
0.0
 10
19.417600
 20
61.645300
 30
0.0
 10
20.384800
 20
61.813100
 30
0.0
 10
21.342600
 20
62.028200
 30
0.0
 10
22.288700
 20
62.290000
 30
0.0
 10
23.220800
 20
62.597900
 30
0.0
 10
24.136700
 20
62.951200
 30
0.0
 10
25.034100
 20
63.349000
 30
0.0
 10
25.910900
 20
63.790400
 30
0.0
 10
26.765000
 20
64.274200
 30
0.0
 10
27.594000
 20
64.799400
 30
0.0
 10
28.397000
 20
65.364700
 30
0.0
 10
29.171000
 20
65.968600
 30
0.0
 10
29.914000
 20
66.609800
 30
0.0
 10
30.625000
 20
67.286700
 30
0.0
 10
31.302000
 20
67.997600
 30
0.0
 10
31.943000
 20
68.740900
 30
0.0
 10
32.547000
 20
69.514800
 30
0.0
 10
33.112000
 20
70.317400
 30
0.0
 10
33.638000
 20
71.146800
 30
0.0
 10
34.121000
 20
72.000900
 30
0.0
 10
34.563000
 20
72.877700
 30
0.0
 10
34.961000
 20
73.775100
 30
0.0
 10
35.314000
 20
74.691000
 30
0.0
 10
35.622000
 20
75.623100
 30
0.0
 10
35.884000
 20
76.569200
 30
0.0
 10
36.099000
 20
77.527000
 30
0.0
 10
36.267000
 20
78.494200
 30
0.0
 10
36.387000
 20
79.468500
 30
0.0
 10
36.459000
 20
80.447500
 30
0.0
 10
36.483000
 20
81.428800
 30
0.0
 10
36.459000
 20
82.410100
 30
0.0
 10
36.387000
 20
83.389100
 30
0.0
 10
36.267000
 20
84.363400
 30
0.0
 10
36.099000
 20
85.330600
 30
0.0
 10
35.884000
 20
86.288400
 30
0.0
 10
35.622000
 20
87.234500
 30
0.0
 10
35.314000
 20
88.166600
 30
0.0
 10
34.961000
 20
89.082500
 30
0.0
 10
34.563000
 20
89.979900
 30
0.0
 10
34.121000
 20
90.856700
 30
0.0
 10
33.638000
 20
91.710800
 30
0.0
 10
33.112000
 20
92.540200
 30
0.0
 10
32.547000
 20
93.342800
 30
0.0
 10
31.943000
 20
94.116700
 30
0.0
 10
31.302000
 20
94.860000
 30
0.0
 10
30.625000
 20
95.570900
 30
0.0
 10
29.914000
 20
96.247800
 30
0.0
 10
29.171000
 20
96.889000
 30
0.0
 10
28.397000
 20
97.492900
 30
0.0
 10
27.594000
 20
98.058200
 30
0.0
 10
26.765000
 20
98.583400
 30
0.0
 10
25.910900
 20
99.067200
 30
0.0
 10
25.034100
 20
99.508600
 30
0.0
 10
24.136700
 20
99.906400
 30
0.0
 10
23.220800
 20
100.259700
 30
0.0
 10
22.288700
 20
100.567600
 30
0.0
 10
21.342600
 20
100.829400
 30
0.0
 10
20.384800
 20
101.044500
 30
0.0
 10
19.417600
 20
101.212300
 30
0.0
 10
18.443300
 20
101.332500
 30
0.0
 10
17.464400
 20
101.404700
 30
0.0
 10
16.483000
 20
101.428800
 30
0.0
 10
15.501600
 20
101.404700
 30
0.0
 10
14.522700
 20
101.332500
 30
0.0
 10
13.548400
 20
101.212300
 30
0.0
 10
12.581200
 20
101.044500
 30
0.0
 10
11.623400
 20
100.829400
 30
0.0
 10
10.677300
 20
100.567600
 30
0.0
 10
9.745230
 20
100.259700
 30
0.0
 10
8.829330
 20
99.906400
 30
0.0
 10
7.931940
 20
99.508600
 30
0.0
 10
7.055130
 20
99.067200
 30
0.0
 10
6.200930
 20
98.583400
 30
0.0
 10
5.371630
 20
98.058200
 30
0.0
 10
4.569030
 20
97.492900
 30
0.0
 10
3.795130
 20
96.889000
 30
0.0
 10
3.051830
 20
96.247800
 30
0.0
 10
2.340930
 20
95.570900
 30
0.0
 10
1.664030
 20
94.860000
 30
0.0
 10
1.022830
 20
94.116700
 30
0.0
 10
0.418835
 20
93.342800
 30
0.0
 10
-0.146365
 20
92.540200
 30
0.0
 10
-0.671565
 20
91.710800
 30
0.0
 10
-1.155370
 20
90.856700
 30
0.0
 10
-1.596770
 20
89.979900
 30
0.0
 10
-1.994570
 20
89.082500
 30
0.0
 10
-2.347870
 20
88.166600
 30
0.0
 10
-2.655770
 20
87.234500
 30
0.0
 10
-2.917570
 20
86.288400
 30
0.0
 10
-3.132670
 20
85.330600
 30
0.0
 10
-3.300470
 20
84.363400
 30
0.0
 10
-3.317070
 20
84.228900
 30
0.0
 10
-0.516965
 20
81.428800
 30
0.0
 10
-3.317070
 20
78.628700
 30
0.0
 10
-3.300470
 20
78.494200
 30
0.0
 10
-3.132670
 20
77.527000
 30
0.0
 10
-2.917570
 20
76.569200
 30
0.0
 10
-2.655770
 20
75.623100
 30
0.0
 10
-2.347870
 20
74.691000
 30
0.0
 10
-1.994570
 20
73.775100
 30
0.0
 10
-1.596770
 20
72.877700
 30
0.0
 10
-1.155370
 20
72.000900
 30
0.0
 10
-0.671565
 20
71.146800
 30
0.0
 10
-0.146365
 20
70.317400
 30
0.0
 10
0.418835
 20
69.514800
 30
0.0
 10
1.022830
 20
68.740900
 30
0.0
 10
1.664030
 20
67.997600
 30
0.0
 10
2.340930
 20
67.286700
 30
0.0
 10
3.051830
 20
66.609800
 30
0.0
 10
3.795130
 20
65.968600
 30
0.0
 10
4.569030
 20
65.364700
 30
0.0
 10
5.371630
 20
64.799400
 30
0.0
 10
6.200930
 20
64.274200
 30
0.0
 10
7.055130
 20
63.790400
 30
0.0
 10
7.931940
 20
63.349000
 30
0.0
 10
8.829330
 20
62.951200
 30
0.0
 10
9.745230
 20
62.597900
 30
0.0
 10
10.677300
 20
62.290000
 30
0.0
 10
11.623400
 20
62.028200
 30
0.0
 10
12.581200
 20
61.813100
 30
0.0
 10
13.548400
 20
61.645300
 30
0.0
 10
14.522700
 20
61.525100
 30
0.0
 10
15.501600
 20
61.452900
 30
0.0
 10
16.483000
 20
61.428800
 30
0.0
  0
LWPOLYLINE
  5
10f
100
AcDbEntity
  8
0
 62
7
100
AcDbPolyline
 90
4
 70
1
 10
13.383000
 20
78.328800
 30
0.0
 10
13.383000
 20
84.528800
 30
0.0
 10
19.583000
 20
84.528800
 30
0.0
 10
19.583000
 20
78.328800
 30
0.0
  0
ENDSEC
  0
SECTION
  2
OBJECTS
  0
DICTIONARY
  5
C
330
0
100
AcDbDictionary
  3
ACAD_GROUP
350
D
  3
ACAD_MLINESTYLE
350
17
  0
DICTIONARY
  5
D
330
C
100
AcDbDictionary
  0
DICTIONARY
  5
1A
330
C
100
AcDbDictionary
  0
DICTIONARY
  5
17
330
C
100
AcDbDictionary
  3
STANDARD
350
18
  0
DICTIONARY
  5
19
330
C
100
AcDbDictionary
  0
ENDSEC
  0
EOF
