<?xml version="1.0" standalone="no"?>
<!DOCTYPE svg PUBLIC "-//W3C//DTD SVG 1.1//EN" "http://www.w3.org/Graphics/SVG/1.1/DTD/svg11.dtd">
<svg width="72mm" height="92mm" viewBox="-46 -46 72 92" xmlns="http://www.w3.org/2000/svg" version="1.1">
<title>OpenSCAD Model</title>
<path d="
M 0,25.4648 L 2.49597,25.3422 L 4.96793,24.9755 L 7.39203,24.3683 L 9.74495,23.5264 L 12.004,22.4579
 L 14.1475,21.1732 L 16.1547,19.6845 L 18.0063,18.0063 L 19.6845,16.1547 L 21.1732,14.1475 L 22.4579,12.004
 L 23.5264,9.74495 L 24.3683,7.39203 L 24.9755,4.96793 L 25.3422,2.49597 L 25.4648,-0 L 25.3422,-4.45631
 L 24.9755,-8.86974 L 24.3683,-13.1977 L 23.5264,-17.3986 L 22.4579,-21.4319 L 21.1732,-25.2589 L 19.6845,-28.8425
 L 18.0063,-32.1485 L 16.1547,-35.1448 L 14.1475,-37.8026 L 12.004,-40.0964 L 9.74495,-42.004 L 7.39203,-43.5071
 L 4.96793,-44.5912 L 2.49597,-45.2459 L 0,-45.4648 L -4.45631,-45.2459 L -8.86974,-44.5912 L -13.1977,-43.5071
 L -17.3986,-42.004 L -21.4319,-40.0964 L -25.2589,-37.8026 L -28.8425,-35.1448 L -32.1485,-32.1485 L -35.1448,-28.8425
 L -37.8026,-25.2589 L -40.0964,-21.4319 L -42.004,-17.3986 L -43.5071,-13.1977 L -44.5912,-8.86974 L -45.2459,-4.45631
 L -45.4648,-0 L -45.2459,4.45631 L -44.5912,8.86974 L -43.5071,13.1977 L -42.004,17.3986 L -40.0964,21.4319
 L -37.8026,25.2589 L -35.1448,28.8425 L -32.1485,32.1485 L -28.8425,35.1448 L -25.2589,37.8026 L -21.4319,40.0964
 L -17.3986,42.004 L -13.1977,43.5071 L -8.86974,44.5912 L -4.45631,45.2459 L 0,45.4648 z
M -2.5,2.5 L -2.5,-2.5 L 2.5,-2.5 L 2.5,2.5 z
" stroke="black" fill="lightgray" stroke-width="0.5"/>
</svg>
