<?xml version="1.0" standalone="no"?>
<!DOCTYPE svg PUBLIC "-//W3C//DTD SVG 1.1//EN" "http://www.w3.org/Graphics/SVG/1.1/DTD/svg11.dtd">
<svg width="16mm" height="24mm" viewBox="57 -21 16 24" xmlns="http://www.w3.org/2000/svg" version="1.1">
<title>OpenSCAD Model</title>
<path d="
M 72.8,-0 L 69.8,-3 L 69.8,-16 L 69.7941,-16.2404 L 69.7764,-16.4803 L 69.747,-16.719
 L 69.7058,-16.9559 L 69.6532,-17.1906 L 69.589,-17.4224 L 69.5136,-17.6508 L 69.427,-17.8751 L 69.3295,-18.095
 L 69.2214,-18.3098 L 69.1029,-18.5191 L 68.9742,-18.7223 L 68.8357,-18.9189 L 68.6877,-19.1085 L 68.5307,-19.2906
 L 68.3648,-19.4648 L 68.1906,-19.6307 L 68.0085,-19.7878 L 67.8189,-19.9357 L 67.6223,-20.0742 L 67.4191,-20.2029
 L 67.2098,-20.3214 L 66.995,-20.4295 L 66.7751,-20.527 L 66.5508,-20.6136 L 66.3224,-20.689 L 66.0906,-20.7531
 L 65.8559,-20.8058 L 65.619,-20.847 L 65.3803,-20.8764 L 65.1404,-20.8941 L 64.9,-20.9 L 64.6596,-20.8941
 L 64.4197,-20.8764 L 64.181,-20.847 L 63.944,-20.8058 L 63.7094,-20.7531 L 63.4776,-20.689 L 63.2492,-20.6136
 L 63.0248,-20.527 L 62.805,-20.4295 L 62.5901,-20.3214 L 62.3809,-20.2029 L 62.1777,-20.0742 L 61.9811,-19.9357
 L 61.7915,-19.7878 L 61.6094,-19.6307 L 61.4352,-19.4648 L 61.2693,-19.2906 L 61.1122,-19.1085 L 60.9643,-18.9189
 L 60.8258,-18.7223 L 60.6971,-18.5191 L 60.5786,-18.3098 L 60.4704,-18.095 L 60.373,-17.8751 L 60.2864,-17.6508
 L 60.211,-17.4224 L 60.1468,-17.1906 L 60.0941,-16.9559 L 60.053,-16.719 L 60.0236,-16.4803 L 60.0059,-16.2404
 L 60,-16 L 60,-3 L 57,-0 L 60,3 L 69.8,3 z
M 64.7577,-13.1035 L 64.6158,-13.114 L 64.4745,-13.1314 L 64.3342,-13.1557 L 64.1954,-13.1869 L 64.0582,-13.2249
 L 63.923,-13.2695 L 63.7902,-13.3207 L 63.6601,-13.3784 L 63.5329,-13.4424 L 63.4091,-13.5126 L 63.2888,-13.5887
 L 63.1725,-13.6707 L 63.0603,-13.7583 L 62.9525,-13.8512 L 62.8494,-13.9494 L 62.7512,-14.0525 L 62.6583,-14.1602
 L 62.5707,-14.2725 L 62.4887,-14.3888 L 62.4126,-14.5091 L 62.3424,-14.6329 L 62.2784,-14.7601 L 62.2207,-14.8902
 L 62.1695,-15.023 L 62.1249,-15.1582 L 62.0869,-15.2953 L 62.0557,-15.4342 L 62.0314,-15.5745 L 62.014,-15.7157
 L 62.0035,-15.8577 L 62,-16 L 62.0035,-16.1423 L 62.014,-16.2842 L 62.0314,-16.4255 L 62.0557,-16.5658
 L 62.0869,-16.7046 L 62.1249,-16.8418 L 62.1695,-16.977 L 62.2207,-17.1098 L 62.2784,-17.2399 L 62.3424,-17.3671
 L 62.4126,-17.4909 L 62.4887,-17.6111 L 62.5707,-17.7275 L 62.6583,-17.8397 L 62.7512,-17.9475 L 62.8494,-18.0506
 L 62.9525,-18.1488 L 63.0603,-18.2417 L 63.1725,-18.3293 L 63.2888,-18.4113 L 63.4091,-18.4874 L 63.5329,-18.5576
 L 63.6601,-18.6216 L 63.7902,-18.6792 L 63.923,-18.7305 L 64.0582,-18.7751 L 64.1954,-18.8131 L 64.3342,-18.8443
 L 64.4745,-18.8686 L 64.6158,-18.886 L 64.7577,-18.8965 L 64.9,-18.9 L 65.0423,-18.8965 L 65.1842,-18.886
 L 65.3255,-18.8686 L 65.4658,-18.8443 L 65.6046,-18.8131 L 65.7418,-18.7751 L 65.877,-18.7305 L 66.0098,-18.6792
 L 66.1399,-18.6216 L 66.267,-18.5576 L 66.3909,-18.4874 L 66.5112,-18.4113 L 66.6275,-18.3293 L 66.7397,-18.2417
 L 66.8475,-18.1488 L 66.9506,-18.0506 L 67.0488,-17.9475 L 67.1417,-17.8397 L 67.2293,-17.7275 L 67.3113,-17.6111
 L 67.3874,-17.4909 L 67.4576,-17.3671 L 67.5216,-17.2399 L 67.5793,-17.1098 L 67.6305,-16.977 L 67.6751,-16.8418
 L 67.7131,-16.7046 L 67.7443,-16.5658 L 67.7686,-16.4255 L 67.786,-16.2842 L 67.7965,-16.1423 L 67.8,-16
 L 67.7965,-15.8577 L 67.786,-15.7157 L 67.7686,-15.5745 L 67.7443,-15.4342 L 67.7131,-15.2953 L 67.6751,-15.1582
 L 67.6305,-15.023 L 67.5793,-14.8902 L 67.5216,-14.7601 L 67.4576,-14.6329 L 67.3874,-14.5091 L 67.3113,-14.3888
 L 67.2293,-14.2725 L 67.1417,-14.1602 L 67.0488,-14.0525 L 66.9506,-13.9494 L 66.8475,-13.8512 L 66.7397,-13.7583
 L 66.6275,-13.6707 L 66.5112,-13.5887 L 66.3909,-13.5126 L 66.267,-13.4424 L 66.1399,-13.3784 L 66.0098,-13.3207
 L 65.877,-13.2695 L 65.7418,-13.2249 L 65.6046,-13.1869 L 65.4658,-13.1557 L 65.3255,-13.1314 L 65.1842,-13.114
 L 65.0423,-13.1035 L 64.9,-13.1 z
" stroke="black" fill="lightgray" stroke-width="0.5"/>
</svg>
