<?xml version="1.0" standalone="no"?>
<!DOCTYPE svg PUBLIC "-//W3C//DTD SVG 1.1//EN" "http://www.w3.org/Graphics/SVG/1.1/DTD/svg11.dtd">
<svg width="41mm" height="40mm" viewBox="69 -20 41 40" xmlns="http://www.w3.org/2000/svg" version="1.1">
<title>OpenSCAD Model</title>
<path d="
M 90.7814,19.9759 L 91.7603,19.9037 L 92.7346,19.7835 L 93.7018,19.6157 L 94.6596,19.4006 L 95.6057,19.1388
 L 96.5378,18.8309 L 97.4537,18.4776 L 98.3511,18.0798 L 99.2279,17.6384 L 100.082,17.1546 L 100.911,16.6294
 L 101.714,16.0641 L 102.488,15.4602 L 103.231,14.819 L 103.942,14.1421 L 104.619,13.4312 L 105.26,12.6879
 L 105.864,11.914 L 106.429,11.1114 L 106.955,10.282 L 107.438,9.42793 L 107.88,8.5511 L 108.278,7.65366
 L 108.631,6.73779 L 108.939,5.80568 L 109.201,4.85959 L 109.416,3.90179 L 109.584,2.9346 L 109.704,1.96034
 L 109.776,0.981339 L 109.8,-0 L 109.776,-0.981339 L 109.704,-1.96034 L 109.584,-2.9346 L 109.416,-3.90179
 L 109.201,-4.85959 L 108.939,-5.80568 L 108.631,-6.73779 L 108.278,-7.65366 L 107.88,-8.5511 L 107.438,-9.42793
 L 106.955,-10.282 L 106.429,-11.1114 L 105.864,-11.914 L 105.26,-12.6879 L 104.619,-13.4312 L 103.942,-14.1421
 L 103.231,-14.819 L 102.488,-15.4602 L 101.714,-16.0641 L 100.911,-16.6294 L 100.082,-17.1546 L 99.2279,-17.6384
 L 98.3511,-18.0798 L 97.4537,-18.4776 L 96.5378,-18.8309 L 95.6057,-19.1388 L 94.6596,-19.4006 L 93.7018,-19.6157
 L 92.7346,-19.7835 L 91.7603,-19.9037 L 90.7814,-19.9759 L 89.8,-20 L 88.8186,-19.9759 L 87.8397,-19.9037
 L 86.8654,-19.7835 L 85.8982,-19.6157 L 84.9404,-19.4006 L 83.9943,-19.1388 L 83.0622,-18.8309 L 82.1463,-18.4776
 L 81.2489,-18.0798 L 80.3721,-17.6384 L 79.5179,-17.1546 L 78.6886,-16.6294 L 77.886,-16.0641 L 77.1121,-15.4602
 L 76.3688,-14.819 L 75.6579,-14.1421 L 74.981,-13.4312 L 74.3398,-12.6879 L 73.7358,-11.914 L 73.1706,-11.1114
 L 72.6454,-10.282 L 72.1616,-9.42793 L 71.7202,-8.5511 L 71.3224,-7.65366 L 70.9691,-6.73779 L 70.6612,-5.80568
 L 70.3994,-4.85959 L 70.1843,-3.90179 L 70.0165,-2.9346 L 69.9999,-2.80011 L 72.8,-0 L 69.9999,2.80011
 L 70.0165,2.9346 L 70.1843,3.90179 L 70.3994,4.85959 L 70.6612,5.80568 L 70.9691,6.73779 L 71.3224,7.65366
 L 71.7202,8.5511 L 72.1616,9.42793 L 72.6454,10.282 L 73.1706,11.1114 L 73.7358,11.914 L 74.3398,12.6879
 L 74.981,13.4312 L 75.6579,14.1421 L 76.3688,14.819 L 77.1121,15.4602 L 77.886,16.0641 L 78.6886,16.6294
 L 79.5179,17.1546 L 80.3721,17.6384 L 81.2489,18.0798 L 82.1463,18.4776 L 83.0622,18.8309 L 83.9943,19.1388
 L 84.9404,19.4006 L 85.8982,19.6157 L 86.8654,19.7835 L 87.8397,19.9037 L 88.8186,19.9759 L 89.8,20
 z
M 86.7,3.09999 L 86.7,-3.09999 L 92.9,-3.09999 L 92.9,3.09999 z
" stroke="black" fill="lightgray" stroke-width="0.5"/>
</svg>
