<?xml version="1.0" standalone="no"?>
<!DOCTYPE svg PUBLIC "-//W3C//DTD SVG 1.1//EN" "http://www.w3.org/Graphics/SVG/1.1/DTD/svg11.dtd">
<svg width="20mm" height="35mm" viewBox="-10 -25 20 35" xmlns="http://www.w3.org/2000/svg" version="1.1">
<title>OpenSCAD Model</title>
<path d="
M 0.980164,9.95184 L 1.9509,9.80785 L 2.90283,9.5694 L 3.82683,9.23878 L 4.71396,8.8192 L 5.55569,8.31468
 L 6.34392,7.7301 L 7.07106,7.07106 L 7.7301,6.34392 L 8.31468,5.55569 L 8.8192,4.71396 L 9.23878,3.82683
 L 9.5694,2.90283 L 9.80785,1.9509 L 9.95184,0.980164 L 10,-0 L 9.95184,-2.45042 L 9.80785,-4.87724
 L 9.5694,-7.25711 L 9.23878,-9.56708 L 8.8192,-11.7849 L 8.31468,-13.8893 L 7.7301,-15.8598 L 7.07106,-17.6777
 L 6.34392,-19.3253 L 5.55569,-20.7867 L 4.71396,-22.048 L 3.82683,-23.097 L 2.90283,-23.9235 L 1.9509,-24.5196
 L 0.980164,-24.8796 L 0,-25 L 0,-10 L -0.980164,-9.95184 L -1.9509,-9.80785 L -2.90283,-9.5694
 L -3.82683,-9.23878 L -4.71396,-8.8192 L -5.55569,-8.31468 L -6.34392,-7.7301 L -7.07106,-7.07106 L -7.7301,-6.34392
 L -8.31468,-5.55569 L -8.8192,-4.71396 L -9.23878,-3.82683 L -9.5694,-2.90283 L -9.80785,-1.9509 L -9.95184,-0.980164
 L -10,-0 L -9.95184,0.980164 L -9.80785,1.9509 L -9.5694,2.90283 L -9.23878,3.82683 L -8.8192,4.71396
 L -8.31468,5.55569 L -7.7301,6.34392 L -7.07106,7.07106 L -6.34392,7.7301 L -5.55569,8.31468 L -4.71396,8.8192
 L -3.82683,9.23878 L -2.90283,9.5694 L -1.9509,9.80785 L -0.980164,9.95184 L 0,10 z
M -2.5,2.5 L -2.5,-2.5 L 2.5,-2.5 L 2.5,2.5 z
" stroke="black" fill="lightgray" stroke-width="0.5"/>
</svg>
