  0
SECTION
  2
BLOCKS
  0
ENDSEC
  0
SECTION
  2
ENTITIES
  0
LINE
  8
0
 10
0
 20
0
 11
30
 21
0
  0
LINE
  8
0
 10
30
 20
0
 11
30
 21
120
  0
LINE
  8
0
 10
30
 20
120
 11
17
 21
120
  0
LINE
  8
0
 10
17
 20
120
 11
17
 21
100
  0
LINE
  8
0
 10
17
 20
100
 11
13
 21
100
  0
LINE
  8
0
 10
13
 20
100
 11
13
 21
120
  0
LINE
  8
0
 10
13
 20
120
 11
0
 21
120
  0
LINE
  8
0
 10
0
 20
120
 11
0
 21
0
  0
LINE
  8
0
 10
10
 20
60
 11
10
 21
72
  0
LINE
  8
0
 10
10
 20
72
 11
15
 21
72
  0
LINE
  8
0
 10
15
 20
72
 11
15
 21
70
  0
LINE
  8
0
 10
15
 20
70
 11
12
 21
70
  0
LINE
  8
0
 10
12
 20
70
 11
15
 21
63
  0
LINE
  8
0
 10
15
 20
63
 11
18
 21
70
  0
LINE
  8
0
 10
18
 20
70
 11
18
 21
85
  0
LINE
  8
0
 10
18
 20
85
 11
15
 21
85
  0
LINE
  8
0
 10
15
 20
85
 11
15
 21
87
  0
LINE
  8
0
 10
15
 20
87
 11
20
 21
87
  0
LINE
  8
0
 10
20
 20
87
 11
20
 21
60
  0
LINE
  8
0
 10
20
 20
60
 11
10
 21
60
  0
LINE
  8
0
 10
13
 20
32
 11
13
 21
48
  0
LINE
  8
0
 10
13
 20
48
 11
13.0096
 21
48.196
  0
LINE
  8
0
 10
13.0096
 20
48.196
 11
13.0384
 21
48.3902
  0
LINE
  8
0
 10
13.0384
 20
48.3902
 11
13.0861
 21
48.5806
  0
LINE
  8
0
 10
13.0861
 20
48.5806
 11
13.1522
 21
48.7654
  0
LINE
  8
0
 10
13.1522
 20
48.7654
 11
13.2362
 21
48.9428
  0
LINE
  8
0
 10
13.2362
 20
48.9428
 11
13.3371
 21
49.1111
  0
LINE
  8
0
 10
13.3371
 20
49.1111
 11
13.454
 21
49.2688
  0
LINE
  8
0
 10
13.454
 20
49.2688
 11
13.5858
 21
49.4142
  0
LINE
  8
0
 10
13.5858
 20
49.4142
 11
13.7312
 21
49.546
  0
LINE
  8
0
 10
13.7312
 20
49.546
 11
13.8889
 21
49.6629
  0
LINE
  8
0
 10
13.8889
 20
49.6629
 11
14.0572
 21
49.7638
  0
LINE
  8
0
 10
14.0572
 20
49.7638
 11
14.2346
 21
49.8478
  0
LINE
  8
0
 10
14.2346
 20
49.8478
 11
14.4194
 21
49.9139
  0
LINE
  8
0
 10
14.4194
 20
49.9139
 11
14.6098
 21
49.9616
  0
LINE
  8
0
 10
14.6098
 20
49.9616
 11
14.804
 21
49.9904
  0
LINE
  8
0
 10
14.804
 20
49.9904
 11
15
 21
50
  0
LINE
  8
0
 10
15
 20
50
 11
15.196
 21
49.9904
  0
LINE
  8
0
 10
15.196
 20
49.9904
 11
15.3902
 21
49.9616
  0
LINE
  8
0
 10
15.3902
 20
49.9616
 11
15.5806
 21
49.9139
  0
LINE
  8
0
 10
15.5806
 20
49.9139
 11
15.7654
 21
49.8478
  0
LINE
  8
0
 10
15.7654
 20
49.8478
 11
15.9428
 21
49.7638
  0
LINE
  8
0
 10
15.9428
 20
49.7638
 11
16.1111
 21
49.6629
  0
LINE
  8
0
 10
16.1111
 20
49.6629
 11
16.2688
 21
49.546
  0
LINE
  8
0
 10
16.2688
 20
49.546
 11
16.4142
 21
49.4142
  0
LINE
  8
0
 10
16.4142
 20
49.4142
 11
16.546
 21
49.2688
  0
LINE
  8
0
 10
16.546
 20
49.2688
 11
16.6629
 21
49.1111
  0
LINE
  8
0
 10
16.6629
 20
49.1111
 11
16.7638
 21
48.9428
  0
LINE
  8
0
 10
16.7638
 20
48.9428
 11
16.8478
 21
48.7654
  0
LINE
  8
0
 10
16.8478
 20
48.7654
 11
16.9139
 21
48.5806
  0
LINE
  8
0
 10
16.9139
 20
48.5806
 11
16.9616
 21
48.3902
  0
LINE
  8
0
 10
16.9616
 20
48.3902
 11
16.9904
 21
48.196
  0
LINE
  8
0
 10
16.9904
 20
48.196
 11
17
 21
48
  0
LINE
  8
0
 10
17
 20
48
 11
17
 21
32
  0
LINE
  8
0
 10
17
 20
32
 11
16.9904
 21
31.804
  0
LINE
  8
0
 10
16.9904
 20
31.804
 11
16.9616
 21
31.6098
  0
LINE
  8
0
 10
16.9616
 20
31.6098
 11
16.9139
 21
31.4194
  0
LINE
  8
0
 10
16.9139
 20
31.4194
 11
16.8478
 21
31.2346
  0
LINE
  8
0
 10
16.8478
 20
31.2346
 11
16.7638
 21
31.0572
  0
LINE
  8
0
 10
16.7638
 20
31.0572
 11
16.6629
 21
30.8889
  0
LINE
  8
0
 10
16.6629
 20
30.8889
 11
16.546
 21
30.7312
  0
LINE
  8
0
 10
16.546
 20
30.7312
 11
16.4142
 21
30.5858
  0
LINE
  8
0
 10
16.4142
 20
30.5858
 11
16.2688
 21
30.454
  0
LINE
  8
0
 10
16.2688
 20
30.454
 11
16.1111
 21
30.3371
  0
LINE
  8
0
 10
16.1111
 20
30.3371
 11
15.9428
 21
30.2362
  0
LINE
  8
0
 10
15.9428
 20
30.2362
 11
15.7654
 21
30.1522
  0
LINE
  8
0
 10
15.7654
 20
30.1522
 11
15.5806
 21
30.0861
  0
LINE
  8
0
 10
15.5806
 20
30.0861
 11
15.3902
 21
30.0384
  0
LINE
  8
0
 10
15.3902
 20
30.0384
 11
15.196
 21
30.0096
  0
LINE
  8
0
 10
15.196
 20
30.0096
 11
15
 21
30
  0
LINE
  8
0
 10
15
 20
30
 11
14.804
 21
30.0096
  0
LINE
  8
0
 10
14.804
 20
30.0096
 11
14.6098
 21
30.0384
  0
LINE
  8
0
 10
14.6098
 20
30.0384
 11
14.4194
 21
30.0861
  0
LINE
  8
0
 10
14.4194
 20
30.0861
 11
14.2346
 21
30.1522
  0
LINE
  8
0
 10
14.2346
 20
30.1522
 11
14.0572
 21
30.2362
  0
LINE
  8
0
 10
14.0572
 20
30.2362
 11
13.8889
 21
30.3371
  0
LINE
  8
0
 10
13.8889
 20
30.3371
 11
13.7312
 21
30.454
  0
LINE
  8
0
 10
13.7312
 20
30.454
 11
13.5858
 21
30.5858
  0
LINE
  8
0
 10
13.5858
 20
30.5858
 11
13.454
 21
30.7312
  0
LINE
  8
0
 10
13.454
 20
30.7312
 11
13.3371
 21
30.8889
  0
LINE
  8
0
 10
13.3371
 20
30.8889
 11
13.2362
 21
31.0572
  0
LINE
  8
0
 10
13.2362
 20
31.0572
 11
13.1522
 21
31.2346
  0
LINE
  8
0
 10
13.1522
 20
31.2346
 11
13.0861
 21
31.4194
  0
LINE
  8
0
 10
13.0861
 20
31.4194
 11
13.0384
 21
31.6098
  0
LINE
  8
0
 10
13.0384
 20
31.6098
 11
13.0096
 21
31.804
  0
LINE
  8
0
 10
13.0096
 20
31.804
 11
13
 21
32
  0
ENDSEC
  0
SECTION
  2
OBJECTS
  0
DICTIONARY
  0
ENDSEC
  0
EOF
