<?xml version="1.0" standalone="no"?>
<!DOCTYPE svg PUBLIC "-//W3C//DTD SVG 1.1//EN" "http://www.w3.org/Graphics/SVG/1.1/DTD/svg11.dtd">
<svg width="128mm" height="128mm" viewBox="-64 -64 128 128" xmlns="http://www.w3.org/2000/svg" version="1.1">
<title>OpenSCAD Model</title>
<path d="
M 3.1102,63.3096 L 6.21291,63.0807 L 9.30064,62.6999 L 12.366,62.168 L 15.4015,61.4863 L 18.3999,60.6565
 L 21.3541,59.6806 L 24.2567,58.5609 L 27.101,57.3002 L 29.8799,55.9014 L 32.5869,54.3679 L 35.2153,52.7035
 L 37.7589,50.912 L 40.2116,48.998 L 42.5674,46.9659 L 44.8206,44.8206 L 46.9659,42.5674 L 48.998,40.2116
 L 50.912,37.7589 L 52.7035,35.2153 L 54.3679,32.5869 L 55.9014,29.8799 L 57.3002,27.101 L 58.5609,24.2567
 L 59.6806,21.3541 L 60.6565,18.3999 L 61.4863,15.4015 L 62.168,12.366 L 62.6999,9.30064 L 63.0807,6.21291
 L 63.3096,3.1102 L 63.3859,-0 L 63.3096,-3.1102 L 63.0807,-6.21291 L 62.6999,-9.30064 L 62.168,-12.366
 L 61.4863,-15.4015 L 60.6565,-18.3999 L 59.6806,-21.3541 L 58.5609,-24.2567 L 57.3002,-27.101 L 55.9014,-29.8799
 L 54.3679,-32.5869 L 52.7035,-35.2153 L 50.912,-37.7589 L 48.998,-40.2116 L 46.9659,-42.5674 L 44.8206,-44.8206
 L 42.5674,-46.9659 L 40.2116,-48.998 L 37.7589,-50.912 L 35.2153,-52.7035 L 32.5869,-54.3679 L 29.8799,-55.9014
 L 27.101,-57.3002 L 24.2567,-58.5609 L 21.3541,-59.6806 L 18.3999,-60.6565 L 15.4015,-61.4863 L 12.366,-62.168
 L 9.30064,-62.6999 L 6.21291,-63.0807 L 3.1102,-63.3096 L 0.5,-63.3736 L 0.5,-39.3859 L -0.5,-39.3859
 L -0.5,-63.3736 L -3.1102,-63.3096 L -6.21291,-63.0807 L -6.35558,-63.0631 L -3.76129,-39.2091 L -4.75543,-39.101
 L -7.34814,-62.9407 L -9.30064,-62.6999 L -12.366,-62.168 L -13.1342,-61.9955 L -7.97849,-38.5726 L -8.95511,-38.3576
 L -14.11,-61.7764 L -15.4015,-61.4863 L -18.3999,-60.6565 L -19.7587,-60.2077 L -12.1022,-37.4838 L -13.0498,-37.1645
 L -20.7083,-59.894 L -21.3541,-59.6806 L -24.2567,-58.5609 L -26.1533,-57.7203 L -16.0839,-35.9556 L -16.9915,-35.5357
 L -27.0676,-57.315 L -27.101,-57.3002 L -29.8799,-55.9014 L -32.2451,-54.5615 L -19.8771,-34.0059 L -20.734,-33.4903
 L -33.1001,-54.0429 L -35.2153,-52.7035 L -37.7589,-50.912 L -37.9568,-50.7576 L -23.4373,-31.6574 L -24.2334,-31.0523
 L -38.7453,-50.1423 L -40.2116,-48.998 L -42.5674,-46.9659 L -43.2153,-46.349 L -26.7227,-28.9379 L -27.4487,-28.2501
 L -43.9396,-45.6594 L -44.8206,-44.8206 L -46.9659,-42.5674 L -47.9706,-41.4026 L -29.6947,-25.879 L -30.3421,-25.1168
 L -48.6238,-40.6454 L -48.998,-40.2116 L -50.912,-37.7589 L -52.1684,-35.9751 L -32.3187,-22.5167 L -32.8799,-21.689
 L -52.7414,-35.1554 L -54.3679,-32.5869 L -55.7607,-30.1283 L -34.5637,-18.8904 L -35.0321,-18.0069 L -56.2227,-29.2415
 L -57.3002,-27.101 L -58.5609,-24.2567 L -58.6899,-23.9224 L -36.4035,-15.0427 L -36.7737,-14.1137 L -59.0498,-22.9894
 L -59.6806,-21.3541 L -60.6565,-18.3999 L -60.9238,-17.4343 L -37.8165,-11.0186 L -38.0841,-10.0551 L -61.1905,-16.4705
 L -61.4863,-15.4015 L -62.168,-12.366 L -62.4493,-10.7447 L -38.7862,-6.86534 L -38.948,-5.87851 L -62.6203,-9.75938
 L -62.6999,-9.30064 L -63.0807,-6.21291 L -63.2491,-3.92999 L -39.3011,-2.63158 L -39.3552,-1.63304 L -63.3139,-2.93204
 L -63.3859,-0 L -63.3139,2.93204 L -39.3552,1.63304 L -39.3011,2.63158 L -63.2491,3.92999 L -63.0807,6.21291
 L -62.6999,9.30064 L -62.6203,9.75938 L -38.948,5.87851 L -38.7862,6.86534 L -62.4493,10.7447 L -62.168,12.366
 L -61.4863,15.4015 L -61.1905,16.4705 L -38.0841,10.0551 L -37.8165,11.0186 L -60.9238,17.4343 L -60.6565,18.3999
 L -59.6806,21.3541 L -59.0498,22.9894 L -36.7737,14.1137 L -36.4035,15.0427 L -58.6899,23.9224 L -58.5609,24.2567
 L -57.3002,27.101 L -56.2227,29.2415 L -35.0321,18.0069 L -34.5637,18.8904 L -55.7607,30.1283 L -54.3679,32.5869
 L -52.7414,35.1554 L -32.8799,21.689 L -32.3187,22.5167 L -52.1684,35.9751 L -50.912,37.7589 L -48.998,40.2116
 L -48.6238,40.6454 L -30.3421,25.1168 L -29.6947,25.879 L -47.9706,41.4026 L -46.9659,42.5674 L -44.8206,44.8206
 L -43.9396,45.6594 L -27.4487,28.2501 L -26.7227,28.9379 L -43.2153,46.349 L -42.5674,46.9659 L -40.2116,48.998
 L -38.7453,50.1423 L -24.2334,31.0523 L -23.4373,31.6574 L -37.9568,50.7576 L -37.7589,50.912 L -35.2153,52.7035
 L -33.1001,54.0429 L -20.734,33.4903 L -19.8771,34.0059 L -32.2451,54.5615 L -29.8799,55.9014 L -27.101,57.3002
 L -27.0676,57.315 L -16.9915,35.5357 L -16.0839,35.9556 L -26.1533,57.7203 L -24.2567,58.5609 L -21.3541,59.6806
 L -20.7083,59.894 L -13.0498,37.1645 L -12.1022,37.4838 L -19.7587,60.2077 L -18.3999,60.6565 L -15.4015,61.4863
 L -14.11,61.7764 L -8.95511,38.3576 L -7.97849,38.5726 L -13.1342,61.9955 L -12.366,62.168 L -9.30064,62.6999
 L -7.34814,62.9407 L -4.75543,39.101 L -3.76129,39.2091 L -6.35558,63.0631 L -6.21291,63.0807 L -3.1102,63.3096
 L -0.5,63.3736 L -0.5,39.3859 L 0.5,39.3859 L 0.5,63.3736 z
M -0.245331,4.99397 L -0.490082,4.97592 L -0.733643,4.94588 L -0.975449,4.90392 L -1.21489,4.85014 L -1.45142,4.7847
 L -1.68445,4.70772 L -1.91341,4.61938 L -2.13777,4.51994 L -2.35698,4.40959 L -2.57051,4.28864 L -2.77785,4.15733
 L -2.97849,4.01604 L -3.17195,3.86505 L -3.35779,3.70474 L -3.53552,3.53552 L -3.70474,3.35779 L -3.86505,3.17195
 L -4.01604,2.97849 L -4.15733,2.77785 L -4.28864,2.57051 L -4.40959,2.35698 L -4.51994,2.13777 L -4.61938,1.91341
 L -4.70772,1.68445 L -4.7847,1.45142 L -4.85014,1.21489 L -4.90392,0.975449 L -4.94588,0.733643 L -4.97592,0.490082
 L -4.99397,0.245331 L -5,-0 L -4.99397,-0.245331 L -4.97592,-0.490082 L -4.94588,-0.733643 L -4.90392,-0.975449
 L -4.85014,-1.21489 L -4.7847,-1.45142 L -4.70772,-1.68445 L -4.61938,-1.91341 L -4.51994,-2.13777 L -4.40959,-2.35698
 L -4.28864,-2.57051 L -4.15733,-2.77785 L -4.01604,-2.97849 L -3.86505,-3.17195 L -3.70474,-3.35779 L -3.53552,-3.53552
 L -3.35779,-3.70474 L -3.17195,-3.86505 L -2.97849,-4.01604 L -2.77785,-4.15733 L -2.57051,-4.28864 L -2.35698,-4.40959
 L -2.13777,-4.51994 L -1.91341,-4.61938 L -1.68445,-4.70772 L -1.45142,-4.7847 L -1.21489,-4.85014 L -0.975449,-4.90392
 L -0.733643,-4.94588 L -0.490082,-4.97592 L -0.245331,-4.99397 L 0,-5 L 0.245331,-4.99397 L 0.490082,-4.97592
 L 0.733643,-4.94588 L 0.975449,-4.90392 L 1.21489,-4.85014 L 1.45142,-4.7847 L 1.68445,-4.70772 L 1.91341,-4.61938
 L 2.13777,-4.51994 L 2.35698,-4.40959 L 2.57051,-4.28864 L 2.77785,-4.15733 L 2.97849,-4.01604 L 3.17195,-3.86505
 L 3.35779,-3.70474 L 3.53552,-3.53552 L 3.70474,-3.35779 L 3.86505,-3.17195 L 4.01604,-2.97849 L 4.15733,-2.77785
 L 4.28864,-2.57051 L 4.40959,-2.35698 L 4.51994,-2.13777 L 4.61938,-1.91341 L 4.70772,-1.68445 L 4.7847,-1.45142
 L 4.85014,-1.21489 L 4.90392,-0.975449 L 4.94588,-0.733643 L 4.97592,-0.490082 L 4.99397,-0.245331 L 5,-0
 L 4.99397,0.245331 L 4.97592,0.490082 L 4.94588,0.733643 L 4.90392,0.975449 L 4.85014,1.21489 L 4.7847,1.45142
 L 4.70772,1.68445 L 4.61938,1.91341 L 4.51994,2.13777 L 4.40959,2.35698 L 4.28864,2.57051 L 4.15733,2.77785
 L 4.01604,2.97849 L 3.86505,3.17195 L 3.70474,3.35779 L 3.53552,3.53552 L 3.35779,3.70474 L 3.17195,3.86505
 L 2.97849,4.01604 L 2.77785,4.15733 L 2.57051,4.28864 L 2.35698,4.40959 L 2.13777,4.51994 L 1.91341,4.61938
 L 1.68445,4.70772 L 1.45142,4.7847 L 1.21489,4.85014 L 0.975449,4.90392 L 0.733643,4.94588 L 0.490082,4.97592
 L 0.245331,4.99397 L 0,5 z
" stroke="black" fill="lightgray" stroke-width="0.5"/>
</svg>
