<?xml version="1.0" standalone="no"?>
<!DOCTYPE svg PUBLIC "-//W3C//DTD SVG 1.1//EN" "http://www.w3.org/Graphics/SVG/1.1/DTD/svg11.dtd">
<svg width="30mm" height="120mm" viewBox="0 -120 30 120" xmlns="http://www.w3.org/2000/svg" version="1.1">
<title>OpenSCAD Model</title>
<path d="
M 0,-0 L 30,-0 L 30,-120 L 17,-120 L 17,-100 L 13,-100
 L 13,-120 L 0,-120 z
M 10,-60 L 10,-72 L 15,-72 L 15,-70 L 12,-70 L 15,-63
 L 18,-70 L 18,-85 L 15,-85 L 15,-87 L 20,-87 L 20,-60
 z
M 13,-32 L 13,-48 L 13.0096,-48.196 L 13.0384,-48.3902 L 13.0861,-48.5806 L 13.1522,-48.7654
 L 13.2362,-48.9428 L 13.3371,-49.1111 L 13.454,-49.2688 L 13.5858,-49.4142 L 13.7312,-49.546 L 13.8889,-49.6629
 L 14.0572,-49.7638 L 14.2346,-49.8478 L 14.4194,-49.9139 L 14.6098,-49.9616 L 14.804,-49.9904 L 15,-50
 L 15.196,-49.9904 L 15.3902,-49.9616 L 15.5806,-49.9139 L 15.7654,-49.8478 L 15.9428,-49.7638 L 16.1111,-49.6629
 L 16.2688,-49.546 L 16.4142,-49.4142 L 16.546,-49.2688 L 16.6629,-49.1111 L 16.7638,-48.9428 L 16.8478,-48.7654
 L 16.9139,-48.5806 L 16.9616,-48.3902 L 16.9904,-48.196 L 17,-48 L 17,-32 L 16.9904,-31.804
 L 16.9616,-31.6098 L 16.9139,-31.4194 L 16.8478,-31.2346 L 16.7638,-31.0572 L 16.6629,-30.8889 L 16.546,-30.7312
 L 16.4142,-30.5858 L 16.2688,-30.454 L 16.1111,-30.3371 L 15.9428,-30.2362 L 15.7654,-30.1522 L 15.5806,-30.0861
 L 15.3902,-30.0384 L 15.196,-30.0096 L 15,-30 L 14.804,-30.0096 L 14.6098,-30.0384 L 14.4194,-30.0861
 L 14.2346,-30.1522 L 14.0572,-30.2362 L 13.8889,-30.3371 L 13.7312,-30.454 L 13.5858,-30.5858 L 13.454,-30.7312
 L 13.3371,-30.8889 L 13.2362,-31.0572 L 13.1522,-31.2346 L 13.0861,-31.4194 L 13.0384,-31.6098 L 13.0096,-31.804
 z
" stroke="black" fill="lightgray" stroke-width="0.5"/>
</svg>
