<?xml version="1.0" standalone="no"?>
<!DOCTYPE svg PUBLIC "-//W3C//DTD SVG 1.1//EN" "http://www.w3.org/Graphics/SVG/1.1/DTD/svg11.dtd">
<svg width="120mm" height="25mm" viewBox="-60 -5 120 25" xmlns="http://www.w3.org/2000/svg" version="1.1">
<title>OpenSCAD Model</title>
<path d="
M 10,3 L 59.9236,3 L 59.9277,2.94405 L 59.9281,2.92812 L 57,-0 L 59.9281,-2.92812
 L 59.9277,-2.94405 L 59.7761,-5 L -59.7761,-5 L -59.9225,-3.01506 L -51.7018,4.01955 L -58.729,12.2314
 L -58.6969,12.3743 L -55.1365,14.4556 L -57.2183,18.0168 L -56.5631,20 L 10,20 z
M -0.142288,2.8965 L -0.284241,2.88603 L -0.425507,2.86861 L -0.56575,2.84427 L -0.704636,2.81308 L -0.841812,2.77512
 L -0.976974,2.73047 L -1.10977,2.67924 L -1.2399,2.62157 L -1.36705,2.55757 L -1.49089,2.48741 L -1.61115,2.41125
 L -1.72752,2.3293 L -1.83974,2.24173 L -1.94751,2.14876 L -2.0506,2.0506 L -2.14876,1.94751 L -2.24173,1.83974
 L -2.3293,1.72752 L -2.41125,1.61115 L -2.48741,1.49089 L -2.55757,1.36705 L -2.62157,1.2399 L -2.67924,1.10977
 L -2.73047,0.976974 L -2.77512,0.841812 L -2.81308,0.704636 L -2.84427,0.56575 L -2.86861,0.425507 L -2.88603,0.284241
 L -2.8965,0.142288 L -2.89999,-0 L -2.8965,-0.142288 L -2.88603,-0.284241 L -2.86861,-0.425507 L -2.84427,-0.56575
 L -2.81308,-0.704636 L -2.77512,-0.841812 L -2.73047,-0.976974 L -2.67924,-1.10977 L -2.62157,-1.2399 L -2.55757,-1.36705
 L -2.48741,-1.49089 L -2.41125,-1.61115 L -2.3293,-1.72752 L -2.24173,-1.83974 L -2.14876,-1.94751 L -2.0506,-2.0506
 L -1.94751,-2.14876 L -1.83974,-2.24173 L -1.72752,-2.3293 L -1.61115,-2.41125 L -1.49089,-2.48741 L -1.36705,-2.55757
 L -1.2399,-2.62157 L -1.10977,-2.67924 L -0.976974,-2.73047 L -0.841812,-2.77512 L -0.704636,-2.81308 L -0.56575,-2.84427
 L -0.425507,-2.86861 L -0.284241,-2.88603 L -0.142288,-2.8965 L 0,-2.89999 L 0.142288,-2.8965 L 0.284241,-2.88603
 L 0.425507,-2.86861 L 0.56575,-2.84427 L 0.704636,-2.81308 L 0.841812,-2.77512 L 0.976974,-2.73047 L 1.10977,-2.67924
 L 1.2399,-2.62157 L 1.36705,-2.55757 L 1.49089,-2.48741 L 1.61115,-2.41125 L 1.72752,-2.3293 L 1.83974,-2.24173
 L 1.94751,-2.14876 L 2.0506,-2.0506 L 2.14876,-1.94751 L 2.24173,-1.83974 L 2.3293,-1.72752 L 2.41125,-1.61115
 L 2.48741,-1.49089 L 2.55757,-1.36705 L 2.62157,-1.2399 L 2.67924,-1.10977 L 2.73047,-0.976974 L 2.77512,-0.841812
 L 2.81308,-0.704636 L 2.84427,-0.56575 L 2.86861,-0.425507 L 2.88603,-0.284241 L 2.8965,-0.142288 L 2.89999,-0
 L 2.8965,0.142288 L 2.88603,0.284241 L 2.86861,0.425507 L 2.84427,0.56575 L 2.81308,0.704636 L 2.77512,0.841812
 L 2.73047,0.976974 L 2.67924,1.10977 L 2.62157,1.2399 L 2.55757,1.36705 L 2.48741,1.49089 L 2.41125,1.61115
 L 2.3293,1.72752 L 2.24173,1.83974 L 2.14876,1.94751 L 2.0506,2.0506 L 1.94751,2.14876 L 1.83974,2.24173
 L 1.72752,2.3293 L 1.61115,2.41125 L 1.49089,2.48741 L 1.36705,2.55757 L 1.2399,2.62157 L 1.10977,2.67924
 L 0.976974,2.73047 L 0.841812,2.77512 L 0.704636,2.81308 L 0.56575,2.84427 L 0.425507,2.86861 L 0.284241,2.88603
 L 0.142288,2.8965 L 0,2.89999 z
" stroke="black" fill="lightgray" stroke-width="0.5"/>
</svg>
