  0
SECTION
  2
BLOCKS
  0
ENDSEC
  0
SECTION
  2
ENTITIES
  0
LINE
  8
0
 10
1.47202
 20
-29.9639
 11
2.94051
 21
-29.8555
  0
LINE
  8
0
 10
2.94051
 20
-29.8555
 11
4.4019
 21
-29.6753
  0
LINE
  8
0
 10
4.4019
 20
-29.6753
 11
5.85271
 21
-29.4236
  0
LINE
  8
0
 10
5.85271
 20
-29.4236
 11
7.2894
 21
-29.1009
  0
LINE
  8
0
 10
7.2894
 20
-29.1009
 11
8.70853
 21
-28.7082
  0
LINE
  8
0
 10
8.70853
 20
-28.7082
 11
10.1067
 21
-28.2463
  0
LINE
  8
0
 10
10.1067
 20
-28.2463
 11
11.4805
 21
-27.7164
  0
LINE
  8
0
 10
11.4805
 20
-27.7164
 11
12.8266
 21
-27.1197
  0
LINE
  8
0
 10
12.8266
 20
-27.1197
 11
14.1419
 21
-26.4576
  0
LINE
  8
0
 10
14.1419
 20
-26.4576
 11
15.4231
 21
-25.7319
  0
LINE
  8
0
 10
15.4231
 20
-25.7319
 11
16.6671
 21
-24.9441
  0
LINE
  8
0
 10
16.6671
 20
-24.9441
 11
17.871
 21
-24.0962
  0
LINE
  8
0
 10
17.871
 20
-24.0962
 11
19.0318
 21
-23.1903
  0
LINE
  8
0
 10
19.0318
 20
-23.1903
 11
20.1468
 21
-22.2285
  0
LINE
  8
0
 10
20.1468
 20
-22.2285
 11
21.2132
 21
-21.2132
  0
LINE
  8
0
 10
21.2132
 20
-21.2132
 11
22.2285
 21
-20.1468
  0
LINE
  8
0
 10
22.2285
 20
-20.1468
 11
23.1903
 21
-19.0318
  0
LINE
  8
0
 10
23.1903
 20
-19.0318
 11
24.0962
 21
-17.871
  0
LINE
  8
0
 10
24.0962
 20
-17.871
 11
24.9441
 21
-16.6671
  0
LINE
  8
0
 10
24.9441
 20
-16.6671
 11
25.7319
 21
-15.4231
  0
LINE
  8
0
 10
25.7319
 20
-15.4231
 11
26.4576
 21
-14.1419
  0
LINE
  8
0
 10
26.4576
 20
-14.1419
 11
27.1197
 21
-12.8266
  0
LINE
  8
0
 10
27.1197
 20
-12.8266
 11
27.7164
 21
-11.4805
  0
LINE
  8
0
 10
27.7164
 20
-11.4805
 11
28.2463
 21
-10.1067
  0
LINE
  8
0
 10
28.2463
 20
-10.1067
 11
28.7082
 21
-8.70853
  0
LINE
  8
0
 10
28.7082
 20
-8.70853
 11
29.1009
 21
-7.2894
  0
LINE
  8
0
 10
29.1009
 20
-7.2894
 11
29.4236
 21
-5.85271
  0
LINE
  8
0
 10
29.4236
 20
-5.85271
 11
29.6753
 21
-4.4019
  0
LINE
  8
0
 10
29.6753
 20
-4.4019
 11
29.8555
 21
-2.94051
  0
LINE
  8
0
 10
29.8555
 20
-2.94051
 11
29.9639
 21
-1.47202
  0
LINE
  8
0
 10
29.9639
 20
-1.47202
 11
30
 21
0
  0
LINE
  8
0
 10
30
 20
0
 11
29.9639
 21
1.47202
  0
LINE
  8
0
 10
29.9639
 20
1.47202
 11
29.8555
 21
2.94051
  0
LINE
  8
0
 10
29.8555
 20
2.94051
 11
29.6753
 21
4.4019
  0
LINE
  8
0
 10
29.6753
 20
4.4019
 11
29.4236
 21
5.85271
  0
LINE
  8
0
 10
29.4236
 20
5.85271
 11
29.1009
 21
7.2894
  0
LINE
  8
0
 10
29.1009
 20
7.2894
 11
28.7082
 21
8.70853
  0
LINE
  8
0
 10
28.7082
 20
8.70853
 11
28.2463
 21
10.1067
  0
LINE
  8
0
 10
28.2463
 20
10.1067
 11
27.7164
 21
11.4805
  0
LINE
  8
0
 10
27.7164
 20
11.4805
 11
27.1197
 21
12.8266
  0
LINE
  8
0
 10
27.1197
 20
12.8266
 11
26.4576
 21
14.1419
  0
LINE
  8
0
 10
26.4576
 20
14.1419
 11
25.7319
 21
15.4231
  0
LINE
  8
0
 10
25.7319
 20
15.4231
 11
24.9441
 21
16.6671
  0
LINE
  8
0
 10
24.9441
 20
16.6671
 11
24.0962
 21
17.871
  0
LINE
  8
0
 10
24.0962
 20
17.871
 11
23.1903
 21
19.0318
  0
LINE
  8
0
 10
23.1903
 20
19.0318
 11
22.2285
 21
20.1468
  0
LINE
  8
0
 10
22.2285
 20
20.1468
 11
21.2132
 21
21.2132
  0
LINE
  8
0
 10
21.2132
 20
21.2132
 11
20.1468
 21
22.2285
  0
LINE
  8
0
 10
20.1468
 20
22.2285
 11
19.0318
 21
23.1903
  0
LINE
  8
0
 10
19.0318
 20
23.1903
 11
17.871
 21
24.0962
  0
LINE
  8
0
 10
17.871
 20
24.0962
 11
16.6671
 21
24.9441
  0
LINE
  8
0
 10
16.6671
 20
24.9441
 11
15.4231
 21
25.7319
  0
LINE
  8
0
 10
15.4231
 20
25.7319
 11
14.1419
 21
26.4576
  0
LINE
  8
0
 10
14.1419
 20
26.4576
 11
12.8266
 21
27.1197
  0
LINE
  8
0
 10
12.8266
 20
27.1197
 11
11.4805
 21
27.7164
  0
LINE
  8
0
 10
11.4805
 20
27.7164
 11
10.1067
 21
28.2463
  0
LINE
  8
0
 10
10.1067
 20
28.2463
 11
8.70853
 21
28.7082
  0
LINE
  8
0
 10
8.70853
 20
28.7082
 11
7.2894
 21
29.1009
  0
LINE
  8
0
 10
7.2894
 20
29.1009
 11
5.85271
 21
29.4236
  0
LINE
  8
0
 10
5.85271
 20
29.4236
 11
4.4019
 21
29.6753
  0
LINE
  8
0
 10
4.4019
 20
29.6753
 11
2.94051
 21
29.8555
  0
LINE
  8
0
 10
2.94051
 20
29.8555
 11
1.47202
 21
29.9639
  0
LINE
  8
0
 10
1.47202
 20
29.9639
 11
0
 21
30
  0
LINE
  8
0
 10
0
 20
30
 11
-1.47202
 21
29.9639
  0
LINE
  8
0
 10
-1.47202
 20
29.9639
 11
-2.94051
 21
29.8555
  0
LINE
  8
0
 10
-2.94051
 20
29.8555
 11
-4.4019
 21
29.6753
  0
LINE
  8
0
 10
-4.4019
 20
29.6753
 11
-5.85271
 21
29.4236
  0
LINE
  8
0
 10
-5.85271
 20
29.4236
 11
-7.2894
 21
29.1009
  0
LINE
  8
0
 10
-7.2894
 20
29.1009
 11
-8.70853
 21
28.7082
  0
LINE
  8
0
 10
-8.70853
 20
28.7082
 11
-10.1067
 21
28.2463
  0
LINE
  8
0
 10
-10.1067
 20
28.2463
 11
-11.4805
 21
27.7164
  0
LINE
  8
0
 10
-11.4805
 20
27.7164
 11
-12.8266
 21
27.1197
  0
LINE
  8
0
 10
-12.8266
 20
27.1197
 11
-14.1419
 21
26.4576
  0
LINE
  8
0
 10
-14.1419
 20
26.4576
 11
-15.4231
 21
25.7319
  0
LINE
  8
0
 10
-15.4231
 20
25.7319
 11
-16.6671
 21
24.9441
  0
LINE
  8
0
 10
-16.6671
 20
24.9441
 11
-17.871
 21
24.0962
  0
LINE
  8
0
 10
-17.871
 20
24.0962
 11
-19.0318
 21
23.1903
  0
LINE
  8
0
 10
-19.0318
 20
23.1903
 11
-20.1468
 21
22.2285
  0
LINE
  8
0
 10
-20.1468
 20
22.2285
 11
-21.2132
 21
21.2132
  0
LINE
  8
0
 10
-21.2132
 20
21.2132
 11
-22.2285
 21
20.1468
  0
LINE
  8
0
 10
-22.2285
 20
20.1468
 11
-23.1903
 21
19.0318
  0
LINE
  8
0
 10
-23.1903
 20
19.0318
 11
-24.0962
 21
17.871
  0
LINE
  8
0
 10
-24.0962
 20
17.871
 11
-24.9441
 21
16.6671
  0
LINE
  8
0
 10
-24.9441
 20
16.6671
 11
-25.7319
 21
15.4231
  0
LINE
  8
0
 10
-25.7319
 20
15.4231
 11
-26.4576
 21
14.1419
  0
LINE
  8
0
 10
-26.4576
 20
14.1419
 11
-27.1197
 21
12.8266
  0
LINE
  8
0
 10
-27.1197
 20
12.8266
 11
-27.7164
 21
11.4805
  0
LINE
  8
0
 10
-27.7164
 20
11.4805
 11
-28.2463
 21
10.1067
  0
LINE
  8
0
 10
-28.2463
 20
10.1067
 11
-28.7082
 21
8.70853
  0
LINE
  8
0
 10
-28.7082
 20
8.70853
 11
-29.1009
 21
7.2894
  0
LINE
  8
0
 10
-29.1009
 20
7.2894
 11
-29.4236
 21
5.85271
  0
LINE
  8
0
 10
-29.4236
 20
5.85271
 11
-29.6753
 21
4.4019
  0
LINE
  8
0
 10
-29.6753
 20
4.4019
 11
-29.8555
 21
2.94051
  0
LINE
  8
0
 10
-29.8555
 20
2.94051
 11
-29.9639
 21
1.47202
  0
LINE
  8
0
 10
-29.9639
 20
1.47202
 11
-30
 21
0
  0
LINE
  8
0
 10
-30
 20
0
 11
-29.9639
 21
-1.47202
  0
LINE
  8
0
 10
-29.9639
 20
-1.47202
 11
-29.8555
 21
-2.94051
  0
LINE
  8
0
 10
-29.8555
 20
-2.94051
 11
-29.6753
 21
-4.4019
  0
LINE
  8
0
 10
-29.6753
 20
-4.4019
 11
-29.4236
 21
-5.85271
  0
LINE
  8
0
 10
-29.4236
 20
-5.85271
 11
-29.1009
 21
-7.2894
  0
LINE
  8
0
 10
-29.1009
 20
-7.2894
 11
-28.7082
 21
-8.70853
  0
LINE
  8
0
 10
-28.7082
 20
-8.70853
 11
-28.2463
 21
-10.1067
  0
LINE
  8
0
 10
-28.2463
 20
-10.1067
 11
-27.7164
 21
-11.4805
  0
LINE
  8
0
 10
-27.7164
 20
-11.4805
 11
-27.1197
 21
-12.8266
  0
LINE
  8
0
 10
-27.1197
 20
-12.8266
 11
-26.4576
 21
-14.1419
  0
LINE
  8
0
 10
-26.4576
 20
-14.1419
 11
-25.7319
 21
-15.4231
  0
LINE
  8
0
 10
-25.7319
 20
-15.4231
 11
-24.9441
 21
-16.6671
  0
LINE
  8
0
 10
-24.9441
 20
-16.6671
 11
-24.0962
 21
-17.871
  0
LINE
  8
0
 10
-24.0962
 20
-17.871
 11
-23.1903
 21
-19.0318
  0
LINE
  8
0
 10
-23.1903
 20
-19.0318
 11
-22.2285
 21
-20.1468
  0
LINE
  8
0
 10
-22.2285
 20
-20.1468
 11
-21.2132
 21
-21.2132
  0
LINE
  8
0
 10
-21.2132
 20
-21.2132
 11
-20.1468
 21
-22.2285
  0
LINE
  8
0
 10
-20.1468
 20
-22.2285
 11
-19.0318
 21
-23.1903
  0
LINE
  8
0
 10
-19.0318
 20
-23.1903
 11
-17.871
 21
-24.0962
  0
LINE
  8
0
 10
-17.871
 20
-24.0962
 11
-16.6671
 21
-24.9441
  0
LINE
  8
0
 10
-16.6671
 20
-24.9441
 11
-15.4231
 21
-25.7319
  0
LINE
  8
0
 10
-15.4231
 20
-25.7319
 11
-14.1419
 21
-26.4576
  0
LINE
  8
0
 10
-14.1419
 20
-26.4576
 11
-12.8266
 21
-27.1197
  0
LINE
  8
0
 10
-12.8266
 20
-27.1197
 11
-11.4805
 21
-27.7164
  0
LINE
  8
0
 10
-11.4805
 20
-27.7164
 11
-10.1067
 21
-28.2463
  0
LINE
  8
0
 10
-10.1067
 20
-28.2463
 11
-8.70853
 21
-28.7082
  0
LINE
  8
0
 10
-8.70853
 20
-28.7082
 11
-7.2894
 21
-29.1009
  0
LINE
  8
0
 10
-7.2894
 20
-29.1009
 11
-5.85271
 21
-29.4236
  0
LINE
  8
0
 10
-5.85271
 20
-29.4236
 11
-4.4019
 21
-29.6753
  0
LINE
  8
0
 10
-4.4019
 20
-29.6753
 11
-2.94051
 21
-29.8555
  0
LINE
  8
0
 10
-2.94051
 20
-29.8555
 11
-1.47202
 21
-29.9639
  0
LINE
  8
0
 10
-1.47202
 20
-29.9639
 11
0
 21
-30
  0
LINE
  8
0
 10
0
 20
-30
 11
1.47202
 21
-29.9639
  0
LINE
  8
0
 10
-2.5
 20
-2.5
 11
-2.5
 21
2.5
  0
LINE
  8
0
 10
-2.5
 20
2.5
 11
2.5
 21
2.5
  0
LINE
  8
0
 10
2.5
 20
2.5
 11
2.5
 21
-2.5
  0
LINE
  8
0
 10
2.5
 20
-2.5
 11
-2.5
 21
-2.5
  0
ENDSEC
  0
SECTION
  2
OBJECTS
  0
DICTIONARY
  0
ENDSEC
  0
EOF
