<?xml version="1.0" standalone="no"?>
<!DOCTYPE svg PUBLIC "-//W3C//DTD SVG 1.1//EN" "http://www.w3.org/Graphics/SVG/1.1/DTD/svg11.dtd">
<svg width="128mm" height="128mm" viewBox="-64 -64 128 128" xmlns="http://www.w3.org/2000/svg" version="1.1">
<title>OpenSCAD Model</title>
<path d="
M 3.1102,63.3096 L 6.21291,63.0807 L 9.30064,62.6999 L 12.366,62.168 L 15.4015,61.4863 L 18.3999,60.6565
 L 21.3541,59.6806 L 24.2567,58.5609 L 27.101,57.3002 L 29.8799,55.9014 L 32.5869,54.3679 L 35.2153,52.7035
 L 37.7589,50.912 L 40.2116,48.998 L 42.5674,46.9659 L 44.8206,44.8206 L 46.9659,42.5674 L 48.998,40.2116
 L 50.912,37.7589 L 52.7035,35.2153 L 54.3679,32.5869 L 55.9014,29.8799 L 57.3002,27.101 L 58.5609,24.2567
 L 59.6806,21.3541 L 60.6565,18.3999 L 61.4863,15.4015 L 62.168,12.366 L 62.6999,9.30064 L 63.0807,6.21291
 L 63.3096,3.1102 L 63.3859,-0 L 63.3096,-3.1102 L 63.0807,-6.21291 L 62.6999,-9.30064 L 62.168,-12.366
 L 61.4863,-15.4015 L 60.6565,-18.3999 L 59.6806,-21.3541 L 58.5609,-24.2567 L 57.3002,-27.101 L 55.9014,-29.8799
 L 54.3679,-32.5869 L 52.7035,-35.2153 L 50.912,-37.7589 L 48.998,-40.2116 L 46.9659,-42.5674 L 44.8206,-44.8206
 L 42.5674,-46.9659 L 40.2116,-48.998 L 37.7589,-50.912 L 35.2153,-52.7035 L 32.5869,-54.3679 L 29.8799,-55.9014
 L 27.101,-57.3002 L 24.2567,-58.5609 L 21.3541,-59.6806 L 18.3999,-60.6565 L 15.4015,-61.4863 L 12.366,-62.168
 L 9.30064,-62.6999 L 6.21291,-63.0807 L 3.1102,-63.3096 L 2.21579,-63.3315 L 1.56636,-39.3579 L 0.566727,-39.385
 L 0.837082,-49.3654 L 0.792206,-49.3665 L 0.799988,-49.3859 L 0,-51.3859 L -0.799988,-49.3859 L -0.792206,-49.3665
 L -1.83679,-49.3408 L -2.21579,-63.3315 L -3.1102,-63.3096 L -4.64426,-63.1964 L -2.69815,-39.2966 L -3.69485,-39.2154
 L -4.50514,-49.1665 L -4.54987,-49.1627 L -4.54424,-49.1829 L -5.55579,-51.0847 L -6.13486,-49.0099 L -6.12503,-48.9914
 L -7.16071,-48.853 L -9.05148,-62.7306 L -9.30064,-62.6999 L -11.4503,-62.3268 L -6.93105,-38.7745 L -7.91313,-38.586
 L -9.79457,-48.3912 L -9.83862,-48.3826 L -9.83521,-48.4033 L -11.0464,-50.1845 L -11.3978,-48.0593 L -11.386,-48.042
 L -12.4007,-47.7924 L -15.7801,-61.3815 L -18.1248,-60.7327 L -11.0827,-37.7978 L -12.0386,-37.5043 L -14.9692,-47.0485
 L -15.012,-47.0352 L -15.0109,-47.0562 L -16.4076,-48.696 L -16.5271,-46.5453 L -16.5135,-46.5293 L -17.4952,-46.1715
 L -22.3212,-59.3076 L -24.2567,-58.5609 L -24.5843,-58.4157 L -15.1044,-36.378 L -16.023,-35.9828 L -19.9682,-45.1543
 L -20.0094,-45.1364 L -20.0105,-45.1573 L -21.5764,-46.6366 L -21.4627,-44.4855 L -21.4474,-44.4711 L -22.3847,-44.0093
 L -28.6017,-56.5448 L -29.8799,-55.9014 L -30.7517,-55.4075 L -18.949,-34.5317 L -19.8195,-34.0395 L -24.7332,-42.7306
 L -24.7722,-42.7084 L -24.7756,-42.7291 L -26.4922,-44.0304 L -26.1466,-41.9042 L -26.1299,-41.8916 L -27.0117,-41.3311
 L -34.5501,-53.1247 L -35.2153,-52.7035 L -36.5607,-51.756 L -22.5714,-32.2805 L -23.3836,-31.6971 L -29.2082,-39.806
 L -29.2446,-39.7797 L -29.2502,-39.7999 L -31.0974,-40.908 L -30.524,-38.8316 L -30.506,-38.8209 L -31.3221,-38.1683
 L -40.0983,-49.0864 L -40.2116,-48.998 L -41.9449,-47.5028 L -25.9293,-29.6509 L -26.6736,-28.9831 L -33.3408,-36.4147
 L -33.3741,-36.3846 L -33.3819,-36.4041 L -35.3381,-37.3059 L -34.5435,-35.3038 L -34.5244,-35.295 L -35.2652,-34.558
 L -45.1655,-44.4584 L -46.843,-42.6964 L -28.9831,-26.6736 L -29.6509,-25.9292 L -37.0825,-32.5965 L -37.1124,-32.563
 L -37.1222,-32.5815 L -39.1644,-33.2665 L -38.158,-31.362 L -38.1381,-31.3554 L -38.7948,-30.5426 L -49.7017,-39.3098
 L -50.912,-37.7589 L -51.1801,-37.3783 L -31.6971,-23.3836 L -32.2805,-22.5714 L -40.3894,-28.3961 L -40.4155,-28.3595
 L -40.4272,-28.3769 L -42.5316,-28.8371 L -41.3251,-27.0526 L -41.3047,-27.0481 L -41.8696,-26.1691 L -53.6597,-33.7052
 L -54.3679,-32.5869 L -54.9146,-31.6218 L -34.0395,-19.8195 L -34.5317,-18.949 L -43.2228,-23.8627 L -43.2448,-23.8236
 L -43.2583,-23.8396 L -45.4001,-24.0696 L -44.0078,-22.426 L -43.987,-22.4237 L -44.4536,-21.4888 L -56.9944,-27.7085
 L -57.3002,-27.101 L -58.0105,-25.4986 L -35.9828,-16.023 L -36.378,-15.1044 L -45.5494,-19.0496 L -45.5671,-19.0084
 L -45.5823,-19.0228 L -47.7363,-19.0199 L -46.1745,-17.5364 L -46.1535,-17.5365 L -46.5163,-16.5566 L -59.6675,-21.3881
 L -59.6806,-21.3541 L -60.4323,-19.0786 L -37.5043,-12.0386 L -37.7978,-11.0827 L -47.3421,-14.0132 L -47.3551,-13.9703
 L -47.3718,-13.983 L -49.5129,-13.7472 L -47.7998,-12.4413 L -47.779,-12.4436 L -48.0337,-11.4302 L -61.6194,-14.8088
 L -62.1525,-12.4351 L -38.586,-7.91313 L -38.7745,-6.93105 L -48.5796,-8.81248 L -48.588,-8.76839 L -48.6059,-8.77921
 L -50.709,-8.31331 L -48.8648,-7.20029 L -48.8443,-7.20482 L -48.988,-6.16986 L -62.853,-8.05893 L -63.0807,-6.21291
 L -63.1228,-5.64157 L -39.2154,-3.69485 L -39.2966,-2.69815 L -49.2477,-3.50844 L -49.2512,-3.4637 L -49.2702,-3.47252
 L -51.3105,-2.78197 L -49.3568,-1.87486 L -49.337,-1.88158 L -49.3679,-0.837158 L -63.3561,-1.21608 L -63.3859,-0
 L -63.3561,1.21608 L -39.385,0.566727 L -39.3579,1.56636 L -49.3383,1.83672 L -49.337,1.88158 L -49.3568,1.87486
 L -51.3105,2.78197 L -49.2702,3.47252 L -49.2512,3.4637 L -49.169,4.50536 L -63.1228,5.64157 L -63.0807,6.21291
 L -62.853,8.05893 L -39.0929,4.82167 L -38.9579,5.81252 L -48.8505,7.16035 L -48.8443,7.20482 L -48.8648,7.20029
 L -50.709,8.31331 L -48.6059,8.77921 L -48.588,8.76839 L -48.3937,9.79504 L -62.1525,12.4351 L -61.6194,14.8088
 L -38.3424,9.02008 L -38.101,9.99052 L -47.7899,12.4001 L -47.779,12.4436 L -47.7998,12.4413 L -49.5129,13.7472
 L -47.3718,13.983 L -47.3551,13.9703 L -47.0509,14.9699 L -60.4323,19.0786 L -59.6806,21.3541 L -59.6675,21.3881
 L -37.1424,13.1127 L -36.7975,14.0514 L -46.1691,17.4944 L -46.1535,17.5365 L -46.1745,17.5364 L -47.7363,19.0199
 L -45.5823,19.0228 L -45.5671,19.0084 L -45.1566,19.9693 L -58.0105,25.4986 L -57.3002,27.101 L -56.9944,27.7085
 L -35.5069,17.0517 L -35.0626,17.9476 L -44.007,22.3836 L -43.987,22.4237 L -44.0078,22.426 L -45.4001,24.0696
 L -43.2583,23.8396 L -43.2448,23.8236 L -42.7328,24.7345 L -54.9146,31.6218 L -54.3679,32.5869 L -53.6597,33.7052
 L -33.4552,20.7907 L -32.9166,21.6333 L -41.3289,27.0103 L -41.3047,27.0481 L -41.3251,27.0526 L -42.5316,28.8371
 L -40.4272,28.3769 L -40.4155,28.3595 L -39.8081,29.2097 L -51.1801,37.3783 L -50.912,37.7589 L -49.7017,39.3098
 L -31.0112,24.286 L -30.3847,25.0654 L -38.1663,31.3205 L -38.1381,31.3554 L -38.158,31.362 L -39.1644,33.2665
 L -37.1222,32.5815 L -37.1124,32.563 L -36.4166,33.3425 L -46.843,42.6964 L -45.1655,44.4584 L -28.2036,27.4965
 L -27.4965,28.2036 L -34.5563,35.2634 L -34.5244,35.295 L -34.5435,35.3038 L -35.3381,37.3059 L -33.3819,36.4041
 L -33.3741,36.3846 L -32.5981,37.0844 L -41.9449,47.5028 L -40.2116,48.998 L -40.0983,49.0864 L -25.0654,30.3847
 L -24.286,31.0112 L -30.541,38.7928 L -30.506,38.8209 L -30.524,38.8316 L -31.0974,40.908 L -29.2502,39.7999
 L -29.2446,39.7797 L -28.3975,40.3915 L -36.5607,51.756 L -35.2153,52.7035 L -34.5501,53.1247 L -21.6333,32.9166
 L -20.7907,33.4552 L -26.1678,41.8675 L -26.1299,41.8916 L -26.1466,41.9042 L -26.4922,44.0304 L -24.7756,42.7291
 L -24.7722,42.7084 L -23.864,43.225 L -30.7517,55.4075 L -29.8799,55.9014 L -28.6017,56.5448 L -17.9476,35.0626
 L -17.0517,35.5069 L -21.4877,44.4513 L -21.4474,44.4711 L -21.4627,44.4855 L -21.5764,46.6366 L -20.0105,45.1573
 L -20.0094,45.1364 L -19.0506,45.5518 L -24.5843,58.4157 L -24.2567,58.5609 L -22.3212,59.3076 L -14.0514,36.7975
 L -13.1127,37.1424 L -16.5557,46.514 L -16.5135,46.5293 L -16.5271,46.5453 L -16.4076,48.696 L -15.0109,47.0562
 L -15.012,47.0352 L -14.0139,47.3445 L -18.1248,60.7327 L -15.7801,61.3815 L -9.99052,38.101 L -9.02008,38.3424
 L -11.4296,48.0313 L -11.386,48.042 L -11.3978,48.0593 L -11.0464,50.1845 L -9.83521,48.4033 L -9.83862,48.3826
 L -8.81296,48.5821 L -11.4503,62.3268 L -9.30064,62.6999 L -9.05148,62.7306 L -5.81252,38.9579 L -4.82167,39.0929
 L -6.16951,48.9855 L -6.12503,48.9914 L -6.13486,49.0099 L -5.55579,51.0847 L -4.54424,49.1829 L -4.54987,49.1627
 L -3.50865,49.2502 L -4.64426,63.1964 L -3.1102,63.3096 L -2.21579,63.3315 L -1.56636,39.3579 L -0.566727,39.385
 L -0.837082,49.3654 L -0.792206,49.3665 L -0.799988,49.3859 L 0,51.3859 L 0.799988,49.3859 L 0.792206,49.3665
 L 1.83679,49.3408 L 2.21579,63.3315 z
M -0.245331,4.99397 L -0.490082,4.97592 L -0.733643,4.94588 L -0.975449,4.90392 L -1.21489,4.85014 L -1.45142,4.7847
 L -1.68445,4.70772 L -1.91341,4.61938 L -2.13777,4.51994 L -2.35698,4.40959 L -2.57051,4.28864 L -2.77785,4.15733
 L -2.97849,4.01604 L -3.17195,3.86505 L -3.35779,3.70474 L -3.53552,3.53552 L -3.70474,3.35779 L -3.86505,3.17195
 L -4.01604,2.97849 L -4.15733,2.77785 L -4.28864,2.57051 L -4.40959,2.35698 L -4.51994,2.13777 L -4.61938,1.91341
 L -4.70772,1.68445 L -4.7847,1.45142 L -4.85014,1.21489 L -4.90392,0.975449 L -4.94588,0.733643 L -4.97592,0.490082
 L -4.99397,0.245331 L -5,-0 L -4.99397,-0.245331 L -4.97592,-0.490082 L -4.94588,-0.733643 L -4.90392,-0.975449
 L -4.85014,-1.21489 L -4.7847,-1.45142 L -4.70772,-1.68445 L -4.61938,-1.91341 L -4.51994,-2.13777 L -4.40959,-2.35698
 L -4.28864,-2.57051 L -4.15733,-2.77785 L -4.01604,-2.97849 L -3.86505,-3.17195 L -3.70474,-3.35779 L -3.53552,-3.53552
 L -3.35779,-3.70474 L -3.17195,-3.86505 L -2.97849,-4.01604 L -2.77785,-4.15733 L -2.57051,-4.28864 L -2.35698,-4.40959
 L -2.13777,-4.51994 L -1.91341,-4.61938 L -1.68445,-4.70772 L -1.45142,-4.7847 L -1.21489,-4.85014 L -0.975449,-4.90392
 L -0.733643,-4.94588 L -0.490082,-4.97592 L -0.245331,-4.99397 L 0,-5 L 0.245331,-4.99397 L 0.490082,-4.97592
 L 0.733643,-4.94588 L 0.975449,-4.90392 L 1.21489,-4.85014 L 1.45142,-4.7847 L 1.68445,-4.70772 L 1.91341,-4.61938
 L 2.13777,-4.51994 L 2.35698,-4.40959 L 2.57051,-4.28864 L 2.77785,-4.15733 L 2.97849,-4.01604 L 3.17195,-3.86505
 L 3.35779,-3.70474 L 3.53552,-3.53552 L 3.70474,-3.35779 L 3.86505,-3.17195 L 4.01604,-2.97849 L 4.15733,-2.77785
 L 4.28864,-2.57051 L 4.40959,-2.35698 L 4.51994,-2.13777 L 4.61938,-1.91341 L 4.70772,-1.68445 L 4.7847,-1.45142
 L 4.85014,-1.21489 L 4.90392,-0.975449 L 4.94588,-0.733643 L 4.97592,-0.490082 L 4.99397,-0.245331 L 5,-0
 L 4.99397,0.245331 L 4.97592,0.490082 L 4.94588,0.733643 L 4.90392,0.975449 L 4.85014,1.21489 L 4.7847,1.45142
 L 4.70772,1.68445 L 4.61938,1.91341 L 4.51994,2.13777 L 4.40959,2.35698 L 4.28864,2.57051 L 4.15733,2.77785
 L 4.01604,2.97849 L 3.86505,3.17195 L 3.70474,3.35779 L 3.53552,3.53552 L 3.35779,3.70474 L 3.17195,3.86505
 L 2.97849,4.01604 L 2.77785,4.15733 L 2.57051,4.28864 L 2.35698,4.40959 L 2.13777,4.51994 L 1.91341,4.61938
 L 1.68445,4.70772 L 1.45142,4.7847 L 1.21489,4.85014 L 0.975449,4.90392 L 0.733643,4.94588 L 0.490082,4.97592
 L 0.245331,4.99397 L 0,5 z
" stroke="black" fill="lightgray" stroke-width="0.5"/>
</svg>
