<?xml version="1.0" standalone="no"?>
<!DOCTYPE svg PUBLIC "-//W3C//DTD SVG 1.1//EN" "http://www.w3.org/Graphics/SVG/1.1/DTD/svg11.dtd">
<svg width="40mm" height="41mm" viewBox="71 -2 40 41" xmlns="http://www.w3.org/2000/svg" version="1.1">
<title>OpenSCAD Model</title>
<path d="
M 91.981,38.1073 L 92.9598,38.033 L 93.9338,37.9108 L 94.9007,37.7409 L 95.858,37.5238 L 96.8036,37.26
 L 97.735,36.9501 L 98.6501,36.5949 L 99.5467,36.1952 L 100.423,35.7519 L 101.276,35.2663 L 102.104,34.7393
 L 102.905,34.1724 L 103.678,33.5668 L 104.42,32.9241 L 105.129,32.2457 L 105.805,31.5333 L 106.444,30.7886
 L 107.047,30.0134 L 107.61,29.2097 L 108.134,28.3792 L 108.616,27.5241 L 109.055,26.6463 L 109.451,25.748
 L 109.802,24.8314 L 110.108,23.8987 L 110.368,22.952 L 110.581,21.9938 L 110.604,21.8602 L 107.939,18.9317
 L 110.867,16.2661 L 110.857,16.131 L 110.735,15.157 L 110.565,14.1902 L 110.348,13.2328 L 110.084,12.2873
 L 109.774,11.3558 L 109.419,10.4407 L 109.019,9.54413 L 108.576,8.66824 L 108.09,7.81514 L 107.563,6.98691
 L 106.996,6.18553 L 106.391,5.41293 L 105.748,4.67097 L 105.069,3.96146 L 104.357,3.28609 L 103.612,2.64647
 L 102.837,2.04417 L 102.033,1.48064 L 101.203,0.957214 L 100.348,0.475174 L 99.47,0.035675 L 98.5718,-0.360214
 L 97.6552,-0.711563 L 96.7224,-1.01752 L 95.7758,-1.27733 L 94.8175,-1.49037 L 93.85,-1.65614 L 92.8754,-1.77425
 L 91.8963,-1.84439 L 90.9149,-1.86639 L 89.9336,-1.84023 L 88.9548,-1.76593 L 87.9807,-1.64371 L 87.0139,-1.47383
 L 86.0566,-1.25671 L 85.111,-0.992889 L 84.1796,-0.682999 L 83.2645,-0.327759 L 82.3679,0.0719299 L 81.492,0.515152
 L 80.6389,1.00081 L 79.8107,1.52776 L 79.0093,2.0947 L 78.2367,2.70027 L 77.4947,3.34303 L 76.7852,4.02142
 L 76.1098,4.73381 L 75.4702,5.47849 L 74.8679,6.25365 L 74.3044,7.05742 L 73.781,7.88788 L 73.2989,8.74303
 L 72.8594,9.62079 L 72.4635,10.5191 L 72.1122,11.4357 L 71.8062,12.3684 L 71.5464,13.3151 L 71.3334,14.2733
 L 71.3105,14.4069 L 73.976,17.3354 L 71.0475,20.001 L 71.0578,20.1361 L 71.18,21.1101 L 71.3499,22.0769
 L 71.567,23.0343 L 71.8308,23.9798 L 72.1407,24.9113 L 72.496,25.8264 L 72.8957,26.723 L 73.3389,27.5989
 L 73.8246,28.452 L 74.3515,29.2802 L 74.9184,30.0816 L 75.524,30.8542 L 76.1668,31.5961 L 76.8452,32.3056
 L 77.5576,32.981 L 78.3022,33.6206 L 79.0774,34.2229 L 79.8812,34.7865 L 80.7116,35.3099 L 81.5668,35.7919
 L 82.4445,36.2314 L 83.3428,36.6273 L 84.2594,36.9787 L 85.1922,37.2846 L 86.1388,37.5444 L 87.0971,37.7575
 L 88.0646,37.9232 L 89.0392,38.0414 L 90.0183,38.1115 L 90.9997,38.1335 z
M 87.7152,21.0846 L 88.0063,14.8914 L 94.1994,15.1825 L 93.9083,21.3757 z
" stroke="black" fill="lightgray" stroke-width="0.5"/>
</svg>
