<?xml version="1.0" standalone="no"?>
<!DOCTYPE svg PUBLIC "-//W3C//DTD SVG 1.1//EN" "http://www.w3.org/Graphics/SVG/1.1/DTD/svg11.dtd">
<svg width="96mm" height="112mm" viewBox="-56 -56 96 112" xmlns="http://www.w3.org/2000/svg" version="1.1">
<title>OpenSCAD Model</title>
<path d="
M 1.93257,55.3192 L 3.86049,55.1192 L 5.77911,54.7864 L 7.68381,54.3217 L 9.56999,53.7261 L 11.4331,53.001
 L 13.2687,52.1483 L 15.0723,51.1699 L 16.8396,50.0683 L 18.5664,48.846 L 20.2484,47.5061 L 21.8816,46.0517
 L 23.4622,44.4864 L 24.9862,42.8139 L 26.45,41.0383 L 27.8501,39.1638 L 29.183,37.1949 L 30.4457,35.1364
 L 31.6351,32.9933 L 32.7482,30.7708 L 33.7824,28.474 L 34.7353,26.1087 L 35.6044,23.6805 L 36.3878,21.1953
 L 37.0836,18.659 L 37.69,16.0777 L 38.2056,13.4577 L 38.6291,10.8053 L 38.9596,8.1268 L 39.1963,5.42876
 L 39.3385,2.71765 L 39.3859,-0 L 39.3385,-1.93257 L 39.1963,-3.86049 L 38.9596,-5.77911 L 38.6291,-7.68381
 L 38.2056,-9.56999 L 37.69,-11.4331 L 37.0836,-13.2687 L 36.3878,-15.0723 L 35.6044,-16.8396 L 34.7353,-18.5664
 L 33.7824,-20.2484 L 32.7482,-21.8816 L 31.6351,-23.4622 L 30.4457,-24.9862 L 29.183,-26.45 L 27.8501,-27.8501
 L 26.45,-29.183 L 24.9862,-30.4457 L 23.4622,-31.6351 L 21.8816,-32.7482 L 20.2484,-33.7824 L 18.5664,-34.7353
 L 16.8396,-35.6044 L 15.0723,-36.3878 L 13.2687,-37.0836 L 11.4331,-37.69 L 9.56999,-38.2056 L 7.68381,-38.6291
 L 5.77911,-38.9596 L 3.86049,-39.1963 L 1.93257,-39.3385 L 0,-39.3859 L 0,-55.3859 L -2.71765,-55.3192
 L -5.42876,-55.1192 L -8.1268,-54.7864 L -10.8053,-54.3217 L -13.4577,-53.7261 L -16.0777,-53.001 L -18.659,-52.1483
 L -21.1953,-51.1699 L -23.6805,-50.0683 L -26.1087,-48.846 L -28.474,-47.5061 L -30.7708,-46.0517 L -32.9933,-44.4864
 L -35.1364,-42.8139 L -37.1949,-41.0383 L -39.1638,-39.1638 L -41.0383,-37.1949 L -42.8139,-35.1364 L -44.4864,-32.9933
 L -46.0517,-30.7708 L -47.5061,-28.474 L -48.846,-26.1087 L -50.0683,-23.6805 L -51.1699,-21.1953 L -52.1483,-18.659
 L -53.001,-16.0777 L -53.7261,-13.4577 L -54.3217,-10.8053 L -54.7864,-8.1268 L -55.1192,-5.42876 L -55.3192,-2.71765
 L -55.3859,-0 L -55.3192,2.71765 L -55.1192,5.42876 L -54.7864,8.1268 L -54.3217,10.8053 L -53.7261,13.4577
 L -53.001,16.0777 L -52.1483,18.659 L -51.1699,21.1953 L -50.0683,23.6805 L -48.846,26.1087 L -47.5061,28.474
 L -46.0517,30.7708 L -44.4864,32.9933 L -42.8139,35.1364 L -41.0383,37.1949 L -39.1638,39.1638 L -37.1949,41.0383
 L -35.1364,42.8139 L -32.9933,44.4864 L -30.7708,46.0517 L -28.474,47.5061 L -26.1087,48.846 L -23.6805,50.0683
 L -21.1953,51.1699 L -18.659,52.1483 L -16.0777,53.001 L -13.4577,53.7261 L -10.8053,54.3217 L -8.1268,54.7864
 L -5.42876,55.1192 L -2.71765,55.3192 L 0,55.3859 z
M -0.245331,4.99397 L -0.490082,4.97592 L -0.733643,4.94588 L -0.975449,4.90392 L -1.21489,4.85014 L -1.45142,4.7847
 L -1.68445,4.70772 L -1.91341,4.61938 L -2.13777,4.51994 L -2.35698,4.40959 L -2.57051,4.28864 L -2.77785,4.15733
 L -2.97849,4.01604 L -3.17195,3.86505 L -3.35779,3.70474 L -3.53552,3.53552 L -3.70474,3.35779 L -3.86505,3.17195
 L -4.01604,2.97849 L -4.15733,2.77785 L -4.28864,2.57051 L -4.40959,2.35698 L -4.51994,2.13777 L -4.61938,1.91341
 L -4.70772,1.68445 L -4.7847,1.45142 L -4.85014,1.21489 L -4.90392,0.975449 L -4.94588,0.733643 L -4.97592,0.490082
 L -4.99397,0.245331 L -5,-0 L -4.99397,-0.245331 L -4.97592,-0.490082 L -4.94588,-0.733643 L -4.90392,-0.975449
 L -4.85014,-1.21489 L -4.7847,-1.45142 L -4.70772,-1.68445 L -4.61938,-1.91341 L -4.51994,-2.13777 L -4.40959,-2.35698
 L -4.28864,-2.57051 L -4.15733,-2.77785 L -4.01604,-2.97849 L -3.86505,-3.17195 L -3.70474,-3.35779 L -3.53552,-3.53552
 L -3.35779,-3.70474 L -3.17195,-3.86505 L -2.97849,-4.01604 L -2.77785,-4.15733 L -2.57051,-4.28864 L -2.35698,-4.40959
 L -2.13777,-4.51994 L -1.91341,-4.61938 L -1.68445,-4.70772 L -1.45142,-4.7847 L -1.21489,-4.85014 L -0.975449,-4.90392
 L -0.733643,-4.94588 L -0.490082,-4.97592 L -0.245331,-4.99397 L 0,-5 L 0.245331,-4.99397 L 0.490082,-4.97592
 L 0.733643,-4.94588 L 0.975449,-4.90392 L 1.21489,-4.85014 L 1.45142,-4.7847 L 1.68445,-4.70772 L 1.91341,-4.61938
 L 2.13777,-4.51994 L 2.35698,-4.40959 L 2.57051,-4.28864 L 2.77785,-4.15733 L 2.97849,-4.01604 L 3.17195,-3.86505
 L 3.35779,-3.70474 L 3.53552,-3.53552 L 3.70474,-3.35779 L 3.86505,-3.17195 L 4.01604,-2.97849 L 4.15733,-2.77785
 L 4.28864,-2.57051 L 4.40959,-2.35698 L 4.51994,-2.13777 L 4.61938,-1.91341 L 4.70772,-1.68445 L 4.7847,-1.45142
 L 4.85014,-1.21489 L 4.90392,-0.975449 L 4.94588,-0.733643 L 4.97592,-0.490082 L 4.99397,-0.245331 L 5,-0
 L 4.99397,0.245331 L 4.97592,0.490082 L 4.94588,0.733643 L 4.90392,0.975449 L 4.85014,1.21489 L 4.7847,1.45142
 L 4.70772,1.68445 L 4.61938,1.91341 L 4.51994,2.13777 L 4.40959,2.35698 L 4.28864,2.57051 L 4.15733,2.77785
 L 4.01604,2.97849 L 3.86505,3.17195 L 3.70474,3.35779 L 3.53552,3.53552 L 3.35779,3.70474 L 3.17195,3.86505
 L 2.97849,4.01604 L 2.77785,4.15733 L 2.57051,4.28864 L 2.35698,4.40959 L 2.13777,4.51994 L 1.91341,4.61938
 L 1.68445,4.70772 L 1.45142,4.7847 L 1.21489,4.85014 L 0.975449,4.90392 L 0.733643,4.94588 L 0.490082,4.97592
 L 0.245331,4.99397 L 0,5 z
" stroke="black" fill="lightgray" stroke-width="0.5"/>
</svg>
