<?xml version="1.0" standalone="no"?>
<!DOCTYPE svg PUBLIC "-//W3C//DTD SVG 1.1//EN" "http://www.w3.org/Graphics/SVG/1.1/DTD/svg11.dtd">
<svg width="62mm" height="23mm" viewBox="0 27 62 23" xmlns="http://www.w3.org/2000/svg" version="1.1">
<title>OpenSCAD Model</title>
<path d="
M 31.4602,49.5919 L 31.9456,49.5199 L 32.4216,49.4007 L 32.8835,49.2354 L 33.3271,49.0256 L 33.748,48.7733
 L 34.1421,48.481 L 34.5057,48.1515 L 34.8352,47.7879 L 35.1275,47.3938 L 35.3797,46.9729 L 35.5895,46.5294
 L 35.7548,46.0674 L 35.8741,45.5914 L 35.946,45.106 L 35.9701,44.616 L 35.9701,37.116 L 61.9403,37.116
 L 61.9403,27.116 L 30.9701,27.116 L 30.48,27.14 L 29.9947,27.212 L 29.5187,27.3313 L 29.0567,27.4966
 L 28.6131,27.7063 L 28.1923,27.9586 L 27.7982,28.2509 L 27.4346,28.5804 L 27.1051,28.944 L 26.8128,29.3381
 L 26.5605,29.759 L 26.3507,30.2025 L 26.1854,30.6645 L 26.0662,31.1405 L 25.9942,31.6259 L 25.9701,32.116
 L 25.9701,39.616 L 0,39.616 L 10,49.616 L 30.9701,49.616 z
M 30.7741,34.1063 L 30.5799,34.0775 L 30.3896,34.0298 L 30.2048,33.9637 L 30.0273,33.8798 L 29.859,33.7789
 L 29.7013,33.662 L 29.5559,33.5302 L 29.4241,33.3848 L 29.3072,33.2271 L 29.2063,33.0587 L 29.1224,32.8813
 L 29.0562,32.6965 L 29.0086,32.5061 L 28.9798,32.312 L 28.9701,32.116 L 28.9798,31.9199 L 29.0086,31.7258
 L 29.0562,31.5354 L 29.1224,31.3506 L 29.2063,31.1732 L 29.3072,31.0048 L 29.4241,30.8472 L 29.5559,30.7018
 L 29.7013,30.5699 L 29.859,30.453 L 30.0273,30.3521 L 30.2048,30.2682 L 30.3896,30.2021 L 30.5799,30.1544
 L 30.7741,30.1256 L 30.9701,30.116 L 31.1662,30.1256 L 31.3603,30.1544 L 31.5507,30.2021 L 31.7355,30.2682
 L 31.9129,30.3521 L 32.0813,30.453 L 32.2389,30.5699 L 32.3843,30.7018 L 32.5161,30.8472 L 32.6331,31.0048
 L 32.734,31.1732 L 32.8179,31.3506 L 32.884,31.5354 L 32.9317,31.7258 L 32.9605,31.9199 L 32.9701,32.116
 L 32.9605,32.312 L 32.9317,32.5061 L 32.884,32.6965 L 32.8179,32.8813 L 32.734,33.0587 L 32.6331,33.2271
 L 32.5161,33.3848 L 32.3843,33.5302 L 32.2389,33.662 L 32.0813,33.7789 L 31.9129,33.8798 L 31.7355,33.9637
 L 31.5507,34.0298 L 31.3603,34.0775 L 31.1662,34.1063 L 30.9701,34.116 z
" stroke="black" fill="lightgray" stroke-width="0.5"/>
</svg>
