  0
SECTION
  2
HEADER
  9
$ACADVER
  1
AC1014
  9
$HANDSEED
  5
FFFF
  9
$MEASUREMENT
 70
     1
  0
ENDSEC
  0
SECTION
  2
TABLES
  0
TABLE
  2
VPORT
  5
8
330
0
100
AcDbSymbolTable
 70
     4
  0
VPORT
  5
2E
330
8
100
AcDbSymbolTableRecord
100
AcDbViewportTableRecord
  2
*ACTIVE
 70
     0
 10
0.0
 20
0.0
 11
1.0
 21
1.0
 12
210.0
 22
148.5
 13
0.0
 23
0.0
 14
10.0
 24
10.0
 15
10.0
 25
10.0
 16
0.0
 26
0.0
 36
1.0
 17
0.0
 27
0.0
 37
0.0
 40
341.0
 41
1.24
 42
50.0
 43
0.0
 44
0.0
 50
0.0
 51
0.0
 71
     0
 72
   100
 73
     1
 74
     3
 75
     0
 76
     0
 77
     0
 78
     0
  0
ENDTAB
  0
TABLE
  2
LTYPE
  5
5
330
0
100
AcDbSymbolTable
 70
     1
  0
LTYPE
  5
14
330
5
100
AcDbSymbolTableRecord
100
AcDbLinetypeTableRecord
  2
BYBLOCK
 70
     0
  3

 72
    65
 73
     0
 40
0.0
  0
LTYPE
  5
15
330
5
100
AcDbSymbolTableRecord
100
AcDbLinetypeTableRecord
  2
BYLAYER
 70
     0
  3

 72
    65
 73
     0
 40
0.0
  0
LTYPE
  5
16
330
5
100
AcDbSymbolTableRecord
100
AcDbLinetypeTableRecord
  2
CONTINUOUS
 70
     0
  3
Solid line
 72
    65
 73
     0
 40
0.0
  0
ENDTAB
  0
TABLE
  2
LAYER
  5
2
100
AcDbSymbolTable
 70
2
  0
LAYER
  5
50
100
AcDbSymbolTableRecord
100
AcDbLayerTableRecord
  2
0
 70
0
  6
CONTINUOUS
  0
LAYER
  5
51
100
AcDbSymbolTableRecord
100
AcDbLayerTableRecord
  2
Layer_1
 70
0
  6
CONTINUOUS
  0
ENDTAB
  0
TABLE
  2
STYLE
  5
3
330
0
100
AcDbSymbolTable
 70
     1
  0
STYLE
  5
11
330
3
100
AcDbSymbolTableRecord
100
AcDbTextStyleTableRecord
  2
STANDARD
 70
     0
 40
0.0
 41
1.0
 50
0.0
 71
     0
 42
2.5
  3
txt
  4

  0
ENDTAB
  0
TABLE
  2
VIEW
  5
6
330
0
100
AcDbSymbolTable
 70
     0
  0
ENDTAB
  0
TABLE
  2
UCS
  5
7
330
0
100
AcDbSymbolTable
 70
     0
  0
ENDTAB
  0
TABLE
  2
APPID
  5
9
330
0
100
AcDbSymbolTable
 70
     2
  0
APPID
  5
12
330
9
100
AcDbSymbolTableRecord
100
AcDbRegAppTableRecord
  2
ACAD
 70
     0
  0
ENDTAB
  0
TABLE
  2
DIMSTYLE
  5
A
330
0
100
AcDbSymbolTable
 70
     1
  0
DIMSTYLE
105
27
330
A
100
AcDbSymbolTableRecord
100
AcDbDimStyleTableRecord
  2
ISO-25
 70
     0
  3

  4

  5

  6

  7

 40
1.0
 41
2.5
 42
0.625
 43
3.75
 44
1.25
 45
0.0
 46
0.0
 47
0.0
 48
0.0
140
2.5
141
2.5
142
0.0
143
0.03937007874016
144
1.0
145
0.0
146
1.0
147
0.625
 71
     0
 72
     0
 73
     0
 74
     0
 75
     0
 76
     0
 77
     1
 78
     8
170
     0
171
     3
172
     1
173
     0
174
     0
175
     0
176
     0
177
     0
178
     0
270
     2
271
     2
272
     2
273
     2
274
     3
340
11
275
     0
280
     0
281
     0
282
     0
283
     0
284
     8
285
     0
286
     0
287
     3
288
     0
  0
ENDTAB
  0
TABLE
  2
BLOCK_RECORD
  5
1
330
0
100
AcDbSymbolTable
 70
     1
  0
BLOCK_RECORD
  5
1F
330
1
100
AcDbSymbolTableRecord
100
AcDbBlockTableRecord
  2
*MODEL_SPACE
  0
BLOCK_RECORD
  5
1B
330
1
100
AcDbSymbolTableRecord
100
AcDbBlockTableRecord
  2
*PAPER_SPACE
  0
ENDTAB
  0
ENDSEC
  0
SECTION
  2
BLOCKS
  0
BLOCK
  5
20
330
1F
100
AcDbEntity
  8
0
100
AcDbBlockBegin
  2
*MODEL_SPACE
 70
     0
 10
0.0
 20
0.0
 30
0.0
  3
*MODEL_SPACE
  1

  0
ENDBLK
  5
21
330
1F
100
AcDbEntity
  8
0
100
AcDbBlockEnd
  0
BLOCK
  5
1C
330
1B
100
AcDbEntity
 67
     1
  8
0
100
AcDbBlockBegin
  2
*PAPER_SPACE
  1

  0
ENDBLK
  5
1D
330
1B
100
AcDbEntity
 67
     1
  8
0
100
AcDbBlockEnd
  0
ENDSEC
  0
SECTION
  2
ENTITIES
  0
LWPOLYLINE
  5
100
100
AcDbEntity
  8
Layer_1
 62
7
100
AcDbPolyline
 90
124
 70
1
 10
66.974900
 20
2.528000
 30
0.0
 10
67.953700
 20
2.602000
 30
0.0
 10
68.927700
 20
2.724000
 30
0.0
 10
69.894600
 20
2.894000
 30
0.0
 10
70.851900
 20
3.111000
 30
0.0
 10
71.797500
 20
3.375000
 30
0.0
 10
72.728900
 20
3.685000
 30
0.0
 10
73.644000
 20
4.040000
 30
0.0
 10
74.540600
 20
4.440000
 30
0.0
 10
75.416900
 20
4.883000
 30
0.0
 10
76.269900
 20
5.369000
 30
0.0
 10
77.097900
 20
5.896000
 30
0.0
 10
77.898900
 20
6.463000
 30
0.0
 10
78.671900
 20
7.068000
 30
0.0
 10
79.413900
 20
7.711000
 30
0.0
 10
80.122900
 20
8.390000
 30
0.0
 10
80.798900
 20
9.102000
 30
0.0
 10
81.437900
 20
9.847000
 30
0.0
 10
82.040900
 20
10.622000
 30
0.0
 10
82.603900
 20
11.426000
 30
0.0
 10
83.127900
 20
12.256000
 30
0.0
 10
83.609900
 20
13.111000
 30
0.0
 10
84.048900
 20
13.989000
 30
0.0
 10
84.444900
 20
14.887000
 30
0.0
 10
84.795900
 20
15.804000
 30
0.0
 10
85.101900
 20
16.737000
 30
0.0
 10
85.361900
 20
17.683000
 30
0.0
 10
85.574900
 20
18.641000
 30
0.0
 10
85.740900
 20
19.609000
 30
0.0
 10
85.858900
 20
20.584000
 30
0.0
 10
85.928900
 20
21.563000
 30
0.0
 10
85.950900
 20
22.544000
 30
0.0
 10
85.924900
 20
23.525000
 30
0.0
 10
85.850900
 20
24.504000
 30
0.0
 10
85.728900
 20
25.478000
 30
0.0
 10
85.558900
 20
26.445000
 30
0.0
 10
85.341900
 20
27.402000
 30
0.0
 10
85.077900
 20
28.348000
 30
0.0
 10
84.767900
 20
29.279000
 30
0.0
 10
84.412900
 20
30.195000
 30
0.0
 10
84.012900
 20
31.091000
 30
0.0
 10
83.569900
 20
31.967000
 30
0.0
 10
83.083900
 20
32.820000
 30
0.0
 10
82.556900
 20
33.648000
 30
0.0
 10
81.989900
 20
34.450000
 30
0.0
 10
81.384900
 20
35.222000
 30
0.0
 10
80.741900
 20
35.964000
 30
0.0
 10
80.062900
 20
36.674000
 30
0.0
 10
79.350900
 20
37.349000
 30
0.0
 10
78.605900
 20
37.989000
 30
0.0
 10
77.830900
 20
38.591000
 30
0.0
 10
77.026900
 20
39.155000
 30
0.0
 10
76.196900
 20
39.678000
 30
0.0
 10
75.341900
 20
40.160000
 30
0.0
 10
74.463900
 20
40.600000
 30
0.0
 10
73.565700
 20
40.995000
 30
0.0
 10
72.649100
 20
41.347000
 30
0.0
 10
71.716300
 20
41.653000
 30
0.0
 10
70.769700
 20
41.913000
 30
0.0
 10
69.811400
 20
42.126000
 30
0.0
 10
68.843900
 20
42.291000
 30
0.0
 10
67.869300
 20
42.410000
 30
0.0
 10
66.890200
 20
42.480000
 30
0.0
 10
65.908800
 20
42.502000
 30
0.0
 10
64.927500
 20
42.475000
 30
0.0
 10
63.948700
 20
42.401000
 30
0.0
 10
62.974600
 20
42.279000
 30
0.0
 10
62.007800
 20
42.109000
 30
0.0
 10
61.050500
 20
41.892000
 30
0.0
 10
60.104900
 20
41.628000
 30
0.0
 10
59.173500
 20
41.318000
 30
0.0
 10
58.258400
 20
40.963000
 30
0.0
 10
57.361800
 20
40.563000
 30
0.0
 10
56.485900
 20
40.120000
 30
0.0
 10
55.632800
 20
39.634000
 30
0.0
 10
54.804600
 20
39.107000
 30
0.0
 10
54.003200
 20
38.540000
 30
0.0
 10
53.230600
 20
37.935000
 30
0.0
 10
52.488600
 20
37.292000
 30
0.0
 10
51.779100
 20
36.614000
 30
0.0
 10
51.103700
 20
35.901000
 30
0.0
 10
50.464100
 20
35.157000
 30
0.0
 10
49.861800
 20
34.382000
 30
0.0
 10
49.298300
 20
33.578000
 30
0.0
 10
48.774900
 20
32.747000
 30
0.0
 10
48.292800
 20
31.892000
 30
0.0
 10
47.853300
 20
31.014000
 30
0.0
 10
47.457400
 20
30.116000
 30
0.0
 10
47.106100
 20
29.199000
 30
0.0
 10
46.800100
 20
28.267000
 30
0.0
 10
46.540300
 20
27.320000
 30
0.0
 10
46.327300
 20
26.362000
 30
0.0
 10
46.304400
 20
26.228000
 30
0.0
 10
48.969900
 20
23.300000
 30
0.0
 10
46.041400
 20
20.634000
 30
0.0
 10
46.051700
 20
20.499000
 30
0.0
 10
46.173900
 20
19.525000
 30
0.0
 10
46.343800
 20
18.558000
 30
0.0
 10
46.560900
 20
17.601000
 30
0.0
 10
46.824700
 20
16.655000
 30
0.0
 10
47.134600
 20
15.724000
 30
0.0
 10
47.489900
 20
14.809000
 30
0.0
 10
47.889600
 20
13.912000
 30
0.0
 10
48.332800
 20
13.036000
 30
0.0
 10
48.818500
 20
12.183000
 30
0.0
 10
49.345400
 20
11.355000
 30
0.0
 10
49.423700
 20
11.244000
 30
0.0
 10
53.379300
 20
11.058000
 30
0.0
 10
53.193300
 20
7.103000
 30
0.0
 10
53.296100
 20
7.015000
 30
0.0
 10
54.071300
 20
6.412000
 30
0.0
 10
54.875100
 20
5.849000
 30
0.0
 10
55.705500
 20
5.325000
 30
0.0
 10
56.560700
 20
4.843000
 30
0.0
 10
57.438400
 20
4.404000
 30
0.0
 10
58.336700
 20
4.008000
 30
0.0
 10
59.253300
 20
3.656000
 30
0.0
 10
60.186100
 20
3.351000
 30
0.0
 10
61.132700
 20
3.091000
 30
0.0
 10
62.091000
 20
2.878000
 30
0.0
 10
63.058500
 20
2.712000
 30
0.0
 10
64.033100
 20
2.594000
 30
0.0
 10
65.012200
 20
2.524000
 30
0.0
 10
65.993600
 20
2.502000
 30
0.0
  0
LWPOLYLINE
  5
101
100
AcDbEntity
  8
Layer_1
 62
7
100
AcDbPolyline
 90
4
 70
1
 10
62.709100
 20
19.551000
 30
0.0
 10
63.000200
 20
25.744000
 30
0.0
 10
69.193300
 20
25.453000
 30
0.0
 10
68.902200
 20
19.260000
 30
0.0
  0
LWPOLYLINE
  5
102
100
AcDbEntity
  8
Layer_1
 62
7
100
AcDbPolyline
 90
124
 70
1
 10
25.990600
 20
44.197000
 30
0.0
 10
26.964600
 20
44.320000
 30
0.0
 10
27.931500
 20
44.490000
 30
0.0
 10
28.888800
 20
44.707000
 30
0.0
 10
29.834400
 20
44.970000
 30
0.0
 10
30.765800
 20
45.280000
 30
0.0
 10
31.680900
 20
45.636000
 30
0.0
 10
32.577500
 20
46.035000
 30
0.0
 10
33.453800
 20
46.479000
 30
0.0
 10
34.306800
 20
46.964000
 30
0.0
 10
35.134800
 20
47.491000
 30
0.0
 10
35.935800
 20
48.058000
 30
0.0
 10
36.708800
 20
48.664000
 30
0.0
 10
37.450800
 20
49.306000
 30
0.0
 10
38.159800
 20
49.985000
 30
0.0
 10
38.835800
 20
50.697000
 30
0.0
 10
39.474800
 20
51.442000
 30
0.0
 10
40.077800
 20
52.217000
 30
0.0
 10
40.640800
 20
53.021000
 30
0.0
 10
41.164800
 20
53.851000
 30
0.0
 10
41.646800
 20
54.706000
 30
0.0
 10
42.085800
 20
55.584000
 30
0.0
 10
42.481800
 20
56.482000
 30
0.0
 10
42.832800
 20
57.399000
 30
0.0
 10
43.138800
 20
58.332000
 30
0.0
 10
43.398800
 20
59.278000
 30
0.0
 10
43.611800
 20
60.237000
 30
0.0
 10
43.777800
 20
61.204000
 30
0.0
 10
43.895800
 20
62.179000
 30
0.0
 10
43.965800
 20
63.158000
 30
0.0
 10
43.987800
 20
64.139000
 30
0.0
 10
43.961800
 20
65.121000
 30
0.0
 10
43.887800
 20
66.099000
 30
0.0
 10
43.765800
 20
67.073000
 30
0.0
 10
43.595800
 20
68.040000
 30
0.0
 10
43.378800
 20
68.998000
 30
0.0
 10
43.114800
 20
69.943000
 30
0.0
 10
42.804800
 20
70.875000
 30
0.0
 10
42.449800
 20
71.790000
 30
0.0
 10
42.049800
 20
72.686000
 30
0.0
 10
41.606800
 20
73.562000
 30
0.0
 10
41.120800
 20
74.415000
 30
0.0
 10
40.593800
 20
75.244000
 30
0.0
 10
40.026800
 20
76.045000
 30
0.0
 10
39.421800
 20
76.818000
 30
0.0
 10
38.778800
 20
77.560000
 30
0.0
 10
38.099800
 20
78.269000
 30
0.0
 10
37.387800
 20
78.944000
 30
0.0
 10
36.642800
 20
79.584000
 30
0.0
 10
35.867800
 20
80.186000
 30
0.0
 10
35.063800
 20
80.750000
 30
0.0
 10
34.233800
 20
81.273000
 30
0.0
 10
33.378800
 20
81.755000
 30
0.0
 10
32.500800
 20
82.195000
 30
0.0
 10
31.602600
 20
82.591000
 30
0.0
 10
30.686000
 20
82.942000
 30
0.0
 10
29.753200
 20
83.248000
 30
0.0
 10
28.806600
 20
83.508000
 30
0.0
 10
27.848300
 20
83.721000
 30
0.0
 10
26.880800
 20
83.887000
 30
0.0
 10
25.906200
 20
84.005000
 30
0.0
 10
24.927100
 20
84.075000
 30
0.0
 10
23.945700
 20
84.097000
 30
0.0
 10
22.964400
 20
84.071000
 30
0.0
 10
21.985600
 20
83.996000
 30
0.0
 10
21.011500
 20
83.874000
 30
0.0
 10
20.044700
 20
83.704000
 30
0.0
 10
19.087400
 20
83.487000
 30
0.0
 10
18.141800
 20
83.223000
 30
0.0
 10
17.210400
 20
82.913000
 30
0.0
 10
16.295300
 20
82.558000
 30
0.0
 10
15.398700
 20
82.158000
 30
0.0
 10
14.522800
 20
81.715000
 30
0.0
 10
13.669700
 20
81.230000
 30
0.0
 10
12.841500
 20
80.703000
 30
0.0
 10
12.040100
 20
80.136000
 30
0.0
 10
11.267500
 20
79.530000
 30
0.0
 10
10.525500
 20
78.887000
 30
0.0
 10
9.815970
 20
78.209000
 30
0.0
 10
9.140570
 20
77.497000
 30
0.0
 10
8.500970
 20
76.752000
 30
0.0
 10
7.898670
 20
75.977000
 30
0.0
 10
7.335170
 20
75.173000
 30
0.0
 10
6.811770
 20
74.343000
 30
0.0
 10
6.329670
 20
73.487000
 30
0.0
 10
5.890170
 20
72.610000
 30
0.0
 10
5.494270
 20
71.711000
 30
0.0
 10
5.142970
 20
70.795000
 30
0.0
 10
4.836970
 20
69.862000
 30
0.0
 10
4.577170
 20
68.915000
 30
0.0
 10
4.364170
 20
67.957000
 30
0.0
 10
4.341270
 20
67.823000
 30
0.0
 10
7.006770
 20
64.895000
 30
0.0
 10
4.078270
 20
62.229000
 30
0.0
 10
4.088570
 20
62.094000
 30
0.0
 10
4.210770
 20
61.120000
 30
0.0
 10
4.380670
 20
60.153000
 30
0.0
 10
4.597770
 20
59.196000
 30
0.0
 10
4.861570
 20
58.251000
 30
0.0
 10
5.171470
 20
57.319000
 30
0.0
 10
5.526770
 20
56.404000
 30
0.0
 10
5.926470
 20
55.507000
 30
0.0
 10
6.369670
 20
54.631000
 30
0.0
 10
6.855370
 20
53.778000
 30
0.0
 10
7.382270
 20
52.950000
 30
0.0
 10
7.949170
 20
52.149000
 30
0.0
 10
8.554770
 20
51.376000
 30
0.0
 10
9.197570
 20
50.634000
 30
0.0
 10
9.875970
 20
49.925000
 30
0.0
 10
10.588400
 20
49.249000
 30
0.0
 10
11.333000
 20
48.610000
 30
0.0
 10
12.108200
 20
48.007000
 30
0.0
 10
12.912000
 20
47.444000
 30
0.0
 10
13.742400
 20
46.920000
 30
0.0
 10
14.597600
 20
46.438000
 30
0.0
 10
15.475300
 20
45.999000
 30
0.0
 10
16.373600
 20
45.603000
 30
0.0
 10
17.290200
 20
45.252000
 30
0.0
 10
18.223000
 20
44.946000
 30
0.0
 10
19.169600
 20
44.686000
 30
0.0
 10
20.127900
 20
44.473000
 30
0.0
 10
20.261500
 20
44.450000
 30
0.0
 10
23.189900
 20
47.116000
 30
0.0
 10
25.855500
 20
44.187000
 30
0.0
  0
LWPOLYLINE
  5
103
100
AcDbEntity
  8
Layer_1
 62
7
100
AcDbPolyline
 90
4
 70
1
 10
20.746000
 20
61.146000
 30
0.0
 10
21.037100
 20
67.339000
 30
0.0
 10
27.230200
 20
67.048000
 30
0.0
 10
26.939100
 20
60.855000
 30
0.0
  0
LWPOLYLINE
  5
104
100
AcDbEntity
  8
Layer_1
 62
7
100
AcDbPolyline
 90
124
 70
1
 10
109.490000
 20
2.346000
 30
0.0
 10
110.469000
 20
2.420000
 30
0.0
 10
111.443000
 20
2.542000
 30
0.0
 10
112.410000
 20
2.712000
 30
0.0
 10
113.367000
 20
2.929000
 30
0.0
 10
114.313000
 20
3.193000
 30
0.0
 10
115.244000
 20
3.503000
 30
0.0
 10
116.159000
 20
3.858000
 30
0.0
 10
117.056000
 20
4.258000
 30
0.0
 10
117.932000
 20
4.701000
 30
0.0
 10
118.785000
 20
5.187000
 30
0.0
 10
119.613000
 20
5.714000
 30
0.0
 10
119.724000
 20
5.792000
 30
0.0
 10
119.909000
 20
9.748000
 30
0.0
 10
123.865000
 20
9.562000
 30
0.0
 10
123.953000
 20
9.664000
 30
0.0
 10
124.556000
 20
10.440000
 30
0.0
 10
125.119000
 20
11.243000
 30
0.0
 10
125.643000
 20
12.074000
 30
0.0
 10
126.125000
 20
12.929000
 30
0.0
 10
126.564000
 20
13.807000
 30
0.0
 10
126.960000
 20
14.705000
 30
0.0
 10
127.311000
 20
15.622000
 30
0.0
 10
127.617000
 20
16.554000
 30
0.0
 10
127.877000
 20
17.501000
 30
0.0
 10
128.090000
 20
18.459000
 30
0.0
 10
128.256000
 20
19.427000
 30
0.0
 10
128.374000
 20
20.401000
 30
0.0
 10
128.444000
 20
21.381000
 30
0.0
 10
128.466000
 20
22.362000
 30
0.0
 10
128.440000
 20
23.343000
 30
0.0
 10
128.366000
 20
24.322000
 30
0.0
 10
128.244000
 20
25.296000
 30
0.0
 10
128.074000
 20
26.263000
 30
0.0
 10
127.857000
 20
27.220000
 30
0.0
 10
127.593000
 20
28.166000
 30
0.0
 10
127.283000
 20
29.097000
 30
0.0
 10
126.928000
 20
30.012000
 30
0.0
 10
126.528000
 20
30.909000
 30
0.0
 10
126.085000
 20
31.785000
 30
0.0
 10
125.599000
 20
32.638000
 30
0.0
 10
125.072000
 20
33.466000
 30
0.0
 10
124.505000
 20
34.268000
 30
0.0
 10
123.900000
 20
35.040000
 30
0.0
 10
123.257000
 20
35.782000
 30
0.0
 10
122.578000
 20
36.492000
 30
0.0
 10
121.866000
 20
37.167000
 30
0.0
 10
121.121000
 20
37.807000
 30
0.0
 10
120.346000
 20
38.409000
 30
0.0
 10
119.542000
 20
38.972000
 30
0.0
 10
118.712000
 20
39.496000
 30
0.0
 10
117.857000
 20
39.978000
 30
0.0
 10
116.979000
 20
40.417000
 30
0.0
 10
116.081000
 20
40.813000
 30
0.0
 10
115.165000
 20
41.165000
 30
0.0
 10
114.232000
 20
41.471000
 30
0.0
 10
113.285000
 20
41.730000
 30
0.0
 10
112.327000
 20
41.943000
 30
0.0
 10
111.359000
 20
42.109000
 30
0.0
 10
110.385000
 20
42.227000
 30
0.0
 10
109.406000
 20
42.297000
 30
0.0
 10
108.424000
 20
42.319000
 30
0.0
 10
107.443000
 20
42.293000
 30
0.0
 10
106.464000
 20
42.219000
 30
0.0
 10
105.490000
 20
42.097000
 30
0.0
 10
104.523000
 20
41.927000
 30
0.0
 10
103.566000
 20
41.710000
 30
0.0
 10
102.620000
 20
41.446000
 30
0.0
 10
101.689000
 20
41.136000
 30
0.0
 10
100.774000
 20
40.781000
 30
0.0
 10
99.877300
 20
40.381000
 30
0.0
 10
99.001400
 20
39.938000
 30
0.0
 10
98.148300
 20
39.452000
 30
0.0
 10
97.320100
 20
38.925000
 30
0.0
 10
96.518700
 20
38.358000
 30
0.0
 10
95.746100
 20
37.753000
 30
0.0
 10
95.004100
 20
37.110000
 30
0.0
 10
94.294600
 20
36.432000
 30
0.0
 10
93.619200
 20
35.719000
 30
0.0
 10
92.979600
 20
34.975000
 30
0.0
 10
92.377300
 20
34.199000
 30
0.0
 10
91.813800
 20
33.396000
 30
0.0
 10
91.290400
 20
32.565000
 30
0.0
 10
90.808300
 20
31.710000
 30
0.0
 10
90.368800
 20
30.832000
 30
0.0
 10
89.972900
 20
29.934000
 30
0.0
 10
89.621600
 20
29.017000
 30
0.0
 10
89.315600
 20
28.085000
 30
0.0
 10
89.055800
 20
27.138000
 30
0.0
 10
88.842800
 20
26.180000
 30
0.0
 10
88.819900
 20
26.046000
 30
0.0
 10
91.485400
 20
23.118000
 30
0.0
 10
88.556900
 20
20.452000
 30
0.0
 10
88.567200
 20
20.317000
 30
0.0
 10
88.689400
 20
19.343000
 30
0.0
 10
88.859300
 20
18.376000
 30
0.0
 10
89.076400
 20
17.419000
 30
0.0
 10
89.340200
 20
16.473000
 30
0.0
 10
89.650100
 20
15.542000
 30
0.0
 10
90.005400
 20
14.627000
 30
0.0
 10
90.405100
 20
13.730000
 30
0.0
 10
90.848300
 20
12.854000
 30
0.0
 10
91.334000
 20
12.001000
 30
0.0
 10
91.860900
 20
11.173000
 30
0.0
 10
92.427800
 20
10.371000
 30
0.0
 10
93.033400
 20
9.599000
 30
0.0
 10
93.676200
 20
8.857000
 30
0.0
 10
94.354600
 20
8.147000
 30
0.0
 10
95.067000
 20
7.472000
 30
0.0
 10
95.811600
 20
6.832000
 30
0.0
 10
96.586800
 20
6.230000
 30
0.0
 10
97.390600
 20
5.667000
 30
0.0
 10
98.221000
 20
5.143000
 30
0.0
 10
99.076200
 20
4.661000
 30
0.0
 10
99.953900
 20
4.222000
 30
0.0
 10
100.852000
 20
3.826000
 30
0.0
 10
101.769000
 20
3.474000
 30
0.0
 10
102.702000
 20
3.168000
 30
0.0
 10
103.648000
 20
2.909000
 30
0.0
 10
104.606000
 20
2.696000
 30
0.0
 10
105.574000
 20
2.530000
 30
0.0
 10
106.549000
 20
2.412000
 30
0.0
 10
107.528000
 20
2.342000
 30
0.0
 10
108.509000
 20
2.320000
 30
0.0
  0
LWPOLYLINE
  5
105
100
AcDbEntity
  8
Layer_1
 62
7
100
AcDbPolyline
 90
4
 70
1
 10
105.225000
 20
19.368000
 30
0.0
 10
105.516000
 20
25.562000
 30
0.0
 10
111.709000
 20
25.271000
 30
0.0
 10
111.418000
 20
19.077000
 30
0.0
  0
LWPOLYLINE
  5
106
100
AcDbEntity
  8
Layer_1
 62
7
100
AcDbPolyline
 90
124
 70
1
 10
67.259800
 20
44.976000
 30
0.0
 10
68.238600
 20
45.051000
 30
0.0
 10
69.212600
 20
45.173000
 30
0.0
 10
70.179500
 20
45.343000
 30
0.0
 10
71.136800
 20
45.560000
 30
0.0
 10
72.082400
 20
45.824000
 30
0.0
 10
73.013800
 20
46.133000
 30
0.0
 10
73.928900
 20
46.489000
 30
0.0
 10
74.825500
 20
46.888000
 30
0.0
 10
75.701800
 20
47.332000
 30
0.0
 10
76.554800
 20
47.817000
 30
0.0
 10
77.382800
 20
48.344000
 30
0.0
 10
78.183800
 20
48.911000
 30
0.0
 10
78.956800
 20
49.517000
 30
0.0
 10
79.698800
 20
50.159000
 30
0.0
 10
80.407800
 20
50.838000
 30
0.0
 10
81.083800
 20
51.550000
 30
0.0
 10
81.722800
 20
52.295000
 30
0.0
 10
82.325800
 20
53.070000
 30
0.0
 10
82.888800
 20
53.874000
 30
0.0
 10
83.412800
 20
54.704000
 30
0.0
 10
83.894800
 20
55.559000
 30
0.0
 10
84.333800
 20
56.437000
 30
0.0
 10
84.729800
 20
57.336000
 30
0.0
 10
85.080800
 20
58.252000
 30
0.0
 10
85.386800
 20
59.185000
 30
0.0
 10
85.646800
 20
60.132000
 30
0.0
 10
85.859800
 20
61.090000
 30
0.0
 10
85.882800
 20
61.223000
 30
0.0
 10
83.217800
 20
64.152000
 30
0.0
 10
86.145800
 20
66.817000
 30
0.0
 10
86.135800
 20
66.953000
 30
0.0
 10
86.013800
 20
67.927000
 30
0.0
 10
85.843800
 20
68.893000
 30
0.0
 10
85.626800
 20
69.851000
 30
0.0
 10
85.362800
 20
70.796000
 30
0.0
 10
85.052800
 20
71.728000
 30
0.0
 10
84.697800
 20
72.643000
 30
0.0
 10
84.297800
 20
73.539000
 30
0.0
 10
83.854800
 20
74.415000
 30
0.0
 10
83.368800
 20
75.268000
 30
0.0
 10
82.841800
 20
76.097000
 30
0.0
 10
82.274800
 20
76.898000
 30
0.0
 10
81.669800
 20
77.671000
 30
0.0
 10
81.026800
 20
78.413000
 30
0.0
 10
80.347800
 20
79.122000
 30
0.0
 10
79.635800
 20
79.797000
 30
0.0
 10
78.890800
 20
80.437000
 30
0.0
 10
78.115800
 20
81.039000
 30
0.0
 10
77.311800
 20
81.603000
 30
0.0
 10
76.481800
 20
82.126000
 30
0.0
 10
75.626800
 20
82.608000
 30
0.0
 10
74.748800
 20
83.048000
 30
0.0
 10
73.850600
 20
83.444000
 30
0.0
 10
72.934000
 20
83.795000
 30
0.0
 10
72.001200
 20
84.101000
 30
0.0
 10
71.054600
 20
84.361000
 30
0.0
 10
70.096300
 20
84.574000
 30
0.0
 10
69.128800
 20
84.740000
 30
0.0
 10
68.154200
 20
84.858000
 30
0.0
 10
67.175100
 20
84.928000
 30
0.0
 10
66.193700
 20
84.950000
 30
0.0
 10
65.212400
 20
84.924000
 30
0.0
 10
64.233600
 20
84.849000
 30
0.0
 10
63.259500
 20
84.727000
 30
0.0
 10
62.292700
 20
84.557000
 30
0.0
 10
61.335400
 20
84.340000
 30
0.0
 10
60.389800
 20
84.076000
 30
0.0
 10
59.458400
 20
83.766000
 30
0.0
 10
58.543300
 20
83.411000
 30
0.0
 10
57.646700
 20
83.012000
 30
0.0
 10
56.770800
 20
82.568000
 30
0.0
 10
55.917700
 20
82.083000
 30
0.0
 10
55.089500
 20
81.556000
 30
0.0
 10
54.288100
 20
80.989000
 30
0.0
 10
53.515500
 20
80.383000
 30
0.0
 10
52.773500
 20
79.740000
 30
0.0
 10
52.064000
 20
79.062000
 30
0.0
 10
51.388600
 20
78.350000
 30
0.0
 10
50.749000
 20
77.605000
 30
0.0
 10
50.146700
 20
76.830000
 30
0.0
 10
49.583200
 20
76.026000
 30
0.0
 10
49.059800
 20
75.196000
 30
0.0
 10
48.577700
 20
74.340000
 30
0.0
 10
48.138200
 20
73.463000
 30
0.0
 10
47.742300
 20
72.564000
 30
0.0
 10
47.391000
 20
71.648000
 30
0.0
 10
47.085000
 20
70.715000
 30
0.0
 10
46.825200
 20
69.768000
 30
0.0
 10
46.612200
 20
68.810000
 30
0.0
 10
46.589300
 20
68.677000
 30
0.0
 10
49.254800
 20
65.748000
 30
0.0
 10
46.326300
 20
63.082000
 30
0.0
 10
46.336600
 20
62.947000
 30
0.0
 10
46.458800
 20
61.973000
 30
0.0
 10
46.628700
 20
61.007000
 30
0.0
 10
46.845800
 20
60.049000
 30
0.0
 10
47.109600
 20
59.104000
 30
0.0
 10
47.419500
 20
58.172000
 30
0.0
 10
47.774800
 20
57.257000
 30
0.0
 10
48.174500
 20
56.360000
 30
0.0
 10
48.617700
 20
55.485000
 30
0.0
 10
49.103400
 20
54.631000
 30
0.0
 10
49.630300
 20
53.803000
 30
0.0
 10
50.197200
 20
53.002000
 30
0.0
 10
50.802800
 20
52.229000
 30
0.0
 10
51.445600
 20
51.487000
 30
0.0
 10
52.124000
 20
50.778000
 30
0.0
 10
52.836400
 20
50.102000
 30
0.0
 10
53.581000
 20
49.463000
 30
0.0
 10
54.356200
 20
48.861000
 30
0.0
 10
55.160000
 20
48.297000
 30
0.0
 10
55.990400
 20
47.774000
 30
0.0
 10
56.845600
 20
47.292000
 30
0.0
 10
57.723300
 20
46.852000
 30
0.0
 10
58.621600
 20
46.456000
 30
0.0
 10
59.538200
 20
46.105000
 30
0.0
 10
60.471000
 20
45.799000
 30
0.0
 10
61.417600
 20
45.539000
 30
0.0
 10
62.375900
 20
45.326000
 30
0.0
 10
63.343400
 20
45.160000
 30
0.0
 10
64.318000
 20
45.042000
 30
0.0
 10
65.297100
 20
44.972000
 30
0.0
 10
66.278500
 20
44.950000
 30
0.0
  0
LWPOLYLINE
  5
107
100
AcDbEntity
  8
Layer_1
 62
7
100
AcDbPolyline
 90
4
 70
1
 10
62.994000
 20
61.999000
 30
0.0
 10
63.285100
 20
68.192000
 30
0.0
 10
69.478200
 20
67.901000
 30
0.0
 10
69.187100
 20
61.708000
 30
0.0
  0
LWPOLYLINE
  5
108
100
AcDbEntity
  8
Layer_1
 62
7
100
AcDbPolyline
 90
124
 70
1
 10
23.989900
 20
2.312000
 30
0.0
 10
24.968700
 20
2.387000
 30
0.0
 10
25.942700
 20
2.509000
 30
0.0
 10
26.909600
 20
2.679000
 30
0.0
 10
27.866900
 20
2.896000
 30
0.0
 10
28.812500
 20
3.160000
 30
0.0
 10
29.743900
 20
3.470000
 30
0.0
 10
30.659000
 20
3.825000
 30
0.0
 10
31.555600
 20
4.224000
 30
0.0
 10
32.431900
 20
4.668000
 30
0.0
 10
33.284900
 20
5.153000
 30
0.0
 10
34.112900
 20
5.680000
 30
0.0
 10
34.913900
 20
6.247000
 30
0.0
 10
35.686900
 20
6.853000
 30
0.0
 10
36.428900
 20
7.496000
 30
0.0
 10
37.137900
 20
8.174000
 30
0.0
 10
37.813900
 20
8.886000
 30
0.0
 10
38.452900
 20
9.631000
 30
0.0
 10
39.055900
 20
10.406000
 30
0.0
 10
39.618900
 20
11.210000
 30
0.0
 10
40.142900
 20
12.040000
 30
0.0
 10
40.624900
 20
12.896000
 30
0.0
 10
41.063900
 20
13.773000
 30
0.0
 10
41.459900
 20
14.672000
 30
0.0
 10
41.810900
 20
15.588000
 30
0.0
 10
42.116900
 20
16.521000
 30
0.0
 10
42.376900
 20
17.468000
 30
0.0
 10
42.589900
 20
18.426000
 30
0.0
 10
42.755900
 20
19.393000
 30
0.0
 10
42.873900
 20
20.368000
 30
0.0
 10
42.943900
 20
21.347000
 30
0.0
 10
42.965900
 20
22.329000
 30
0.0
 10
42.939900
 20
23.310000
 30
0.0
 10
42.865900
 20
24.289000
 30
0.0
 10
42.743900
 20
25.263000
 30
0.0
 10
42.573900
 20
26.229000
 30
0.0
 10
42.356900
 20
27.187000
 30
0.0
 10
42.092900
 20
28.132000
 30
0.0
 10
41.782900
 20
29.064000
 30
0.0
 10
41.427900
 20
29.979000
 30
0.0
 10
41.027900
 20
30.876000
 30
0.0
 10
40.584900
 20
31.751000
 30
0.0
 10
40.098900
 20
32.605000
 30
0.0
 10
39.571900
 20
33.433000
 30
0.0
 10
39.493900
 20
33.543000
 30
0.0
 10
35.537900
 20
33.729000
 30
0.0
 10
35.723900
 20
37.685000
 30
0.0
 10
35.620900
 20
37.773000
 30
0.0
 10
34.845900
 20
38.375000
 30
0.0
 10
34.041900
 20
38.939000
 30
0.0
 10
33.211900
 20
39.462000
 30
0.0
 10
32.356900
 20
39.944000
 30
0.0
 10
31.478900
 20
40.384000
 30
0.0
 10
30.580700
 20
40.780000
 30
0.0
 10
29.664100
 20
41.131000
 30
0.0
 10
28.731300
 20
41.437000
 30
0.0
 10
27.784700
 20
41.697000
 30
0.0
 10
26.826400
 20
41.910000
 30
0.0
 10
25.858900
 20
42.076000
 30
0.0
 10
24.884300
 20
42.194000
 30
0.0
 10
23.905200
 20
42.264000
 30
0.0
 10
22.923800
 20
42.286000
 30
0.0
 10
21.942500
 20
42.260000
 30
0.0
 10
20.963700
 20
42.186000
 30
0.0
 10
19.989600
 20
42.063000
 30
0.0
 10
19.022800
 20
41.893000
 30
0.0
 10
18.065500
 20
41.676000
 30
0.0
 10
17.119900
 20
41.412000
 30
0.0
 10
16.188500
 20
41.103000
 30
0.0
 10
15.273400
 20
40.747000
 30
0.0
 10
14.376800
 20
40.348000
 30
0.0
 10
13.500900
 20
39.904000
 30
0.0
 10
12.647800
 20
39.419000
 30
0.0
 10
11.819600
 20
38.892000
 30
0.0
 10
11.018200
 20
38.325000
 30
0.0
 10
10.245600
 20
37.719000
 30
0.0
 10
9.503600
 20
37.077000
 30
0.0
 10
8.794100
 20
36.398000
 30
0.0
 10
8.118700
 20
35.686000
 30
0.0
 10
7.479100
 20
34.941000
 30
0.0
 10
6.876800
 20
34.166000
 30
0.0
 10
6.313300
 20
33.362000
 30
0.0
 10
5.789900
 20
32.532000
 30
0.0
 10
5.307800
 20
31.677000
 30
0.0
 10
4.868300
 20
30.799000
 30
0.0
 10
4.472400
 20
29.900000
 30
0.0
 10
4.121100
 20
28.984000
 30
0.0
 10
3.815100
 20
28.051000
 30
0.0
 10
3.555300
 20
27.104000
 30
0.0
 10
3.342300
 20
26.146000
 30
0.0
 10
3.319400
 20
26.013000
 30
0.0
 10
5.984900
 20
23.084000
 30
0.0
 10
3.056400
 20
20.419000
 30
0.0
 10
3.066700
 20
20.283000
 30
0.0
 10
3.188900
 20
19.309000
 30
0.0
 10
3.358800
 20
18.343000
 30
0.0
 10
3.575900
 20
17.385000
 30
0.0
 10
3.839700
 20
16.440000
 30
0.0
 10
4.149600
 20
15.508000
 30
0.0
 10
4.504900
 20
14.593000
 30
0.0
 10
4.904600
 20
13.697000
 30
0.0
 10
5.347800
 20
12.821000
 30
0.0
 10
5.833500
 20
11.968000
 30
0.0
 10
6.360400
 20
11.139000
 30
0.0
 10
6.927300
 20
10.338000
 30
0.0
 10
7.532900
 20
9.565000
 30
0.0
 10
8.175700
 20
8.823000
 30
0.0
 10
8.854100
 20
8.114000
 30
0.0
 10
9.566500
 20
7.439000
 30
0.0
 10
10.311100
 20
6.799000
 30
0.0
 10
11.086300
 20
6.197000
 30
0.0
 10
11.890100
 20
5.633000
 30
0.0
 10
12.720500
 20
5.110000
 30
0.0
 10
13.575700
 20
4.628000
 30
0.0
 10
14.453400
 20
4.188000
 30
0.0
 10
15.351700
 20
3.792000
 30
0.0
 10
16.268300
 20
3.441000
 30
0.0
 10
17.201100
 20
3.135000
 30
0.0
 10
18.147700
 20
2.875000
 30
0.0
 10
19.106000
 20
2.662000
 30
0.0
 10
20.073500
 20
2.496000
 30
0.0
 10
21.048100
 20
2.378000
 30
0.0
 10
22.027200
 20
2.308000
 30
0.0
 10
23.008600
 20
2.286000
 30
0.0
  0
LWPOLYLINE
  5
109
100
AcDbEntity
  8
Layer_1
 62
7
100
AcDbPolyline
 90
4
 70
1
 10
19.724100
 20
19.335000
 30
0.0
 10
20.015200
 20
25.528000
 30
0.0
 10
26.208300
 20
25.237000
 30
0.0
 10
25.917200
 20
19.044000
 30
0.0
  0
LWPOLYLINE
  5
10a
100
AcDbEntity
  8
Layer_1
 62
7
100
AcDbPolyline
 90
124
 70
1
 10
109.949000
 20
44.327000
 30
0.0
 10
110.927000
 20
44.401000
 30
0.0
 10
111.901000
 20
44.523000
 30
0.0
 10
112.868000
 20
44.693000
 30
0.0
 10
113.826000
 20
44.910000
 30
0.0
 10
114.771000
 20
45.174000
 30
0.0
 10
115.703000
 20
45.484000
 30
0.0
 10
116.618000
 20
45.839000
 30
0.0
 10
117.514000
 20
46.239000
 30
0.0
 10
118.391000
 20
46.682000
 30
0.0
 10
119.244000
 20
47.168000
 30
0.0
 10
120.072000
 20
47.695000
 30
0.0
 10
120.873000
 20
48.262000
 30
0.0
 10
121.646000
 20
48.867000
 30
0.0
 10
122.388000
 20
49.510000
 30
0.0
 10
123.097000
 20
50.188000
 30
0.0
 10
123.773000
 20
50.901000
 30
0.0
 10
124.412000
 20
51.645000
 30
0.0
 10
125.015000
 20
52.421000
 30
0.0
 10
125.578000
 20
53.224000
 30
0.0
 10
126.102000
 20
54.055000
 30
0.0
 10
126.584000
 20
54.910000
 30
0.0
 10
127.023000
 20
55.788000
 30
0.0
 10
127.419000
 20
56.686000
 30
0.0
 10
127.770000
 20
57.603000
 30
0.0
 10
128.076000
 20
58.535000
 30
0.0
 10
128.336000
 20
59.482000
 30
0.0
 10
128.549000
 20
60.440000
 30
0.0
 10
128.715000
 20
61.408000
 30
0.0
 10
128.833000
 20
62.382000
 30
0.0
 10
128.903000
 20
63.361000
 30
0.0
 10
128.925000
 20
64.343000
 30
0.0
 10
128.899000
 20
65.324000
 30
0.0
 10
128.825000
 20
66.303000
 30
0.0
 10
128.703000
 20
67.277000
 30
0.0
 10
128.533000
 20
68.244000
 30
0.0
 10
128.316000
 20
69.201000
 30
0.0
 10
128.052000
 20
70.147000
 30
0.0
 10
127.742000
 20
71.078000
 30
0.0
 10
127.387000
 20
71.993000
 30
0.0
 10
126.987000
 20
72.890000
 30
0.0
 10
126.544000
 20
73.766000
 30
0.0
 10
126.058000
 20
74.619000
 30
0.0
 10
125.531000
 20
75.447000
 30
0.0
 10
124.964000
 20
76.248000
 30
0.0
 10
124.359000
 20
77.021000
 30
0.0
 10
123.716000
 20
77.763000
 30
0.0
 10
123.037000
 20
78.472000
 30
0.0
 10
122.325000
 20
79.148000
 30
0.0
 10
121.580000
 20
79.787000
 30
0.0
 10
120.805000
 20
80.390000
 30
0.0
 10
120.001000
 20
80.953000
 30
0.0
 10
119.171000
 20
81.477000
 30
0.0
 10
118.316000
 20
81.959000
 30
0.0
 10
117.438000
 20
82.398000
 30
0.0
 10
116.539000
 20
82.794000
 30
0.0
 10
115.623000
 20
83.146000
 30
0.0
 10
114.690000
 20
83.451000
 30
0.0
 10
113.743000
 20
83.711000
 30
0.0
 10
112.785000
 20
83.924000
 30
0.0
 10
112.651000
 20
83.947000
 30
0.0
 10
109.723000
 20
81.282000
 30
0.0
 10
107.057000
 20
84.210000
 30
0.0
 10
106.922000
 20
84.200000
 30
0.0
 10
105.948000
 20
84.078000
 30
0.0
 10
104.981000
 20
83.908000
 30
0.0
 10
104.024000
 20
83.691000
 30
0.0
 10
103.079000
 20
83.427000
 30
0.0
 10
102.147000
 20
83.117000
 30
0.0
 10
101.232000
 20
82.762000
 30
0.0
 10
100.335000
 20
82.362000
 30
0.0
 10
99.459500
 20
81.919000
 30
0.0
 10
98.606400
 20
81.433000
 30
0.0
 10
97.778200
 20
80.906000
 30
0.0
 10
96.976800
 20
80.339000
 30
0.0
 10
96.204200
 20
79.734000
 30
0.0
 10
95.462200
 20
79.091000
 30
0.0
 10
94.752700
 20
78.412000
 30
0.0
 10
94.077300
 20
77.700000
 30
0.0
 10
93.437700
 20
76.955000
 30
0.0
 10
92.835400
 20
76.180000
 30
0.0
 10
92.271900
 20
75.376000
 30
0.0
 10
91.748500
 20
74.546000
 30
0.0
 10
91.266400
 20
73.691000
 30
0.0
 10
90.826900
 20
72.813000
 30
0.0
 10
90.431000
 20
71.915000
 30
0.0
 10
90.079700
 20
70.998000
 30
0.0
 10
89.773700
 20
70.066000
 30
0.0
 10
89.513900
 20
69.119000
 30
0.0
 10
89.300900
 20
68.161000
 30
0.0
 10
89.278000
 20
68.027000
 30
0.0
 10
91.943500
 20
65.099000
 30
0.0
 10
89.015000
 20
62.433000
 30
0.0
 10
89.025300
 20
62.298000
 30
0.0
 10
89.147500
 20
61.324000
 30
0.0
 10
89.317400
 20
60.357000
 30
0.0
 10
89.534500
 20
59.400000
 30
0.0
 10
89.798300
 20
58.454000
 30
0.0
 10
90.108200
 20
57.523000
 30
0.0
 10
90.463500
 20
56.608000
 30
0.0
 10
90.863200
 20
55.711000
 30
0.0
 10
91.306400
 20
54.835000
 30
0.0
 10
91.792100
 20
53.982000
 30
0.0
 10
92.319000
 20
53.154000
 30
0.0
 10
92.885900
 20
52.352000
 30
0.0
 10
93.491500
 20
51.580000
 30
0.0
 10
94.134300
 20
50.838000
 30
0.0
 10
94.812700
 20
50.128000
 30
0.0
 10
95.525100
 20
49.453000
 30
0.0
 10
96.269700
 20
48.813000
 30
0.0
 10
97.044900
 20
48.211000
 30
0.0
 10
97.848700
 20
47.647000
 30
0.0
 10
98.679100
 20
47.124000
 30
0.0
 10
99.534300
 20
46.642000
 30
0.0
 10
100.412000
 20
46.203000
 30
0.0
 10
101.310000
 20
45.807000
 30
0.0
 10
102.227000
 20
45.455000
 30
0.0
 10
103.160000
 20
45.149000
 30
0.0
 10
104.106000
 20
44.890000
 30
0.0
 10
105.065000
 20
44.676000
 30
0.0
 10
106.032000
 20
44.511000
 30
0.0
 10
107.007000
 20
44.393000
 30
0.0
 10
107.986000
 20
44.322000
 30
0.0
 10
108.967000
 20
44.300000
 30
0.0
  0
LWPOLYLINE
  5
10b
100
AcDbEntity
  8
Layer_1
 62
7
100
AcDbPolyline
 90
4
 70
1
 10
105.683000
 20
61.349000
 30
0.0
 10
105.974000
 20
67.543000
 30
0.0
 10
112.167000
 20
67.251000
 30
0.0
 10
111.876000
 20
61.058000
 30
0.0
  0
ENDSEC
  0
SECTION
  2
OBJECTS
  0
DICTIONARY
  5
C
330
0
100
AcDbDictionary
  3
ACAD_GROUP
350
D
  3
ACAD_MLINESTYLE
350
17
  0
DICTIONARY
  5
D
330
C
100
AcDbDictionary
  0
DICTIONARY
  5
1A
330
C
100
AcDbDictionary
  0
DICTIONARY
  5
17
330
C
100
AcDbDictionary
  3
STANDARD
350
18
  0
DICTIONARY
  5
19
330
C
100
AcDbDictionary
  0
ENDSEC
  0
EOF
